<?xml version="1.0" standalone="no"?>
<!DOCTYPE svg PUBLIC "-//W3C//DTD SVG 1.1//EN" "http://www.w3.org/Graphics/SVG/1.1/DTD/svg11.dtd" >
<svg xmlns="http://www.w3.org/2000/svg" xmlns:xlink="http://www.w3.org/1999/xlink" version="1.1">
<metadata>
Created by FontForge 20170731 at Mon Nov 15 18:57:18 2021
 By Aleksey,,,
</metadata>
<defs>
<font id="NanumSquareOTFL00" horiz-adv-x="1863" vert-adv-y="2048" >
  <font-face 
    font-family="NanumSquareOTFL00"
    font-weight="200"
    font-stretch="normal"
    units-per-em="2048"
    panose-1="2 0 3 3 0 0 0 0 0 0"
    ascent="1638"
    descent="-410"
    x-height="1038"
    cap-height="1423"
    bbox="-154 -510 2304 1726"
    underline-thickness="102"
    underline-position="-307"
    unicode-range="U+0020-FFE6"
  />
<missing-glyph vert-adv-y="2263" 
d="M1751 1550v-1843h-1638v1843h1638zM1618 -219l-686 788l-686 -788h1372zM195 1417v-1573l684 787zM248 1477l682 -787l684 787h-1366zM1669 -158v1577l-684 -790z" />
    <glyph glyph-name=".notdef" vert-adv-y="2263" 
d="M1751 1550v-1843h-1638v1843h1638zM1618 -219l-686 788l-686 -788h1372zM195 1417v-1573l684 787zM248 1477l682 -787l684 787h-1366zM1669 -158v1577l-684 -790z" />
    <glyph glyph-name=".null" horiz-adv-x="0" vert-adv-y="0" 
 />
    <glyph glyph-name="nonmarkingreturn" horiz-adv-x="682" 
 />
    <glyph glyph-name="space" unicode=" " horiz-adv-x="512" vert-adv-y="2263" 
 />
    <glyph glyph-name="exclam" unicode="!" horiz-adv-x="532" vert-adv-y="2263" 
d="M195 -102v172h143v-172h-143zM313 297h-94l-6 1155h106z" />
    <glyph glyph-name="quotedbl" unicode="&#x22;" horiz-adv-x="729" vert-adv-y="2263" 
d="M274 999h-73l-17 488h107zM528 999h-73l-17 488h107z" />
    <glyph glyph-name="numbersign" unicode="#" horiz-adv-x="1134" vert-adv-y="2263" 
d="M778 508h232v-78h-240l-70 -483h-77l69 483h-321l-68 -483h-80l70 483h-232v78h240l51 364h-227v78h237l68 473h78l-68 -473h320l67 473h80l-69 -473h235v-78h-244zM700 508l52 364h-322l-51 -364h321z" />
    <glyph glyph-name="dollar" unicode="$" horiz-adv-x="1187" vert-adv-y="2263" 
d="M563 -190v159q-271 9 -467 156l49 70q189 -142 418 -146v617l-20 6q-92 22 -161 46t-113.5 51.5t-72.5 54.5t-42 61t-18.5 63.5t-4.5 69.5v47q0 84 38.5 149t102.5 103t137.5 58.5t153.5 23.5v139h74v-139q234 -11 389 -121l-47 -66q-155 99 -342 107v-584
q136 -36 218 -67.5t134.5 -74t72 -93t19.5 -125.5v-53q0 -142 -119 -241.5t-325 -109.5v-161h-74zM997 373q0 71 -26.5 114.5t-104 82.5t-229.5 79v-598q164 10 262 87t98 186v49zM215 1020q0 -51 12 -84.5t49 -66t105.5 -59.5t181.5 -56v565q-62 -3 -120 -19t-111 -45
t-85 -78.5t-32 -113.5v-43z" />
    <glyph glyph-name="percent" unicode="%" horiz-adv-x="1724" vert-adv-y="2263" 
d="M463 -51h-90l895 1474h88zM451 1434q146 0 226.5 -87t80.5 -247v-99q0 -160 -80.5 -246.5t-226.5 -86.5t-227 86.5t-81 246.5v99q0 160 81 247t227 87zM451 743q225 0 225 263v90q0 140 -62 201t-163 61t-163.5 -61t-62.5 -201v-90q0 -73 18 -126t50 -82t71 -42t87 -13z
M1274 696q146 0 226.5 -87t80.5 -247v-98q0 -160 -80.5 -247t-226.5 -87t-226.5 87t-80.5 247v98q0 160 80.5 247t226.5 87zM1274 6q225 0 225 262v90q0 141 -62 202t-163 61t-163 -61t-62 -202v-90q0 -262 225 -262z" />
    <glyph glyph-name="ampersand" unicode="&#x26;" horiz-adv-x="1333" vert-adv-y="2263" 
d="M1178 -53l-164 188q-185 -211 -475 -211h-13q-123 0 -228 44t-167.5 123.5t-62.5 176.5v51q0 50 8.5 89.5t30 76.5t50 67.5t77.5 66t103 68t136 77.5l-41 49q-94 112 -121 152q-59 91 -59 176v30q0 49 20.5 96t60.5 88t108 66t153 25q81 0 147.5 -25t107.5 -65t63 -86.5
t22 -93.5v-39q0 -107 -73.5 -196t-264.5 -198l414 -483q117 184 120 438h80q-6 -297 -147 -501l215 -250h-100zM535 0q265 0 428 197l-439 508q-173 -97 -227 -137q-113 -83 -137 -185q-8 -33 -8 -72v-37q0 -112 110 -193t273 -81zM334 1145q0 -24 4.5 -47t17.5 -48t23 -43
t34 -48t37.5 -46.5t46.5 -54t48 -55.5q173 97 241 173t68 169v22q0 89 -71 146t-189 57q-117 0 -188.5 -55.5t-71.5 -147.5v-22z" />
    <glyph glyph-name="quotesingle" unicode="'" horiz-adv-x="475" vert-adv-y="2263" 
d="M274 999h-73l-17 488h107z" />
    <glyph glyph-name="parenleft" unicode="(" horiz-adv-x="591" vert-adv-y="2263" 
d="M231 664v-103q0 -519 285 -909h-86q-149 177 -224 415t-75 504v82q0 266 75 502t224 414h86q-285 -383 -285 -905z" />
    <glyph glyph-name="parenright" unicode=")" horiz-adv-x="591" vert-adv-y="2263" 
d="M360 561v103q0 524 -284 905h86q149 -178 224 -414t75 -502v-82q0 -266 -75 -504t-224 -415h-86q284 389 284 909z" />
    <glyph glyph-name="asterisk" unicode="*" horiz-adv-x="911" vert-adv-y="2263" 
d="M424 1036l-289 -180l-43 76l307 162l-307 159l43 76l289 -180l-16 344h94l-15 -344l291 180l41 -76l-307 -159l307 -162l-41 -76l-291 180l15 -342h-94z" />
    <glyph glyph-name="plus" unicode="+" horiz-adv-x="1228" vert-adv-y="2263" 
d="M569 1157h90v-459h447v-86h-447v-487h-90v487h-446v86h446v459z" />
    <glyph glyph-name="comma" unicode="," horiz-adv-x="401" vert-adv-y="2263" 
d="M80 -358l74 456h137l-121 -456h-90z" />
    <glyph glyph-name="hyphen" unicode="-" horiz-adv-x="827" vert-adv-y="2263" 
d="M109 639v90h610v-90h-610z" />
    <glyph glyph-name="period" unicode="." horiz-adv-x="401" vert-adv-y="2263" 
d="M119 -90v176h164v-176h-164z" />
    <glyph glyph-name="slash" unicode="/" horiz-adv-x="704" vert-adv-y="2263" 
d="M614 1550h91l-615 -1800h-90z" />
    <glyph glyph-name="zero" unicode="0" horiz-adv-x="1208" vert-adv-y="2263" 
d="M1085 801v-230q0 -323 -115 -485t-370 -162q-251 0 -364 163t-113 484v230q0 319 114.5 482t362.5 163q251 0 368 -163.5t117 -481.5zM997 569v234q0 281 -92.5 421t-304.5 140q-206 0 -297.5 -141t-91.5 -420v-234q0 -283 91 -423t298 -140q212 0 304.5 139.5
t92.5 423.5z" />
    <glyph glyph-name="one" unicode="1" horiz-adv-x="1208" vert-adv-y="2263" 
d="M754 -53h-90v1353l-414 -249l-41 71l491 301h54v-1476z" />
    <glyph glyph-name="two" unicode="2" horiz-adv-x="1208" vert-adv-y="2263" 
d="M174 23l623 729q92 108 117.5 171.5t25.5 145.5v16q0 131 -84 205t-240 74q-118 0 -208.5 -57.5t-161.5 -184.5l-74 43q151 281 440 281q188 0 302 -96t114 -260v-21q0 -99 -36 -177.5t-132 -193.5l-563 -665h786v-86h-909v76z" />
    <glyph glyph-name="three" unicode="3" horiz-adv-x="1208" vert-adv-y="2263" 
d="M266 1167l-71 50q54 95 161 162t256 67q192 0 309 -101.5t117 -267.5v-20q0 -48 -13 -93t-41.5 -92t-83 -86.5t-130.5 -64.5q154 -26 240 -118t86 -224v-31q0 -64 -15.5 -123t-52 -114.5t-91 -96.5t-138.5 -65.5t-189 -24.5q-268 0 -473 164l51 76q191 -156 422 -156
q87 0 156.5 22t113.5 56.5t73 80t41 90t12 89.5v27q0 74 -27 130.5t-67 88t-94 51.5t-99.5 26.5t-91.5 6.5h-164v82h160q42 0 85 10t86.5 33.5t77.5 57.5t55 87t21 117v16q0 127 -89 205t-245 78q-225 0 -348 -195z" />
    <glyph glyph-name="four" unicode="4" horiz-adv-x="1208" vert-adv-y="2263" 
d="M850 864h90v-487h229v-88h-229v-342h-90v342h-754v88l740 1046h106l-741 -1046h649v487z" />
    <glyph glyph-name="five" unicode="5" horiz-adv-x="1208" vert-adv-y="2263" 
d="M1010 356v35q0 369 -369 369q-180 0 -315 -135h-103l47 798h738v-84h-656l-35 -624q56 56 145.5 92.5t188.5 36.5q203 0 326 -116t123 -331v-39q0 -62 -15.5 -121.5t-52 -117t-90.5 -100.5t-138.5 -69t-189.5 -26q-268 0 -473 164l52 76q191 -156 421 -156q86 0 156 23
t113.5 59t73 83t41.5 92.5t12 90.5z" />
    <glyph glyph-name="six" unicode="6" horiz-adv-x="1208" vert-adv-y="2263" 
d="M1044 1346l-38 -72q-146 90 -320 90q-98 0 -173 -35t-125 -96t-84 -154.5t-51 -200t-24 -243.5q46 113 159.5 178.5t250.5 65.5q207 0 332 -120.5t125 -328.5v-45q0 -145 -64 -251t-168.5 -158t-234.5 -52q-98 0 -183 35t-154 106t-109 191.5t-40 278.5v36
q0 230 35.5 398t105 272.5t168 154.5t228.5 50q203 0 364 -100zM246 438v-12q0 -186 109.5 -303t273.5 -117q165 0 271 100t106 281v27q0 185 -96 286t-277 101q-170 0 -278.5 -105.5t-108.5 -257.5z" />
    <glyph glyph-name="seven" unicode="7" horiz-adv-x="1208" vert-adv-y="2263" 
d="M1104 1360l-623 -1413h-100l623 1392h-867v84h967v-63z" />
    <glyph glyph-name="eight" unicode="8" horiz-adv-x="1208" vert-adv-y="2263" 
d="M264 1073v-26q0 -134 92.5 -221t249.5 -87q156 0 247 87t91 221v26q0 127 -91.5 209t-248.5 82q-162 0 -251 -81.5t-89 -209.5zM221 338v-27q0 -129 102.5 -217t280.5 -88q180 0 281.5 87.5t101.5 217.5v27q0 147 -106 236.5t-277 89.5q-169 0 -276 -88t-107 -238z
M135 313v35q0 124 77.5 220t217.5 132q-114 49 -181 136.5t-67 212.5v36q0 158 120 259.5t302 101.5t302 -101.5t120 -259.5v-36q0 -126 -69 -215t-183 -134q144 -37 221.5 -132t77.5 -220v-35q0 -175 -131.5 -282t-337.5 -107t-337.5 107t-131.5 282z" />
    <glyph glyph-name="nine" unicode="9" horiz-adv-x="1208" vert-adv-y="2263" 
d="M176 25l39 71q146 -90 320 -90q242 0 344.5 174t111.5 549q-46 -113 -159 -178.5t-250 -65.5q-207 0 -332 120.5t-125 328.5v51q0 145 64 251t168.5 158t234.5 52q80 0 150.5 -21t132.5 -67.5t106.5 -115.5t70 -172t25.5 -230v-52q0 -197 -24 -345.5t-68 -246.5
t-111.5 -159.5t-148 -87t-184.5 -25.5q-203 0 -365 101zM975 926v18q0 190 -107 305t-276 115q-165 0 -271 -100t-106 -281v-33q0 -185 96 -286t277 -101q170 0 278.5 105.5t108.5 257.5z" />
    <glyph glyph-name="colon" unicode=":" horiz-adv-x="524" vert-adv-y="2263" 
d="M176 66v184h172v-184h-172zM176 963v184h172v-184h-172z" />
    <glyph glyph-name="semicolon" unicode=";" horiz-adv-x="524" vert-adv-y="2263" 
d="M176 963v184h172v-184h-172zM127 -195l74 457h137l-121 -457h-90z" />
    <glyph glyph-name="less" unicode="&#x3c;" horiz-adv-x="1208" vert-adv-y="2263" 
d="M223 662v-5l869 -458v-97l-959 516v80l959 516v-96z" />
    <glyph glyph-name="equal" unicode="=" horiz-adv-x="1208" vert-adv-y="2263" 
d="M152 825v93h905v-93h-905zM152 393v92h905v-92h-905z" />
    <glyph glyph-name="greater" unicode="&#x3e;" horiz-adv-x="1208" vert-adv-y="2263" 
d="M985 657v5l-868 456v96l958 -516v-80l-958 -516v97z" />
    <glyph glyph-name="question" unicode="?" horiz-adv-x="1019" vert-adv-y="2263" 
d="M506 289h-90v98q0 59 22.5 113t58.5 97t80 84t87.5 81.5t79.5 81.5t58.5 91.5t22.5 104.5v39q0 135 -92.5 208t-228.5 73q-108 0 -194 -40t-163 -122l-59 59q72 79 177 134t235 55q192 0 303.5 -98.5t111.5 -266.5v-41q0 -64 -22.5 -121.5t-58.5 -101.5t-80 -85.5
t-87.5 -81t-79.5 -79t-58.5 -88.5t-22.5 -102v-92zM389 -102v172h143v-172h-143z" />
    <glyph glyph-name="at" unicode="@" horiz-adv-x="1992" vert-adv-y="2263" 
d="M1532 98q-87 0 -155.5 45t-96.5 133h-2q-20 -46 -59.5 -82t-86.5 -55t-91 -28t-83 -9q-172 0 -266 103.5t-94 290.5v157q0 184 101 287.5t266 103.5q94 0 177 -35.5t120 -95.5v115h92v-676q0 -81 53.5 -124.5t126.5 -43.5q42 0 79 13t71 44t58.5 77.5t39 119t14.5 164.5
v29q0 178 -50.5 321t-149.5 247.5t-256.5 161t-362.5 56.5q-175 0 -320.5 -57.5t-247.5 -162.5t-158 -256.5t-56 -334.5v-35q0 -255 92 -442.5t278.5 -293t450.5 -105.5q346 0 602 137l35 -78q-264 -143 -631 -143q-421 0 -668.5 247t-247.5 676v39q0 258 103.5 459.5
t302.5 317.5t465 116q219 0 392.5 -63.5t285.5 -178.5t170.5 -272.5t58.5 -349.5v-29q0 -72 -9 -138.5t-33.5 -136t-63 -120t-102 -83t-144.5 -32.5zM688 643v-137q0 -172 74 -246t211 -74q135 0 213 82.5t78 210.5v258q0 87 -84 155.5t-207 68.5q-136 0 -210.5 -84
t-74.5 -234z" />
    <glyph glyph-name="A" unicode="A" horiz-adv-x="1280" vert-adv-y="2263" 
d="M1151 -53l-176 477h-668l-180 -477h-98l569 1476h90l563 -1476h-100zM520 981l-182 -477h606l-176 477q-14 40 -41 110.5t-47.5 127.5t-36.5 108q-25 -86 -123 -346z" />
    <glyph glyph-name="B" unicode="B" horiz-adv-x="1241" vert-adv-y="2263" 
d="M180 -53v1476h457q231 0 340.5 -88t109.5 -270v-47q0 -105 -58.5 -185t-182.5 -110q309 -42 309 -334v-55q0 -387 -450 -387h-525zM268 680v-651h445q176 0 263 75t87 230v49q0 149 -95.5 223t-310.5 74h-389zM645 1341h-377v-581h387q160 0 251 65.5t91 198.5v41
q0 136 -82.5 206t-269.5 70z" />
    <glyph glyph-name="C" unicode="C" horiz-adv-x="1251" vert-adv-y="2263" 
d="M1116 160l53 -68q-28 -26 -64.5 -50t-95 -53t-139 -47t-168.5 -18q-152 0 -264.5 50t-180.5 144t-101 220.5t-33 288.5v157q0 310 142.5 486t412.5 176q268 0 455 -137l-50 -70q-94 64 -185.5 92.5t-219.5 28.5q-220 0 -341.5 -148t-121.5 -403v-205q0 -291 125.5 -442.5
t366.5 -151.5q131 0 236 45.5t173 104.5z" />
    <glyph glyph-name="D" unicode="D" horiz-adv-x="1327" vert-adv-y="2263" 
d="M180 1423h436q284 0 436 -163t152 -469v-211q0 -301 -159.5 -467t-428.5 -166h-436v1476zM270 1337v-1304h357q101 0 188 35t154 101t105 172t38 239v200q0 276 -126 416.5t-361 140.5h-355z" />
    <glyph glyph-name="E" unicode="E" horiz-adv-x="1198" vert-adv-y="2263" 
d="M180 1423h862v-84h-772v-594h729v-81h-729v-633h787v-84h-877v1476z" />
    <glyph glyph-name="F" unicode="F" horiz-adv-x="1134" vert-adv-y="2263" 
d="M180 1423h844v-84h-754v-632h711v-82h-711v-678h-90v1476z" />
    <glyph glyph-name="G" unicode="G" horiz-adv-x="1302" vert-adv-y="2263" 
d="M1092 102v527h-369v86h457v-664q-53 -48 -178 -87.5t-289 -39.5q-152 0 -266 50t-184.5 143.5t-105 221t-34.5 288.5v157q0 309 146.5 485.5t418.5 176.5q137 0 256 -37t205 -100l-49 -70q-93 63 -188 92t-224 29q-221 0 -347 -148.5t-126 -402.5v-205q0 -289 130 -441.5
t372 -152.5q109 0 211 24.5t164 67.5z" />
    <glyph glyph-name="H" unicode="H" horiz-adv-x="1366" vert-adv-y="2263" 
d="M1096 1423h90v-1476h-90v733h-826v-733h-90v1476h90v-659h826v659z" />
    <glyph glyph-name="I" unicode="I" horiz-adv-x="450" vert-adv-y="2263" 
d="M180 1423h90v-1476h-90v1476z" />
    <glyph glyph-name="J" unicode="J" horiz-adv-x="888" vert-adv-y="2263" 
d="M721 1423v-1116q0 -100 -27.5 -175t-77 -119.5t-114 -66.5t-144.5 -22q-194 0 -329 105l45 71q122 -94 280 -94q277 0 277 303v1114h90z" />
    <glyph glyph-name="K" unicode="K" horiz-adv-x="1284" vert-adv-y="2263" 
d="M1178 1423l-611 -624l647 -852h-110l-600 788l-234 -239v-549h-90v1476h90v-813l785 813h123z" />
    <glyph glyph-name="L" unicode="L" horiz-adv-x="1085" vert-adv-y="2263" 
d="M180 1423h90v-1392h766v-84h-856v1476z" />
    <glyph glyph-name="M" unicode="M" horiz-adv-x="1671" vert-adv-y="2263" 
d="M799 193l-416 845q-65 128 -115 242v-1333h-88v1476h103l557 -1128l544 1128h107v-1476h-88v1317q-44 -101 -121 -252l-405 -819h-78z" />
    <glyph glyph-name="N" unicode="N" horiz-adv-x="1370" vert-adv-y="2263" 
d="M180 1423h123l735 -1251q30 -51 64 -125v1376h88v-1476h-123l-735 1251q-30 52 -64 125v-1376h-88v1476z" />
    <glyph glyph-name="O" unicode="O" horiz-adv-x="1380" vert-adv-y="2263" 
d="M1257 778v-186q0 -197 -62 -346t-191.5 -235.5t-313.5 -86.5t-313.5 86.5t-191.5 235.5t-62 346v186q0 197 62 346t191.5 235.5t313.5 86.5t313.5 -86.5t191.5 -235.5t62 -346zM1165 594v182q0 282 -126 434t-349 152t-349 -152t-126 -434v-182q0 -282 126 -434t349 -152
t349 152t126 434z" />
    <glyph glyph-name="P" unicode="P" horiz-adv-x="1185" vert-adv-y="2263" 
d="M180 -53v1476h461q232 0 353.5 -106.5t121.5 -310.5v-45q0 -206 -124 -313t-357 -107h-365v-594h-90zM641 1339h-371v-714h355q212 0 305.5 87t93.5 251v38q0 338 -383 338z" />
    <glyph glyph-name="Q" unicode="Q" horiz-adv-x="1370" vert-adv-y="2263" 
d="M1245 778v-186q0 -315 -149 -492l174 -172l-62 -63l-174 174q-137 -115 -350 -115q-184 0 -312 87t-188.5 235t-60.5 346v186q0 198 60.5 346t188.5 235t312 87t312 -87t188.5 -235t60.5 -346zM1153 594v182q0 283 -123.5 434.5t-345.5 151.5t-345.5 -151.5
t-123.5 -434.5v-182q0 -283 123.5 -434.5t345.5 -151.5q174 0 289 92l-221 224l61 63l221 -223q119 153 119 430z" />
    <glyph glyph-name="R" unicode="R" horiz-adv-x="1251" vert-adv-y="2263" 
d="M180 -53v1476h449q485 0 485 -381v-45q0 -151 -75 -244.5t-214 -129.5l326 -676h-96l-320 657q-53 -6 -112 -6h-353v-651h-90zM629 1339h-359v-657h342q410 0 410 317v39q0 152 -97 226.5t-296 74.5z" />
    <glyph glyph-name="S" unicode="S" horiz-adv-x="1191" vert-adv-y="2263" 
d="M600 10q183 0 292 84.5t109 204.5v53q0 54 -9 89.5t-35 69.5t-76.5 59.5t-128.5 50t-197 49.5q-109 24 -187 57t-120.5 66t-66.5 78t-30 81t-6 86v52q0 71 27 131t72 101t104.5 69.5t124.5 41.5t133 13q271 0 432 -119l-43 -74q-165 107 -389 107q-68 0 -132 -16.5
t-118 -48.5t-87 -86t-33 -122v-47q0 -43 6.5 -73t28 -62.5t60.5 -57.5t104.5 -49.5t158.5 -45.5q104 -24 175 -45t130 -47t93.5 -53t58 -65.5t32.5 -82.5t9 -105v-57q0 -73 -33 -140t-94 -119t-155 -83t-208 -31q-278 0 -491 156l45 76q122 -86 229.5 -116t214.5 -30z" />
    <glyph glyph-name="T" unicode="T" horiz-adv-x="1163" vert-adv-y="2263" 
d="M627 -53h-90v1392h-492v84h1073v-84h-491v-1392z" />
    <glyph glyph-name="U" unicode="U" horiz-adv-x="1363" vert-adv-y="2263" 
d="M682 8q72 0 133 16t116 54.5t93 97.5t60 150.5t22 208.5v888h90v-917q0 -281 -137.5 -431.5t-376.5 -150.5t-376.5 150.5t-137.5 431.5v917h90v-888q0 -117 22 -208.5t60 -150.5t93 -97.5t116 -54.5t133 -16z" />
    <glyph glyph-name="V" unicode="V" horiz-adv-x="1257" vert-adv-y="2263" 
d="M37 1423h100l496 -1368l491 1368h97l-539 -1476h-104z" />
    <glyph glyph-name="W" unicode="W" horiz-adv-x="1945" vert-adv-y="2263" 
d="M1782 1423h90l-414 -1476h-106l-381 1362l-377 -1362h-107l-413 1476h96l371 -1357l381 1357h102l383 -1355z" />
    <glyph glyph-name="X" unicode="X" horiz-adv-x="1234" vert-adv-y="2263" 
d="M1157 1423l-467 -708l496 -768h-111l-448 708l-471 -708h-107l520 764l-493 712h106l449 -657l424 657h102z" />
    <glyph glyph-name="Y" unicode="Y" horiz-adv-x="1196" vert-adv-y="2263" 
d="M1147 1423l-498 -864v-612h-90v612l-510 864h96l461 -782l443 782h98z" />
    <glyph glyph-name="Z" unicode="Z" horiz-adv-x="1216" vert-adv-y="2263" 
d="M1096 1423v-71l-920 -1323h959v-82h-1069v71l919 1323h-868v82h979z" />
    <glyph glyph-name="bracketleft" unicode="[" horiz-adv-x="661" vert-adv-y="2263" 
d="M586 -270v-78h-422v1917h422v-78h-338v-1761h338z" />
    <glyph glyph-name="backslash" unicode="\" horiz-adv-x="1914" vert-adv-y="2263" 
d="M92 723v78h223l-155 622h90l149 -622h365l158 622h98l158 -622h368l152 622h84l-156 -622h229v-78h-249l-193 -776h-100l-197 776h-295l-192 -776h-101l-194 776h-242zM1198 723l168 -660l160 660h-328zM418 723l160 -662l165 662h-325zM969 1313l-127 -512h256z" />
    <glyph glyph-name="bracketright" unicode="]" horiz-adv-x="661" vert-adv-y="2263" 
d="M76 -348v78h338v1761h-338v78h422v-1917h-422z" />
    <glyph glyph-name="asciicircum" unicode="^" horiz-adv-x="1073" vert-adv-y="2263" 
d="M963 821h-95l-331 576l-332 -576h-94l387 662h80z" />
    <glyph glyph-name="underscore" unicode="_" horiz-adv-x="942" vert-adv-y="2263" 
d="M942 -154v-88h-942v88h942z" />
    <glyph glyph-name="grave" unicode="`" horiz-adv-x="1208" vert-adv-y="2263" 
d="M760 1169h-86l-230 275h109z" />
    <glyph glyph-name="a" unicode="a" horiz-adv-x="1064" vert-adv-y="2263" 
d="M467 -70q-158 0 -257 82.5t-99 233.5v30q0 132 93.5 214.5t276.5 82.5h334v134q0 134 -73.5 204t-217.5 70q-160 0 -323 -111l-43 68q174 123 372 123q173 0 273 -91.5t100 -258.5v-764h-88v153h-2q-35 -69 -115 -114q-100 -56 -231 -56zM815 264v234h-332
q-147 0 -213.5 -60.5t-66.5 -158.5v-33q0 -64 23.5 -112t63.5 -74.5t86 -39t97 -12.5q117 0 199 43q65 33 104 90.5t39 122.5z" />
    <glyph glyph-name="b" unicode="b" horiz-adv-x="1159" vert-adv-y="2263" 
d="M264 1495v-635q43 88 137 144.5t215 56.5q197 0 308.5 -121t111.5 -344v-201q0 -222 -118.5 -343.5t-315.5 -121.5q-102 0 -197 41.5t-143 114.5v-139h-86v1548h88zM262 645v-371q0 -109 97 -186.5t247 -77.5q157 0 249.5 104.5t92.5 293.5v176q0 195 -85.5 296
t-254.5 101q-61 0 -121.5 -23t-111 -64t-82 -106.5t-31.5 -142.5z" />
    <glyph glyph-name="c" unicode="c" horiz-adv-x="999" vert-adv-y="2263" 
d="M559 1061q213 0 348 -103l-39 -67q-132 90 -309 90q-169 0 -258.5 -108.5t-89.5 -292.5v-156q0 -191 90 -302.5t266 -111.5q204 0 336 109l43 -68q-64 -53 -161 -87t-220 -34q-205 0 -323.5 126.5t-118.5 369.5v147q0 224 115.5 356t320.5 132z" />
    <glyph glyph-name="d" unicode="d" horiz-adv-x="1159" vert-adv-y="2263" 
d="M897 -53v184q-43 -87 -139 -144t-217 -57q-198 0 -308 120.5t-110 344.5v201q0 222 119 343.5t315 121.5q102 0 196 -41.5t142 -114.5v590h88v-1548h-86zM897 346v371q0 109 -97 186.5t-247 77.5q-157 0 -249.5 -104t-92.5 -293v-176q0 -195 85.5 -296.5t254.5 -101.5
q61 0 121.5 23t111 64t82 106.5t31.5 142.5z" />
    <glyph glyph-name="e" unicode="e" horiz-adv-x="1116" vert-adv-y="2263" 
d="M561 983q-163 0 -257.5 -111.5t-94.5 -304.5v-20h700q0 215 -88.5 325.5t-259.5 110.5zM575 8q110 0 202 30t151 79l43 -66q-62 -52 -165.5 -86.5t-227.5 -34.5q-224 0 -339.5 135.5t-115.5 356.5v156q0 217 118.5 350t319.5 133q211 0 322.5 -136t111.5 -368v-82h-786
v-39q0 -208 96.5 -318t269.5 -110z" />
    <glyph glyph-name="f" unicode="f" horiz-adv-x="698" vert-adv-y="2263" 
d="M238 -53v1018h-189v73h189v164q0 305 282 305q86 0 150 -22l-13 -72q-68 19 -135 19q-103 0 -148.5 -57.5t-45.5 -176.5v-160h309v-73h-309v-1018h-90z" />
    <glyph glyph-name="g" unicode="g" horiz-adv-x="1163" vert-adv-y="2263" 
d="M901 367v350q0 109 -97 186.5t-247 77.5q-157 0 -249.5 -104t-92.5 -293v-156q0 -195 85.5 -296t254.5 -101q61 0 121.5 23t111 64t82 106.5t31.5 142.5zM899 152q-43 -87 -138 -144t-216 -57q-198 0 -308 120.5t-110 344.5v180q0 222 119 343.5t315 121.5
q102 0 197 -41.5t143 -114.5v133h86v-1099q0 -118 -31.5 -205.5t-88.5 -139t-128 -76t-157 -24.5q-111 0 -196 27.5t-165 83.5l45 71q78 -55 150 -78.5t155 -23.5q69 0 126 19.5t103.5 61t72.5 114t26 170.5v213z" />
    <glyph glyph-name="h" unicode="h" horiz-adv-x="1165" vert-adv-y="2263" 
d="M1001 698v-751h-88v725q0 150 -72 229.5t-233 79.5q-67 0 -126 -21t-97.5 -54t-67 -73t-41 -77t-12.5 -68v-741h-88v1548h88v-625q16 32 44.5 62.5t71.5 61t106.5 49t136.5 18.5q99 0 174 -30t118.5 -81.5t64.5 -115t21 -136.5z" />
    <glyph glyph-name="i" unicode="i" horiz-adv-x="448" vert-adv-y="2263" 
d="M180 1038h88v-1091h-88v1091zM172 1397h104v-121h-104v121z" />
    <glyph glyph-name="j" unicode="j" horiz-adv-x="442" vert-adv-y="2263" 
d="M262 1038v-1247q0 -92 -18.5 -153t-55.5 -91.5t-79.5 -41.5t-104.5 -11q-79 0 -158 27l17 73q79 -24 147 -24q96 0 130 50t34 179v1239h88zM166 1397h104v-121h-104v121z" />
    <glyph glyph-name="k" unicode="k" horiz-adv-x="1056" vert-adv-y="2263" 
d="M963 1038l-424 -409l477 -682h-105l-434 620l-213 -205v-415h-88v1548h88v-1020l578 563h121z" />
    <glyph glyph-name="l" unicode="l" horiz-adv-x="440" vert-adv-y="2263" 
d="M176 1495h88v-1548h-88v1548z" />
    <glyph glyph-name="m" unicode="m" horiz-adv-x="1759" vert-adv-y="2263" 
d="M1595 698v-751h-88v725q0 151 -60.5 230t-207.5 79q-77 0 -139.5 -30.5t-97.5 -76t-53.5 -92t-18.5 -86.5v-749h-88v725q0 151 -61.5 230t-209.5 79q-63 0 -116 -21t-87 -53.5t-58.5 -73t-35 -77.5t-10.5 -68v-741h-88v1091h86v-168q17 33 41.5 62.5t63 60.5t95.5 49.5
t124 18.5q251 0 319 -211q43 92 133.5 151.5t214.5 59.5q92 0 160.5 -30t107 -82.5t56.5 -115t18 -135.5z" />
    <glyph glyph-name="n" unicode="n" horiz-adv-x="1165" vert-adv-y="2263" 
d="M1001 698v-751h-88v725q0 150 -72 229.5t-233 79.5q-67 0 -126 -21t-97.5 -54t-67 -73t-41 -77t-12.5 -68v-741h-88v1091h86v-168q16 31 45 62t72.5 61.5t107 49t136.5 18.5q99 0 174 -30t118.5 -81.5t64.5 -115t21 -136.5z" />
    <glyph glyph-name="o" unicode="o" horiz-adv-x="1142" vert-adv-y="2263" 
d="M571 1061q212 0 330.5 -130.5t118.5 -363.5v-143q0 -233 -118.5 -363.5t-330.5 -130.5t-330 130.5t-118 363.5v143q0 235 118 364.5t330 129.5zM571 6q170 0 265.5 105.5t95.5 312.5v143q0 207 -95.5 312.5t-265.5 105.5t-265 -105.5t-95 -312.5v-143q0 -207 95 -312.5
t265 -105.5z" />
    <glyph glyph-name="p" unicode="p" horiz-adv-x="1159" vert-adv-y="2263" 
d="M262 1038v-178q43 87 138 144t216 57q197 0 308.5 -121t111.5 -344v-201q0 -222 -118.5 -343.5t-315.5 -121.5q-102 0 -196 41.5t-142 114.5v-578h-88v1530h86zM260 645v-371q0 -108 98 -186t248 -78q157 0 249.5 104.5t92.5 293.5v176q0 195 -85.5 296t-254.5 101
q-83 0 -161 -38t-132.5 -117t-54.5 -181z" />
    <glyph glyph-name="q" unicode="q" horiz-adv-x="1159" vert-adv-y="2263" 
d="M895 -492v623q-43 -87 -138 -144t-216 -57q-198 0 -308 120.5t-110 344.5v201q0 222 119 343.5t315 121.5q102 0 197 -41.5t143 -114.5v133h86v-1530h-88zM899 346v371q0 108 -98 186t-248 78q-157 0 -249.5 -104t-92.5 -293v-176q0 -195 85.5 -296.5t254.5 -101.5
q83 0 161 38t132.5 117t54.5 181z" />
    <glyph glyph-name="r" unicode="r" horiz-adv-x="768" vert-adv-y="2263" 
d="M735 1036l-26 -82q-61 21 -131 21q-152 0 -233 -114t-81 -300v-614h-88v1091h86v-211q33 98 116 166t206 68q84 0 151 -25z" />
    <glyph glyph-name="s" unicode="s" horiz-adv-x="1009" vert-adv-y="2263" 
d="M508 8q150 0 236.5 61.5t86.5 149.5v27q0 105 -69.5 149t-274.5 82q-82 16 -142 36.5t-109 52.5t-74 79.5t-25 110.5v32q0 118 99.5 195.5t279.5 77.5q120 0 214 -28.5t151 -71.5l-37 -64q-81 49 -156 67.5t-180 18.5q-137 0 -212 -52.5t-75 -144.5v-26q0 -39 16 -69.5
t41 -51t67.5 -37.5t83 -27.5t99.5 -21.5q109 -21 175 -41.5t115.5 -54.5t70 -83t20.5 -122v-37q0 -89 -56 -155.5t-144 -98t-193 -31.5q-120 0 -225.5 35.5t-179.5 91.5l43 70q76 -55 170 -87t184 -32z" />
    <glyph glyph-name="t" unicode="t" horiz-adv-x="745" vert-adv-y="2263" 
d="M240 238v727h-191v73h191v283h88v-283h309v-73h-309v-705q0 -130 34.5 -188t133.5 -58q77 0 161 23l15 -72q-76 -26 -168 -26q-63 0 -106.5 11.5t-81.5 42t-57 92t-19 153.5z" />
    <glyph glyph-name="u" unicode="u" horiz-adv-x="1155" vert-adv-y="2263" 
d="M164 293v745h88v-721q0 -309 285 -309q70 0 130.5 21t100 53.5t68.5 71t42 73t13 60.5v751h88v-1091h-86v172q-27 -59 -127 -124t-225 -65q-84 0 -149.5 20t-107.5 53.5t-69.5 81t-39 98.5t-11.5 110z" />
    <glyph glyph-name="v" unicode="v" horiz-adv-x="985" vert-adv-y="2263" 
d="M498 53l356 985h92l-407 -1091h-86l-414 1091h94z" />
    <glyph glyph-name="w" unicode="w" horiz-adv-x="1517" vert-adv-y="2263" 
d="M1120 53l262 985h86l-305 -1091h-86l-317 985l-307 -985h-93l-311 1091h90l269 -985l307 985h88z" />
    <glyph glyph-name="x" unicode="x" horiz-adv-x="993" vert-adv-y="2263" 
d="M928 1038l-371 -528l397 -563h-110l-344 504l-353 -504h-108l401 555l-370 536h104l326 -477l323 477h105z" />
    <glyph glyph-name="y" unicode="y" horiz-adv-x="987" vert-adv-y="2263" 
d="M500 43l354 995h94l-569 -1542l-82 29l154 407l-412 1106h92z" />
    <glyph glyph-name="z" unicode="z" horiz-adv-x="1005" vert-adv-y="2263" 
d="M889 1038v-61l-701 -957h727v-73h-835v61l700 957h-659v73h768z" />
    <glyph glyph-name="braceleft" unicode="{" horiz-adv-x="796" vert-adv-y="2263" 
d="M291 -92v502q0 93 -59 135.5t-175 44.5v92q234 3 234 176v455q0 138 69 197t201 59h162v-78h-160q-95 0 -141.5 -37t-46.5 -135v-445q0 -92 -40 -154t-140 -85q180 -40 180 -240v-493q0 -98 46.5 -135t141.5 -37h160v-78h-162q-132 0 -201 59t-69 197z" />
    <glyph glyph-name="bar" unicode="|" horiz-adv-x="548" vert-adv-y="2263" 
d="M313 1567v-1915h-77v1915h77z" />
    <glyph glyph-name="braceright" unicode="}" horiz-adv-x="796" vert-adv-y="2263" 
d="M506 410v-502q0 -138 -69 -197t-201 -59h-162v78h159q95 0 142 37t47 135v493q0 200 180 240q-100 23 -140 85t-40 154v445q0 98 -47 135t-142 37h-159v78h162q132 0 201 -59t69 -197v-455q0 -90 58.5 -132t174.5 -44v-92q-116 -2 -174.5 -44.5t-58.5 -135.5z" />
    <glyph glyph-name="asciitilde" unicode="~" horiz-adv-x="1228" vert-adv-y="2263" 
d="M813 506q-52 0 -97.5 23.5t-79.5 57t-67 67.5t-73 57.5t-84 23.5q-40 0 -73 -17.5t-53.5 -42.5t-36 -59t-22.5 -61.5t-10 -54.5h-78q7 56 25.5 107.5t50.5 98.5t83.5 75t115.5 28q55 0 103 -23.5t82.5 -57.5t67 -67.5t70.5 -57t78 -23.5q54 0 94 23.5t61 62.5t30.5 74.5
t13.5 74.5h78q-4 -41 -13.5 -80.5t-31 -82t-51 -74t-77 -52t-106.5 -20.5z" />
    <glyph glyph-name="uni20A9" unicode="&#x20a9;" horiz-adv-x="1914" vert-adv-y="2263" 
d="M92 723v78h223l-155 622h90l149 -622h365l158 622h98l158 -622h368l152 622h84l-156 -622h229v-78h-249l-193 -776h-100l-197 776h-295l-192 -776h-101l-194 776h-242zM1198 723l168 -660l160 660h-328zM418 723l160 -662l165 662h-325zM969 1313l-127 -512h256z" />
    <glyph glyph-name="uni2010" unicode="&#x2010;" horiz-adv-x="854" vert-adv-y="2263" 
d="M78 545v100h698v-100h-698z" />
    <glyph glyph-name="copyright" unicode="&#xa9;" horiz-adv-x="1753" vert-adv-y="2263" 
d="M881 1116q163 0 276 -86l-43 -67q-96 69 -233 69q-122 0 -189 -79t-67 -212v-106q0 -141 67 -221t191 -80q142 0 250 82l43 -70q-126 -96 -291 -96q-163 0 -258 101t-95 282v102q0 179 96.5 280t252.5 101zM860 6q186 0 337 88.5t237 244t86 347.5q0 190 -86 345
t-237 243t-337 88q-139 0 -261.5 -52t-209.5 -141.5t-137.5 -215t-50.5 -267.5q0 -192 85.5 -347.5t236.5 -244t337 -88.5zM860 -68q-158 0 -295.5 59t-234 159.5t-152 240t-55.5 295.5q0 155 55.5 293.5t152 239t234.5 159t295 58.5t295 -58.5t234.5 -159t152 -239
t55.5 -293.5q0 -156 -55.5 -295.5t-152 -240t-234 -159.5t-295.5 -59z" />
    <glyph glyph-name="Korea1.99" horiz-adv-x="1468" vert-adv-y="2263" 
d="M698 756v667h115l215 -454h2l209 454h117v-667h-76v585h-2l-209 -450h-80l-215 450h-2v-585h-74zM293 756v594h-232v73h541v-73h-231v-594h-78z" />
    <glyph glyph-name="Korea1.100" vert-adv-y="2263" 
d="M301 -96v184h172v-184h-172zM1391 -96v184h172v-184h-172zM846 -96v184h172v-184h-172z" />
    <glyph glyph-name="uni3164" unicode="&#x3000;" vert-adv-y="2263" 
 />
    <glyph glyph-name="uni3164" unicode="&#x3164;" vert-adv-y="2263" 
 />
    <glyph glyph-name="uni3001" unicode="&#x3001;" vert-adv-y="2263" 
d="M649 -119l-108 -94q-106 143 -185.5 228.5t-199.5 179.5l94 77q131 -98 211.5 -177t187.5 -214z" />
    <glyph glyph-name="uni3002" unicode="&#x3002;" vert-adv-y="2263" 
d="M356 354q121 0 201 -78.5t80 -201.5q0 -122 -80.5 -202.5t-200.5 -80.5t-200 80t-80 203t79.5 201.5t200.5 78.5zM356 -131q97 0 148 57.5t51 147.5q0 87 -51 144.5t-148 57.5q-96 0 -147 -57.5t-51 -144.5q0 -90 50.5 -147.5t147.5 -57.5z" />
    <glyph glyph-name="uni30FB" unicode="&#x30fb;" horiz-adv-x="862" vert-adv-y="2263" 
d="M346 530v185h172v-185h-172z" />
    <glyph glyph-name="twodotenleader" unicode="&#x2025;" vert-adv-y="2263" 
d="M547 530v185h172v-185h-172zM1143 530v185h172v-185h-172z" />
    <glyph glyph-name="uni22EF" unicode="&#x2026;" vert-adv-y="2263" 
d="M301 530v185h172v-185h-172zM1391 530v185h172v-185h-172zM846 530v185h172v-185h-172z" />
    <glyph glyph-name="uni22EF" unicode="&#x22ef;" vert-adv-y="2263" 
d="M301 530v185h172v-185h-172zM1391 530v185h172v-185h-172zM846 530v185h172v-185h-172z" />
    <glyph glyph-name="dieresis" unicode="&#xa8;" horiz-adv-x="1415" vert-adv-y="2263" 
d="M496 1233v123h110v-123h-110zM809 1233v123h111v-123h-111z" />
    <glyph glyph-name="uni3003" unicode="&#x3003;" vert-adv-y="2263" 
d="M918 287l274 622h113l-306 -622h-81zM836 909h112l-307 -622h-82z" />
    <glyph glyph-name="endash" unicode="&#x2013;" horiz-adv-x="817" vert-adv-y="2263" 
d="M817 682v-94h-817v94h817z" />
    <glyph glyph-name="emdash" unicode="&#x2014;" horiz-adv-x="1634" vert-adv-y="2263" 
d="M1634 682v-94h-1634v94h1634z" />
    <glyph glyph-name="uni2016" unicode="&#x2016;" vert-adv-y="2263" 
d="M809 1597v-1966h-115v1966h115zM1169 1597v-1966h-116v1966h116z" />
    <glyph glyph-name="uniFF3C" unicode="&#xff3c;" vert-adv-y="2263" 
d="M147 1552l1631 -1804l-64 -63l-1628 1800z" />
    <glyph glyph-name="uniFF5E" unicode="&#xff5e;" vert-adv-y="2263" 
d="M1436 750l84 -56q-48 -78 -136 -135t-174 -57q-84 0 -146 17t-132 54q-159 84 -279 84q-138 0 -225 -129l-84 56q48 78 135.5 135t173.5 57q84 0 147.5 -17t131.5 -54q75 -41 139 -62.5t139 -21.5q139 0 226 129z" />
    <glyph glyph-name="quoteleft" unicode="&#x2018;" horiz-adv-x="409" vert-adv-y="2263" 
d="M332 1575l-88 -451h-115l133 451h70z" />
    <glyph glyph-name="quoteright" unicode="&#x2019;" horiz-adv-x="409" vert-adv-y="2263" 
d="M78 1098l88 450h115l-134 -450h-69z" />
    <glyph glyph-name="quotedblleft" unicode="&#x201c;" horiz-adv-x="716" vert-adv-y="2263" 
d="M625 1575l-86 -451h-121l133 451h74zM346 1575l-86 -451h-121l133 451h74z" />
    <glyph glyph-name="quotedblright" unicode="&#x201d;" horiz-adv-x="716" vert-adv-y="2263" 
d="M92 1098l86 450h121l-133 -450h-74zM371 1098l86 450h121l-134 -450h-73z" />
    <glyph glyph-name="uni3014" unicode="&#x3014;" horiz-adv-x="704" vert-adv-y="2263" 
d="M197 29l424 -240l-50 -88l-483 270v1291l483 268l50 -88l-424 -238v-1175z" />
    <glyph glyph-name="uni3015" unicode="&#x3015;" horiz-adv-x="733" vert-adv-y="2263" 
d="M633 1262v-1291l-486 -270l-49 88l426 242v1173l-426 238l49 88z" />
    <glyph glyph-name="uni3008" unicode="&#x3008;" horiz-adv-x="956" vert-adv-y="2263" 
d="M205 616l657 -833l-67 -51l-699 884l697 885l69 -53z" />
    <glyph glyph-name="uni3009" unicode="&#x3009;" horiz-adv-x="976" vert-adv-y="2263" 
d="M172 1501l698 -885l-696 -884l-68 51l658 833l-658 832z" />
    <glyph glyph-name="uni300A" unicode="&#x300a;" horiz-adv-x="940" vert-adv-y="2263" 
d="M152 616l512 -882l-70 -43l-535 925l535 924l70 -41zM356 616l510 -882l-71 -43l-533 925l533 924l71 -41z" />
    <glyph glyph-name="uni300B" unicode="&#x300b;" horiz-adv-x="937" vert-adv-y="2263" 
d="M127 1540l535 -924l-535 -925l-70 43l508 882l-508 883zM330 1540l532 -924l-532 -925l-72 43l512 882l-512 883z" />
    <glyph glyph-name="uni300C" unicode="&#x300c;" horiz-adv-x="718" vert-adv-y="2263" 
d="M659 1575v-111h-462v-768h-138v879h600z" />
    <glyph glyph-name="uni300D" unicode="&#x300d;" horiz-adv-x="718" vert-adv-y="2263" 
d="M659 537v-879h-600v111h463v768h137z" />
    <glyph glyph-name="uni300E" unicode="&#x300e;" horiz-adv-x="698" vert-adv-y="2263" 
d="M219 1460h346v53h-426v-753h80v700zM643 1575v-178h-352v-701h-225v879h577z" />
    <glyph glyph-name="uni300F" unicode="&#x300f;" horiz-adv-x="708" vert-adv-y="2263" 
d="M489 -229h-346v-54h426v754h-80v-700zM66 -344v178h352v701h225v-879h-577z" />
    <glyph glyph-name="uni3010" unicode="&#x3010;" horiz-adv-x="765" vert-adv-y="2263" 
d="M772 -262h-731v1757h729q-234 -153 -372 -387.5t-138 -493.5q0 -260 138 -492t374 -384z" />
    <glyph glyph-name="uni3011" unicode="&#x3011;" horiz-adv-x="782" vert-adv-y="2263" 
d="M733 1497v-1759h-733q237 151 375.5 384t138.5 492q0 260 -138.5 495t-373.5 388h731z" />
    <glyph glyph-name="plusminus" unicode="&#xb1;" horiz-adv-x="1208" vert-adv-y="2263" 
d="M127 213h956v-74h-956v74zM571 1323h86v-459h445v-82h-445v-448h-86v448h-444v82h444v459z" />
    <glyph glyph-name="multiply" unicode="&#xd7;" horiz-adv-x="1208" vert-adv-y="2263" 
d="M246 1118l368 -387l371 387l72 -74l-371 -387l371 -387l-72 -73l-371 387l-368 -387l-72 73l371 387l-371 387z" />
    <glyph glyph-name="divide" unicode="&#xf7;" horiz-adv-x="1208" vert-adv-y="2263" 
d="M123 610v90h983v-90h-983zM545 995v138h141v-138h-141zM545 178v137h141v-137h-141z" />
    <glyph glyph-name="notequal" unicode="&#x2260;" horiz-adv-x="1208" vert-adv-y="2263" 
d="M152 825v93h577l195 294h86l-195 -294h242v-93h-299l-226 -340h525v-92h-582l-190 -291h-86l190 291h-237v92h294l226 340h-520z" />
    <glyph glyph-name="lessequal" unicode="&#x2264;" horiz-adv-x="1208" vert-adv-y="2263" 
d="M1083 442v-86l-952 412v76l952 405v-86l-852 -358zM1083 123h-958v76h958v-76z" />
    <glyph glyph-name="greaterequal" unicode="&#x2265;" horiz-adv-x="1208" vert-adv-y="2263" 
d="M125 356v86l852 363l-852 358v86l952 -405v-76zM1083 123h-958v76h958v-76z" />
    <glyph glyph-name="infinity" unicode="&#x221e;" horiz-adv-x="1208" vert-adv-y="2263" 
d="M922 340q-41 0 -78 11.5t-63 27.5t-54 44t-43.5 48.5t-41 55.5t-38.5 51q-33 -41 -44 -55t-40 -47.5t-44.5 -46.5t-43.5 -35t-51 -30.5t-53.5 -16t-63.5 -7.5q-116 0 -184 75.5t-68 211.5q0 124 76.5 203t192.5 79q49 0 96 -21.5t87 -59.5t67 -69.5t58 -71.5
q7 -10 11 -15q10 13 36.5 46t37 45.5t34.5 38.5t38.5 37t38.5 28t45 23.5t49.5 12.5t58.5 6q120 0 190 -74.5t70 -207.5q0 -127 -79 -207t-197 -80zM922 414q89 0 144.5 59t55.5 154q0 99 -52.5 155t-137.5 56q-24 0 -46.5 -6t-40 -13t-38.5 -23t-33.5 -26.5t-33 -34.5
t-29.5 -35t-31 -39.5t-29 -37.5q4 -5 22.5 -31.5t26 -36.5t27 -33.5t31.5 -34.5t33 -28t39.5 -24.5t42.5 -14t49 -6.5zM270 414q78 0 141.5 51.5t143.5 159.5q-36 47 -58 73.5t-60.5 64.5t-77.5 56.5t-80 18.5q-85 0 -137 -58.5t-52 -152.5q0 -106 46.5 -159.5t133.5 -53.5z
" />
    <glyph glyph-name="therefore" unicode="&#x2234;" horiz-adv-x="1208" vert-adv-y="2263" 
d="M1102 233q0 -41 -27.5 -68.5t-68.5 -27.5q-40 0 -68.5 27.5t-28.5 68.5t28.5 68t68.5 27q41 0 68.5 -27t27.5 -68zM299 233q0 -41 -28.5 -68.5t-67.5 -27.5q-43 0 -70 27.5t-27 68.5t27 68t70 27q39 0 67.5 -27.5t28.5 -67.5zM709 1071q0 -43 -26.5 -70.5t-68.5 -27.5
q-43 0 -70.5 27.5t-27.5 70.5q0 38 28 66t70 28q41 0 68 -28t27 -66z" />
    <glyph glyph-name="degree" unicode="&#xb0;" horiz-adv-x="598" vert-adv-y="2263" 
d="M520 1247q0 -94 -61.5 -157.5t-159.5 -63.5t-159.5 63.5t-61.5 157.5t61.5 157.5t159.5 63.5t159.5 -63.5t61.5 -157.5zM440 1247q0 63 -38.5 105.5t-102.5 42.5t-102.5 -42.5t-38.5 -105.5t38.5 -105t102.5 -42t102.5 42t38.5 105z" />
    <glyph glyph-name="minute" unicode="&#x2032;" horiz-adv-x="995" vert-adv-y="2263" 
d="M328 1006l209 483h131l-269 -483h-71z" />
    <glyph glyph-name="second" unicode="&#x2033;" horiz-adv-x="1198" vert-adv-y="2263" 
d="M561 1006l209 483h121l-268 -483h-62zM307 1006l209 483h121l-268 -483h-62z" />
    <glyph glyph-name="uni2103" unicode="&#x2103;" horiz-adv-x="1570" vert-adv-y="2263" 
d="M297 1157q54 0 84.5 32.5t30.5 86.5q0 52 -30.5 84.5t-84.5 32.5t-84.5 -32.5t-30.5 -84.5q0 -54 30.5 -86.5t84.5 -32.5zM297 1096q-84 0 -133 50.5t-49 127.5t49 127.5t133 50.5t133 -50.5t49 -127.5t-49 -127.5t-133 -50.5zM1466 162l54 -70q-187 -168 -453 -168
q-150 0 -260.5 50t-177 144t-98 220.5t-31.5 288.5v157q0 311 138.5 486.5t403.5 175.5q254 0 441 -137l-49 -72q-95 64 -182 92.5t-210 28.5q-215 0 -332.5 -146.5t-117.5 -402.5v-205q0 -291 121.5 -441.5t357.5 -150.5q126 0 226 45t169 105z" />
    <glyph glyph-name="uni212B" unicode="&#x212b;" horiz-adv-x="1316" vert-adv-y="2263" 
d="M844 1516q0 -59 -29.5 -103t-81.5 -63l537 -1403h-101l-176 477h-667l-181 -477h-98l541 1403q-52 19 -80.5 63t-28.5 103q0 77 49.5 127.5t133.5 50.5t133 -50.5t49 -127.5zM539 981l-183 -477h607l-177 477q-14 38 -41 110.5t-47 128.5t-36 107q-25 -86 -123 -346z
M662 1399q54 0 84 32.5t30 86.5q0 52 -30 84t-84 32t-84.5 -32t-30.5 -84q0 -54 30.5 -86.5t84.5 -32.5z" />
    <glyph glyph-name="uniFFE0" unicode="&#xffe0;" horiz-adv-x="997" vert-adv-y="2263" 
d="M545 -53v203q-193 9 -304.5 135.5t-111.5 359.5v92q0 216 110.5 347.5t305.5 140.5v198h82v-200q176 -13 295 -101l-39 -67q-115 75 -256 88v-914q177 14 291 109l43 -68q-128 -104 -334 -118v-205h-82zM215 643q0 -182 84 -293t246 -121v916q-159 -9 -244.5 -117.5
t-85.5 -284.5v-100z" />
    <glyph glyph-name="uniFFE1" unicode="&#xffe1;" horiz-adv-x="1165" vert-adv-y="2263" 
d="M139 659v82h209v248q0 217 107 323.5t278 106.5q157 0 279 -63l-29 -72q-118 53 -240 53q-65 0 -117.5 -18t-96 -57t-67.5 -109.5t-24 -167.5v-244h426v-82h-426v-249q0 -149 -29.5 -233.5t-113.5 -141.5v-4h782v-84h-903v82q98 57 136 144.5t38 238.5v247h-209z" />
    <glyph glyph-name="uniFFE5" unicode="&#xffe5;" horiz-adv-x="1277" vert-adv-y="2263" 
d="M604 -53v334h-368v79h368v183h-368v80h342l-472 786h103l436 -752h2l420 752h104l-450 -786h342v-80h-369v-183h369v-79h-369v-334h-90z" />
    <glyph glyph-name="male" unicode="&#x2642;" horiz-adv-x="1589" vert-adv-y="2263" 
d="M100 537q0 154 75.5 284.5t206 206.5t286.5 76q193 0 352 -123l260 258h-231v119h442v-440h-121v233l-260 -262q125 -158 125 -352q0 -154 -76 -285t-206.5 -207t-284.5 -76q-156 0 -286.5 76t-206 207t-75.5 285zM207 537q0 -127 60 -235t166.5 -172t234.5 -64
q127 0 233.5 64t166.5 172t60 235q0 196 -133 333.5t-327 137.5q-195 0 -328 -137.5t-133 -333.5z" />
    <glyph glyph-name="female" unicode="&#x2640;" horiz-adv-x="1335" vert-adv-y="2263" 
d="M602 113v270q-216 31 -359 188t-143 375q0 154 75.5 284.5t206 206.5t286.5 76q154 0 284.5 -76t206.5 -206.5t76 -284.5q0 -219 -142.5 -376t-357.5 -187v-270h293v-121h-293v-297h-133v297h-297v121h297zM207 946q0 -127 60 -235t166.5 -172t234.5 -64q127 0 233.5 64
t166.5 172t60 235q0 196 -133 333.5t-327 137.5q-195 0 -328 -137.5t-133 -333.5z" />
    <glyph glyph-name="angle" unicode="&#x2220;" vert-adv-y="2263" 
d="M1556 115v-115h-1247v84l969 1128l94 -75l-883 -1022h1067z" />
    <glyph glyph-name="perpendicular" unicode="&#x22a5;" vert-adv-y="2263" 
d="M1585 121v-121h-1306v121h593v1053h121v-1053h592z" />
    <glyph glyph-name="uni2312" unicode="&#x2312;" vert-adv-y="2263" 
d="M1458 1180h-123q-60 104 -161.5 170.5t-239.5 66.5q-140 0 -243 -67t-161 -170h-127q181 327 527 327q352 0 528 -327z" />
    <glyph glyph-name="partialdiff" unicode="&#x2202;" horiz-adv-x="1024" vert-adv-y="2263" 
d="M164 1311l-33 67q150 103 326 103q82 0 154.5 -25.5t136 -81t109.5 -137.5t72.5 -202.5t26.5 -268.5q0 -192 -42.5 -345t-115.5 -248.5t-166.5 -145.5t-199.5 -50q-92 0 -164.5 33t-117.5 91t-68 132t-23 160q0 108 36 202t97 158t141 100t167 36q125 0 222 -61t140 -138
h2q2 29 2 90q0 158 -34 279.5t-92 193.5t-130.5 108t-154.5 36q-150 0 -291 -86zM442 63q105 0 193 70t142 185.5t71 256.5q-38 98 -132 163t-214 65q-145 0 -245.5 -111.5t-100.5 -292.5q0 -159 76.5 -247.5t209.5 -88.5z" />
    <glyph glyph-name="gradient" unicode="&#x2207;" vert-adv-y="2263" 
d="M932 141l614 985h-1227zM141 1214h1581l-790 -1253z" />
    <glyph glyph-name="equivalence" unicode="&#x2261;" horiz-adv-x="1208" vert-adv-y="2263" 
d="M1085 322h-962v84h962v-84zM1085 899h-962v84h962v-84zM1085 610h-962v82h962v-82z" />
    <glyph glyph-name="uni2252" unicode="&#x2252;" horiz-adv-x="1208" vert-adv-y="2263" 
d="M111 424v104h987v-104h-987zM111 756v102h987v-102h-987zM301 1090q0 53 38.5 91t92.5 38q52 0 90.5 -38.5t38.5 -90.5q0 -53 -38.5 -92.5t-90.5 -39.5q-54 0 -92.5 39.5t-38.5 92.5zM682 188q0 53 38.5 93.5t90.5 40.5t91.5 -40.5t39.5 -93.5q0 -52 -39 -90.5t-92 -38.5
t-91 38.5t-38 90.5z" />
    <glyph glyph-name="section" unicode="&#xa7;" horiz-adv-x="1044" vert-adv-y="2263" 
d="M965 532q0 -98 -62.5 -171.5t-165.5 -110.5q125 -79 125 -258q0 -135 -101 -218t-276 -83q-92 0 -182 22t-147 56v77q154 -73 329 -73q134 0 209.5 57t75.5 158q0 94 -39 144.5t-145 86.5q-40 13 -121 37t-117 37q-66 24 -110.5 48.5t-81.5 59t-54.5 82.5t-17.5 111
q0 97 62 170.5t165 109.5q-125 79 -125 261q0 137 96 219t269 82q167 0 289 -60v-76q-117 54 -289 54q-132 0 -202 -56.5t-70 -158.5q0 -94 39.5 -145t144.5 -87q40 -14 120.5 -37t116.5 -36q66 -24 110.5 -48.5t81.5 -59.5t55 -83t18 -111zM424 825q-7 1 -31 11
q-98 -30 -157.5 -93t-59.5 -143q0 -42 11.5 -74.5t30.5 -56t52.5 -44t68.5 -34.5t87 -31q9 -3 199 -59l30 -10q98 30 157.5 92.5t59.5 142.5q0 52 -15.5 89.5t-50.5 65t-76 46t-107 39.5q-9 3 -199 59z" />
    <glyph glyph-name="uni203B" unicode="&#x203b;" vert-adv-y="2263" 
d="M1647 1321l-654 -662l656 -661q-11 -13 -35 -35t-35 -35l-647 666q-56 -58 -290 -297t-359 -369l-62 64l651 665l-647 658l64 67q106 -110 321 -330t322 -331l655 661zM190 659q0 53 35.5 89t87.5 36t87.5 -36t35.5 -89t-35.5 -88.5t-87.5 -35.5t-87.5 35.5t-35.5 88.5z
M811 53q0 53 35.5 89t87.5 36t87.5 -36t35.5 -89t-35.5 -89t-87.5 -36t-87.5 36t-35.5 89zM811 1262q0 53 35.5 88.5t87.5 35.5t87.5 -35.5t35.5 -88.5t-35.5 -89t-87.5 -36t-87.5 36t-35.5 89zM1432 659q0 53 35 89t87 36t87.5 -36t35.5 -89t-35.5 -88.5t-87.5 -35.5
t-87 35.5t-35 88.5z" />
    <glyph glyph-name="uni2606" unicode="&#x2606;" vert-adv-y="2263" 
d="M936 1577l219 -647h684l-553 -412l205 -653l-555 397l-565 -397l213 653l-557 412h692zM1120 879l-186 542l-180 -542h-580l465 -347l-182 -548l477 333l467 -333l-172 548l465 347h-574z" />
    <glyph glyph-name="uni2605" unicode="&#x2605;" vert-adv-y="2263" 
d="M936 1577l219 -647h684l-553 -412l205 -653l-555 397l-565 -397l213 653l-557 412h692z" />
    <glyph glyph-name="circle" unicode="&#x25cb;" vert-adv-y="2263" 
d="M203 725q0 196 97 364t264 266.5t364 98.5q198 0 366 -98.5t265.5 -266.5t97.5 -364q0 -148 -57.5 -283t-155.5 -232t-232.5 -154.5t-283.5 -57.5q-197 0 -364 97t-264 264.5t-97 365.5zM279 725q0 -176 87 -325.5t236.5 -236.5t325.5 -87q133 0 254 51.5t208.5 138.5
t139 207t51.5 252t-51.5 252.5t-139 208.5t-208.5 140t-254 52q-176 0 -325.5 -88t-236.5 -238.5t-87 -326.5z" />
    <glyph glyph-name="H18533" unicode="&#x25cf;" vert-adv-y="2263" 
d="M203 725q0 196 97 364t264 266.5t364 98.5q198 0 366 -98.5t265.5 -266.5t97.5 -364q0 -148 -57.5 -283t-155.5 -232t-232.5 -154.5t-283.5 -57.5q-197 0 -364 97t-264 264.5t-97 365.5z" />
    <glyph glyph-name="uni25CE" unicode="&#x25ce;" vert-adv-y="2263" 
d="M203 725q0 196 97 364t264 266.5t364 98.5q198 0 366 -98.5t265.5 -266.5t97.5 -364q0 -148 -57.5 -283t-155.5 -232t-232.5 -154.5t-283.5 -57.5q-197 0 -364 97t-264 264.5t-97 365.5zM283 725q0 -175 86.5 -323.5t235 -235t323.5 -86.5q177 0 326 86.5t235 235
t86 323.5q0 174 -86 323t-235 236.5t-326 87.5q-175 0 -323.5 -87.5t-235 -236.5t-86.5 -323zM487 725q0 119 59 220.5t160.5 160.5t221.5 59t221.5 -59t160 -160.5t58.5 -220.5q0 -183 -128.5 -311.5t-311.5 -128.5t-312 128.5t-129 311.5zM584 725q0 -141 101.5 -242.5
t242.5 -101.5q144 0 246 101.5t102 242.5q0 142 -102 245t-246 103q-141 0 -242.5 -103.5t-101.5 -244.5z" />
    <glyph glyph-name="uni25C7" unicode="&#x25c7;" vert-adv-y="2263" 
d="M143 723l789 788l786 -788l-786 -789zM1589 723l-657 659l-658 -657l658 -659z" />
    <glyph glyph-name="uni25C6" unicode="&#x25c6;" vert-adv-y="2263" 
d="M934 -66l-791 791l789 786l788 -788z" />
    <glyph glyph-name="H22073" unicode="&#x25a1;" vert-adv-y="2263" 
d="M233 29v1392h1393v-1392h-1393zM1546 1341h-1235v-1232h1235v1232z" />
    <glyph glyph-name="filledbox" unicode="&#x25a0;" vert-adv-y="2263" 
d="M1630 29h-1394v1392h1394v-1392z" />
    <glyph glyph-name="uni25B3" unicode="&#x25b3;" vert-adv-y="2263" 
d="M1679 -184h-1493l746 1482zM332 -96h1194l-598 1192z" />
    <glyph glyph-name="triagup" unicode="&#x25b2;" vert-adv-y="2263" 
d="M1677 -174h-1489l744 1483z" />
    <glyph glyph-name="uni25BD" unicode="&#x25bd;" vert-adv-y="2263" 
d="M186 1313h1493l-747 -1483zM1530 1223h-1194l596 -1192z" />
    <glyph glyph-name="triagdn" unicode="&#x25bc;" vert-adv-y="2263" 
d="M188 1313h1489l-745 -1483z" />
    <glyph glyph-name="arrowright" unicode="&#x2192;" vert-adv-y="2263" 
d="M213 643v121h1133l-154 260l31 35l426 -354l-426 -355l-31 35l154 258h-1133z" />
    <glyph glyph-name="arrowleft" unicode="&#x2190;" vert-adv-y="2263" 
d="M1649 764v-121h-1133l154 -258l-31 -35l-426 355l426 354l31 -35l-154 -260h1133z" />
    <glyph glyph-name="arrowup" unicode="&#x2191;" vert-adv-y="2263" 
d="M991 0h-119v1133l-260 -154l-34 31l354 426l354 -426l-35 -31l-260 154v-1133z" />
    <glyph glyph-name="arrowdown" unicode="&#x2193;" vert-adv-y="2263" 
d="M872 1407h119v-1131l260 152l35 -31l-354 -426l-354 426l34 31l260 -152v1131z" />
    <glyph glyph-name="arrowboth" unicode="&#x2194;" vert-adv-y="2263" 
d="M424 643l154 -258l-31 -35l-426 355l426 354l31 -35l-154 -260h1016l-154 260l31 35l426 -354l-426 -355l-31 35l154 258h-1016z" />
    <glyph glyph-name="uni3013" unicode="&#x3013;" vert-adv-y="2263" 
d="M1595 477v-78h-1327v78h1327zM1595 879v-78h-1327v78h1327z" />
    <glyph glyph-name="guillemotleft" unicode="&#xab;" vert-adv-y="2263" 
d="M762 621l909 -594l-59 -97l-987 643v93l970 659l68 -92zM330 618l907 -598l-61 -98l-983 651v93l968 671l70 -96z" />
    <glyph glyph-name="guillemotright" unicode="&#xbb;" vert-adv-y="2263" 
d="M1237 666v-93l-987 -643l-57 97l909 596l-903 610l67 92zM1671 666v-93l-983 -651l-63 98l909 598l-901 623l67 96z" />
    <glyph glyph-name="radical" unicode="&#x221a;" horiz-adv-x="1101" vert-adv-y="2263" 
d="M1139 1638l-475 -1892h-74q-57 149 -167 449t-167 450l-145 -67q-6 12 -15.5 34.5t-15.5 34.5l229 94l312 -850h2l430 1747h86z" />
    <glyph glyph-name="uni223D" unicode="&#x223d;" vert-adv-y="2263" 
d="M1698 647q0 -157 -106 -271t-265 -114q-122 0 -250 88l70 94q77 -61 180 -61q107 0 176.5 75.5t69.5 188.5q0 102 -69.5 181t-174.5 79q-108 0 -186 -68.5t-150 -207.5q-18 -33 -25.5 -47t-28.5 -50.5t-35.5 -55.5t-41 -52t-49 -52t-56 -43t-66 -36.5t-74 -21.5t-85.5 -9
q-69 0 -133.5 25t-117 71.5t-84 121t-31.5 165.5q0 89 31 163t82.5 121t116 73t134.5 26q119 0 252 -86l-63 -96q-101 55 -174 55q-113 0 -182.5 -71.5t-69.5 -184.5q0 -117 66.5 -187.5t183.5 -70.5q58 0 109.5 22t87 53.5t68.5 77.5t53 82.5t41 79.5q1 3 1.5 4l1.5 3l2 4
q157 315 418 315q160 0 266.5 -114t106.5 -269z" />
    <glyph glyph-name="proportional" unicode="&#x221d;" vert-adv-y="2263" 
d="M616 389q205 0 328 256q-24 48 -53.5 89.5t-70 81.5t-93.5 63.5t-111 23.5q-114 0 -181.5 -72t-67.5 -184q0 -119 65 -188.5t184 -69.5zM1628 942l-69 -100q-97 65 -164 65q-110 0 -183 -62.5t-145 -199.5q74 -138 146 -200t182 -62q38 0 85.5 12.5t82.5 32.5l30 -115
q-96 -51 -198 -51q-122 0 -222.5 75.5t-168.5 188.5q-25 -43 -46.5 -75t-57 -69.5t-73.5 -61.5t-92 -40t-117 -16q-71 0 -138 24.5t-123 71t-90 121t-34 166.5q0 89 33 163t88 121t123 73t139 26q74 0 136 -23t109 -65.5t78.5 -83t64.5 -96.5q149 268 391 268q111 0 233 -88
z" />
    <glyph glyph-name="uni2235" unicode="&#x2235;" horiz-adv-x="1200" vert-adv-y="2263" 
d="M111 1032q0 44 28 72.5t72 28.5q38 0 68 -29t30 -72q0 -41 -30 -68.5t-68 -27.5q-44 0 -72 26.5t-28 69.5zM922 1032q0 45 27 73t71 28q38 0 69 -29t31 -72q0 -41 -30.5 -68.5t-69.5 -27.5q-44 0 -71 26.5t-27 69.5zM514 193q0 38 29.5 70t70.5 32q38 0 68.5 -32.5
t30.5 -69.5q0 -42 -29.5 -69.5t-69.5 -27.5q-43 0 -71.5 27.5t-28.5 69.5z" />
    <glyph glyph-name="integral" unicode="&#x222b;" horiz-adv-x="589" vert-adv-y="2263" 
d="M276 162q0 143 -9 502t-9 499q0 443 256 443q42 0 76 -15l-19 -75q-28 8 -51 8q-58 0 -94 -31.5t-56 -113t-20 -220.5q0 -147 10.5 -504t10.5 -497q0 -232 -64.5 -337.5t-191.5 -105.5q-46 0 -80 15l18 75q28 -8 56 -8q58 0 93.5 31.5t54.5 113t19 220.5z" />
    <glyph glyph-name="uni222C" unicode="&#x222c;" horiz-adv-x="997" vert-adv-y="2263" 
d="M276 162q0 143 -9 502t-9 499q0 443 256 443q42 0 76 -15l-19 -75q-28 8 -51 8q-58 0 -94 -31.5t-56 -113t-20 -220.5q0 -147 10.5 -504t10.5 -497q0 -232 -64.5 -337.5t-191.5 -105.5q-46 0 -80 15l18 75q28 -8 56 -8q58 0 93.5 31.5t54.5 113t19 220.5zM725 162
q0 143 -9 502t-9 499q0 443 256 443q41 0 75 -15l-18 -75q-28 8 -51 8q-58 0 -94 -31.5t-56 -113t-20 -220.5q0 -147 10 -503.5t10 -497.5q0 -232 -64.5 -337.5t-191.5 -105.5q-46 0 -80 15l19 75q28 -8 55 -8q58 0 93.5 31.5t55 113t19.5 220.5z" />
    <glyph glyph-name="element" unicode="&#x2208;" vert-adv-y="2263" 
d="M1628 719v-96h-1294q14 -161 129 -255t338 -94h831v-96h-819q-146 0 -259.5 38.5t-183.5 106.5t-105.5 157t-35.5 194q0 78 20.5 146.5t65 127.5t110.5 101t162 66t214 24h831v-97h-831q-222 0 -335.5 -88.5t-129.5 -234.5h1292z" />
    <glyph glyph-name="suchthat" unicode="&#x220b;" vert-adv-y="2263" 
d="M233 623v96h1291q-7 70 -36.5 127t-83.5 102.5t-142 70.5t-203 25h-830v95h830q147 0 259 -36t179.5 -100t101 -147t33.5 -182q0 -107 -35.5 -195.5t-105 -156.5t-183 -106t-259.5 -38h-820v94h830q226 0 340 94t127 257h-1293z" />
    <glyph glyph-name="reflexsubset" unicode="&#x2286;" vert-adv-y="2263" 
d="M1632 1268v-94h-831q-125 0 -217.5 -28t-146.5 -79t-79.5 -115t-25.5 -143q0 -179 114.5 -283t354.5 -104h831v-94h-819q-147 0 -260 36.5t-183 101.5t-105.5 151.5t-35.5 191.5q0 98 33.5 180t101 145t179 98.5t258.5 35.5h831zM1628 96v-94h-1321v94h1321z" />
    <glyph glyph-name="reflexsuperset" unicode="&#x2287;" vert-adv-y="2263" 
d="M229 1174v94h832q147 0 258.5 -35.5t179 -98.5t100.5 -145t33 -180q0 -105 -35.5 -191.5t-105 -151.5t-182.5 -101.5t-260 -36.5h-820v94h832q240 0 354.5 104t114.5 283q0 79 -25.5 143t-79.5 115t-146.5 79t-217.5 28h-832zM233 2v94h1321v-94h-1321z" />
    <glyph glyph-name="propersubset" unicode="&#x2282;" vert-adv-y="2263" 
d="M1632 1124v-94h-831q-125 0 -217.5 -30t-145.5 -84t-78.5 -121t-25.5 -148q0 -88 26.5 -159.5t81 -126.5t146 -85t213.5 -30h831v-94h-819q-146 0 -259.5 38.5t-183.5 107.5t-105.5 158.5t-35.5 196.5q0 99 33.5 182.5t100.5 149t179 102.5t259 37h831z" />
    <glyph glyph-name="propersuperset" unicode="&#x2283;" vert-adv-y="2263" 
d="M229 1071v94h830q147 0 259 -37t179.5 -102.5t101 -149t33.5 -182.5q0 -107 -35.5 -196.5t-105 -158.5t-183 -107.5t-259.5 -38.5h-820v94h830q240 0 354.5 109t114.5 292q0 64 -15.5 119.5t-51 104.5t-88.5 84t-133.5 55t-180.5 20h-830z" />
    <glyph glyph-name="union" unicode="&#x222a;" vert-adv-y="2263" 
d="M438 1298h103v-829q0 -126 30.5 -220t84 -149t121 -81.5t147.5 -26.5q182 0 291.5 118t109.5 359v829h102v-819q0 -146 -40 -259.5t-110.5 -183t-161 -105t-197.5 -35.5q-99 0 -184 33.5t-152 101t-105.5 180t-38.5 258.5v829z" />
    <glyph glyph-name="intersection" unicode="&#x2229;" vert-adv-y="2263" 
d="M932 1298q107 0 196 -35.5t156 -105t104 -182.5t37 -260v-819h-102v829q0 243 -105.5 363t-285.5 120q-179 0 -284 -120.5t-105 -362.5v-829h-103v819q0 147 37.5 260t104.5 182.5t155 105t195 35.5z" />
    <glyph glyph-name="logicaland" unicode="&#x2227;" vert-adv-y="2263" 
d="M987 1210l602 -1167l-104 -49l-553 1077l-551 -1077l-105 49l603 1167h108z" />
    <glyph glyph-name="logicalor" unicode="&#x2228;" vert-adv-y="2263" 
d="M1589 1174l-602 -1168h-108l-603 1168l105 49l551 -1078l553 1078z" />
    <glyph glyph-name="uniFFE2" unicode="&#xffe2;" vert-adv-y="2263" 
d="M1810 317v-636h-114v528h-1641v108h1755z" />
    <glyph glyph-name="arrowdblright" unicode="&#x21d2;" vert-adv-y="2263" 
d="M1333 1126l510 -510l-510 -512l-55 54l242 239h-1500v74h1571l148 145l-148 148h-1571v74h1498l-240 233z" />
    <glyph glyph-name="arrowdblboth" unicode="&#x21d4;" vert-adv-y="2263" 
d="M1337 1126l508 -510l-508 -512l-57 54l242 239h-1184l242 -239l-58 -54l-508 512l508 510l58 -55l-240 -233h1180l-240 233zM1593 471l148 145l-148 148h-1327l-147 -148l147 -145h1327z" />
    <glyph glyph-name="universal" unicode="&#x2200;" vert-adv-y="2263" 
d="M322 1423h92l182 -479h676l178 479h94l-565 -1476h-86zM1067 389l176 479h-618l182 -479q11 -28 43 -110.5t51.5 -136.5t34.5 -101q19 57 66 177.5t65 170.5z" />
    <glyph glyph-name="existential" unicode="&#x2203;" vert-adv-y="2263" 
d="M508 1423h862v-1476h-876v84h786v633h-729v81h729v594h-772v84z" />
    <glyph glyph-name="acute" unicode="&#xb4;" horiz-adv-x="1208" vert-adv-y="2263" 
d="M535 1169h-84l206 275h107z" />
    <glyph glyph-name="tilde" unicode="&#x2dc;" horiz-adv-x="1208" vert-adv-y="2263" 
d="M395 1219h-65q12 74 54.5 115.5t98.5 41.5q54 0 131.5 -43t112.5 -43q82 0 92 86h62q-9 -74 -52.5 -115.5t-101.5 -41.5q-54 0 -131.5 43t-112.5 43q-31 0 -55.5 -24.5t-32.5 -61.5z" />
    <glyph glyph-name="caron" unicode="&#x2c7;" horiz-adv-x="1208" vert-adv-y="2263" 
d="M563 1159l-198 266h77l166 -196l156 196h82l-203 -266h-80z" />
    <glyph glyph-name="breve" unicode="&#x2d8;" horiz-adv-x="1208" vert-adv-y="2263" 
d="M604 1145q-107 0 -178 69.5t-76 178.5h72q7 -76 57.5 -120t124.5 -44t123.5 43.5t58.5 120.5h72q-4 -108 -76 -178t-178 -70z" />
    <glyph glyph-name="hungarumlaut" unicode="&#x2dd;" horiz-adv-x="1208" vert-adv-y="2263" 
d="M373 1180l114 272h95l-133 -272h-76zM629 1180l116 272h97l-133 -272h-80z" />
    <glyph glyph-name="ring" unicode="&#x2da;" horiz-adv-x="1208" vert-adv-y="2263" 
d="M606 1155q-81 0 -130.5 52t-49.5 126q0 68 50 119t130 51q76 0 127 -51.5t51 -118.5q0 -73 -50.5 -125.5t-127.5 -52.5zM606 1219q45 0 72 32.5t27 81.5q0 44 -27 72.5t-72 28.5q-49 0 -76.5 -28.5t-27.5 -72.5q0 -49 27.5 -81.5t76.5 -32.5z" />
    <glyph glyph-name="dotaccent" unicode="&#x2d9;" horiz-adv-x="1208" vert-adv-y="2263" 
d="M549 1233v123h110v-123h-110z" />
    <glyph glyph-name="cedilla" unicode="&#xb8;" horiz-adv-x="1208" vert-adv-y="2263" 
d="M444 -397v69q125 9 180.5 33t55.5 74q0 45 -42 59.5t-149 14.5v157h78v-94q93 -3 146 -31t53 -94q0 -88 -75 -133.5t-247 -54.5z" />
    <glyph glyph-name="ogonek" unicode="&#x2db;" horiz-adv-x="1208" vert-adv-y="2263" 
d="M668 -393q-99 0 -153 36.5t-54 106.5q0 124 172 221h86q-44 -31 -59.5 -42.5t-45 -36.5t-40 -41t-20 -40.5t-9.5 -50.5q0 -92 121 -92q51 0 100 17v-62q-40 -16 -98 -16z" />
    <glyph glyph-name="exclamdown" unicode="&#xa1;" horiz-adv-x="532" vert-adv-y="2263" 
d="M338 1446v-172h-143v172h143zM229 1047h74l16 -1147h-106z" />
    <glyph glyph-name="questiondown" unicode="&#xbf;" horiz-adv-x="1019" vert-adv-y="2263" 
d="M524 1055h86v-99q0 -59 -22.5 -113t-58.5 -97t-79.5 -84t-86.5 -81.5t-79 -81.5t-58.5 -91.5t-22.5 -104.5v-39q0 -135 92 -207.5t229 -72.5q108 0 194 40t163 121l59 -59q-71 -78 -176.5 -133t-235.5 -55q-192 0 -303.5 98t-111.5 266v41q0 64 22.5 121.5t59 101.5
t80 86t87.5 81t80.5 79t59 89t22.5 102v92zM639 1446v-172h-143v172h143z" />
    <glyph glyph-name="uni2236" unicode="&#x2236;" vert-adv-y="2263" 
d="M930 346l162 -192h-318zM774 1108h318l-162 -195z" />
    <glyph glyph-name="uni222E" unicode="&#x222e;" vert-adv-y="2263" 
d="M1360 1329l-96 -43q-37 82 -103 82q-45 0 -86 -122t-65 -337q108 -13 179 -83t71 -185q0 -134 -84.5 -221t-204.5 -103q-14 -118 -37 -213.5t-56.5 -172t-81 -118.5t-104.5 -42q-125 0 -188 120l90 54q41 -84 104 -84q46 0 88.5 122.5t63.5 335.5q-101 16 -166.5 85
t-65.5 178q0 129 77 212.5t192 108.5q20 162 53.5 281.5t92 196.5t134.5 77q129 0 193 -129zM1159 612v25q0 80 -41.5 138t-113.5 73q-5 -59 -11.5 -225.5t-15.5 -243.5q76 19 125.5 81t56.5 152zM881 840q-73 -27 -117.5 -95t-44.5 -161q0 -77 36.5 -130.5t100.5 -72.5
q6 68 12.5 228t12.5 231z" />
    <glyph glyph-name="summation" unicode="&#x2211;" horiz-adv-x="1202" vert-adv-y="2263" 
d="M197 1423h847v-80h-733l437 -663l-447 -653h758v-80h-862v61l452 670l-452 690v55z" />
    <glyph glyph-name="product" unicode="&#x220f;" horiz-adv-x="1271" vert-adv-y="2263" 
d="M1198 1348h-229v-1389h-84v1389h-498v-1389h-84v1389h-229v75h1124v-75z" />
    <glyph glyph-name="currency" unicode="&#xa4;" vert-adv-y="2263" 
d="M233 94l226 201q-113 151 -113 348t113 348l-226 203l50 55l225 -202q81 83 189 128.5t231 45.5q124 0 233.5 -47t190.5 -132l229 207l49 -55l-231 -207q112 -146 112 -344q0 -195 -112 -344l231 -205l-49 -55l-229 205q-80 -84 -189.5 -130t-234.5 -46q-124 0 -232 45.5
t-188 126.5l-225 -201zM418 643q0 -144 66.5 -261.5t183.5 -185t260 -67.5q218 0 365 148t147 366q0 144 -67 262t-184.5 186t-260.5 68t-260 -68t-183.5 -186t-66.5 -262z" />
    <glyph glyph-name="uni2109" unicode="&#x2109;" horiz-adv-x="1669" vert-adv-y="2263" 
d="M317 1157q54 0 84.5 32.5t30.5 86.5q0 52 -30.5 84.5t-84.5 32.5t-84 -32.5t-30 -84.5q0 -54 30 -86.5t84 -32.5zM668 1423h843v-84h-753v-632h710v-82h-710v-678h-90v1476zM317 1096q-84 0 -133 50.5t-49 127.5t49 127.5t133 50.5t133.5 -50.5t49.5 -127.5t-49.5 -127.5
t-133.5 -50.5z" />
    <glyph glyph-name="perthousand" unicode="&#x2030;" horiz-adv-x="2447" vert-adv-y="2263" 
d="M463 -51h-90l895 1474h88zM451 1434q146 0 226.5 -87t80.5 -247v-99q0 -160 -80.5 -246.5t-226.5 -86.5t-227 86.5t-81 246.5v99q0 160 81 247t227 87zM451 743q225 0 225 263v90q0 140 -62 201t-163 61t-163.5 -61t-62.5 -201v-90q0 -73 18 -126t50 -82t71 -42t87 -13z
M1274 696q146 0 226.5 -87t80.5 -247v-98q0 -160 -80.5 -247t-226.5 -87t-226.5 87t-80.5 247v98q0 160 80.5 247t226.5 87zM1274 6q225 0 225 262v90q0 141 -62 202t-163 61t-163 -61t-62 -202v-90q0 -262 225 -262zM1997 696q146 0 226.5 -87t80.5 -247v-98
q0 -160 -80.5 -247t-226.5 -87t-226.5 87t-80.5 247v98q0 160 80.5 247t226.5 87zM1997 6q225 0 225 262v90q0 141 -62 202t-163 61t-163 -61t-62 -202v-90q0 -262 225 -262z" />
    <glyph glyph-name="uni25C1" unicode="&#x25c1;" vert-adv-y="2263" 
d="M379 614l1149 -718v1441zM1559 1405v-1577l-1254 786z" />
    <glyph glyph-name="uni25C0" unicode="&#x25c0;" vert-adv-y="2263" 
d="M1559 1405v-1577l-1254 786z" />
    <glyph glyph-name="uni25B7" unicode="&#x25b7;" vert-adv-y="2263" 
d="M338 -104l1149 718l-1149 723v-1441zM305 1405l1254 -791l-1254 -786v1577z" />
    <glyph glyph-name="uni25B6" unicode="&#x25b6;" vert-adv-y="2263" 
d="M305 1405l1254 -791l-1254 -786v1577z" />
    <glyph glyph-name="uni2664" unicode="&#x2664;" vert-adv-y="2263" 
d="M1540 412q0 241 -608 972q-608 -731 -608 -972q0 -41 11.5 -82t34 -79.5t64 -62.5t94.5 -24q55 0 114.5 26t104.5 52t64 26q29 0 40 -6.5t12 -26t-3 -53.5q-7 -112 -76 -329q-4 -19 11 -29t43 -12q68 -5 94 -5q32 0 94 5q28 2 41.5 12t9.5 29q-65 205 -73 329q-6 56 1 71
t48 15q19 0 64 -26t105 -52t115 -26q69 0 117 42t67 96t19 110zM1595 414q0 -134 -77.5 -219.5t-204.5 -85.5q-37 0 -79 13t-74.5 29.5t-94.5 51.5q5 -79 35 -192.5t69 -188.5q17 -39 -28 -45q-92 -10 -209 -10q-114 0 -209 10q-46 6 -29 45q40 84 69.5 191.5t37.5 189.5
q-67 -37 -97 -52t-72.5 -28.5t-80.5 -13.5q-126 0 -203.5 85.5t-77.5 219.5q0 80 46 186.5t158.5 267t179.5 248.5t229 290q11 14 17 21.5t15 19t17 21.5q285 -355 389 -499q273 -380 274 -555z" />
    <glyph glyph-name="spade" unicode="&#x2660;" vert-adv-y="2263" 
d="M1595 414q0 -134 -77.5 -219.5t-204.5 -85.5q-37 0 -79 13t-74.5 29.5t-94.5 51.5q5 -79 35 -192.5t69 -188.5q17 -39 -28 -45q-92 -10 -209 -10q-114 0 -209 10q-46 6 -29 45q40 84 69.5 191.5t37.5 189.5q-67 -37 -97 -52t-72.5 -28.5t-80.5 -13.5q-126 0 -203.5 85.5
t-77.5 219.5q0 80 46 186.5t158.5 267t179.5 248.5t229 290q11 14 17 21.5t15 19t17 21.5q285 -355 389 -499q273 -380 274 -555z" />
    <glyph glyph-name="uni2661" unicode="&#x2661;" vert-adv-y="2263" 
d="M1589 981q0 146 -89.5 246t-237.5 100q-63 0 -122.5 -44.5t-96.5 -103.5t-56 -120q-4 -13 -7.5 -36t-6.5 -35t-13.5 -22t-27.5 -10q-14 0 -23.5 4.5t-15.5 16.5t-9 21t-7 30t-7 31q-16 56 -51 114.5t-94 106t-123 47.5q-137 0 -231.5 -101.5t-94.5 -244.5
q0 -120 61.5 -268.5t165.5 -297.5t208 -273.5t221 -245.5q117 120 222.5 245.5t208.5 274t164.5 297t61.5 268.5zM1642 973q0 -111 -46.5 -242t-118 -250.5t-169.5 -246.5t-188.5 -226t-187.5 -192q-96 94 -186 192.5t-188.5 225.5t-170 246.5t-118 250.5t-46.5 242
q0 169 104.5 283t254.5 114q133 0 220.5 -87t129.5 -277q43 190 130.5 277t221.5 87q150 0 254 -114t104 -283z" />
    <glyph glyph-name="heart" unicode="&#x2665;" vert-adv-y="2263" 
d="M1642 973q0 -111 -46.5 -242t-118 -250.5t-169.5 -246.5t-188.5 -226t-187.5 -192q-96 94 -186 192.5t-188.5 225.5t-170 246.5t-118 250.5t-46.5 242q0 169 104.5 283t254.5 114q133 0 220.5 -87t129.5 -277q43 190 130.5 277t221.5 87q150 0 254 -114t104 -283z" />
    <glyph glyph-name="uni2667" unicode="&#x2667;" vert-adv-y="2263" 
d="M1669 430q0 70 -27.5 139t-84.5 118.5t-130 49.5q-51 0 -102 -19.5t-84 -43t-70 -43t-63 -19.5q-52 0 -80.5 33.5t-28.5 87.5q0 30 17 57t42.5 47.5t55.5 49t55.5 59.5t42.5 83t17 116q0 112 -91.5 181t-205.5 69q-71 0 -137.5 -28.5t-113 -87.5t-46.5 -134
q0 -76 24 -134t57.5 -92t67.5 -61.5t58 -58.5t24 -66q0 -54 -28.5 -87.5t-81.5 -33.5q-26 0 -62.5 19.5t-70 43t-84 43t-101.5 19.5q-73 0 -130.5 -49.5t-85 -118.5t-27.5 -139q0 -121 69 -214t185 -93q61 0 114 20.5t88.5 50.5t65 59.5t58 50t54.5 20.5q23 0 30 -12t7 -40
q0 -47 -16 -106t-32.5 -138t-16.5 -173q0 -7 2.5 -12t8.5 -9t12 -6.5t15.5 -4t17.5 -2.5t19.5 -1h19h19.5h17h18h19.5h19.5t19.5 1t17.5 2.5t16 4t12 6.5t8.5 9t2.5 12q0 94 -17 173t-34 138t-17 106q0 28 7 40t30 12q25 0 54 -20.5t59.5 -50t66.5 -59.5t89 -50.5t114 -20.5
q116 0 184 92.5t68 214.5zM1741 434q0 -99 -41.5 -184.5t-121.5 -139t-181 -53.5q-95 0 -181 51t-143 115q31 -74 54.5 -191t23.5 -220q0 -33 -69 -38q-16 -1 -150 -1q-9 0 -31 -0.5t-39.5 -0.5t-41 0.5t-41 3t-33.5 6.5t-24.5 12t-8.5 18q0 108 23.5 225t56.5 186
q-60 -65 -145 -115.5t-179 -50.5q-152 0 -249 112t-97 265q0 94 42.5 177t120.5 134.5t173 51.5q98 0 246 -74q12 -6 28 -6q18 0 27.5 9t9.5 22q0 16 -22 38q-102 91 -142.5 162.5t-40.5 177.5q0 146 108.5 237t258.5 91t258 -91t108 -237q0 -107 -40 -179t-142 -161
q-22 -22 -22 -38q0 -13 9 -22t27 -9q14 0 29 6q75 36 131 55t117 19q95 0 172.5 -51.5t119.5 -134.5t42 -177z" />
    <glyph glyph-name="club" unicode="&#x2663;" vert-adv-y="2263" 
d="M1741 434q0 -99 -41.5 -184.5t-121.5 -139t-181 -53.5q-95 0 -181 51t-143 115q31 -74 54.5 -191t23.5 -220q0 -33 -69 -38q-16 -1 -150 -1q-9 0 -31 -0.5t-39.5 -0.5t-41 0.5t-41 3t-33.5 6.5t-24.5 12t-8.5 18q0 108 23.5 225t56.5 186q-60 -65 -145 -115.5t-179 -50.5
q-152 0 -249 112t-97 265q0 94 42.5 177t120.5 134.5t173 51.5q98 0 246 -74q12 -6 28 -6q18 0 27.5 9t9.5 22q0 16 -22 38q-102 91 -142.5 162.5t-40.5 177.5q0 146 108.5 237t258.5 91t258 -91t108 -237q0 -107 -40 -179t-142 -161q-22 -22 -22 -38q0 -13 9 -22t27 -9
q14 0 29 6q75 36 131 55t117 19q95 0 172.5 -51.5t119.5 -134.5t42 -177z" />
    <glyph glyph-name="uni25C9" unicode="&#x25c9;" vert-adv-y="2263" 
d="M1249 612q0 -132 -92.5 -224.5t-224.5 -92.5q-130 0 -224 93t-94 224t94 224.5t224 93.5q132 0 224.5 -93t92.5 -225zM1677 612q0 150 -59.5 288t-159.5 238.5t-238 160t-288 59.5q-149 0 -286.5 -59.5t-237 -160t-159 -238.5t-59.5 -288q0 -149 59.5 -286.5t159 -237
t237 -158.5t286.5 -59q201 0 372.5 100t272 270.5t100.5 370.5zM1722 612q0 -215 -105.5 -397t-287.5 -287.5t-397 -105.5q-159 0 -305 62.5t-252.5 168t-170 252t-63.5 307.5t63.5 308t170 252.5t252.5 168t305 62.5q161 0 307.5 -62.5t252 -168.5t168 -252.5t62.5 -307.5z
" />
    <glyph glyph-name="uni25C8" unicode="&#x25c8;" vert-adv-y="2263" 
d="M932 1163l555 -555l-555 -553l-555 553zM930 -186l796 796l-794 793l-797 -795zM932 1491l880 -881l-882 -878l-877 876z" />
    <glyph glyph-name="uni25A3" unicode="&#x25a3;" vert-adv-y="2263" 
d="M1409 1085v-952h-952v952h952zM242 -80h1382v1380h-1382v-1380zM1688 1364v-1507h-1510v1507h1510z" />
    <glyph glyph-name="uni25D0" unicode="&#x25d0;" vert-adv-y="2263" 
d="M1651 612q0 145 -57.5 278t-154 229.5t-229.5 154t-278 57.5v-1435q193 0 359 96.5t263 261.5t97 358zM1731 612q0 -217 -107 -401t-291 -290.5t-401 -106.5q-161 0 -308.5 63t-255 169.5t-171.5 254.5t-64 311t64 311t171.5 255t255 170t308.5 63q217 0 401 -107
t291 -291t107 -401z" />
    <glyph glyph-name="uni25D1" unicode="&#x25d1;" vert-adv-y="2263" 
d="M932 -104v1435q-145 0 -278 -57.5t-229.5 -154t-154 -229.5t-57.5 -278q0 -193 97 -358t263 -261.5t359 -96.5zM1731 612q0 -163 -64 -311t-171.5 -254.5t-255 -169.5t-308.5 -63q-217 0 -401 106.5t-291 290.5t-107 401t107 401t291 291t401 107q161 0 308.5 -63
t255 -170t171.5 -255t64 -311z" />
    <glyph glyph-name="shade" unicode="&#x2592;" vert-adv-y="2263" 
d="M408 39q0 -24 -13.5 -38.5t-36.5 -14.5t-38 15t-15 38t15 37t38 14q50 0 50 -51zM600 39q0 -23 -15 -38t-36 -15q-23 0 -38 15t-15 38t15 37t38 14q21 0 36 -14t15 -37zM408 231q0 -24 -13.5 -38.5t-36.5 -14.5t-38 15t-15 38q0 21 15 35.5t38 14.5t36.5 -14.5
t13.5 -35.5zM600 231q0 -23 -15 -38t-36 -15q-23 0 -38 15t-15 38q0 21 15 35.5t38 14.5q20 0 35.5 -15t15.5 -35zM793 39q0 -23 -15.5 -38t-38.5 -15t-37 15t-14 38q0 51 51 51q24 0 39 -14t15 -37zM408 422q0 -24 -13.5 -38.5t-36.5 -14.5t-38 15t-15 38t15 38t38 15
t36.5 -14.5t13.5 -38.5zM793 231q0 -23 -15.5 -38t-38.5 -15t-37 15t-14 38q0 21 14 35.5t37 14.5t38.5 -14.5t15.5 -35.5zM600 422q0 -23 -15 -38t-36 -15q-23 0 -38 15t-15 38t15 38t38 15q21 0 36 -15t15 -38zM983 39q0 -23 -14 -38t-37 -15q-21 0 -36 15t-15 38t15 37
t36 14q51 0 51 -51zM408 614q0 -21 -14 -36t-36 -15q-23 0 -38 15t-15 36q0 23 15 37.5t38 14.5q50 0 50 -52zM983 231q0 -23 -14 -38t-37 -15q-21 0 -36 15t-15 38q0 20 15.5 35t35.5 15q23 0 37 -14.5t14 -35.5zM793 422q0 -23 -15.5 -38t-38.5 -15t-37 15t-14 38t14 38
t37 15t38.5 -15t15.5 -38zM600 614q0 -20 -15.5 -35.5t-35.5 -15.5q-23 0 -38 15t-15 36q0 23 15 37.5t38 14.5q21 0 36 -14.5t15 -37.5zM1178 39q0 -23 -15.5 -38t-38.5 -15t-38 15t-15 38t15 37t38 14q24 0 39 -14t15 -37zM408 807q0 -24 -13.5 -38.5t-36.5 -14.5t-38 15
t-15 38t15 38t38 15t36.5 -14.5t13.5 -38.5zM1178 231q0 -23 -15.5 -38t-38.5 -15t-38 15t-15 38q0 21 15 35.5t38 14.5t38.5 -14.5t15.5 -35.5zM983 422q0 -23 -14 -38t-37 -15q-21 0 -36 15t-15 38t15 38t36 15q23 0 37 -15t14 -38zM793 614q0 -21 -15.5 -36t-38.5 -15
t-37 15t-14 36q0 52 51 52q23 0 38.5 -14.5t15.5 -37.5zM600 807q0 -23 -15 -38t-36 -15q-23 0 -38 15t-15 38t15 38t38 15q21 0 36 -15t15 -38zM1368 39q0 -23 -14 -38t-37 -15t-37 15t-14 38q0 51 51 51t51 -51zM408 997q0 -21 -13.5 -35t-36.5 -14t-38 14t-15 35
q0 23 15 38.5t38 15.5t36.5 -15t13.5 -39zM1561 39q0 -23 -15.5 -38t-38.5 -15t-37 15t-14 38q0 51 51 51q24 0 39 -14t15 -37zM1368 231q0 -23 -14 -38t-37 -15t-37 15t-14 38q0 21 14 35.5t37 14.5t37 -14.5t14 -35.5zM1178 422q0 -23 -15.5 -38t-38.5 -15t-38 15t-15 38
t15 38t38 15t38.5 -15t15.5 -38zM983 614q0 -21 -14 -36t-37 -15q-20 0 -35.5 15.5t-15.5 35.5q0 23 15 37.5t36 14.5q51 0 51 -52zM793 807q0 -23 -15.5 -38t-38.5 -15t-37 15t-14 38t14 38t37 15t38.5 -15t15.5 -38zM600 997q0 -20 -15.5 -34.5t-35.5 -14.5q-23 0 -38 14
t-15 35q0 23 15 38.5t38 15.5q21 0 36 -15.5t15 -38.5zM408 1190q0 -51 -50 -51q-23 0 -38 14t-15 37t15 38t38 15t36.5 -14.5t13.5 -38.5zM1561 231q0 -23 -15.5 -38t-38.5 -15t-37 15t-14 38q0 21 14 35.5t37 14.5t38.5 -14.5t15.5 -35.5zM600 1190q0 -23 -15 -37t-36 -14
q-23 0 -38 14t-15 37t15 38t38 15q21 0 36 -15t15 -38zM1368 422q0 -23 -14 -38t-37 -15t-37 15t-14 38t14 38t37 15t37 -15t14 -38zM1178 614q0 -21 -15.5 -36t-38.5 -15t-38 15t-15 36q0 23 15 37.5t38 14.5t38.5 -14.5t15.5 -37.5zM983 807q0 -23 -14 -38t-37 -15
q-21 0 -36 15t-15 38t15 38t36 15q23 0 37 -15t14 -38zM793 997q0 -20 -15.5 -34.5t-38.5 -14.5t-37 14t-14 35q0 24 14 39t37 15t38.5 -15.5t15.5 -38.5zM1561 422q0 -23 -15.5 -38t-38.5 -15t-37 15t-14 38t14 38t37 15t38.5 -15t15.5 -38zM793 1190q0 -23 -15 -37
t-39 -14q-51 0 -51 51q0 23 14 38t37 15t38.5 -15t15.5 -38zM1368 614q0 -21 -14 -36t-37 -15t-37 15t-14 36q0 52 51 52t51 -52zM1178 807q0 -23 -15.5 -38t-38.5 -15t-38 15t-15 38t15 38t38 15t38.5 -15t15.5 -38zM983 997q0 -21 -14 -35t-37 -14q-20 0 -35.5 14.5
t-15.5 34.5q0 23 15 38.5t36 15.5q23 0 37 -15t14 -39zM1561 614q0 -21 -15.5 -36t-38.5 -15t-37 15t-14 36q0 52 51 52q23 0 38.5 -14.5t15.5 -37.5zM983 1190q0 -51 -51 -51q-21 0 -36 14t-15 37t15 38t36 15q23 0 37 -15t14 -38zM1368 807q0 -23 -14 -38t-37 -15t-37 15
t-14 38t14 38t37 15t37 -15t14 -38zM1178 997q0 -20 -15.5 -34.5t-38.5 -14.5t-38 14t-15 35q0 23 15 38.5t38 15.5t38.5 -15.5t15.5 -38.5zM1561 807q0 -23 -15.5 -38t-38.5 -15t-37 15t-14 38t14 38t37 15t38.5 -15t15.5 -38zM1178 1190q0 -23 -15 -37t-39 -14
q-23 0 -38 14t-15 37t15 38t38 15t38.5 -15t15.5 -38zM1368 997q0 -21 -14 -35t-37 -14t-37 14t-14 35q0 24 14 39t37 15t37 -15t14 -39zM1561 997q0 -20 -15.5 -34.5t-38.5 -14.5t-37 14t-14 35q0 24 14 39t37 15t38.5 -15.5t15.5 -38.5zM1368 1190q0 -51 -51 -51t-51 51
q0 23 14 38t37 15t37 -15t14 -38zM1561 1190q0 -23 -15 -37t-39 -14q-51 0 -51 51q0 23 14 38t37 15t38.5 -15t15.5 -38zM238 -84h1388v1387h-1388v-1387zM1694 1370v-1522h-1524v1522h1524z" />
    <glyph glyph-name="uni25A4" unicode="&#x25a4;" vert-adv-y="2263" 
d="M238 -84h1388v137h-1388v-137zM238 119h1388v139h-1388v-139zM238 324h1388v147h-1388v-147zM238 537h1388v145h-1388v-145zM238 748h1388v135h-1388v-135zM238 948h1388v150h-1388v-150zM238 1163h1388v140h-1388v-140zM1694 1370v-1522h-1524v1522h1524z" />
    <glyph glyph-name="uni25A5" unicode="&#x25a5;" vert-adv-y="2263" 
d="M238 -84h139v1387h-139v-1387zM442 -84h150v1387h-150v-1387zM657 -84h136v1387h-136v-1387zM858 -84h146v1387h-146v-1387zM1069 -84h148v1387h-148v-1387zM1282 -84h139v1387h-139v-1387zM1487 -84h139v1387h-139v-1387zM1694 1370v-1522h-1524v1522h1524z" />
    <glyph glyph-name="uni25A8" unicode="&#x25a8;" vert-adv-y="2263" 
d="M238 -35l1337 1338h-240l-1097 -1096v-242zM238 305l999 998h-242l-757 -756v-242zM238 645l659 658h-244l-415 -414v-244zM238 987l317 316h-317v-316zM1307 -84h319v320zM1208 -84l418 418v241l-659 -659h241zM868 -84l758 758v241l-999 -999h241zM528 -84l1098 1098
v241l-1339 -1339h241zM1694 1370v-1522h-1524v1522h1524z" />
    <glyph glyph-name="uni25A7" unicode="&#x25a7;" vert-adv-y="2263" 
d="M238 -84h319l-319 320v-320zM655 -84h242l-659 659v-241zM995 -84h242l-999 999v-241zM1335 -84h242l-1339 1339v-241zM289 1303l1337 -1338v242l-1098 1096h-239zM627 1303l999 -998v242l-758 756h-241zM967 1303l659 -658v244l-416 414h-243zM1309 1303l317 -316v316
h-317zM1694 1370v-1522h-1524v1522h1524z" />
    <glyph glyph-name="uni25A6" unicode="&#x25a6;" vert-adv-y="2263" 
d="M238 -84h145v145h-145v-145zM238 123h145v145h-145v-145zM444 -84h146v145h-146v-145zM444 123h146v145h-146v-145zM238 330h145v145h-145v-145zM651 -84h146v145h-146v-145zM651 123h146v145h-146v-145zM444 330h146v145h-146v-145zM238 537h145v145h-145v-145zM858 -84
h146v145h-146v-145zM858 123h146v145h-146v-145zM651 330h146v145h-146v-145zM444 537h146v145h-146v-145zM238 743h145v146h-145v-146zM1065 -84h145v145h-145v-145zM1065 123h145v145h-145v-145zM858 330h146v145h-146v-145zM651 537h146v145h-146v-145zM444 743h146v146
h-146v-146zM238 950h145v146h-145v-146zM1272 -84h145v145h-145v-145zM1272 123h145v145h-145v-145zM1065 330h145v145h-145v-145zM858 537h146v145h-146v-145zM651 743h146v146h-146v-146zM444 950h146v146h-146v-146zM238 1157h145v146h-145v-146zM1481 -84h145v145h-145
v-145zM1272 330h145v145h-145v-145zM1065 537h145v145h-145v-145zM858 743h146v146h-146v-146zM651 950h146v146h-146v-146zM444 1157h146v146h-146v-146zM1481 123h145v145h-145v-145zM1272 537h145v145h-145v-145zM1065 743h145v146h-145v-146zM858 950h146v146h-146v-146
zM651 1157h146v146h-146v-146zM1481 330h145v145h-145v-145zM1272 743h145v146h-145v-146zM1065 950h145v146h-145v-146zM858 1157h146v146h-146v-146zM1481 537h145v145h-145v-145zM1272 950h145v146h-145v-146zM1065 1157h145v146h-145v-146zM1481 743h145v146h-145v-146z
M1272 1157h145v146h-145v-146zM1481 950h145v146h-145v-146zM1481 1157h145v146h-145v-146zM1694 1370v-1522h-1524v1522h1524z" />
    <glyph glyph-name="uni25A9" unicode="&#x25a9;" vert-adv-y="2263" 
d="M281 -84h276l-139 139zM238 -27l131 131l-131 132v-263zM606 -35l119 123l-137 137l-121 -121zM418 154l121 120l-131 132l-121 -121zM653 -84h244l-121 121zM238 336l120 119l-120 120v-239zM946 -35l121 121l-121 121l-121 -121zM774 135l123 121l-137 139l-123 -121z
M588 324l121 120l-131 131l-121 -120zM408 504l120 121l-120 120l-121 -120zM238 674l120 121l-120 120v-241zM995 -84h242l-121 121zM1286 -35l121 121l-121 121l-121 -121zM1116 135l121 121l-121 121l-121 -121zM760 494l119 118l-131 133l-121 -120zM578 674l120 121
l-120 120l-121 -120zM408 844l120 121l-120 120l-121 -120zM944 307l123 119l-137 139l-121 -123zM238 1014l120 121l-120 120v-241zM1335 -84h242l-121 121zM1505 86l121 -121v242zM408 1184l120 119h-239zM750 842l118 121l-123 120l-118 -118zM1456 135l121 121l-121 121
l-121 -121zM1286 305l121 121l-123 121l-119 -119zM930 662l119 120l-131 131l-119 -120zM578 1014l120 119l-123 122l-118 -120zM1114 477l123 119l-139 137l-119 -121zM1505 426l121 -121v242zM748 1182l120 121h-241zM1456 475l121 121l-123 121l-121 -121zM1284 645
l121 123l-135 135l-121 -121zM1100 831l121 121l-134 129l-120 -118zM918 1012l122 121l-122 120l-121 -120zM1503 766l123 -123v246zM1090 1180l122 123h-245zM1270 999l121 123l-131 131l-123 -120zM1454 815l123 123l-135 137l-125 -123zM1440 1171l133 132h-264z
M1489 1122l137 -135v273zM1694 1370v-1522h-1524v1522h1524z" />
    <glyph glyph-name="uni2668" unicode="&#x2668;" vert-adv-y="2263" 
d="M1747 207q0 -123 -111.5 -222t-295 -152.5t-398.5 -53.5q-216 0 -404.5 47t-305.5 133.5t-117 192.5q0 52 23 100t63 84t83.5 65.5t96.5 52t88.5 35t71.5 23.5q21 7 26 -8q6 -16 -17 -27q-2 -1 -5 -2q-14 -6 -23.5 -10.5t-41.5 -21t-56 -32t-56 -41.5t-53 -51.5
t-36 -58.5t-15 -67q0 -50 59.5 -91t158 -66t217.5 -38.5t245 -13.5q167 0 320 29.5t255.5 88.5t102.5 134q0 40 -26 79t-65 67.5t-76.5 48.5t-68.5 30q-24 7 -18 22.5t27 10.5q36 -4 90 -24t115 -54t104 -89.5t43 -119.5zM784 535q10 -103 -112 -338q-46 -86 -49 -127
q-2 -18 -13 -18t-22 18q-9 21 -14.5 47.5t-3.5 68t16 82.5q18 48 31 115t12 161t-29 163q-101 241 45 512q34 57 47 122q3 11 9 14.5t11.5 -0.5t8.5 -12q36 -107 -21 -307q-14 -52 1 -129.5t44.5 -185t38.5 -186.5zM1075 586q2 -24 3 -43t-5 -46t-12 -48t-17 -48.5
t-19.5 -47.5t-21 -45.5t-21 -42t-19 -36.5t-15.5 -30q-58 -107 -61 -150q-1 -12 -8 -15.5t-15 0.5t-12 13q-10 25 -14.5 58.5t2 86.5t28.5 107q29 66 37.5 141.5t0 137t-19 102t-20.5 63.5q-20 46 -31.5 90t-16 78t-1 71.5t8 61.5t17 57.5t20.5 50t24 48t22 43.5
q47 96 47 191q0 15 5.5 20t13 0t12.5 -16q15 -34 25 -83t7 -119.5t-26 -133.5q-20 -57 -22.5 -108.5t9 -99.5t27.5 -90.5t36.5 -102.5t31.5 -115zM1346 610q6 -71 -11 -138t-39 -106t-55 -89t-43 -70q-39 -76 -57 -150q-5 -13 -13.5 -15t-15.5 15q-13 26 -12 92.5t20 110.5
q119 298 54 453q-44 98 -53 186t5 149t48 142q26 68 26 141q0 20 9 23t20 -19q53 -98 24 -293q-11 -60 0 -118t27.5 -91.5t37.5 -95t28 -127.5z" />
    <glyph glyph-name="uni260F" unicode="&#x260f;" vert-adv-y="2263" 
d="M1268 430q0 138 -99 237t-237 99t-237 -99t-99 -237t99 -236t237 -98t237 98t99 236zM1296 430q0 -150 -107 -257t-257 -107q-149 0 -257 107.5t-108 256.5q0 150 107.5 257.5t257.5 107.5q151 0 257.5 -107t106.5 -258zM225 -18h1413q9 0 13.5 27.5t-4.5 60.5t-31 45
q0 76 -21 163.5t-71 135.5q-14 13 -45.5 43t-41 39.5t-32.5 32t-30.5 32t-22.5 28t-22.5 32t-16.5 31.5t-17 38q-70 189 -55 359h-108v-168h-402v168h-106q15 -163 -58 -359q-18 -48 -46.5 -88.5t-53.5 -66t-96 -93.5q-19 -18 -29 -28q-50 -48 -71 -135.5t-21 -163.5
q-22 -12 -31 -45t-6 -60.5t12 -27.5zM1759 676q11 2 18.5 27.5t6 66t-11.5 86.5t-39.5 95.5t-73.5 86.5q-87 72 -318.5 124t-408.5 52q-216 0 -425 -50t-300 -126q-45 -36 -74.5 -86t-39.5 -95.5t-10.5 -86.5t6.5 -66t17 -28q72 -7 176 21.5t185 66.5q13 8 3 47t-22.5 81.5
t1.5 84.5q19 50 73.5 73t184.5 23q47 0 94 -8q78 -16 131 -16q56 0 131 16q47 8 96 8q88 0 141.5 -12.5t76 -31.5t38.5 -52q10 -25 5.5 -62.5t-15 -65t-14.5 -54.5t8 -31q72 -38 180.5 -66.5t179.5 -21.5zM756 905h352v146q-90 -21 -176 -21t-176 21v-146zM1798 672
q-8 -13 -23 -20.5t-39 -8t-44.5 0.5t-54 8.5t-53 12t-54.5 13.5q-161 48 -174 110q-6 22 17 83t20 79q-12 65 -117 86q-9 -36 -6.5 -110t28.5 -160q26 -96 68 -149t121 -117q48 -40 79.5 -89t44 -99.5t16 -83.5t3.5 -74q29 -11 39 -62t4 -102q-3 -33 -69 -33h-1344
q-67 0 -70 33q-6 51 4 102t39 62q0 225 144 346q53 43 80.5 70.5t58.5 78t49 117.5q39 144 23 270q-105 -21 -117 -86q-5 -19 19 -80t18 -82q-13 -62 -174 -110q-35 -9 -54.5 -13.5t-53 -12t-54 -8.5t-44.5 -0.5t-39 8t-23 20.5q-17 28 -17.5 85t19 124t55.5 112
q64 82 196 139t287 82t326 25t326 -25t287 -82t196 -139q36 -45 55.5 -112t19 -124t-17.5 -85z" />
    <glyph glyph-name="uni260E" unicode="&#x260e;" vert-adv-y="2263" 
d="M1233 426q0 124 -88.5 212.5t-212.5 88.5t-212.5 -88.5t-88.5 -212.5t88 -211.5t213 -87.5t213 87.5t88 211.5zM772 899h320v133q-78 -20 -160 -20t-160 20v-133zM1798 672q-8 -13 -23 -20.5t-39 -8t-44.5 0.5t-54 8.5t-53 12t-54.5 13.5q-161 48 -174 110q-6 22 15 83
t18 79q-7 37 -36 52.5t-77 23.5q-9 -36 -6.5 -105t28.5 -155q26 -96 68 -149t121 -117q48 -40 79.5 -89t44 -99.5t16 -83.5t3.5 -74q29 -11 39 -62t4 -102q-3 -33 -69 -33h-1344q-67 0 -70 33q-6 51 4 102t39 62q0 225 144 346q53 43 80.5 70.5t58.5 78t49 117.5
q38 141 23 260q-31 -5 -51 -11t-38.5 -22.5t-23.5 -42.5q-5 -19 17 -80t16 -82q-13 -62 -174 -110q-35 -9 -54.5 -13.5t-53 -12t-54 -8.5t-44.5 -0.5t-39 8t-23 20.5q-17 28 -17.5 84.5t19 123t55.5 111.5q94 122 319 185t490 63t490 -63t319 -185q36 -45 55.5 -111.5
t19 -123t-17.5 -84.5z" />
    <glyph glyph-name="uni261C" unicode="&#x261c;" vert-adv-y="2263" 
d="M1735 860v-483h-156v43h-59q-130 -78 -344 -113q-77 -10 -202.5 -9.5t-193.5 9.5q-101 16 -112 68q-8 42 30 65q-29 0 -52.5 19t-24.5 49q-2 37 22 61q-74 8 -74 68q0 44 39 63t129 19l-6 16q-158 5 -350 15q-133 7 -167 14q-86 19 -87 74q0 24 15.5 39t48.5 22.5
t67.5 11t88.5 6.5q14 1 22 1q127 10 587 10q178 0 247 -10q157 -22 255 -111q66 -15 123 -12v65h154zM1540 444h41v316q-46 -5 -90 6l4 -16q3 -20 0 -22t-14 11q-40 47 -119 101q-57 37 -183 50.5t-196 4.5q-70 -7 -135 -49q-24 -14 -45 -55q-15 -35 -39 -50q-10 -13 7 -19
q18 -6 56 9q23 8 46 28.5t35.5 32t17.5 5.5q12 -11 -8 -31q15 -6 41.5 -8.5t41.5 0.5q23 6 44.5 17t30.5 15.5t11 0.5q3 -9 -5 -23.5t-23 -24.5q15 -23 59.5 -54.5t102.5 -51.5q45 -15 94.5 -21.5t71.5 -9.5t22 -14q-3 -13 -64.5 -8.5t-113.5 18.5q-75 24 -128 64t-77 73
q-12 -8 -47 -8q-45 2 -86 14l-31 -26q55 0 91 -13.5t42 -37.5q15 -55 -22 -84q57 -15 63 -58q3 -25 -4.5 -39t-25.5 -26q59 -13 65 -58q4 -36 -27 -67q29 -6 72 0q248 21 414 127q11 11 14 3q1 -2 0 -5zM879 895q-140 0 -508 -8q-115 -4 -162 -12.5t-47 -36.5
q0 -30 40 -38.5t169 -17.5q314 -15 383 -16l43 65q33 48 82 64zM1612 410h90v415h-90v-415zM1004 506q1 29 -12 40.5t-46 16.5q-67 7 -244 0q-20 -1 -33.5 -16t-13.5 -35q0 -33 52 -41q20 -4 124.5 -6t108.5 0q23 0 43 10.5t21 30.5zM1038 397q-3 37 -63 37q-145 4 -232 -2
q-21 -1 -30 -15.5t-6 -33.5q4 -31 36 -37q101 -20 234 -8q34 1 49 16t12 43zM956 647q0 32 -41 35q-181 11 -274 0q-19 -3 -30 -16t-9 -29q0 -15 11 -27t30 -12q158 -8 275 4q38 7 38 45z" />
    <glyph glyph-name="uni261E" unicode="&#x261e;" vert-adv-y="2263" 
d="M1735 838q0 -27 -19 -45t-52.5 -25.5t-70 -11t-81.5 -5.5q-21 0 -31 -1q-190 -10 -351 -15l-6 -16q90 0 129 -19t39 -63q0 -60 -73 -68q24 -24 22 -61q-1 -30 -25 -49t-53 -19q39 -23 31 -65q-11 -51 -113 -68q-68 -9 -193 -9.5t-202 9.5q-214 35 -344 113h-59v-43h-156
v483h154v-65q56 -3 122 12q32 30 68 51.5t79 34.5t76 20.5t85.5 10.5t79.5 3.5t85 0.5h29q461 0 588 -10q145 -9 183 -20q59 -17 59 -60zM1098 741q-24 15 -39 50q-21 41 -45 55q-65 42 -135 49q-70 9 -196 -4.5t-183 -50.5q-79 -54 -119 -101q-11 -13 -14 -11t0 22l4 16
q-44 -11 -90 -6v-316h41l-5 17q-3 9 2 9q5 -1 13 -7q77 -49 172.5 -82t240.5 -45q41 -7 70 0q-3 0 -10 7.5t-12.5 24t-1.5 35.5q6 45 65 58q-12 8 -18.5 15t-10.5 19.5t-2 30.5q9 44 64 58q-38 30 -23 84q15 51 133 51l-30 26q-41 -12 -86 -14q-35 0 -47 8q-24 -33 -77 -73
t-128 -64q-52 -14 -113.5 -18.5t-64.5 8.5q0 11 22 14t71.5 9.5t94.5 21.5q58 20 102.5 51.5t59.5 54.5q-15 10 -23.5 24.5t-5.5 23.5q2 4 11 -0.5t30.5 -15.5t44.5 -17q15 -3 42 -0.5t42 8.5q-20 20 -8 31q5 6 17 -5.5t35 -32t46 -28.5q53 -21 65 -3q4 6 -1 13zM1700 838
q0 28 -47 36.5t-162 12.5q-368 8 -508 8q49 -16 82 -64l43 -65q69 1 383 16q129 9 169 17.5t40 38.5zM160 410h90v415h-90v-415zM1206 512q0 20 -13.5 35t-33.5 16q-177 7 -244 0q-32 -5 -45 -16.5t-12 -40.5q1 -20 21 -30.5t43 -10.5q4 -2 108.5 0t124.5 6q51 8 51 41z
M1155 383q3 18 -6.5 33t-30.5 16q-87 6 -231 2q-61 0 -64 -37q-6 -56 62 -59q132 -12 233 8q33 6 37 37zM1260 637q2 16 -9 29t-30 16q-94 11 -275 0q-41 -3 -41 -35q0 -38 39 -45q117 -12 275 -4q19 0 30 12t11 27z" />
    <glyph glyph-name="paragraph" unicode="&#xb6;" horiz-adv-x="1175" vert-adv-y="2263" 
d="M610 -250v977h-123q-78 0 -147.5 22t-126 65.5t-90 116t-33.5 165.5q0 370 430 370h467v-1716h-67v1657h-238v-1657h-72z" />
    <glyph glyph-name="dagger" unicode="&#x2020;" horiz-adv-x="1013" vert-adv-y="2263" 
d="M461 -186v1106h-326v75h326v422h88v-422h330v-75h-330v-1106h-88z" />
    <glyph glyph-name="daggerdbl" unicode="&#x2021;" horiz-adv-x="1013" vert-adv-y="2263" 
d="M135 236v75h326v609h-326v75h326v422h88v-422h330v-75h-330v-609h330v-75h-330v-422h-88v422h-326z" />
    <glyph glyph-name="arrowupdn" unicode="&#x2195;" vert-adv-y="2263" 
d="M1251 979l-260 154v-857l260 152l35 -31l-354 -426l-354 426l34 31l260 -152v857l-260 -154l-34 31l354 426l354 -426z" />
    <glyph glyph-name="uni2197" unicode="&#x2197;" vert-adv-y="2263" 
d="M291 -23l-84 86l1190 1190l-291 74l-2 47l551 51l-51 -551l-48 3l-73 290z" />
    <glyph glyph-name="uni2199" unicode="&#x2199;" vert-adv-y="2263" 
d="M1573 1430l84 -84l-1192 -1190l291 -76l4 -47l-553 -51l51 553l47 -5l76 -290z" />
    <glyph glyph-name="uni2196" unicode="&#x2196;" vert-adv-y="2263" 
d="M1655 63l-84 -86l-1192 1190l-74 -290l-47 -3l-51 551l551 -51l-2 -47l-291 -74z" />
    <glyph glyph-name="uni2198" unicode="&#x2198;" vert-adv-y="2263" 
d="M207 1346l84 84l1192 -1190l76 290l47 5l51 -553l-553 51l4 47l291 76z" />
    <glyph glyph-name="uni266D" unicode="&#x266d;" horiz-adv-x="1058" vert-adv-y="2263" 
d="M705 469q0 111 -42 185.5t-108 74.5q-72 0 -125 -41.5t-75.5 -95t-22.5 -105.5v-438q51 4 101 19.5t100 48t87.5 78.5t61 117t23.5 157zM856 545q0 -133 -42.5 -238t-108 -168.5t-155.5 -106.5t-173.5 -60.5t-173.5 -22.5v1362h129v-672q70 195 286 195q101 0 169.5 -80
t68.5 -209z" />
    <glyph glyph-name="uni2669" unicode="&#x2669;" horiz-adv-x="794" vert-adv-y="2263" 
d="M590 1356v-1120q0 -93 -15 -149.5t-57 -106.5q-39 -46 -90.5 -77.5t-104.5 -36t-90 37.5q-36 44 -28 96t45 101t88 79q78 45 174 60v1116h78z" />
    <glyph glyph-name="musicalnote" unicode="&#x266a;" horiz-adv-x="1103" vert-adv-y="2263" 
d="M981 694q0 -132 -80 -256q-39 -60 -100.5 -119t-118.5 -92q-22 -13 -29 -2t9 27q202 196 202 395q0 37 -14.5 70t-34 57.5t-54.5 48t-61 37.5t-69.5 30.5t-63.5 23t-59 18.5v-696q0 -93 -15 -149.5t-57 -106.5q-39 -46 -90 -77.5t-104 -36t-90 37.5q-36 44 -28 96
t44.5 101t87.5 79q78 45 174 60v1024q0 82 19 82q13 0 24.5 -9.5t38.5 -40.5q73 -85 143 -145q176 -151 251 -257t75 -200z" />
    <glyph glyph-name="uni266C" unicode="&#x266c;" horiz-adv-x="1419" vert-adv-y="2263" 
d="M514 844l711 151v119l-711 -151v-119zM1307 1321v-930q0 -127 -138 -244q-40 -32 -82.5 -51.5t-89 -16t-75.5 41.5q-31 49 -0.5 118.5t88.5 112.5q53 39 100 54t115 24v373l-711 -154v-456q0 -128 -137 -244q-40 -32 -83 -51.5t-89.5 -16.5t-75.5 41q-31 49 -0.5 119
t88.5 113q37 27 76 43.5t66 22t73 11.5v914z" />
    <glyph glyph-name="uni327F" unicode="&#x327f;" vert-adv-y="2263" 
d="M1802 616q0 -177 -63.5 -336t-176 -277t-277 -187.5t-355.5 -69.5q-162 0 -305 51t-251 141.5t-183 214.5t-109 271l160 2q64 -243 242.5 -389t445.5 -146q155 0 287.5 53t225 145t148 217t62.5 267h-359v148h502q6 -53 6 -105zM1747 905h-162q-87 203 -252.5 319.5
t-402.5 116.5q-145 0 -270 -47t-215 -130.5t-149.5 -196.5t-80.5 -246h250v-148h-404v43q0 176 64 335t176.5 277t276 187.5t352.5 69.5q297 0 507 -155.5t310 -424.5zM1372 1090l-364 -373l381 -547h-205l-289 430l-131 -133v-297h-164v920h164v-424l397 424h211z" />
    <glyph glyph-name="uni321C" unicode="&#x321c;" vert-adv-y="2263" 
d="M164 664v-103q0 -525 280 -909h-88q-301 359 -301 919v82q0 557 301 916h88q-280 -376 -280 -905zM1700 561v103q0 528 -281 905h88q301 -359 301 -916v-82q0 -560 -301 -919h-88q281 385 281 909zM479 1208h903v-86h-399v-30q0 -30 5.5 -56t20.5 -49t29.5 -40.5
t44 -36.5t51.5 -32t65 -32t71 -31t83 -34t89 -36l-39 -81q-437 181 -469 258q-6 -15 -24 -31.5t-54.5 -38t-70 -39t-96.5 -46.5t-106.5 -48t-125.5 -55q-6 14 -31 63l-11 24l3 -6q33 14 87 36.5t82 34.5t71 31t65 32.5t52 33t45 37t30 40t21 48t6 54.5v30h-398v86zM330 539
h1202v-86h-551v-467h-100v467h-551v86z" />
    <glyph glyph-name="afii61352" unicode="&#x2116;" horiz-adv-x="1884" vert-adv-y="2263" 
d="M1397 1044q321 0 321 -382v-78q0 -381 -321 -381q-324 0 -324 381v78q0 382 324 382zM184 1423h115l508 -1259q12 -36 20 -72v1331h91v-1476h-115l-508 1259q-16 37 -21 72v-1331h-90v1476zM1397 287q121 0 176 76t55 231v59q0 155 -55 229t-176 74q-123 0 -178.5 -74
t-55.5 -229v-59q0 -155 56 -231t178 -76zM1106 -53v104h584v-104h-584z" />
    <glyph glyph-name="uni33C7" unicode="&#x33c7;" horiz-adv-x="1884" vert-adv-y="2263" 
d="M1716 -53v119h84v-119h-84zM1321 -76q-91 0 -159 30.5t-112 85.5t-71 140.5t-38 186.5t-11 233v170q0 133 11.5 234.5t39 187t72 140t111.5 84.5t157 30t157.5 -30t112 -84.5t71.5 -140t38.5 -187t11.5 -234.5v-170q0 -132 -11 -233t-38 -186.5t-71 -140.5t-112 -85.5
t-159 -30.5zM1321 1362q-70 0 -122 -28t-85.5 -77.5t-53.5 -125.5t-28 -163t-8 -200v-166q0 -113 8 -200t28 -163t53.5 -125.5t85.5 -77.5t122 -28q69 0 121 28t85.5 77.5t54 125.5t28.5 163t8 200v166q0 113 -8 200t-28.5 163t-54 125.5t-85.5 77.5t-121 28zM827 154
l68 -64q-56 -72 -144.5 -119t-203.5 -47q-129 0 -218.5 45.5t-141.5 137.5t-74.5 215t-22.5 292v181q0 310 106.5 480.5t331.5 170.5q200 0 340 -133l-61 -78q-63 62 -124.5 90.5t-150.5 28.5q-348 0 -348 -559v-174q0 -117 11 -208t37.5 -167t68 -126t104.5 -77t146 -27
q74 0 151 36.5t125 101.5z" />
    <glyph glyph-name="trademark" unicode="&#x2122;" horiz-adv-x="1468" vert-adv-y="2263" 
d="M698 756v667h115l215 -454h2l209 454h117v-667h-76v585h-2l-209 -450h-80l-215 450h-2v-585h-74zM293 756v594h-232v73h541v-73h-231v-594h-78z" />
    <glyph glyph-name="uni33C2" unicode="&#x33c2;" vert-adv-y="2263" 
d="M512 766v-819h-74v102q-54 -117 -184 -117q-90 0 -147.5 74.5t-57.5 220.5v60q0 145 78.5 219t196.5 74h98v161q0 65 -7.5 111t-19.5 71t-31.5 39t-36.5 17.5t-42 3.5q-86 0 -166 -80l-56 66q106 102 222 102q49 0 87 -13t71 -45t51 -94.5t18 -152.5zM424 180v324h-111
q-172 0 -172 -225v-37q0 -234 127 -234q79 0 117.5 50.5t38.5 121.5zM750 -53v1104h88v-115q27 60 85 97.5t117 37.5q154 0 193 -143q27 65 83 104t130 39q96 0 152.5 -67.5t56.5 -208.5v-848h-90v811q0 115 -30.5 171t-113.5 56q-60 0 -101 -36.5t-57 -83.5t-16 -99v-819
h-90v829q0 113 -28.5 161t-108.5 48q-85 0 -132.5 -69.5t-47.5 -161.5v-807h-90zM1720 -53v119h84v-119h-84zM602 -53v119h84v-119h-84z" />
    <glyph glyph-name="uni33D8" unicode="&#x33d8;" vert-adv-y="2263" 
d="M186 88v-580h-90v1543h78v-115q26 64 77 99.5t114 35.5q120 0 171.5 -108.5t51.5 -344.5v-235q0 -169 -28.5 -272t-74 -142t-112.5 -39q-66 0 -116 39t-71 119zM498 391v227q0 73 -6.5 134t-22 116t-45 86t-70.5 31q-37 0 -65 -12.5t-46 -36.5t-30 -51t-17.5 -64
t-7.5 -68t-2 -69v-350q0 -69 18 -140t58 -124.5t92 -53.5q86 0 115 81t29 294zM608 -53v119h84v-119h-84zM1716 -53v119h84v-119h-84zM774 -53v1104h88v-115q27 60 83 97.5t114 37.5q147 0 186 -143q27 66 80 104.5t127 38.5q94 0 148.5 -67t54.5 -209v-848h-90v811
q0 53 -5 89.5t-18.5 70t-42 50.5t-72.5 17q-45 0 -79 -20.5t-52.5 -54t-27 -70t-8.5 -74.5v-819h-91v829q0 113 -26 161t-105 48q-57 0 -98 -35.5t-58.5 -86t-17.5 -109.5v-807h-90z" />
    <glyph glyph-name="uni2121" unicode="&#x2121;" horiz-adv-x="2146" vert-adv-y="2263" 
d="M829 1051h560v-82h-469v-410h426v-82h-426v-448h483v-82h-574v1104zM512 -53h-88v1394h-399v82h895v-82h-408v-1394zM1579 1051h90v-1022h453v-82h-543v1104z" />
    <glyph glyph-name="uniFF01" unicode="&#xff01;" vert-adv-y="2263" 
d="M860 -102v172h144v-172h-144zM969 297h-74l-16 1147h106z" />
    <glyph glyph-name="uniFF02" unicode="&#xff02;" vert-adv-y="2263" 
d="M842 999h-74l-16 488h106zM1096 999h-74l-16 488h106z" />
    <glyph glyph-name="uniFF03" unicode="&#xff03;" vert-adv-y="2263" 
d="M1143 508h231v-78h-239l-70 -483h-78l70 483h-322l-67 -483h-80l69 483h-231v78h240l51 364h-228v78h238l68 473h77l-67 -473h319l68 473h80l-70 -473h236v-78h-244zM1065 508l51 364h-321l-52 -364h322z" />
    <glyph glyph-name="uniFF04" unicode="&#xff04;" vert-adv-y="2263" 
d="M905 -190v159q-271 9 -467 156l49 70q189 -142 418 -146v617l-20 6q-92 22 -161 46t-113.5 51.5t-72.5 54.5t-42 61t-18.5 63.5t-4.5 69.5v47q0 84 38.5 149t102.5 103t137.5 58.5t153.5 23.5v139h74v-139q234 -11 389 -121l-47 -66q-155 99 -342 107v-584
q136 -36 218 -67.5t134.5 -74t72 -93t19.5 -125.5v-53q0 -142 -119 -241.5t-325 -109.5v-161h-74zM1339 373q0 71 -26.5 114t-104 81.5t-229.5 78.5v-596q164 10 262 87t98 186v49zM557 1020q0 -51 12 -84.5t49 -66t105.5 -59.5t181.5 -56v565q-62 -3 -120 -19t-111 -45
t-85 -78.5t-32 -113.5v-43z" />
    <glyph glyph-name="uniFF05" unicode="&#xff05;" vert-adv-y="2263" 
d="M532 -51h-90l895 1474h88zM520 1434q146 0 226.5 -87t80.5 -247v-99q0 -160 -80.5 -246.5t-226.5 -86.5t-226.5 86.5t-80.5 246.5v99q0 160 80.5 247t226.5 87zM520 743q225 0 225 263v90q0 140 -62 201t-163 61t-163 -61t-62 -201v-90q0 -263 225 -263zM1343 696
q146 0 227 -87t81 -247v-98q0 -160 -81 -247t-227 -87t-226.5 87t-80.5 247v98q0 160 80.5 247t226.5 87zM1343 6q226 0 226 262v90q0 140 -62.5 201.5t-163.5 61.5t-163 -61t-62 -202v-90q0 -262 225 -262z" />
    <glyph glyph-name="uniFF06" unicode="&#xff06;" vert-adv-y="2263" 
d="M1456 -53l-164 188q-185 -211 -475 -211h-12q-123 0 -228 44t-168 123.5t-63 176.5v51q0 60 14 107t40.5 86.5t79 80.5t113 79t159.5 92l-41 49q-4 5 -27 32t-28 33t-25 30.5t-25 32.5t-20 30t-20 33t-14.5 31t-12.5 35t-6 34t-3 37v30q0 49 20.5 96t60.5 88t108 66
t153 25q81 0 147.5 -25t107.5 -65t63 -86.5t22 -93.5v-39q0 -107 -73.5 -196t-264.5 -198l414 -483q118 186 121 438h80q-6 -296 -148 -501l215 -250h-100zM813 0q265 0 428 197l-438 508q-173 -97 -227 -137q-114 -83 -138 -185q-8 -33 -8 -72v-37q0 -112 110 -193t273 -81
zM612 1145q0 -24 4.5 -47t17.5 -48t23 -43t34 -48t37.5 -46.5t46.5 -54t48 -55.5q174 98 242 173.5t68 168.5v22q0 89 -71.5 146t-189.5 57q-117 0 -188.5 -55.5t-71.5 -147.5v-22z" />
    <glyph glyph-name="uniFF07" unicode="&#xff07;" vert-adv-y="2263" 
d="M969 999h-74l-16 488h106z" />
    <glyph glyph-name="uniFF08" unicode="&#xff08;" vert-adv-y="2263" 
d="M1524 664v-103q0 -520 284 -909h-86q-149 177 -224 415t-75 504v82q0 266 75 502t224 414h86q-284 -381 -284 -905z" />
    <glyph glyph-name="uniFF09" unicode="&#xff09;" vert-adv-y="2263" 
d="M340 561v103q0 522 -285 905h86q149 -178 224 -414t75 -502v-82q0 -266 -75 -504t-224 -415h-86q285 390 285 909z" />
    <glyph glyph-name="uniFF0A" unicode="&#xff0a;" vert-adv-y="2263" 
d="M899 1036l-289 -180l-43 76l307 162l-307 159l43 76l289 -180l-16 344h94l-14 -344l290 180l41 -76l-307 -159l307 -162l-41 -76l-290 180l14 -342h-94z" />
    <glyph glyph-name="uniFF0B" unicode="&#xff0b;" vert-adv-y="2263" 
d="M887 1157h90v-459h446v-86h-446v-487h-90v487h-447v86h447v459z" />
    <glyph glyph-name="uniFF0C" unicode="&#xff0c;" vert-adv-y="2263" 
d="M825 -358l74 456h137l-121 -456h-90z" />
    <glyph glyph-name="uniFF0D" unicode="&#xff0d;" vert-adv-y="2263" 
d="M627 639v90h610v-90h-610z" />
    <glyph glyph-name="uniFF0E" unicode="&#xff0e;" vert-adv-y="2263" 
d="M846 -96v184h172v-184h-172z" />
    <glyph glyph-name="uniFF0F" unicode="&#xff0f;" vert-adv-y="2263" 
d="M1194 1550h90l-614 -1800h-90z" />
    <glyph glyph-name="uniFF10" unicode="&#xff10;" vert-adv-y="2263" 
d="M1413 801v-230q0 -323 -115 -485t-370 -162q-251 0 -364 163t-113 484v230q0 319 114.5 482t362.5 163q251 0 368 -163.5t117 -481.5zM1325 569v234q0 281 -92.5 421t-304.5 140q-206 0 -297.5 -141t-91.5 -420v-234q0 -283 91 -423t298 -140q212 0 304.5 139.5
t92.5 423.5z" />
    <glyph glyph-name="uniFF11" unicode="&#xff11;" vert-adv-y="2263" 
d="M1204 -53h-90v1353l-414 -249l-41 71l492 301h53v-1476z" />
    <glyph glyph-name="uniFF12" unicode="&#xff12;" vert-adv-y="2263" 
d="M477 23l623 729q92 108 117.5 171.5t25.5 145.5v16q0 131 -83.5 205t-239.5 74q-118 0 -209 -58t-162 -184l-74 43q151 281 440 281q188 0 302 -96t114 -260v-21q0 -99 -36 -177.5t-132 -193.5l-563 -665h786v-86h-909v76z" />
    <glyph glyph-name="uniFF13" unicode="&#xff13;" vert-adv-y="2263" 
d="M582 1167l-72 50q54 95 161.5 162t256.5 67q192 0 309 -101.5t117 -267.5v-20q0 -47 -13 -92.5t-42 -92t-83.5 -86.5t-130.5 -65q154 -26 240 -118t86 -224v-31q0 -64 -15.5 -123t-51.5 -114.5t-90.5 -96.5t-138.5 -65.5t-189 -24.5q-268 0 -473 164l51 76
q191 -156 422 -156q87 0 156.5 22t113 56.5t72.5 80t41 90t12 89.5v27q0 74 -27 130.5t-67 88t-94 51.5t-99.5 26.5t-91.5 6.5h-164v82h160q42 0 85 10t87 33.5t77.5 57.5t55 87t21.5 117v16q0 127 -89 205t-245 78q-225 0 -348 -195z" />
    <glyph glyph-name="uniFF14" unicode="&#xff14;" vert-adv-y="2263" 
d="M1149 864h90v-487h229v-88h-229v-342h-90v342h-754v88l740 1046h106l-741 -1046h649v487z" />
    <glyph glyph-name="uniFF15" unicode="&#xff15;" vert-adv-y="2263" 
d="M1321 356v35q0 369 -369 369q-180 0 -315 -135h-102l47 798h737v-84h-655l-35 -624q56 56 145.5 92.5t188.5 36.5q203 0 325.5 -116t122.5 -331v-39q0 -63 -15 -122t-51.5 -116.5t-91 -100t-138.5 -69t-189 -26.5q-268 0 -473 164l51 76q191 -156 422 -156q86 0 156 23
t113.5 59t72.5 83t41 92.5t12 90.5z" />
    <glyph glyph-name="uniFF16" unicode="&#xff16;" vert-adv-y="2263" 
d="M1356 1346l-39 -72q-146 90 -320 90q-98 0 -173 -35t-124.5 -96t-83.5 -154.5t-51 -200t-24 -243.5q46 113 159 178.5t250 65.5q207 0 332 -120.5t125 -328.5v-45q0 -145 -64 -251t-168.5 -158t-234.5 -52q-98 0 -182.5 35t-153.5 106t-109 191.5t-40 278.5v36
q0 454 136 664.5t400 210.5q204 0 365 -100zM557 438v-12q0 -186 109.5 -303t273.5 -117q165 0 271 100t106 281v27q0 185 -96 286t-277 101q-170 0 -278.5 -105.5t-108.5 -257.5z" />
    <glyph glyph-name="uniFF17" unicode="&#xff17;" vert-adv-y="2263" 
d="M1415 1360l-622 -1413h-101l623 1392h-866v84h966v-63z" />
    <glyph glyph-name="uniFF18" unicode="&#xff18;" vert-adv-y="2263" 
d="M592 1073v-26q0 -134 92.5 -221t249.5 -87q156 0 247 87t91 221v26q0 127 -91.5 209t-248.5 82q-162 0 -251 -81.5t-89 -209.5zM549 338v-27q0 -129 102.5 -217t280.5 -88q180 0 281.5 87.5t101.5 217.5v27q0 147 -106 236.5t-277 89.5q-169 0 -276 -88t-107 -238z
M463 313v35q0 124 77.5 220t217.5 132q-114 49 -181 136.5t-67 212.5v36q0 158 120 259.5t302 101.5t302 -101.5t120 -259.5v-36q0 -126 -69 -215t-183 -134q144 -37 221.5 -132t77.5 -220v-35q0 -175 -131.5 -282t-337.5 -107t-337.5 107t-131.5 282z" />
    <glyph glyph-name="uniFF19" unicode="&#xff19;" vert-adv-y="2263" 
d="M506 25l39 71q146 -90 319 -90q242 0 345 174t112 549q-46 -113 -159.5 -178.5t-250.5 -65.5q-207 0 -331.5 120.5t-124.5 328.5v51q0 145 64 251t168.5 158t234.5 52q80 0 150.5 -21t132.5 -67.5t106.5 -115.5t70 -172t25.5 -230v-52q0 -197 -24 -345.5t-68 -246.5
t-112 -159.5t-148.5 -87t-184.5 -25.5q-202 0 -364 101zM1305 926v18q0 190 -107 305t-276 115q-165 0 -271 -100t-106 -281v-33q0 -185 96 -286t277 -101q170 0 278.5 105.5t108.5 257.5z" />
    <glyph glyph-name="uniFF1A" unicode="&#xff1a;" vert-adv-y="2263" 
d="M846 66v184h172v-184h-172zM846 963v184h172v-184h-172z" />
    <glyph glyph-name="uniFF1B" unicode="&#xff1b;" vert-adv-y="2263" 
d="M870 963v184h172v-184h-172zM821 -195l74 457h137l-121 -457h-90z" />
    <glyph glyph-name="uniFF1C" unicode="&#xff1c;" vert-adv-y="2263" 
d="M543 662v-5l868 -458v-97l-958 516v80l958 516v-96z" />
    <glyph glyph-name="uniFF1D" unicode="&#xff1d;" vert-adv-y="2263" 
d="M479 825v93h905v-93h-905zM479 393v92h905v-92h-905z" />
    <glyph glyph-name="uniFF1E" unicode="&#xff1e;" vert-adv-y="2263" 
d="M1321 657v5l-868 456v96l958 -516v-80l-958 -516v97z" />
    <glyph glyph-name="uniFF1F" unicode="&#xff1f;" vert-adv-y="2263" 
d="M934 289h-86v98q0 59 22.5 113t58.5 97t79.5 84t86.5 81.5t79 81.5t58.5 91.5t22.5 104.5v39q0 135 -92.5 208t-228.5 73q-108 0 -193.5 -40t-162.5 -122l-60 59q72 79 177 134t235 55q192 0 304 -98.5t112 -266.5v-41q0 -64 -22.5 -121.5t-59 -101.5t-80.5 -85.5
t-88 -81t-80.5 -79t-59 -88.5t-22.5 -102v-92zM819 -102v172h144v-172h-144z" />
    <glyph glyph-name="uniFF20" unicode="&#xff20;" vert-adv-y="2263" 
d="M1468 98q-87 0 -155 45t-96 133h-3q-27 -61 -87 -102.5t-119 -56.5t-113 -15q-172 0 -266 103.5t-94 290.5v157q0 184 100.5 287.5t265.5 103.5q94 0 177 -35.5t120 -95.5v115h92v-676q0 -81 53.5 -124.5t126.5 -43.5q53 0 98.5 22t83.5 68.5t59.5 130t21.5 197.5v29
q0 178 -50.5 321t-150 247.5t-257 161t-362.5 56.5q-175 0 -320.5 -57.5t-247.5 -162.5t-158 -256.5t-56 -334.5v-35q0 -255 92 -442.5t278.5 -293t450.5 -105.5q346 0 602 137l35 -78q-264 -143 -631 -143q-421 0 -668 247t-247 676v39q0 258 103 459.5t302 317.5t465 116
q219 0 392.5 -63.5t285.5 -178.5t171 -273t59 -349v-29q0 -72 -9 -138.5t-34 -136t-63 -120t-102 -83t-145 -32.5zM625 643v-137q0 -172 73.5 -246t210.5 -74q135 0 213 82.5t78 210.5v258q0 87 -84 155.5t-207 68.5q-136 0 -210 -84t-74 -234z" />
    <glyph glyph-name="uniFF21" unicode="&#xff21;" vert-adv-y="2263" 
d="M1442 -53l-176 477h-668l-180 -477h-99l570 1476h90l563 -1476h-100zM811 981l-182 -477h606l-176 477q-14 40 -41 110.5t-47.5 127.5t-36.5 108q-25 -86 -123 -346z" />
    <glyph glyph-name="uniFF22" unicode="&#xff22;" vert-adv-y="2263" 
d="M444 -53v1476h457q231 0 341 -88t110 -270v-47q0 -105 -59 -185t-183 -110q309 -42 309 -334v-55q0 -387 -450 -387h-525zM532 680v-651h445q176 0 263 75t87 230v49q0 149 -95 223t-310 74h-390zM909 1341h-377v-581h388q160 0 251 65.5t91 198.5v41q0 136 -83 206
t-270 70z" />
    <glyph glyph-name="uniFF23" unicode="&#xff23;" vert-adv-y="2263" 
d="M1401 160l53 -68q-28 -26 -64.5 -50t-95 -53t-139 -47t-168.5 -18q-152 0 -264.5 50t-180.5 144t-101 220.5t-33 288.5v157q0 310 142.5 486t412.5 176q267 0 454 -137l-49 -70q-94 64 -185.5 92.5t-219.5 28.5q-220 0 -341.5 -148t-121.5 -403v-205q0 -291 125 -442.5
t366 -151.5q131 0 236.5 45.5t173.5 104.5z" />
    <glyph glyph-name="uniFF24" unicode="&#xff24;" vert-adv-y="2263" 
d="M420 1423h436q284 0 436 -163t152 -469v-211q0 -301 -159.5 -467t-428.5 -166h-436v1476zM510 1337v-1304h356q101 0 188.5 35t154 101t105 172t38.5 239v200q0 276 -126.5 416.5t-361.5 140.5h-354z" />
    <glyph glyph-name="uniFF25" unicode="&#xff25;" vert-adv-y="2263" 
d="M494 1423h862v-84h-772v-594h729v-81h-729v-633h786v-84h-876v1476z" />
    <glyph glyph-name="uniFF26" unicode="&#xff26;" vert-adv-y="2263" 
d="M510 1423h844v-84h-754v-632h711v-82h-711v-678h-90v1476z" />
    <glyph glyph-name="uniFF27" unicode="&#xff27;" vert-adv-y="2263" 
d="M1372 102v527h-368v86h456v-664q-53 -48 -178 -87.5t-289 -39.5q-152 0 -266 50t-184.5 143.5t-105 221t-34.5 288.5v157q0 309 147 485.5t419 176.5q137 0 256 -37t205 -100l-50 -70q-94 63 -188 92t-223 29q-221 0 -347 -148.5t-126 -402.5v-205q0 -289 129.5 -441.5
t371.5 -152.5q109 0 211 24.5t164 67.5z" />
    <glyph glyph-name="uniFF28" unicode="&#xff28;" vert-adv-y="2263" 
d="M1343 1423h91v-1476h-91v733h-825v-733h-90v1476h90v-659h825v659z" />
    <glyph glyph-name="uniFF29" unicode="&#xff29;" vert-adv-y="2263" 
d="M887 1423h90v-1476h-90v1476z" />
    <glyph glyph-name="uniFF2A" unicode="&#xff2a;" vert-adv-y="2263" 
d="M1278 1423v-1116q0 -100 -27.5 -175t-77 -119.5t-114 -66.5t-144.5 -22q-194 0 -329 105l45 71q122 -94 280 -94q277 0 277 303v1114h90z" />
    <glyph glyph-name="uniFF2B" unicode="&#xff2b;" vert-adv-y="2263" 
d="M1411 1423l-610 -624l647 -852h-111l-600 788l-233 -239v-549h-90v1476h90v-813l784 813h123z" />
    <glyph glyph-name="uniFF2C" unicode="&#xff2c;" vert-adv-y="2263" 
d="M504 1423h90v-1392h766v-84h-856v1476z" />
    <glyph glyph-name="uniFF2D" unicode="&#xff2d;" vert-adv-y="2263" 
d="M895 193l-416 845q-59 115 -114 242v-1333h-89v1476h103l557 -1128l545 1128h106v-1476h-88v1317q-44 -101 -121 -252l-405 -819h-78z" />
    <glyph glyph-name="uniFF2E" unicode="&#xff2e;" vert-adv-y="2263" 
d="M426 1423h123l735 -1251q30 -51 64 -125v1376h88v-1476h-123l-735 1251q-30 52 -64 125v-1376h-88v1476z" />
    <glyph glyph-name="uniFF2F" unicode="&#xff2f;" vert-adv-y="2263" 
d="M1499 778v-186q0 -197 -62 -346t-191.5 -235.5t-313.5 -86.5t-313.5 86.5t-191.5 235.5t-62 346v186q0 197 62 346t191.5 235.5t313.5 86.5t313.5 -86.5t191.5 -235.5t62 -346zM1407 594v182q0 282 -126 434t-349 152t-349 -152t-126 -434v-182q0 -282 126 -434t349 -152
t349 152t126 434z" />
    <glyph glyph-name="uniFF30" unicode="&#xff30;" vert-adv-y="2263" 
d="M463 -53v1476h461q232 0 353.5 -106.5t121.5 -310.5v-45q0 -206 -124 -313t-357 -107h-365v-594h-90zM924 1339h-371v-714h354q212 0 306 87t94 251v38q0 338 -383 338z" />
    <glyph glyph-name="uniFF31" unicode="&#xff31;" vert-adv-y="2263" 
d="M1481 778v-186q0 -314 -150 -492l174 -172l-61 -63l-174 174q-137 -115 -350 -115q-138 0 -246 49.5t-176.5 139t-104 211t-35.5 268.5v186q0 147 35.5 268.5t104 211t176.5 139t246 49.5q184 0 312 -87t188.5 -235t60.5 -346zM1389 594v182q0 283 -123.5 434.5
t-345.5 151.5t-345.5 -151.5t-123.5 -434.5v-182q0 -283 123.5 -434.5t345.5 -151.5q173 0 288 92l-221 224l62 63l221 -223q119 153 119 430z" />
    <glyph glyph-name="uniFF32" unicode="&#xff32;" vert-adv-y="2263" 
d="M446 -53v1476h449q485 0 485 -381v-45q0 -299 -288 -374l325 -676h-96l-320 657q-53 -6 -112 -6h-352v-651h-91zM895 1339h-358v-657h342q209 0 309 79.5t100 237.5v39q0 152 -97 226.5t-296 74.5z" />
    <glyph glyph-name="uniFF33" unicode="&#xff33;" vert-adv-y="2263" 
d="M930 10q183 0 292 84.5t109 204.5v53q0 54 -9 89.5t-35 69.5t-76.5 59.5t-128.5 50t-197 49.5q-109 24 -187 57t-120.5 66t-66.5 78t-30 81t-6 86v52q0 71 27 131t72 101t104.5 69.5t124.5 41.5t133 13q271 0 432 -119l-43 -74q-165 107 -389 107q-68 0 -132 -16.5
t-118.5 -48.5t-87.5 -86t-33 -122v-47q0 -54 12 -90.5t48 -74t109.5 -67.5t189.5 -56q104 -24 175 -45t129.5 -47t93 -53t58 -65.5t32.5 -82.5t9 -105v-57q0 -73 -33 -140t-93.5 -119t-154.5 -83t-208 -31q-279 0 -492 156l45 76q122 -86 229.5 -116t215.5 -30z" />
    <glyph glyph-name="uniFF34" unicode="&#xff34;" vert-adv-y="2263" 
d="M977 -53h-90v1392h-492v84h1073v-84h-491v-1392z" />
    <glyph glyph-name="uniFF35" unicode="&#xff35;" vert-adv-y="2263" 
d="M932 8q72 0 133 16t116 54.5t93 97.5t60 150.5t22 208.5v888h90v-917q0 -281 -137.5 -431.5t-376.5 -150.5t-376.5 150.5t-137.5 431.5v917h90v-888q0 -117 22 -208.5t60 -150.5t93 -97.5t116 -54.5t133 -16z" />
    <glyph glyph-name="uniFF36" unicode="&#xff36;" vert-adv-y="2263" 
d="M340 1423h100l496 -1368l491 1368h97l-539 -1476h-104z" />
    <glyph glyph-name="uniFF37" unicode="&#xff37;" vert-adv-y="2263" 
d="M1741 1423h90l-414 -1476h-106l-381 1362l-377 -1362h-107l-413 1476h96l371 -1357l381 1357h102l383 -1355z" />
    <glyph glyph-name="uniFF38" unicode="&#xff38;" vert-adv-y="2263" 
d="M1470 1423l-466 -708l495 -768h-110l-449 708l-471 -708h-107l521 764l-494 712h107l448 -657l424 657h102z" />
    <glyph glyph-name="uniFF39" unicode="&#xff39;" vert-adv-y="2263" 
d="M1481 1423l-498 -864v-612h-90v612l-510 864h96l461 -782l442 782h99z" />
    <glyph glyph-name="uniFF3A" unicode="&#xff3a;" vert-adv-y="2263" 
d="M1427 1423v-71l-919 -1323h958v-82h-1069v71l920 1323h-868v82h978z" />
    <glyph glyph-name="uniFF3B" unicode="&#xff3b;" vert-adv-y="2263" 
d="M1782 -270v-78h-422v1917h422v-78h-338v-1761h338z" />
    <glyph glyph-name="uniFFE6" unicode="&#xffe6;" vert-adv-y="2263" 
d="M49 723v78h223l-155 622h90l149 -622h365l158 622h98l158 -622h368l152 622h84l-156 -622h229v-78h-249l-193 -776h-100l-197 776h-295l-192 -776h-101l-194 776h-242zM1155 723l168 -660l160 660h-328zM375 723l160 -662l165 662h-325zM926 1313l-127 -512h256z" />
    <glyph glyph-name="uniFF3D" unicode="&#xff3d;" vert-adv-y="2263" 
d="M82 -348v78h338v1761h-338v78h422v-1917h-422z" />
    <glyph glyph-name="uniFF3E" unicode="&#xff3e;" vert-adv-y="2263" 
d="M1358 821h-94l-332 576l-332 -576h-94l387 662h80z" />
    <glyph glyph-name="uniFF3F" unicode="&#xff3f;" vert-adv-y="2263" 
d="M1403 -154v-88h-942v88h942z" />
    <glyph glyph-name="uniFF40" unicode="&#xff40;" vert-adv-y="2263" 
d="M1090 1169h-86l-230 275h109z" />
    <glyph glyph-name="uniFF41" unicode="&#xff41;" vert-adv-y="2263" 
d="M891 -70q-158 0 -257 82.5t-99 233.5v30q0 132 93.5 214.5t276.5 82.5h334v134q0 134 -73.5 204t-217.5 70q-160 0 -323 -111l-43 68q174 123 372 123q173 0 273 -91.5t100 -258.5v-764h-88v153h-2q-35 -69 -115 -114q-100 -56 -231 -56zM1239 264v234h-332
q-147 0 -213.5 -60.5t-66.5 -158.5v-33q0 -64 23.5 -112t63.5 -74.5t86 -39t97 -12.5q117 0 199 43q65 33 104 90.5t39 122.5z" />
    <glyph glyph-name="uniFF42" unicode="&#xff42;" vert-adv-y="2263" 
d="M590 1495v-635q43 88 137 144.5t215 56.5q197 0 308.5 -121t111.5 -344v-201q0 -222 -118.5 -343.5t-315.5 -121.5q-102 0 -197 41.5t-143 114.5v-139h-86v1548h88zM588 645v-371q0 -109 97 -186.5t247 -77.5q157 0 249.5 104.5t92.5 293.5v176q0 195 -85.5 296
t-254.5 101q-61 0 -121.5 -23t-111 -64t-82 -106.5t-31.5 -142.5z" />
    <glyph glyph-name="uniFF43" unicode="&#xff43;" vert-adv-y="2263" 
d="M956 1061q214 0 349 -103l-39 -67q-132 90 -310 90q-169 0 -258.5 -108.5t-89.5 -292.5v-156q0 -191 90.5 -302.5t266.5 -111.5q203 0 335 109l43 -68q-146 -121 -380 -121q-205 0 -324 126.5t-119 369.5v147q0 224 115.5 356t320.5 132z" />
    <glyph glyph-name="uniFF44" unicode="&#xff44;" vert-adv-y="2263" 
d="M1276 -53v184q-43 -87 -139 -144t-217 -57q-198 0 -308 120.5t-110 344.5v201q0 222 119 343.5t315 121.5q102 0 196 -41.5t142 -114.5v590h88v-1548h-86zM1276 346v371q0 109 -97 186.5t-247 77.5q-157 0 -249.5 -104t-92.5 -293v-176q0 -195 85.5 -296.5t254.5 -101.5
q61 0 121.5 23t111 64t82 106.5t31.5 142.5z" />
    <glyph glyph-name="uniFF45" unicode="&#xff45;" vert-adv-y="2263" 
d="M934 983q-163 0 -257.5 -111.5t-94.5 -304.5v-20h700q0 215 -88.5 325.5t-259.5 110.5zM948 8q110 0 201.5 30t150.5 79l43 -66q-62 -52 -165.5 -86.5t-227.5 -34.5q-224 0 -339 135.5t-115 356.5v156q0 217 118.5 350t319.5 133q211 0 322.5 -136t111.5 -368v-82h-786
v-39q0 -208 96.5 -318t269.5 -110z" />
    <glyph glyph-name="uniFF46" unicode="&#xff46;" vert-adv-y="2263" 
d="M809 -53v1018h-188v73h188v164q0 305 283 305q85 0 149 -22l-12 -72q-68 19 -135 19q-103 0 -149 -58t-46 -176v-160h309v-73h-309v-1018h-90z" />
    <glyph glyph-name="uniFF47" unicode="&#xff47;" vert-adv-y="2263" 
d="M1276 367v350q0 109 -97 186.5t-247 77.5q-157 0 -249.5 -104t-92.5 -293v-156q0 -195 85.5 -296t254.5 -101q61 0 121.5 23t111 64t82 106.5t31.5 142.5zM1274 152q-43 -87 -138 -144t-216 -57q-198 0 -308 120.5t-110 344.5v180q0 222 119 343.5t315 121.5
q102 0 197 -41.5t143 -114.5v133h86v-1099q0 -118 -32 -205.5t-89 -139t-128 -76t-157 -24.5q-111 0 -195.5 27.5t-164.5 83.5l45 71q78 -55 150 -78.5t155 -23.5q69 0 126 19.5t103.5 61t72.5 114t26 170.5v213z" />
    <glyph glyph-name="uniFF48" unicode="&#xff48;" vert-adv-y="2263" 
d="M1343 698v-751h-88v725q0 150 -72 229.5t-233 79.5q-67 0 -126 -21t-97.5 -54t-67 -73t-41 -77t-12.5 -68v-741h-88v1548h88v-625q16 32 44.5 62.5t71.5 61t106.5 49t136.5 18.5q99 0 174 -30t118.5 -81.5t64.5 -115t21 -136.5z" />
    <glyph glyph-name="uniFF49" unicode="&#xff49;" vert-adv-y="2263" 
d="M887 1038h88v-1091h-88v1091zM879 1397h104v-121h-104v121z" />
    <glyph glyph-name="uniFF4A" unicode="&#xff4a;" vert-adv-y="2263" 
d="M1135 1038v-1247q0 -92 -18.5 -153t-55.5 -91.5t-79.5 -41.5t-104.5 -11q-79 0 -158 27l16 73q79 -24 148 -24q96 0 130 50t34 179v1239h88zM1038 1397h105v-121h-105v121z" />
    <glyph glyph-name="uniFF4B" unicode="&#xff4b;" vert-adv-y="2263" 
d="M1298 1038l-424 -409l478 -682h-105l-434 620l-213 -205v-415h-88v1548h88v-1020l578 563h120z" />
    <glyph glyph-name="uniFF4C" unicode="&#xff4c;" vert-adv-y="2263" 
d="M887 1495h88v-1548h-88v1548z" />
    <glyph glyph-name="uniFF4D" unicode="&#xff4d;" vert-adv-y="2263" 
d="M1640 698v-751h-88v725q0 151 -60.5 230t-207.5 79q-77 0 -139.5 -30.5t-97.5 -76t-53.5 -92t-18.5 -86.5v-749h-88v725q0 151 -61.5 230t-209.5 79q-63 0 -116 -21t-87 -53.5t-58.5 -73t-35 -77.5t-10.5 -68v-741h-88v1091h86v-168q17 33 41.5 62.5t63 60.5t95.5 49.5
t124 18.5q251 0 319 -211q43 92 133.5 151.5t214.5 59.5q92 0 160.5 -30t107 -82.5t56.5 -115t18 -135.5z" />
    <glyph glyph-name="uniFF4E" unicode="&#xff4e;" vert-adv-y="2263" 
d="M1343 698v-751h-88v725q0 150 -72 229.5t-233 79.5q-67 0 -126 -21t-97.5 -54t-67 -73t-41 -77t-12.5 -68v-741h-88v1091h86v-168q16 31 45 62t72.5 61.5t107 49t136.5 18.5q99 0 174 -30t118.5 -81.5t64.5 -115t21 -136.5z" />
    <glyph glyph-name="uniFF4F" unicode="&#xff4f;" vert-adv-y="2263" 
d="M932 1061q212 0 330 -130.5t118 -363.5v-143q0 -233 -118 -363.5t-330 -130.5t-330.5 130.5t-118.5 363.5v143q0 234 118 364t331 130zM932 6q170 0 265 105.5t95 312.5v143q0 207 -95 312.5t-265 105.5t-265.5 -105.5t-95.5 -312.5v-143q0 -207 95.5 -312.5
t265.5 -105.5z" />
    <glyph glyph-name="uniFF50" unicode="&#xff50;" vert-adv-y="2263" 
d="M588 1038v-178q43 87 138 144t216 57q197 0 308.5 -121t111.5 -344v-201q0 -222 -118.5 -343.5t-315.5 -121.5q-102 0 -196 41.5t-142 114.5v-578h-88v1530h86zM586 645v-371q0 -108 98 -186t248 -78q157 0 249.5 104.5t92.5 293.5v176q0 195 -85.5 296t-254.5 101
q-83 0 -161 -38t-132.5 -117t-54.5 -181z" />
    <glyph glyph-name="uniFF51" unicode="&#xff51;" vert-adv-y="2263" 
d="M1274 -492v623q-43 -87 -138 -144t-216 -57q-198 0 -308 120.5t-110 344.5v201q0 222 119 343.5t315 121.5q102 0 197 -41.5t143 -114.5v133h86v-1530h-88zM1278 346v371q0 108 -98 186t-248 78q-157 0 -249.5 -104t-92.5 -293v-176q0 -195 85.5 -296.5t254.5 -101.5
q83 0 161 38t132.5 117t54.5 181z" />
    <glyph glyph-name="uniFF52" unicode="&#xff52;" vert-adv-y="2263" 
d="M1210 1036l-26 -82q-61 21 -131 21q-152 0 -233 -114t-81 -300v-614h-88v1091h86v-211q33 98 116 166t206 68q84 0 151 -25z" />
    <glyph glyph-name="uniFF53" unicode="&#xff53;" vert-adv-y="2263" 
d="M930 8q150 0 236.5 61.5t86.5 149.5v27q0 105 -69.5 149t-274.5 82q-82 16 -142 36.5t-109 52.5t-74 79.5t-25 110.5v32q0 118 99.5 195.5t279.5 77.5q120 0 214 -28.5t151 -71.5l-37 -64q-81 49 -156 67.5t-180 18.5q-137 0 -212 -52.5t-75 -144.5v-26q0 -39 16 -69.5
t41 -51t67.5 -37.5t83 -27.5t99.5 -21.5q109 -21 175 -41.5t115.5 -54.5t70 -83t20.5 -122v-37q0 -89 -56 -155.5t-144 -98t-193 -31.5q-120 0 -226 35.5t-180 91.5l43 70q76 -55 170.5 -87t184.5 -32z" />
    <glyph glyph-name="uniFF54" unicode="&#xff54;" vert-adv-y="2263" 
d="M811 238v727h-190v73h190v283h88v-283h309v-73h-309v-705q0 -130 34.5 -188t133.5 -58q78 0 162 23l14 -72q-76 -26 -168 -26q-63 0 -106.5 11.5t-81.5 42t-57 92t-19 153.5z" />
    <glyph glyph-name="uniFF55" unicode="&#xff55;" vert-adv-y="2263" 
d="M524 293v745h88v-721q0 -309 285 -309q70 0 130.5 21t100 53.5t68.5 71t42 73t13 60.5v751h88v-1091h-86v172q-27 -59 -127 -124t-225 -65q-84 0 -149.5 20t-107.5 53.5t-69.5 81t-39 98.5t-11.5 110z" />
    <glyph glyph-name="uniFF56" unicode="&#xff56;" vert-adv-y="2263" 
d="M936 53l356 985h92l-407 -1091h-86l-414 1091h94z" />
    <glyph glyph-name="uniFF57" unicode="&#xff57;" vert-adv-y="2263" 
d="M1292 53l267 985h81l-309 -1091h-82l-319 985l-312 -985h-81l-316 1091h88l273 -985l311 985h78z" />
    <glyph glyph-name="uniFF58" unicode="&#xff58;" vert-adv-y="2263" 
d="M1362 1038l-371 -528l398 -563h-111l-344 504l-352 -504h-109l401 555l-370 536h104l326 -477l323 477h105z" />
    <glyph glyph-name="uniFF59" unicode="&#xff59;" vert-adv-y="2263" 
d="M938 43l354 995h94l-569 -1542l-82 29l154 407l-412 1106h92z" />
    <glyph glyph-name="uniFF5A" unicode="&#xff5a;" vert-adv-y="2263" 
d="M1323 1038v-61l-700 -957h727v-73h-836v61l700 957h-659v73h768z" />
    <glyph glyph-name="uniFF5B" unicode="&#xff5b;" vert-adv-y="2263" 
d="M1346 -92v502q0 93 -59 135.5t-175 44.5v92q234 3 234 176v455q0 138 69 197t201 59h162v-78h-160q-95 0 -141.5 -37t-46.5 -135v-445q0 -197 -181 -239q181 -40 181 -240v-493q0 -98 46.5 -135t141.5 -37h160v-78h-162q-132 0 -201 59t-69 197z" />
    <glyph glyph-name="uniFF5C" unicode="&#xff5c;" vert-adv-y="2263" 
d="M971 1567v-1915h-78v1915h78z" />
    <glyph glyph-name="uniFF5D" unicode="&#xff5d;" vert-adv-y="2263" 
d="M518 410v-502q0 -138 -69 -197t-201 -59h-162v78h160q95 0 141.5 37t46.5 135v493q0 200 180 240q-100 23 -140 85t-40 154v445q0 98 -46.5 135t-141.5 37h-160v78h162q132 0 201 -59t69 -197v-455q0 -173 234 -176v-92q-116 -2 -175 -44.5t-59 -135.5z" />
    <glyph glyph-name="uniFFE3" unicode="&#xffe3;" vert-adv-y="2263" 
d="M1853 1561v-80h-1843v80h1843z" />
    <glyph glyph-name="uni3131" unicode="&#x3131;" vert-adv-y="2263" 
d="M309 1014v82h1164v-969h-89v887h-1075z" />
    <glyph glyph-name="uni3132" unicode="&#x3132;" vert-adv-y="2263" 
d="M956 1014v82h613v-969h-88v887h-525zM233 1014v82h592v-969h-88v887h-504z" />
    <glyph glyph-name="uni3133" unicode="&#x3133;" vert-adv-y="2263" 
d="M1389 1104v-328q0 -101 24.5 -166.5t83.5 -140.5q89 -117 250 -293l-61 -61q-189 210 -261 303q-73 93 -79 141h-3q-6 -48 -79 -141q-78 -101 -260 -303l-64 61q173 189 252 293q58 74 82 139.5t24 167.5v328h91zM287 1006v81h538v-960h-90v879h-448z" />
    <glyph glyph-name="uni3134" unicode="&#x3134;" vert-adv-y="2263" 
d="M479 1122v-905h1094v-82h-1182v987h88z" />
    <glyph glyph-name="uni3135" unicode="&#x3135;" vert-adv-y="2263" 
d="M424 1106v-911h111q160 0 303 20l10 -80q-153 -22 -336 -22h-176v993h88zM1298 1020v-242q0 -103 22.5 -170.5t80.5 -148.5q92 -131 229 -299l-61 -54q-148 180 -228 289q-77 106 -84 150h-2q-7 -44 -84 -150q-89 -120 -227 -289l-65 52q157 192 231 299q59 82 78.5 140
t19.5 161v262h-295v82h676v-82h-291z" />
    <glyph glyph-name="uni3136" unicode="&#x3136;" vert-adv-y="2263" 
d="M1593 944v-82h-766v82h334v207h99v-207h333zM406 1106v-903h143q160 0 303 20l6 -80q-153 -22 -332 -22h-209v985h89zM1516 453v-70q0 -51 -18 -102t-53.5 -96t-96.5 -73t-138 -28q-78 0 -139.5 28t-96 73t-52 95.5t-17.5 102.5v70q0 54 17.5 106t52.5 97.5t96 73.5
t139 28q77 0 138 -28t96.5 -73.5t53.5 -97.5t18 -106zM1427 391v53q0 102 -59 168t-158 66t-158 -66t-59 -168v-53q0 -98 59 -162.5t158 -64.5t158 64.5t59 162.5z" />
    <glyph glyph-name="uni3137" unicode="&#x3137;" vert-adv-y="2263" 
d="M1526 131h-1164v961h1154v-82h-1065v-797h1075v-82z" />
    <glyph glyph-name="uni3138" unicode="&#x3138;" vert-adv-y="2263" 
d="M864 131h-518v961h510v-82h-422v-797h430v-82zM1581 131h-565v961h559v-82h-471v-797h477v-82z" />
    <glyph glyph-name="uni3139" unicode="&#x3139;" vert-adv-y="2263" 
d="M1571 104h-1209v553h1090v383h-1090v80h1176v-540h-1089v-396h1122v-80z" />
    <glyph glyph-name="uni313A" unicode="&#x313a;" vert-adv-y="2263" 
d="M903 129h-600v528h483v359h-487v80h573v-516h-483v-371h514v-80zM1014 1014v82h581v-969h-88v887h-493z" />
    <glyph glyph-name="uni313B" unicode="&#x313b;" vert-adv-y="2263" 
d="M856 131h-565v522h457v363h-465v80h551v-521h-457v-364h479v-80zM993 1096h602v-965h-602v965zM1081 1014v-801h426v801h-426z" />
    <glyph glyph-name="uni313C" unicode="&#x313c;" vert-adv-y="2263" 
d="M860 131h-569v522h457v363h-459v80h545v-521h-457v-364h483v-80zM1499 725v375h86v-969h-584v969h86v-375h412zM1087 209h412v438h-412v-438z" />
    <glyph glyph-name="uni313D" unicode="&#x313d;" vert-adv-y="2263" 
d="M852 131h-553v522h457v363h-461v80h547v-521h-457v-364h467v-80zM1354 1104v-328q0 -101 24.5 -166.5t83.5 -140.5q89 -117 250 -293l-61 -61q-182 202 -260 303q-74 95 -80 141h-2q-6 -46 -80 -141q-78 -101 -260 -303l-64 61q173 189 252 293q59 74 83 140t24 167v328
h90z" />
    <glyph glyph-name="uni313E" unicode="&#x313e;" vert-adv-y="2263" 
d="M854 131h-580v522h469v363h-477v80h563v-521h-469v-364h494v-80zM991 131v969h592v-80h-508v-367h490v-80h-490v-362h518v-80h-602z" />
    <glyph glyph-name="uni313F" unicode="&#x313f;" vert-adv-y="2263" 
d="M836 131h-551v522h446v363h-455v80h541v-521h-446v-364h465v-80zM928 205h145v815h-137v74h641v-74h-139v-815h147v-74h-657v74zM1151 1020v-815h209v815h-209z" />
    <glyph glyph-name="uni3140" unicode="&#x3140;" vert-adv-y="2263" 
d="M838 129h-559v524h423v363h-432v80h518v-521h-423v-366h473v-80zM1614 944v-82h-737v82h311v207h98v-207h328zM1542 453v-70q0 -52 -18 -102.5t-53 -95.5t-96 -73t-138 -28q-78 0 -139.5 28t-96 73t-52 95.5t-17.5 102.5v70q0 54 17.5 106t52.5 97.5t96 73.5t139 28
q77 0 138 -28t96 -73.5t53 -97.5t18 -106zM1454 391v53q0 102 -59 168t-158 66t-158 -66t-59 -168v-53q0 -98 59 -162.5t158 -64.5t158 64.5t59 162.5z" />
    <glyph glyph-name="uni3141" unicode="&#x3141;" vert-adv-y="2263" 
d="M352 1100h1159v-973h-1159v973zM440 1018v-809h983v809h-983z" />
    <glyph glyph-name="uni3142" unicode="&#x3142;" vert-adv-y="2263" 
d="M1421 1124h88v-999h-1155v999h88v-399h979v399zM442 205h979v440h-979v-440z" />
    <glyph glyph-name="uni3143" unicode="&#x3143;" vert-adv-y="2263" 
d="M762 1122h88v-993h-553v993h88v-403h377v403zM385 209h377v430h-377v-430zM1477 1122h88v-993h-551v993h88v-403h375v403zM1102 209h375v430h-375v-430z" />
    <glyph glyph-name="uni3144" unicode="&#x3144;" vert-adv-y="2263" 
d="M766 1122h88v-993h-571v993h88v-403h395v403zM371 209h395v430h-395v-430zM1354 1120v-344q0 -101 24.5 -166.5t83.5 -140.5q89 -117 250 -293l-61 -61q-182 202 -260 303q-74 95 -80 141h-2q-6 -46 -80 -141q-78 -101 -260 -303l-64 61q173 189 252 293q59 74 83 140
t24 167v344h90z" />
    <glyph glyph-name="uni3145" unicode="&#x3145;" vert-adv-y="2263" 
d="M975 1135v-234q0 -54 2 -87.5t8.5 -73t20 -68.5t37 -62.5t58.5 -66.5t85 -70q133 -101 399 -272l-53 -76q-205 137 -399 276q-90 65 -131 110.5t-70 96.5h-4q-19 -34 -36.5 -58t-59.5 -64t-105 -85q-194 -139 -399 -276l-54 76q272 175 400 272q50 37 85 70t58.5 66.5
t37 62.5t20 68.5t8.5 73t2 87.5v234h90z" />
    <glyph glyph-name="uni3146" unicode="&#x3146;" vert-adv-y="2263" 
d="M932 281q108 112 174 190q81 96 105 169.5t24 217.5v283h92v-320q0 -127 25 -197t100 -153q116 -126 277 -274l-60 -62q-152 142 -250 248q-125 134 -137 205h-2q-6 -54 -135 -203q-89 -103 -213 -227q-124 124 -213 227q-129 149 -135 203h-2q-5 -30 -40.5 -84
t-97.5 -121q-103 -111 -249 -248l-60 62q163 149 277 274q75 83 100 153t25 197v320h92v-283q0 -144 24 -217.5t105 -169.5q66 -78 174 -190z" />
    <glyph glyph-name="uni3147" unicode="&#x3147;" vert-adv-y="2263" 
d="M354 571v105q0 128 75.5 232t208 163t294.5 59q245 0 411 -130t166 -324v-105q0 -194 -166 -324t-411 -130q-162 0 -294.5 59t-208 163t-75.5 232zM932 1040q-217 0 -348 -106.5t-131 -267.5v-84q0 -161 131.5 -269t347.5 -108q215 0 349 108.5t134 268.5v84
q0 160 -133.5 267t-349.5 107z" />
    <glyph glyph-name="uni3148" unicode="&#x3148;" vert-adv-y="2263" 
d="M1528 1118v-80h-551v-137q0 -55 1.5 -87.5t8.5 -73t20 -68.5t36 -62t58 -67t85 -70q133 -101 399 -272l-53 -76q-205 137 -399 276q-90 65 -131 110.5t-70 96.5h-4q-19 -34 -36.5 -58t-59.5 -64t-105 -85q-194 -139 -399 -276l-54 76q272 175 400 272q50 37 85 70t58 67
t36 62t20 68.5t8.5 73t1.5 87.5v137h-547v80h1192z" />
    <glyph glyph-name="uni3149" unicode="&#x3149;" vert-adv-y="2263" 
d="M1599 1118v-78h-290v-221q0 -130 24 -200t99 -150q115 -122 256 -252l-60 -61q-117 110 -229 225q-62 64 -97 118.5t-40 86.5h-2q-6 -52 -136 -203q-83 -96 -192 -205q-117 116 -193 205q-129 149 -135 203h-2q-5 -32 -40 -86.5t-97 -118.5q-112 -115 -229 -225l-60 61
q141 130 256 252q75 80 99 150t24 200v221h-291v78h1335zM1085 469q81 96 105 169.5t24 217.5v184h-565v-184q0 -144 24 -217.5t105 -169.5q57 -68 154 -168q90 92 153 168z" />
    <glyph glyph-name="uni314A" unicode="&#x314a;" vert-adv-y="2263" 
d="M977 1286v-291h575v-80h-575v-14q0 -55 1.5 -87.5t8.5 -73t20 -68.5t36 -62t58 -67t85 -70q133 -101 399 -272l-53 -76q-205 137 -399 276q-90 65 -131 110.5t-70 96.5h-4q-19 -34 -36.5 -58t-59.5 -64t-105 -85q-194 -139 -399 -276l-54 76q272 175 400 272
q59 45 98 85.5t61 74.5t32.5 80.5t13 83.5t2.5 104v14h-570v80h570v291h96z" />
    <glyph glyph-name="uni314B" unicode="&#x314b;" vert-adv-y="2263" 
d="M303 639l1102 16v379h-1077v82h1165v-1007h-88v466l-1100 -24z" />
    <glyph glyph-name="uni314C" unicode="&#x314c;" vert-adv-y="2263" 
d="M1511 573h-1060v-364h1103v-82h-1192v981h1176v-82h-1087v-371h1060v-82z" />
    <glyph glyph-name="uni314D" unicode="&#x314d;" vert-adv-y="2263" 
d="M276 127v80h312v807h-293v80h1274v-80h-291v-807h309v-80h-1311zM676 1014v-807h514v807h-514z" />
    <glyph glyph-name="uni314E" unicode="&#x314e;" vert-adv-y="2263" 
d="M932 45q-227 0 -367.5 88t-140.5 236v82q0 147 141 235t367 88t367 -88t141 -235v-82q0 -148 -140.5 -236t-367.5 -88zM1554 993v-78h-1245v78h576v277h92v-277h577zM932 694q-193 0 -303.5 -70t-110.5 -184v-61q0 -114 110.5 -184t303.5 -70t303.5 70t110.5 184v61
q0 114 -110.5 184t-303.5 70z" />
    <glyph glyph-name="uni314F" unicode="&#x314f;" vert-adv-y="2263" 
d="M1343 795v-82h-432v-983h-88v1855h88v-790h432z" />
    <glyph glyph-name="uni3150" unicode="&#x3150;" vert-adv-y="2263" 
d="M1210 1585v-1855h-88v983h-381v-891h-88v1724h88v-751h381v790h88z" />
    <glyph glyph-name="uni3151" unicode="&#x3151;" vert-adv-y="2263" 
d="M1329 1020v-82h-395v-389h395v-82h-395v-735h-86v1855h86v-567h395z" />
    <glyph glyph-name="uni3152" unicode="&#x3152;" vert-adv-y="2263" 
d="M1210 1585v-1855h-86v739h-385v-647h-86v1724h86v-526h385v565h86zM739 938v-387h385v387h-385z" />
    <glyph glyph-name="uni3153" unicode="&#x3153;" vert-adv-y="2263" 
d="M702 713v82h424v790h88v-1855h-88v983h-424z" />
    <glyph glyph-name="uni3154" unicode="&#x3154;" vert-adv-y="2263" 
d="M1264 -270v1855h88v-1855h-88zM553 711v82h373v753h88v-1724h-88l4 889h-377z" />
    <glyph glyph-name="uni3155" unicode="&#x3155;" vert-adv-y="2263" 
d="M725 938v82h403v565h86v-1855h-86v737h-403v82h403v389h-403z" />
    <glyph glyph-name="uni3156" unicode="&#x3156;" vert-adv-y="2263" 
d="M1264 -270v1855h88v-1855h-88zM553 481v80h371v389h-371v80h371v516h88v-1724h-88v659h-371z" />
    <glyph glyph-name="uni3157" unicode="&#x3157;" vert-adv-y="2263" 
d="M975 254h811v-78h-1708v78h809v733h88v-733z" />
    <glyph glyph-name="uni3158" unicode="&#x3158;" vert-adv-y="2263" 
d="M1849 834v-82h-321v-1022h-88v1855h88v-751h321zM84 139v80q232 0 510 4v590h88v-588q268 7 584 39l8 -80q-275 -26 -500 -35.5t-690 -9.5z" />
    <glyph glyph-name="uni3159" unicode="&#x3159;" vert-adv-y="2263" 
d="M1686 1585v-1855h-89v1015h-288v-964h-88v1771h88v-729h288v762h89zM1087 287l5 -78q-335 -23 -996 -23v78q307 0 430 2v549h86v-547q240 3 475 19z" />
    <glyph glyph-name="uni315A" unicode="&#x315a;" vert-adv-y="2263" 
d="M1610 -270h-90v1855h90v-1855zM109 141v80q240 0 544 4v588h88v-586q344 9 596 39l9 -80q-251 -27 -498.5 -36t-738.5 -9z" />
    <glyph glyph-name="uni315B" unicode="&#x315b;" vert-adv-y="2263" 
d="M1167 987h86v-733h533v-78h-1708v78h530v733h86v-733h473v733z" />
    <glyph glyph-name="uni315C" unicode="&#x315c;" vert-adv-y="2263" 
d="M78 633h1708v-78h-809v-752h-88v752h-811v78z" />
    <glyph glyph-name="uni315D" unicode="&#x315d;" vert-adv-y="2263" 
d="M1597 -270h-88v483h-491v84h491v1288h88v-1855zM90 559v80q514 2 757.5 10t487.5 35l8 -80q-298 -33 -628 -41v-774h-90v772q-143 -2 -535 -2z" />
    <glyph glyph-name="uni315E" unicode="&#x315e;" vert-adv-y="2263" 
d="M1210 330v1222h88v-1773h-88v467h-374v84h374zM1653 1585v-1855h-88v1855h88zM1053 641l4 -80q-189 -14 -463 -20v-691h-86v691q-127 -2 -453 -2v79q722 3 998 23z" />
    <glyph glyph-name="uni315F" unicode="&#x315f;" vert-adv-y="2263" 
d="M94 492v79q514 2 759 10t488 35l9 -79q-291 -33 -617 -41v-705h-90v703q-147 -2 -549 -2zM1591 -270h-88v1855h88v-1855z" />
    <glyph glyph-name="uni3160" unicode="&#x3160;" vert-adv-y="2263" 
d="M1253 -197h-86v752h-471v-752h-86v752h-532v78h1708v-78h-533v-752z" />
    <glyph glyph-name="uni3161" unicode="&#x3161;" vert-adv-y="2263" 
d="M78 315h1708v-77h-1708v77z" />
    <glyph glyph-name="uni3162" unicode="&#x3162;" vert-adv-y="2263" 
d="M1604 -270h-91v1855h91v-1855zM100 231v80q514 2 759.5 10t488.5 35l8 -80q-254 -27 -496.5 -36t-759.5 -9z" />
    <glyph glyph-name="uni3163" unicode="&#x3163;" vert-adv-y="2263" 
d="M975 -270h-88v1855h88v-1855z" />
    <glyph glyph-name="uni3165" unicode="&#x3165;" vert-adv-y="2263" 
d="M422 1096v-879h428v-82h-516v961h88zM1065 1096v-879h473v-82h-561v961h88z" />
    <glyph glyph-name="uni3166" unicode="&#x3166;" vert-adv-y="2263" 
d="M424 1096v-879h420v-82h-508v961h88zM1530 133h-553v961h532v-82h-444v-797h465v-82z" />
    <glyph glyph-name="uni3167" unicode="&#x3167;" vert-adv-y="2263" 
d="M332 1098v-883h452v-82h-540v965h88zM1272 1096v-320q0 -101 24.5 -166.5t83.5 -140.5q89 -117 250 -293l-61 -61q-182 202 -260 303q-74 95 -80 141h-2q-6 -46 -80 -141q-78 -101 -260 -303l-64 61q173 189 252 293q59 74 83 140t24 167v320h90z" />
    <glyph glyph-name="uni3168" unicode="&#x3168;" vert-adv-y="2263" 
d="M1241 1165l344 -1028h-678zM1036 217h416l-211 662zM377 1098v-881h463v-82h-551v963h88z" />
    <glyph glyph-name="uni3169" unicode="&#x3169;" vert-adv-y="2263" 
d="M614 1026v82h467v-932q151 200 213 299q44 69 59 133.5t15 157.5v338h90v-322q0 -186 78 -309q64 -102 217 -303l-65 -57q-158 210 -215 297q-43 67 -58 120q-15 -56 -57 -120q-57 -87 -215 -297l-62 51v-37h-90v899h-377zM618 133h-509v522h346v369h-349v80h435v-526
h-346v-365h423v-80z" />
    <glyph glyph-name="uni316A" unicode="&#x316a;" vert-adv-y="2263" 
d="M1559 131h-553v967h532v-82h-444v-803h465v-82zM903 129h-592v528h480v359h-486v80h572v-516h-480v-371h506v-80z" />
    <glyph glyph-name="uni316B" unicode="&#x316b;" vert-adv-y="2263" 
d="M1024 1122h88v-993h-430v993h88v-403h254v403zM571 133h-417v522h303v369h-303v80h389v-526h-303v-365h331v-80zM1477 373q-61 106 -64 135q-8 -39 -63 -135q-56 -99 -162 -256l-68 51q114 168 185 299q38 70 50.5 129t12.5 160v358h90v-358q0 -100 13 -159.5t51 -129.5
q75 -138 184 -299l-68 -51q-99 148 -161 256zM770 209h254v430h-254v-430z" />
    <glyph glyph-name="uni316C" unicode="&#x316c;" vert-adv-y="2263" 
d="M883 131h-588v522h444v363h-448v80h534v-521h-444v-364h502v-80zM1231 1165l344 -1028h-678zM1026 217h416l-211 662z" />
    <glyph glyph-name="uni316D" unicode="&#x316d;" vert-adv-y="2263" 
d="M1575 1102v-80h-623v80h623zM1575 442v-39q0 -135 -87 -226t-226 -91t-224.5 91t-85.5 226v39q0 135 85.5 226.5t224.5 91.5q138 0 225.5 -91.5t87.5 -226.5zM1485 399v47q0 102 -58 166t-165 64q-108 0 -164 -63.5t-56 -166.5v-47q0 -103 56 -166t164 -63
q107 0 165 63.5t58 165.5zM911 131h-612v522h463v363h-471v80h557v-521h-463v-364h526v-80z" />
    <glyph glyph-name="uni316E" unicode="&#x316e;" vert-adv-y="2263" 
d="M313 1102h551v-971h-551v971zM401 1020v-807h375v807h-375zM1460 715v387h86v-969h-547v969h86v-387h375zM1085 211h375v426h-375v-426z" />
    <glyph glyph-name="uni316F" unicode="&#x316f;" vert-adv-y="2263" 
d="M238 1102h561v-971h-561v971zM326 1020v-807h385v807h-385zM1290 1100v-324q0 -101 25 -166.5t84 -140.5q89 -117 250 -293l-62 -61q-182 202 -260 303q-74 95 -80 141h-2q-6 -46 -80 -141q-78 -101 -260 -303l-63 61q173 189 252 293q58 74 82 139.5t24 167.5v324h90z
" />
    <glyph glyph-name="uni3170" unicode="&#x3170;" vert-adv-y="2263" 
d="M1233 1165l344 -1028h-678zM1028 217h416l-211 662zM297 1102h543v-971h-543v971zM385 1020v-807h367v807h-367z" />
    <glyph glyph-name="uni3171" unicode="&#x3171;" vert-adv-y="2263" 
d="M1237 233v-53q0 -89 -84.5 -159t-220.5 -70q-134 0 -218.5 70t-84.5 159v53q0 89 84.5 159.5t218.5 70.5q135 0 220 -70.5t85 -159.5zM1143 178v58q0 64 -60.5 105.5t-150.5 41.5q-89 0 -149 -41.5t-60 -105.5v-58q0 -64 60 -105.5t149 -41.5q90 0 150.5 41.5t60.5 105.5
zM485 1325h889v-707h-889v707zM573 1243v-543h713v543h-713z" />
    <glyph glyph-name="uni3172" unicode="&#x3172;" vert-adv-y="2263" 
d="M967 1018v82h585v-977h-88v895h-497zM786 715v387h86v-969h-559v969h86v-387h387zM399 211h387v426h-387v-426z" />
    <glyph glyph-name="uni3173" unicode="&#x3173;" vert-adv-y="2263" 
d="M776 715v387h86v-969h-526v969h86v-387h354zM422 211h354v426h-354v-426zM1528 133h-512v965h489v-82h-401v-801h424v-82z" />
    <glyph glyph-name="uni3174" unicode="&#x3174;" vert-adv-y="2263" 
d="M561 711v391h86v-971h-428v971h86v-391h256zM305 209h256v424h-256v-424zM1194 1020v82h461v-977h-88v895h-373zM1038 1104v-322q0 -186 78 -309q61 -98 213 -297l-65 -57q-158 209 -211 291q-43 67 -58 120q-15 -56 -57 -120q-50 -77 -213 -293l-68 55q160 210 217 301
q44 68 59 133.5t15 159.5v338h90z" />
    <glyph glyph-name="uni3175" unicode="&#x3175;" vert-adv-y="2263" 
d="M565 711v391h86v-971h-432v971h86v-391h260zM1663 133h-403v965h380v-82h-292v-801h315v-82zM1020 373q-61 106 -64 135q-8 -39 -63 -135q-56 -99 -162 -256l-67 51q109 161 184 299q38 70 50.5 129t12.5 160v348h90v-348q0 -100 13 -159.5t51 -129.5q75 -138 184 -299
l-67 -51q-106 157 -162 256zM305 209h260v424h-260v-424z" />
    <glyph glyph-name="uni3176" unicode="&#x3176;" vert-adv-y="2263" 
d="M723 715v387h86v-969h-545v969h86v-387h373zM350 211h373v426h-373v-426zM1286 1020v-242q0 -103 22.5 -170.5t80.5 -148.5q101 -144 221 -291l-62 -53q-125 152 -219 280q-77 106 -84 150h-2q-7 -44 -84 -150q-80 -108 -219 -278l-66 51q156 192 224 289q59 82 78.5 140
t19.5 161v262h-272v82h635v-82h-273z" />
    <glyph glyph-name="uni3177" unicode="&#x3177;" vert-adv-y="2263" 
d="M782 715v387h86v-965h-538v965h86v-387h366zM416 215h366v422h-366v-422zM1010 131v967h495v-80h-411v-365h399v-80h-399v-362h434v-80h-518z" />
    <glyph glyph-name="uni3178" unicode="&#x3178;" vert-adv-y="2263" 
d="M1237 233v-53q0 -89 -84.5 -159t-220.5 -70q-134 0 -218.5 70t-84.5 159v53q0 89 84.5 159.5t218.5 70.5q135 0 220 -70.5t85 -159.5zM1143 178v58q0 64 -60.5 105.5t-150.5 41.5q-89 0 -149 -41.5t-60 -105.5v-58q0 -64 60 -105.5t149 -41.5q90 0 150.5 41.5t60.5 105.5
zM1296 1102v254h86v-729h-903v729h86v-254h731zM565 705h731v319h-731v-319z" />
    <glyph glyph-name="uni3179" unicode="&#x3179;" vert-adv-y="2263" 
d="M1237 233v-53q0 -89 -84.5 -159t-220.5 -70q-134 0 -218.5 70t-84.5 159v53q0 89 84.5 159.5t218.5 70.5q135 0 220 -70.5t85 -159.5zM1143 178v58q0 64 -60.5 105.5t-150.5 41.5q-89 0 -149 -41.5t-60 -105.5v-58q0 -64 60 -105.5t149 -41.5q90 0 150.5 41.5t60.5 105.5
zM778 1321h88v-719h-434v719h88v-274h258v274zM520 682h258v285h-258v-285zM1339 1321h88v-719h-434v719h88v-274h258v274zM1081 682h258v285h-258v-285z" />
    <glyph glyph-name="uni317A" unicode="&#x317a;" vert-adv-y="2263" 
d="M735 1104v-328q0 -101 25 -166.5t84 -140.5q89 -117 250 -293l-62 -61q-182 202 -260 303q-74 95 -80 141h-2q-6 -46 -80 -141q-78 -101 -260 -303l-63 61q173 189 252 293q58 74 82 139.5t24 167.5v328h90zM981 1014v82h588v-969h-88v887h-500z" />
    <glyph glyph-name="uni317B" unicode="&#x317b;" vert-adv-y="2263" 
d="M674 1087v-311q0 -99 23.5 -162t80.5 -145q62 -90 234 -293l-62 -61q-170 200 -243 303q-71 99 -76 141h-2q-4 -32 -80 -141q-73 -104 -240 -303l-63 61q153 184 231 293q58 82 82.5 145t24.5 162v311h90zM1165 1096v-879h467v-82h-555v961h88z" />
    <glyph glyph-name="uni317C" unicode="&#x317c;" vert-adv-y="2263" 
d="M674 1087v-311q0 -99 23.5 -162t80.5 -145q62 -90 234 -293l-62 -61q-170 200 -243 303q-71 99 -76 141h-2q-4 -32 -80 -141q-73 -104 -240 -303l-63 61q153 184 231 293q58 82 82.5 145t24.5 162v311h90zM1628 131h-547v961h525v-82h-437v-797h459v-82z" />
    <glyph glyph-name="uni317D" unicode="&#x317d;" vert-adv-y="2263" 
d="M674 1087v-311q0 -99 23.5 -162t80.5 -145q62 -90 234 -293l-62 -61q-170 200 -243 303q-71 99 -76 141h-2q-4 -32 -80 -141q-73 -104 -240 -303l-63 61q153 184 231 293q58 82 82.5 145t24.5 162v311h90zM1522 725v377h86v-975h-549v975h86v-377h377zM1145 205h377v442
h-377v-442z" />
    <glyph glyph-name="uni317E" unicode="&#x317e;" vert-adv-y="2263" 
d="M1634 174l-65 -57q-115 132 -209 262q-89 125 -103 182h-2q-14 -58 -79 -151q-108 -156 -228 -289q-76 87 -239 297q-70 93 -78 141h-2q-10 -47 -82 -145q-80 -110 -242 -301l-67 61q167 197 237 297q62 87 83.5 141.5t21.5 151.5v323h94v-280q0 -108 18 -172t82 -156
q62 -87 174 -223q125 157 164 217q60 91 77 145t17 162v246h-293v76h676v-76h-286v-238q0 -104 24.5 -171t89.5 -162q79 -117 217 -281z" />
    <glyph glyph-name="uni317F" unicode="&#x317f;" vert-adv-y="2263" 
d="M930 1217l448 -1072h-893zM629 229h604l-303 762z" />
    <glyph glyph-name="uni3180" unicode="&#x3180;" vert-adv-y="2263" 
d="M547 1139q161 0 242 -125t81 -346v-105q0 -221 -80.5 -346t-242.5 -125q-160 0 -240 125t-80 346v105q0 221 80 346t240 125zM547 178q62 0 108 33t72 90.5t38.5 126t12.5 147.5v80q0 79 -12.5 148t-38.5 127t-72 91.5t-108 33.5q-61 0 -106.5 -33.5t-71 -91.5t-38 -127
t-12.5 -148v-80q0 -79 12.5 -147.5t38 -126t71 -90.5t106.5 -33zM1307 1139q161 0 242 -125t81 -346v-105q0 -221 -80.5 -346t-242.5 -125q-160 0 -240 125t-80 346v105q0 221 80 346t240 125zM1307 178q62 0 108 33t72 90.5t38.5 126t12.5 147.5v80q0 79 -12.5 148
t-38.5 127t-72 91.5t-108 33.5q-61 0 -106.5 -33.5t-71 -91.5t-38 -127t-12.5 -148v-80q0 -79 12.5 -147.5t38 -126t71 -90.5t106.5 -33z" />
    <glyph glyph-name="uni3181" unicode="&#x3181;" vert-adv-y="2263" 
d="M930 14q-109 0 -202.5 37.5t-154 98t-94 134t-33.5 148.5v125q0 70 30.5 140t84.5 128.5t137.5 99t182.5 50.5v371h98v-371q130 -13 231.5 -78.5t153 -155t51.5 -184.5v-125q0 -75 -33.5 -148.5t-94 -134t-154 -98t-203.5 -37.5zM930 887q-160 0 -271.5 -95t-111.5 -233
v-129q0 -139 111 -232.5t272 -93.5q162 0 273.5 93.5t111.5 232.5v129q0 138 -112 233t-273 95z" />
    <glyph glyph-name="uni3182" unicode="&#x3182;" vert-adv-y="2263" 
d="M864 561v-106q0 -164 -82.5 -256.5t-234.5 -92.5q-146 0 -227.5 94.5t-81.5 258.5v98q0 147 70 239t194 111v230h92v-230q128 -19 199 -109t71 -237zM776 467v82q0 134 -59.5 207t-165.5 73q-102 0 -163.5 -74t-61.5 -206v-82q0 -133 60 -207t161 -74q107 0 168 73.5
t61 207.5zM1282 1100v-324q0 -101 25 -166.5t84 -140.5q94 -124 249 -293l-61 -61q-182 202 -260 303q-74 95 -80 141h-2q-6 -46 -80 -141q-78 -101 -260 -303l-63 61q167 182 251 293q59 74 83 140t24 167v324h90z" />
    <glyph glyph-name="uni3183" unicode="&#x3183;" vert-adv-y="2263" 
d="M907 561v-106q0 -164 -82.5 -256.5t-234.5 -92.5q-146 0 -227.5 94.5t-81.5 258.5v98q0 147 70 239t194 111v230h92v-230q128 -19 199 -109t71 -237zM819 467v82q0 134 -59.5 207t-165.5 73q-102 0 -163.5 -74t-61.5 -206v-82q0 -133 60 -207t161 -74q107 0 168 73.5
t61 207.5zM1253 1163l344 -1028h-677zM1049 215h415l-211 662z" />
    <glyph glyph-name="uni3184" unicode="&#x3184;" vert-adv-y="2263" 
d="M1237 233v-53q0 -89 -84.5 -159t-220.5 -70q-134 0 -218.5 70t-84.5 159v53q0 89 84.5 159.5t218.5 70.5q135 0 220 -70.5t85 -159.5zM1143 178v58q0 64 -60.5 105.5t-150.5 41.5q-89 0 -149 -41.5t-60 -105.5v-58q0 -64 60 -105.5t149 -41.5q90 0 150.5 41.5t60.5 105.5
zM440 635v80h230v549h-213v79h950v-79h-211v-549h229v-80h-985zM758 1264v-549h350v549h-350z" />
    <glyph glyph-name="uni3185" unicode="&#x3185;" vert-adv-y="2263" 
d="M850 459v-80q0 -54 -14.5 -104t-45 -94.5t-84 -71.5t-124.5 -27t-125 27t-84 71.5t-45 94.5t-15 104v80q0 54 15 104t45 94.5t84 71.5t125 27t124.5 -27t84 -71.5t45 -94.5t14.5 -104zM1579 948v-82h-614v82h256v203h100v-203h258zM408 459v-80q0 -97 46 -154t128 -57
q89 0 131.5 55.5t42.5 155.5v80q0 100 -42.5 155.5t-131.5 55.5q-82 0 -128 -57t-46 -154zM1538 459v-80q0 -54 -14.5 -104t-45 -94.5t-84 -71.5t-124.5 -27t-125 27t-84 71.5t-45 94.5t-15 104v80q0 54 15 104t45 94.5t84 71.5t125 27t124.5 -27t84 -71.5t45 -94.5
t14.5 -104zM1096 459v-80q0 -97 46 -154t128 -57q89 0 131.5 55.5t42.5 155.5v80q0 100 -42.5 155.5t-131.5 55.5q-82 0 -128 -57t-46 -154zM891 948v-82h-615v82h256v203h101v-203h258z" />
    <glyph glyph-name="uni3186" unicode="&#x3186;" vert-adv-y="2263" 
d="M930 18q-92 0 -170 25.5t-130 67t-89 94.5t-53.5 107.5t-16.5 107.5v125q0 65 28 131.5t81 126t144.5 97.5t205.5 38q93 0 171.5 -25t131 -66t89.5 -93t54 -105t17 -104v-125q0 -53 -17 -107.5t-54 -107.5t-89.5 -94.5t-131 -67t-171.5 -25.5zM930 846q-150 0 -254.5 -86
t-104.5 -228v-100q0 -146 104 -233.5t255 -87.5q152 0 257 87.5t105 233.5v100q0 142 -105 228t-257 86zM1425 1294v-82h-989v82h989z" />
    <glyph glyph-name="uni3187" unicode="&#x3187;" vert-adv-y="2263" 
d="M1534 512v-782h-88v1855h88v-522h315v-82h-315v-387h315v-82h-315zM84 139v80q232 0 330 2v592h88v-592q134 2 317 10v582h88v-580q141 7 359 31l8 -80q-275 -26 -500 -35.5t-690 -9.5z" />
    <glyph glyph-name="uni3188" unicode="&#x3188;" vert-adv-y="2263" 
d="M1597 514h-288v-733h-88v1771h88v-497h288v530h89v-1855h-89v784zM1087 287l5 -78q-335 -23 -996 -23v78h246v551h86v-551l299 4v547h86v-543q77 2 274 15zM1597 592v385h-288v-385h288z" />
    <glyph glyph-name="uni3189" unicode="&#x3189;" vert-adv-y="2263" 
d="M102 141v80q258 0 367 2v590h88v-590q218 4 322 8v582h88v-577q172 8 364 30l8 -80q-251 -27 -498.5 -36t-738.5 -9zM1587 -270h-90v1855h90v-1855z" />
    <glyph glyph-name="uni318A" unicode="&#x318a;" vert-adv-y="2263" 
d="M90 588v80q514 2 757.5 10t487.5 35l8 -80q-242 -25 -444 -35v-809h-90v805q-168 -4 -287 -4v-801h-90v799h-342zM1509 125v221h-419v84h419v1155h88v-1855h-88v311h-419v84h419z" />
    <glyph glyph-name="uni318B" unicode="&#x318b;" vert-adv-y="2263" 
d="M1243 109v217h-307v84h307v1142h88v-1773h-88v246h-307v84h307zM1053 690l4 -80q-179 -12 -301 -16v-744h-86v742l-246 -4v-738h-86v738q-38 -1 -83 -1t-104.5 0.5t-95.5 0.5v80q736 3 998 22zM1653 1585v-1855h-88v1855h88z" />
    <glyph glyph-name="uni318C" unicode="&#x318c;" vert-adv-y="2263" 
d="M94 590v80q514 2 759 10t488 35l9 -80q-229 -23 -398 -33v-813h-90v809q-282 -6 -330 -6v-803h-90v801h-348zM1597 -270h-88v1855h88v-1855z" />
    <glyph glyph-name="uni318D" unicode="&#x318d;" vert-adv-y="2263" 
d="M825 698q0 43 31 74t74 31t73.5 -31t30.5 -74t-30.5 -73.5t-73.5 -30.5t-74 30.5t-31 73.5z" />
    <glyph glyph-name="uni318E" unicode="&#x318e;" vert-adv-y="2263" 
d="M479 698q0 43 31 74t74 31t73.5 -31t30.5 -74t-30.5 -73.5t-73.5 -30.5t-74 30.5t-31 73.5zM1094 -270h-88v1855h88v-1855z" />
    <glyph glyph-name="uni2170" unicode="&#x2170;" vert-adv-y="2263" 
d="M889 1038h88v-1091h-88v1091zM881 1397h104v-121h-104v121z" />
    <glyph glyph-name="uni2171" unicode="&#x2171;" vert-adv-y="2263" 
d="M627 1038h88v-1091h-88v1091zM618 1397h105v-121h-105v121zM1149 1038h88v-1091h-88v1091zM1141 1397h104v-121h-104v121z" />
    <glyph glyph-name="uni2172" unicode="&#x2172;" vert-adv-y="2263" 
d="M422 1038h88v-1091h-88v1091zM414 1397h104v-121h-104v121zM889 1038h88v-1091h-88v1091zM881 1397h104v-121h-104v121zM1354 1038h88v-1091h-88v1091zM1346 1397h104v-121h-104v121z" />
    <glyph glyph-name="uni2173" unicode="&#x2173;" vert-adv-y="2263" 
d="M487 1038h88v-1091h-88v1091zM479 1397h105v-121h-105v121zM1139 53l278 985h88l-327 -1091h-82l-334 1091h90z" />
    <glyph glyph-name="uni2174" unicode="&#x2174;" vert-adv-y="2263" 
d="M936 53l356 985h92l-407 -1091h-86l-414 1091h94z" />
    <glyph glyph-name="uni2175" unicode="&#x2175;" vert-adv-y="2263" 
d="M1294 1038h88v-1091h-88v1091zM1286 1397h105v-121h-105v121zM735 53l279 985h88l-328 -1091h-82l-334 1091h91z" />
    <glyph glyph-name="uni2176" unicode="&#x2176;" vert-adv-y="2263" 
d="M1130 1038h89v-1091h-89v1091zM1122 1397h105v-121h-105v121zM571 53l279 985h88l-328 -1091h-82l-333 1091h90zM1505 1038h88v-1091h-88v1091zM1497 1397h105v-121h-105v121z" />
    <glyph glyph-name="uni2177" unicode="&#x2177;" vert-adv-y="2263" 
d="M977 1038h88v-1091h-88v1091zM969 1397h104v-121h-104v121zM483 53l252 985h88l-301 -1091h-82l-307 1091h90zM1280 1038h88v-1091h-88v1091zM1272 1397h104v-121h-104v121zM1583 1038h88v-1091h-88v1091zM1575 1397h104v-121h-104v121z" />
    <glyph glyph-name="uni2178" unicode="&#x2178;" vert-adv-y="2263" 
d="M506 1038h88v-1091h-88v1091zM498 1397h104v-121h-104v121zM1520 1038l-299 -528l325 -563h-100l-283 508l-289 -508h-100l330 555l-299 536h94l264 -481l260 481h97z" />
    <glyph glyph-name="uni2179" unicode="&#x2179;" vert-adv-y="2263" 
d="M1358 1038l-365 -528l391 -563h-106l-342 508l-350 -508h-107l398 555l-367 536h100l326 -481l319 481h103z" />
    <glyph glyph-name="uni2160" unicode="&#x2160;" vert-adv-y="2263" 
d="M887 1423h90v-1476h-90v1476z" />
    <glyph glyph-name="uni2161" unicode="&#x2161;" vert-adv-y="2263" 
d="M641 1423h90v-1476h-90v1476zM1133 1423h90v-1476h-90v1476z" />
    <glyph glyph-name="uni2162" unicode="&#x2162;" vert-adv-y="2263" 
d="M887 1423h90v-1476h-90v1476zM1364 1423h90v-1476h-90v1476zM410 1423h90v-1476h-90v1476z" />
    <glyph glyph-name="uni2163" unicode="&#x2163;" vert-adv-y="2263" 
d="M416 1423h90v-1476h-90v1476zM690 1423h98l396 -1368l379 1368h94l-424 -1476h-105z" />
    <glyph glyph-name="uni2164" unicode="&#x2164;" vert-adv-y="2263" 
d="M338 1423h100l496 -1368l491 1368h97l-539 -1476h-104z" />
    <glyph glyph-name="uni2165" unicode="&#x2165;" vert-adv-y="2263" 
d="M1356 1423h90v-1476h-90v1476zM205 1423h98l395 -1368l379 1368h94l-423 -1476h-105z" />
    <glyph glyph-name="uni2166" unicode="&#x2166;" vert-adv-y="2263" 
d="M1149 1423h90v-1476h-90v1476zM109 1423h96l346 -1370l340 1370h92l-383 -1476h-104zM1520 1423h90v-1476h-90v1476z" />
    <glyph glyph-name="uni2167" unicode="&#x2167;" vert-adv-y="2263" 
d="M930 1423h90v-1476h-90v1476zM123 1423h92l256 -1370l250 1370h88l-285 -1476h-112zM1251 1423h90v-1476h-90v1476zM1573 1423h90v-1476h-90v1476z" />
    <glyph glyph-name="uni2168" unicode="&#x2168;" vert-adv-y="2263" 
d="M442 1423h90v-1476h-90v1476zM1645 1423l-385 -708l421 -768h-104l-379 710l-373 -710h-104l418 764l-400 712h101l358 -659l346 659h101z" />
    <glyph glyph-name="uni2169" unicode="&#x2169;" vert-adv-y="2263" 
d="M1462 1423l-467 -708l504 -768h-106l-459 710l-465 -710h-107l512 764l-493 712h102l451 -659l426 659h102z" />
    <glyph glyph-name="Alpha" unicode="&#x391;" horiz-adv-x="1280" vert-adv-y="2263" 
d="M1151 -53l-176 477h-668l-180 -477h-98l569 1476h90l563 -1476h-100zM520 981l-182 -477h606l-176 477q-14 40 -41 110.5t-47.5 127.5t-36.5 108q-25 -86 -123 -346z" />
    <glyph glyph-name="Beta" unicode="&#x392;" horiz-adv-x="1241" vert-adv-y="2263" 
d="M180 -53v1476h457q231 0 340.5 -88t109.5 -270v-47q0 -105 -58.5 -185t-182.5 -110q309 -42 309 -334v-55q0 -387 -450 -387h-525zM268 680v-651h445q176 0 263 75t87 230v49q0 149 -95.5 223t-310.5 74h-389zM645 1341h-377v-581h387q160 0 251 65.5t91 198.5v41
q0 136 -82.5 206t-269.5 70z" />
    <glyph glyph-name="Gamma" unicode="&#x393;" horiz-adv-x="1085" vert-adv-y="2263" 
d="M270 -53h-90v1476h856v-84h-766v-1392z" />
    <glyph glyph-name="uni0394" unicode="&#x394;" horiz-adv-x="1292" vert-adv-y="2263" 
d="M33 -53l542 1476h101l538 -1476h-1181zM156 31h925l-456 1300z" />
    <glyph glyph-name="Epsilon" unicode="&#x395;" horiz-adv-x="1198" vert-adv-y="2263" 
d="M180 1423h862v-84h-772v-594h729v-81h-729v-633h787v-84h-877v1476z" />
    <glyph glyph-name="Zeta" unicode="&#x396;" horiz-adv-x="1216" vert-adv-y="2263" 
d="M1096 1423v-71l-920 -1323h959v-82h-1069v71l919 1323h-868v82h979z" />
    <glyph glyph-name="Eta" unicode="&#x397;" horiz-adv-x="1366" vert-adv-y="2263" 
d="M1096 1423h90v-1476h-90v733h-826v-733h-90v1476h90v-659h826v659z" />
    <glyph glyph-name="Theta" unicode="&#x398;" horiz-adv-x="1380" vert-adv-y="2263" 
d="M1053 735v-92h-705v92h705zM1257 778v-186q0 -197 -62 -346t-191.5 -235.5t-313.5 -86.5t-313.5 86.5t-191.5 235.5t-62 346v186q0 197 62 346t191.5 235.5t313.5 86.5t313.5 -86.5t191.5 -235.5t62 -346zM1165 594v182q0 282 -126 434t-349 152t-349 -152t-126 -434
v-182q0 -282 126 -434t349 -152t349 152t126 434z" />
    <glyph glyph-name="Iota" unicode="&#x399;" horiz-adv-x="450" vert-adv-y="2263" 
d="M180 1423h90v-1476h-90v1476z" />
    <glyph glyph-name="Kappa" unicode="&#x39a;" horiz-adv-x="1284" vert-adv-y="2263" 
d="M1178 1423l-611 -624l647 -852h-110l-600 788l-234 -239v-549h-90v1476h90v-813l785 813h123z" />
    <glyph glyph-name="Lambda" unicode="&#x39b;" horiz-adv-x="1257" vert-adv-y="2263" 
d="M1221 -53h-101l-495 1368l-492 -1368h-96l538 1476h105z" />
    <glyph glyph-name="Mu" unicode="&#x39c;" horiz-adv-x="1671" vert-adv-y="2263" 
d="M799 193l-416 845q-65 128 -115 242v-1333h-88v1476h103l557 -1128l544 1128h107v-1476h-88v1317q-44 -101 -121 -252l-405 -819h-78z" />
    <glyph glyph-name="Nu" unicode="&#x39d;" horiz-adv-x="1370" vert-adv-y="2263" 
d="M180 1423h123l735 -1251q30 -51 64 -125v1376h88v-1476h-123l-735 1251q-30 52 -64 125v-1376h-88v1476z" />
    <glyph glyph-name="Xi" unicode="&#x39e;" horiz-adv-x="1075" vert-adv-y="2263" 
d="M102 27h871v-80h-871v80zM156 666v79h764v-79h-764zM965 1343h-854v80h854v-80z" />
    <glyph glyph-name="Omicron" unicode="&#x39f;" horiz-adv-x="1380" vert-adv-y="2263" 
d="M1257 778v-186q0 -197 -62 -346t-191.5 -235.5t-313.5 -86.5t-313.5 86.5t-191.5 235.5t-62 346v186q0 197 62 346t191.5 235.5t313.5 86.5t313.5 -86.5t191.5 -235.5t62 -346zM1165 594v182q0 282 -126 434t-349 152t-349 -152t-126 -434v-182q0 -282 126 -434t349 -152
t349 152t126 434z" />
    <glyph glyph-name="Pi" unicode="&#x3a0;" horiz-adv-x="1337" vert-adv-y="2263" 
d="M1157 1423v-1476h-90v1392h-797v-1392h-90v1476h977z" />
    <glyph glyph-name="Rho" unicode="&#x3a1;" horiz-adv-x="1185" vert-adv-y="2263" 
d="M180 -53v1476h461q232 0 353.5 -106.5t121.5 -310.5v-45q0 -206 -124 -313t-357 -107h-365v-594h-90zM641 1339h-371v-714h355q212 0 305.5 87t93.5 251v38q0 338 -383 338z" />
    <glyph glyph-name="Sigma" unicode="&#x3a3;" horiz-adv-x="1222" vert-adv-y="2263" 
d="M217 1423h848v-82h-733l436 -661l-444 -651h755v-82h-862v63l453 668l-453 688v57z" />
    <glyph glyph-name="Tau" unicode="&#x3a4;" horiz-adv-x="1163" vert-adv-y="2263" 
d="M627 -53h-90v1392h-492v84h1073v-84h-491v-1392z" />
    <glyph glyph-name="Upsilon" unicode="&#x3a5;" horiz-adv-x="1196" vert-adv-y="2263" 
d="M1147 1423l-498 -864v-612h-90v612l-510 864h96l461 -782l443 782h98z" />
    <glyph glyph-name="Phi" unicode="&#x3a6;" horiz-adv-x="1499" vert-adv-y="2263" 
d="M133 662v108q0 236 146.5 371t427.5 147v182h84v-182q278 -9 426.5 -145.5t148.5 -372.5v-108q0 -235 -148.5 -372.5t-426.5 -146.5v-196h-84v196q-280 9 -427 145.5t-147 373.5zM1280 674v84q0 113 -37.5 199.5t-105.5 139.5t-154.5 80.5t-191.5 32.5v-989
q105 5 191.5 32.5t154.5 80.5t105.5 139.5t37.5 200.5zM219 758v-84q0 -113 37 -199t104 -139.5t154 -81.5t193 -33v989q-107 -5 -193.5 -32.5t-153.5 -80.5t-104 -139.5t-37 -199.5z" />
    <glyph glyph-name="Chi" unicode="&#x3a7;" horiz-adv-x="1234" vert-adv-y="2263" 
d="M1157 1423l-467 -708l496 -768h-111l-448 708l-471 -708h-107l520 764l-493 712h106l449 -657l424 657h102z" />
    <glyph glyph-name="Psi" unicode="&#x3a8;" horiz-adv-x="1425" vert-adv-y="2263" 
d="M756 1382v-942q102 7 179.5 37t137.5 89.5t91.5 158t31.5 233.5v424h86v-440q0 -122 -28 -219.5t-76.5 -163t-116.5 -110.5t-143 -67t-162 -28v-407h-86v407q-87 6 -162 28t-143.5 67t-116.5 110.5t-76.5 163t-28.5 219.5v440h86v-424q0 -135 31.5 -233.5t92 -158
t138 -89.5t179.5 -37v942h86z" />
    <glyph glyph-name="uni03A9" unicode="&#x3a9;" horiz-adv-x="1503" vert-adv-y="2263" 
d="M752 1446q139 0 245.5 -48.5t172.5 -136t99.5 -205t33.5 -261.5v-183q0 -166 -32.5 -281.5t-88 -183.5t-144.5 -118h404v-82h-514v94q67 42 108 74.5t78 78t56 101t29.5 133.5t10.5 186v177q0 274 -118.5 421.5t-339.5 147.5t-340 -147.5t-119 -421.5v-177
q0 -108 10.5 -186t29.5 -133.5t56 -101t78 -78t108 -74.5v-94h-514v82h404q-88 50 -144 118t-88 183.5t-32 281.5v183q0 144 33.5 261.5t99.5 205t172.5 136t245.5 48.5z" />
    <glyph glyph-name="alpha" unicode="&#x3b1;" horiz-adv-x="1146" vert-adv-y="2263" 
d="M893 -53v184q-43 -87 -139 -144t-217 -57q-198 0 -308 120.5t-110 344.5v201q0 222 119 343.5t315 121.5q102 0 196 -41.5t142 -114.5v133h88v-1091h-86zM893 346v371q0 109 -97 186.5t-247 77.5q-157 0 -249.5 -104t-92.5 -293v-176q0 -195 85.5 -296.5t254.5 -101.5
q61 0 121.5 23t111 64t82 106.5t31.5 142.5z" />
    <glyph glyph-name="beta" unicode="&#x3b2;" horiz-adv-x="1107" vert-adv-y="2263" 
d="M936 1161v-53q0 -146 -58.5 -228.5t-175.5 -119.5q160 -12 250 -101t90 -249v-88q0 -181 -115 -286.5t-294 -105.5q-135 0 -233 48t-144 118v-588h-88v1606q0 104 32 182.5t87.5 123t123 66t146.5 21.5q98 0 172.5 -28t118.5 -76.5t66 -109.5t22 -132zM256 1100v-834
q0 -96 106 -174t271 -78q76 0 135.5 23.5t93 58t55 79.5t28.5 81.5t7 69.5v77q0 171 -107 242.5t-308 63.5v84q76 1 132 19t89.5 46.5t53.5 71t27 86t7 98.5v37q0 131 -78.5 201.5t-206.5 70.5q-142 0 -223.5 -84t-81.5 -239z" />
    <glyph glyph-name="gamma" unicode="&#x3b3;" horiz-adv-x="989" vert-adv-y="2263" 
d="M41 1038h102l355 -989l356 989h94l-405 -1106v-424h-88v420z" />
    <glyph glyph-name="delta" unicode="&#x3b4;" horiz-adv-x="1155" vert-adv-y="2263" 
d="M389 1292v-10q0 -33 14 -60t47.5 -53t65.5 -45t92 -53.5t103 -62.5q121 -77 168 -121q139 -126 152 -324q1 -21 1 -43v-96q0 -233 -120.5 -363.5t-333.5 -130.5t-334 130.5t-121 363.5v76q0 104 24.5 187.5t66 137.5t98.5 90.5t119.5 52t131.5 15.5q39 0 66 -6
q-182 85 -255 152.5t-73 146.5v24q0 83 81 145t230 62q164 0 295 -71l-30 -72q-120 63 -256 63q-111 0 -171.5 -34.5t-60.5 -100.5zM578 10q175 0 270.5 103.5t95.5 310.5v125q0 152 -108 256t-246 104q-79 0 -142.5 -19t-119 -63t-86.5 -127t-31 -200v-76q0 -207 96 -310.5
t271 -103.5z" />
    <glyph glyph-name="epsilon" unicode="&#x3b5;" horiz-adv-x="917" vert-adv-y="2263" 
d="M829 991l-30 -71q-116 53 -279 53q-139 0 -218 -41t-79 -123v-16q0 -110 81.5 -164t207.5 -54h129v-88h-149q-135 0 -214 -58t-79 -169v-24q0 -95 72 -158.5t216 -63.5q214 0 367 101l45 -66q-75 -60 -181 -89.5t-212 -29.5q-189 0 -293 79t-104 231v22q0 227 262 270
q-116 29 -177 93.5t-61 160.5v19q0 85 52.5 142.5t136 82.5t194.5 25q93 0 162 -14t151 -50z" />
    <glyph glyph-name="zeta" unicode="&#x3b6;" horiz-adv-x="866" vert-adv-y="2263" 
d="M727 -342l-51 61q68 51 89 78t21 62q0 75 -182 121q-112 29 -195.5 64.5t-156.5 90t-111.5 133.5t-38.5 181v32q0 264 155.5 499t426.5 433h-438v82h524l6 -90q-118 -93 -204 -171.5t-161 -168t-120.5 -177.5t-71.5 -191.5t-26 -219.5v-26q0 -50 12 -93.5t32 -77
t52.5 -63t65.5 -51t81 -43t89 -36t98 -32.5q144 -45 193.5 -82.5t49.5 -105.5q0 -38 -8.5 -67.5t-28.5 -53t-37.5 -38.5t-49.5 -39q-10 -7 -15 -11z" />
    <glyph glyph-name="eta" unicode="&#x3b7;" horiz-adv-x="1153" vert-adv-y="2263" 
d="M993 698v-1190h-88v1164q0 150 -72 229.5t-233 79.5q-67 0 -126 -21t-97.5 -54t-67 -73t-41 -77t-12.5 -68v-741h-88v1091h86v-168q16 31 44.5 62t72 61.5t107 49t136.5 18.5q99 0 174 -30t118.5 -81.5t65 -115t21.5 -136.5z" />
    <glyph glyph-name="theta" unicode="&#x3b8;" horiz-adv-x="1089" vert-adv-y="2263" 
d="M545 -74q-189 0 -305.5 158.5t-116.5 466.5v332q0 308 115.5 466t306.5 158t306.5 -158t115.5 -466v-332q0 -308 -116.5 -466.5t-305.5 -158.5zM545 8q332 0 332 602v72h-664v-72q0 -602 332 -602zM213 760h664v74q0 312 -84.5 451.5t-247.5 139.5t-247.5 -139.5
t-84.5 -451.5v-74z" />
    <glyph glyph-name="iota" unicode="&#x3b9;" horiz-adv-x="471" vert-adv-y="2263" 
d="M432 27l19 -76q-47 -21 -109 -21q-84 0 -131 42t-47 147v919h90v-915q0 -61 21 -86t73 -25q44 0 84 15z" />
    <glyph glyph-name="kappa" unicode="&#x3ba;" horiz-adv-x="1054" vert-adv-y="2263" 
d="M954 1038l-440 -452l500 -639h-111l-450 575l-197 -203v-372h-88v1091h88v-604l578 604h120z" />
    <glyph glyph-name="lambda" unicode="&#x3bb;" horiz-adv-x="991" vert-adv-y="2263" 
d="M856 -53l-354 995l-369 -995h-92l412 1106l-111 303q-15 41 -31.5 56t-44.5 15q-29 0 -57 -14l-27 74q46 20 86 20q58 0 92 -26.5t56 -85.5l534 -1448h-94z" />
    <glyph glyph-name="uni03BC" unicode="&#x3bc;" horiz-adv-x="1144" vert-adv-y="2263" 
d="M162 -492v1530h86v-721q0 -154 70 -230.5t241 -76.5q42 0 87.5 13.5t89 40.5t78.5 63.5t56 88t21 108.5v714h86v-1091h-86v168q-27 -57 -125 -120t-219 -63q-112 0 -193.5 42t-105.5 104v-570h-86z" />
    <glyph glyph-name="nu" unicode="&#x3bd;" horiz-adv-x="985" vert-adv-y="2263" 
d="M498 53l356 985h92l-407 -1091h-86l-414 1091h94z" />
    <glyph glyph-name="xi" unicode="&#x3be;" horiz-adv-x="913" vert-adv-y="2263" 
d="M195 453v-23q0 -68 23 -121.5t56.5 -87.5t93.5 -64.5t111 -49t131 -43.5q11 -3 17 -5q62 -19 98.5 -32.5t68.5 -30t47 -34t23 -40t8 -53.5q0 -38 -11 -69t-36.5 -58.5t-42 -41.5t-51.5 -40l-51 61q61 41 86 72.5t25 67.5q0 75 -183 121q-93 24 -158.5 46t-135 59t-112 81
t-69.5 110t-27 148v37q0 82 26 145.5t73 104t104.5 65t128.5 35.5q-118 21 -198 107.5t-80 236.5v19q0 148 98.5 239.5t280.5 91.5q98 0 173 -16t156 -64l-39 -63q-103 68 -286 68q-58 0 -109 -14t-94 -42.5t-68.5 -79t-25.5 -116.5v-21q0 -136 94 -223.5t242 -87.5h135v-80
h-142q-170 0 -275 -84t-105 -231z" />
    <glyph glyph-name="omicron" unicode="&#x3bf;" horiz-adv-x="1142" vert-adv-y="2263" 
d="M571 1061q212 0 330.5 -130.5t118.5 -363.5v-143q0 -233 -118.5 -363.5t-330.5 -130.5t-330 130.5t-118 363.5v143q0 235 118 364.5t330 129.5zM571 6q170 0 265.5 105.5t95.5 312.5v143q0 207 -95.5 312.5t-265.5 105.5t-265 -105.5t-95 -312.5v-143q0 -207 95 -312.5
t265 -105.5z" />
    <glyph glyph-name="pi" unicode="&#x3c0;" horiz-adv-x="1155" vert-adv-y="2263" 
d="M1036 20l15 -71q-50 -19 -111 -19q-170 0 -170 193v833h-385v-1009h-88v1009h-248v82h1057v-82h-248v-831q0 -58 24 -87.5t66 -29.5q50 0 88 12z" />
    <glyph glyph-name="rho" unicode="&#x3c1;" horiz-adv-x="1179" vert-adv-y="2263" 
d="M612 1061q212 0 330.5 -130.5t118.5 -363.5v-143q0 -233 -118.5 -363.5t-330.5 -130.5q-124 0 -220 49.5t-142 141.5v-613h-86v1059q0 235 118 364.5t330 129.5zM612 6q170 0 265.5 105.5t95.5 312.5v143q0 207 -95.5 312.5t-265.5 105.5t-265 -105.5t-95 -312.5v-143
q0 -207 95 -312.5t265 -105.5z" />
    <glyph glyph-name="sigma" unicode="&#x3c3;" horiz-adv-x="1114" vert-adv-y="2263" 
d="M567 1038h527v-77h-267q189 -122 189 -416v-121q0 -233 -118.5 -363.5t-330.5 -130.5t-330 130.5t-118 363.5v121q0 234 117.5 363.5t330.5 129.5zM567 6q170 0 265.5 105.5t95.5 312.5v121q0 207 -95.5 312.5t-265.5 105.5t-265 -105.5t-95 -312.5v-121
q0 -207 95 -312.5t265 -105.5z" />
    <glyph glyph-name="tau" unicode="&#x3c4;" horiz-adv-x="1073" vert-adv-y="2263" 
d="M473 956h-440v82h1007v-82h-479v-790q0 -158 125 -158q64 0 129 19l16 -72q-70 -25 -151 -25q-98 0 -152.5 58t-54.5 176v792z" />
    <glyph glyph-name="upsilon" unicode="&#x3c5;" horiz-adv-x="1159" vert-adv-y="2263" 
d="M580 -70q-194 0 -305 120.5t-111 365.5v622h86v-596q0 -220 79.5 -325t250.5 -105t250 105t79 325v596h86v-622q0 -245 -110.5 -365.5t-304.5 -120.5z" />
    <glyph glyph-name="phi" unicode="&#x3c6;" horiz-adv-x="1351" vert-adv-y="2263" 
d="M717 -492h-82v424q-227 11 -373.5 145.5t-146.5 350.5v135q0 114 44 208.5t120 157.5t178 97.5t219 34.5q156 0 283 -59t202.5 -174t75.5 -265v-135q0 -143 -69 -254t-186.5 -172.5t-264.5 -69.5v-424zM1155 436v119q0 186 -119 302t-319 130v-981q199 19 318.5 133
t119.5 297zM197 555v-119q0 -187 118.5 -301t319.5 -129v981q-199 -12 -318.5 -128t-119.5 -304z" />
    <glyph glyph-name="chi" unicode="&#x3c7;" horiz-adv-x="1073" vert-adv-y="2263" 
d="M535 236l-351 -728h-94l391 795l-250 604q-11 29 -16.5 40.5t-17 20.5t-29.5 9q-30 0 -66 -16l-26 69q55 25 96 25q60 0 91.5 -26t58.5 -93l227 -563l297 667h94l-340 -733l281 -657q11 -29 17 -41.5t18 -22.5t30 -10q30 0 66 16l26 -69q-55 -25 -96 -25q-60 0 -91 26
t-58 93z" />
    <glyph glyph-name="psi" unicode="&#x3c8;" horiz-adv-x="1445" vert-adv-y="2263" 
d="M766 1038v-1028q208 14 318 128.5t110 346.5v553h88v-549q0 -260 -131 -404.5t-385 -156.5v-420h-86v420q-254 12 -385 156.5t-131 404.5v549h88v-553q0 -232 110 -346.5t318 -128.5v1028h86z" />
    <glyph glyph-name="omega" unicode="&#x3c9;" horiz-adv-x="1458" vert-adv-y="2263" 
d="M731 109h-2q-41 -83 -112 -131t-162 -48q-52 0 -98.5 14t-92.5 49.5t-78.5 91t-52.5 145t-20 204.5v74q0 291 170 543l63 -35q-78 -139 -112.5 -246.5t-34.5 -269.5v-49q0 -113 18 -196.5t44.5 -129t65 -72.5t71 -34t71.5 -7q91 0 154 69.5t63 170.5v514h86v-514
q0 -101 63 -170.5t154 -69.5q39 0 71.5 7t71.5 34t65.5 72.5t44.5 129t18 196.5v49q0 161 -35 268.5t-113 247.5l64 35q170 -252 170 -543v-74q0 -115 -20 -204.5t-52.5 -145t-78.5 -91t-92.5 -49.5t-98.5 -14q-90 0 -161 47.5t-112 131.5z" />
    <glyph glyph-name="SF100000" unicode="&#x2500;" horiz-adv-x="1884" vert-adv-y="2263" 
d="M1884 645v-59h-1884v59h1884z" />
    <glyph glyph-name="SF110000" unicode="&#x2502;" horiz-adv-x="1884" vert-adv-y="2263" 
d="M973 1638v-2048h-60v2048h60z" />
    <glyph glyph-name="SF010000" unicode="&#x250c;" horiz-adv-x="1884" vert-adv-y="2263" 
d="M1884 645v-59h-911v-996h-60v1055h971z" />
    <glyph glyph-name="SF030000" unicode="&#x2510;" horiz-adv-x="1884" vert-adv-y="2263" 
d="M973 645v-1055h-60v996h-913v59h973z" />
    <glyph glyph-name="SF040000" unicode="&#x2518;" horiz-adv-x="1884" vert-adv-y="2263" 
d="M973 1638v-1052h-973v59h913v993h60z" />
    <glyph glyph-name="SF020000" unicode="&#x2514;" horiz-adv-x="1884" vert-adv-y="2263" 
d="M1884 645v-59h-971v1052h60v-993h911z" />
    <glyph glyph-name="SF080000" unicode="&#x251c;" horiz-adv-x="1884" vert-adv-y="2263" 
d="M1884 645v-59h-911v-996h-60v2048h60v-993h911z" />
    <glyph glyph-name="SF060000" unicode="&#x252c;" horiz-adv-x="1884" vert-adv-y="2263" 
d="M1884 645v-59h-911v-996h-60v996h-913v59h1884z" />
    <glyph glyph-name="SF090000" unicode="&#x2524;" horiz-adv-x="1884" vert-adv-y="2263" 
d="M973 1638v-2048h-60v996h-913v59h913v993h60z" />
    <glyph glyph-name="SF070000" unicode="&#x2534;" horiz-adv-x="1884" vert-adv-y="2263" 
d="M1884 645v-59h-1884v59h913v993h60v-993h911z" />
    <glyph glyph-name="SF050000" unicode="&#x253c;" horiz-adv-x="1884" vert-adv-y="2263" 
d="M1884 643v-59h-911v-994h-60v994h-913v59h913v995h60v-995h911z" />
    <glyph glyph-name="uni2501" unicode="&#x2501;" horiz-adv-x="1884" vert-adv-y="2263" 
d="M1884 666v-111h-1884v111h1884z" />
    <glyph glyph-name="uni2503" unicode="&#x2503;" horiz-adv-x="1884" vert-adv-y="2263" 
d="M997 1638v-2048h-110v2048h110z" />
    <glyph glyph-name="uni250F" unicode="&#x250f;" horiz-adv-x="1884" vert-adv-y="2263" 
d="M1884 666v-111h-887v-965h-110v1076h997z" />
    <glyph glyph-name="uni2513" unicode="&#x2513;" horiz-adv-x="1884" vert-adv-y="2263" 
d="M997 666v-1076h-110v965h-887v111h997z" />
    <glyph glyph-name="uni251B" unicode="&#x251b;" horiz-adv-x="1884" vert-adv-y="2263" 
d="M997 1638v-1083h-997v111h887v972h110z" />
    <glyph glyph-name="uni2517" unicode="&#x2517;" horiz-adv-x="1884" vert-adv-y="2263" 
d="M1884 666v-111h-997v1083h110v-972h887z" />
    <glyph glyph-name="uni2523" unicode="&#x2523;" horiz-adv-x="1884" vert-adv-y="2263" 
d="M1884 666v-111h-887v-965h-110v2048h110v-972h887z" />
    <glyph glyph-name="uni2533" unicode="&#x2533;" horiz-adv-x="1884" vert-adv-y="2263" 
d="M1884 666v-111h-887v-965h-110v965h-887v111h1884z" />
    <glyph glyph-name="uni252B" unicode="&#x252b;" horiz-adv-x="1884" vert-adv-y="2263" 
d="M997 1638v-2048h-110v965h-887v111h887v972h110z" />
    <glyph glyph-name="uni253B" unicode="&#x253b;" horiz-adv-x="1884" vert-adv-y="2263" 
d="M1884 666v-111h-1884v111h887v972h110v-972h887z" />
    <glyph glyph-name="uni254B" unicode="&#x254b;" horiz-adv-x="1884" vert-adv-y="2263" 
d="M1884 666v-111h-887v-965h-110v965h-887v111h887v972h110v-972h887z" />
    <glyph glyph-name="uni2520" unicode="&#x2520;" horiz-adv-x="1884" vert-adv-y="2263" 
d="M1884 651v-73h-866v-988h-156v2048h156v-987h866z" />
    <glyph glyph-name="uni252F" unicode="&#x252f;" horiz-adv-x="1884" vert-adv-y="2263" 
d="M1884 688v-147h-903v-951h-78v951h-903v147h1884z" />
    <glyph glyph-name="uni2528" unicode="&#x2528;" horiz-adv-x="1884" vert-adv-y="2263" 
d="M1020 1638v-2048h-156v988h-864v73h864v987h156z" />
    <glyph glyph-name="uni2537" unicode="&#x2537;" horiz-adv-x="1884" vert-adv-y="2263" 
d="M1884 688v-147h-1884v147h903v950h78v-950h903z" />
    <glyph glyph-name="uni253F" unicode="&#x253f;" horiz-adv-x="1884" vert-adv-y="2263" 
d="M1884 688v-147h-903v-951h-78v951h-903v147h903v950h78v-950h903z" />
    <glyph glyph-name="uni251D" unicode="&#x251d;" horiz-adv-x="1884" vert-adv-y="2263" 
d="M1884 688v-147h-903v-951h-78v2048h78v-950h903z" />
    <glyph glyph-name="uni2530" unicode="&#x2530;" horiz-adv-x="1884" vert-adv-y="2263" 
d="M1884 651v-73h-864v-988h-156v988h-864v73h1884z" />
    <glyph glyph-name="uni2525" unicode="&#x2525;" horiz-adv-x="1884" vert-adv-y="2263" 
d="M981 1638v-2048h-78v951h-903v147h903v950h78z" />
    <glyph glyph-name="uni2538" unicode="&#x2538;" horiz-adv-x="1884" vert-adv-y="2263" 
d="M1884 651v-73h-1884v73h864v987h156v-987h864z" />
    <glyph glyph-name="uni2542" unicode="&#x2542;" horiz-adv-x="1884" vert-adv-y="2263" 
d="M1884 651v-73h-864v-988h-156v988h-864v73h864v987h156v-987h864z" />
    <glyph glyph-name="uni2512" unicode="&#x2512;" horiz-adv-x="1884" vert-adv-y="2263" 
d="M1020 651v-1061h-156v988h-864v73h1020z" />
    <glyph glyph-name="uni2511" unicode="&#x2511;" horiz-adv-x="1884" vert-adv-y="2263" 
d="M981 688v-1098h-78v951h-903v147h981z" />
    <glyph glyph-name="uni251A" unicode="&#x251a;" horiz-adv-x="1884" vert-adv-y="2263" 
d="M1020 1638v-1060h-1020v73h864v987h156z" />
    <glyph glyph-name="uni2519" unicode="&#x2519;" horiz-adv-x="1884" vert-adv-y="2263" 
d="M981 1638v-1097h-981v147h903v950h78z" />
    <glyph glyph-name="uni2516" unicode="&#x2516;" horiz-adv-x="1884" vert-adv-y="2263" 
d="M1884 651v-73h-1020v1060h156v-987h864z" />
    <glyph glyph-name="uni2515" unicode="&#x2515;" horiz-adv-x="1884" vert-adv-y="2263" 
d="M1884 688v-147h-981v1097h78v-950h903z" />
    <glyph glyph-name="uni250E" unicode="&#x250e;" horiz-adv-x="1884" vert-adv-y="2263" 
d="M1884 651v-73h-864v-988h-156v1061h1020z" />
    <glyph glyph-name="uni250D" unicode="&#x250d;" horiz-adv-x="1884" vert-adv-y="2263" 
d="M1884 688v-147h-903v-951h-78v1098h981z" />
    <glyph glyph-name="uni251E" unicode="&#x251e;" horiz-adv-x="1884" vert-adv-y="2263" 
d="M1884 651v-73h-905l2 -988h-78v1024h-39v1024h156v-987h864z" />
    <glyph glyph-name="uni251F" unicode="&#x251f;" horiz-adv-x="1884" vert-adv-y="2263" 
d="M1884 651v-73h-864v-988h-156v1024h39v1024h78v-987h903z" />
    <glyph glyph-name="uni2521" unicode="&#x2521;" horiz-adv-x="1884" vert-adv-y="2263" 
d="M1884 688v-147h-903v-951h-78v1024h-39v1024h156v-950h864z" />
    <glyph glyph-name="uni2522" unicode="&#x2522;" horiz-adv-x="1884" vert-adv-y="2263" 
d="M1884 688v-147h-864v-951h-156v1024h39v1024h78v-950h903z" />
    <glyph glyph-name="uni2526" unicode="&#x2526;" horiz-adv-x="1884" vert-adv-y="2263" 
d="M1020 1638v-1024h-39v-1024h-78v988h-903v73h864v987h156z" />
    <glyph glyph-name="uni2527" unicode="&#x2527;" horiz-adv-x="1884" vert-adv-y="2263" 
d="M1020 614v-1024h-156v988h-864v73h903v987h78v-1024h39z" />
    <glyph glyph-name="uni2529" unicode="&#x2529;" horiz-adv-x="1884" vert-adv-y="2263" 
d="M1020 1638v-1024h-39v-1024h-78v951h-903v147h864v950h156z" />
    <glyph glyph-name="uni252A" unicode="&#x252a;" horiz-adv-x="1884" vert-adv-y="2263" 
d="M1020 614v-1024h-156v951h-864v147h903v950h78v-1024h39z" />
    <glyph glyph-name="uni252D" unicode="&#x252d;" horiz-adv-x="1884" vert-adv-y="2263" 
d="M1884 651v-73h-903v-988h-78v951h-903v147h942v-37h942z" />
    <glyph glyph-name="uni252E" unicode="&#x252e;" horiz-adv-x="1884" vert-adv-y="2263" 
d="M1884 688v-147h-903v-951h-78v988h-903v73h942v37h942z" />
    <glyph glyph-name="uni2531" unicode="&#x2531;" horiz-adv-x="1884" vert-adv-y="2263" 
d="M1884 651v-73h-864v-988h-156v951h-864v147h942v-37h942z" />
    <glyph glyph-name="uni2532" unicode="&#x2532;" horiz-adv-x="1884" vert-adv-y="2263" 
d="M1884 688v-147h-864v-951h-156v988h-864v73h942v37h942z" />
    <glyph glyph-name="uni2535" unicode="&#x2535;" horiz-adv-x="1884" vert-adv-y="2263" 
d="M1884 651v-73h-942v-37h-942v147h903v950h78v-987h903z" />
    <glyph glyph-name="uni2536" unicode="&#x2536;" horiz-adv-x="1884" vert-adv-y="2263" 
d="M1884 688v-147h-942v37h-942v73h903v987h78v-950h903z" />
    <glyph glyph-name="uni2539" unicode="&#x2539;" horiz-adv-x="1884" vert-adv-y="2263" 
d="M1884 651v-73h-942v-37h-942v147h864v950h156v-987h864z" />
    <glyph glyph-name="uni253A" unicode="&#x253a;" horiz-adv-x="1884" vert-adv-y="2263" 
d="M1884 688v-147h-942v37h-942v73h864v987h156v-950h864z" />
    <glyph glyph-name="uni253D" unicode="&#x253d;" horiz-adv-x="1884" vert-adv-y="2263" 
d="M1884 651v-73h-903v-988h-78v951h-903v155h903v942h78v-987h903z" />
    <glyph glyph-name="uni253E" unicode="&#x253e;" horiz-adv-x="1884" vert-adv-y="2263" 
d="M1884 688v-147h-903v-951h-78v988h-903v73h903v987h78v-950h903z" />
    <glyph glyph-name="uni2540" unicode="&#x2540;" horiz-adv-x="1884" vert-adv-y="2263" 
d="M1884 651v-73h-903v-988h-78v988h-903v73h864v987h156v-987h864z" />
    <glyph glyph-name="uni2541" unicode="&#x2541;" horiz-adv-x="1884" vert-adv-y="2263" 
d="M1884 651v-73h-864v-988h-156v988h-864v73h903v987h78v-987h903z" />
    <glyph glyph-name="uni2543" unicode="&#x2543;" horiz-adv-x="1884" vert-adv-y="2263" 
d="M1884 651v-73h-903v-988h-78v951h-903v147h864v950h156v-987h864z" />
    <glyph glyph-name="uni2544" unicode="&#x2544;" horiz-adv-x="1884" vert-adv-y="2263" 
d="M1884 688v-147h-903v-951h-78v988h-903v73h864v987h156v-950h864z" />
    <glyph glyph-name="uni2545" unicode="&#x2545;" horiz-adv-x="1884" vert-adv-y="2263" 
d="M1884 651v-73h-864v-988h-156v951h-864v147h903v950h78v-987h903z" />
    <glyph glyph-name="uni2546" unicode="&#x2546;" horiz-adv-x="1884" vert-adv-y="2263" 
d="M1884 688v-147h-864v-951h-156v988h-864v73h903v987h78v-950h903z" />
    <glyph glyph-name="uni2547" unicode="&#x2547;" horiz-adv-x="1884" vert-adv-y="2263" 
d="M1884 688v-147h-903v-951h-78v951h-903v147h864v950h156v-950h864z" />
    <glyph glyph-name="uni2548" unicode="&#x2548;" horiz-adv-x="1884" vert-adv-y="2263" 
d="M1884 688v-147h-864v-951h-156v951h-864v147h903v950h78v-950h903z" />
    <glyph glyph-name="uni2549" unicode="&#x2549;" horiz-adv-x="1884" vert-adv-y="2263" 
d="M1884 651v-73h-864v-988h-156v951h-864v147h864v950h156v-987h864z" />
    <glyph glyph-name="uni254A" unicode="&#x254a;" horiz-adv-x="1884" vert-adv-y="2263" 
d="M1884 688v-147h-864v-951h-156v988h-864v73h864v987h156v-950h864z" />
    <glyph glyph-name="uni3395" unicode="&#x3395;" vert-adv-y="2263" 
d="M1063 -53h-78v166q-23 -44 -59 -82t-104.5 -69.5t-151.5 -31.5q-249 0 -340 187v-609h-80v1526h80v-702q0 -130 92.5 -228t245.5 -98q140 0 227.5 110.5t87.5 291.5v626h80v-1087zM1651 78l41 -55q-28 -47 -88 -70t-134 -23q-86 0 -151.5 56t-65.5 149v926
q0 82 11.5 148.5t37 122t71.5 86t110 30.5q217 0 217 -387v-182q0 -270 -90 -423.5t-273 -222.5v-57q0 -83 37 -128.5t109 -45.5q103 0 168 76zM1337 1036v-717q124 23 201.5 167.5t77.5 390.5v159q0 43 -0.5 70.5t-3.5 66.5t-8 63.5t-14.5 52t-23.5 43t-35 26t-48 10.5
q-45 0 -75.5 -27.5t-45 -78.5t-20 -104t-5.5 -122z" />
    <glyph glyph-name="uni3396" unicode="&#x3396;" vert-adv-y="2263" 
d="M190 1034h78v-149q26 73 79.5 121.5t133.5 48.5q147 0 193 -164q62 164 221 164q88 0 152.5 -70t64.5 -207v-831h-86v794q0 114 -36.5 171t-123.5 57q-76 0 -124 -68.5t-48 -165.5v-788h-86v805q0 217 -145 217q-80 0 -133.5 -69t-53.5 -175v-778h-86v1087zM1671 78
l41 -55q-28 -47 -87.5 -70t-133.5 -23q-86 0 -151.5 56t-65.5 149v926q0 82 11.5 148.5t36.5 122t71 86t110 30.5q217 0 217 -387v-182q0 -270 -89.5 -423.5t-272.5 -222.5v-57q0 -83 36.5 -128.5t108.5 -45.5q103 0 168 76zM1358 1036v-717q124 23 201 167.5t77 390.5v159
q0 43 -0.5 70.5t-3.5 66.5t-8 63.5t-14.5 52t-23.5 43t-35 26t-48 10.5q-45 0 -75 -27.5t-44.5 -78.5t-20 -103.5t-5.5 -122.5z" />
    <glyph glyph-name="uni3397" unicode="&#x3397;" vert-adv-y="2263" 
d="M993 -53h-78v186q-35 -100 -127.5 -151.5t-203.5 -51.5q-188 0 -293 121.5t-105 343.5v197q0 221 105.5 342t292.5 121q127 0 213 -63.5t116 -147.5v579h80v-1476zM266 571v-155q0 -191 82.5 -296.5t233.5 -105.5q143 0 237 86t94 240v319q0 73 -39.5 143.5t-117 118.5
t-174.5 48q-159 0 -237.5 -102.5t-78.5 -295.5zM1610 78l41 -55q-28 -47 -87.5 -70t-133.5 -23q-86 0 -152 56t-66 149v926q0 82 11.5 148.5t37 122t71.5 86t110 30.5q51 0 89 -19t62.5 -51.5t39 -82.5t20.5 -106t6 -128v-182q0 -276 -83 -422.5t-280 -223.5v-57
q0 -83 37 -128.5t109 -45.5q103 0 168 76zM1296 1036v-717q135 48 207 181t72 377v159q0 50 -1 82.5t-5 75.5t-13 70.5t-23 53t-37 38t-54 12.5q-45 0 -75.5 -27.5t-45 -78.5t-20 -104t-5.5 -122z" />
    <glyph glyph-name="afii61289" unicode="&#x2113;" vert-adv-y="2263" 
d="M1145 84l45 -68q-61 -86 -213 -86q-25 0 -52.5 6t-58 21t-54 37.5t-39 59.5t-15.5 83v920q0 66 6 120.5t21 105.5t39.5 86t64.5 56t92 21q55 0 95.5 -21.5t65 -56t39.5 -86.5t20 -105t5 -120v-174q0 -271 -89.5 -425t-274.5 -225v-49q0 -81 38 -121t105 -40q106 0 160 61
zM842 1042v-712q123 28 200.5 168.5t77.5 382.5v161q0 47 -1.5 81.5t-6.5 73t-14.5 65t-24.5 49.5t-38.5 34t-53.5 11t-53.5 -11t-38.5 -34t-24.5 -49.5t-14.5 -65t-6.5 -73t-1.5 -81.5z" />
    <glyph glyph-name="uni3398" unicode="&#x3398;" vert-adv-y="2263" 
d="M1079 1034l-377 -397l406 -690h-109l-356 628l-203 -217v-411h-80v1476h80v-956l521 567h118zM1630 78l41 -55q-28 -47 -87.5 -70t-133.5 -23q-86 0 -151.5 56t-65.5 149v926q0 82 11.5 148.5t36.5 122t71 86t110 30.5q51 0 89 -19t62.5 -51.5t39 -82.5t20.5 -106t6 -128
v-182q0 -276 -82.5 -422.5t-279.5 -223.5v-57q0 -83 36.5 -128.5t108.5 -45.5q103 0 168 76zM1317 1036v-717q135 48 206.5 181t71.5 377v159q0 50 -1 82.5t-5 75.5t-13 70.5t-23 53t-37 38t-54 12.5q-45 0 -75 -27.5t-44.5 -78.5t-20 -103.5t-5.5 -122.5z" />
    <glyph glyph-name="uni33C4" unicode="&#x33c4;" vert-adv-y="2263" 
d="M614 1055q59 0 107 -9t85 -28t55 -31.5t46 -34.5l-49 -65q-62 48 -114 69t-123 21q-82 0 -138.5 -31t-87 -89.5t-43 -128t-12.5 -161.5v-137q0 -76 8 -137t28.5 -115t53 -90t83.5 -57t118 -21q59 0 129.5 26t128.5 87l51 -64q-125 -129 -311 -129q-375 0 -375 502v129
q0 243 90.5 368.5t269.5 125.5zM1374 1055q59 0 107 -9t85 -28t55 -31.5t46 -34.5l-49 -65q-61 48 -114 69t-124 21q-82 0 -138.5 -31t-86.5 -89.5t-42.5 -128t-12.5 -161.5v-137q0 -76 8 -137t28.5 -115t53 -90t83.5 -57t118 -21q59 0 129.5 26t128.5 87l51 -64
q-125 -129 -311 -129q-375 0 -375 502v129q0 243 90.5 368.5t269.5 125.5z" />
    <glyph glyph-name="uni33A3" unicode="&#x33a3;" vert-adv-y="2263" 
d="M104 1034h66v-145q2 28 11.5 55t27.5 53t49.5 42t73.5 16q126 0 147 -183q38 183 180 183q91 0 138 -62.5t47 -199.5v-846h-80v782q0 42 -1 67.5t-4 58.5t-10.5 52t-20 37.5t-32.5 26.5t-47 8q-70 0 -102.5 -70t-32.5 -176v-786h-80v807q0 114 -27.5 169.5t-93.5 55.5
q-129 0 -129 -258v-774h-80v1087zM1014 1034h65v-145q2 28 11.5 55t27.5 53t49.5 42t73.5 16q127 0 148 -183q38 183 180 183q91 0 137.5 -62.5t46.5 -199.5v-846h-80v782q0 43 -1 67.5t-4 58t-10.5 52.5t-19.5 37.5t-32 26.5t-47 8q-70 0 -103 -70t-33 -176v-786h-80v807
q0 114 -27 169.5t-93 55.5q-129 0 -129 -258v-774h-80v1087zM1550 1524l-32 35q19 26 53.5 42.5t73.5 16.5q61 0 97 -28.5t36 -78.5v-12q-3 -72 -84 -98q45 -5 73.5 -31t28.5 -70v-18q0 -53 -39 -88t-106 -35q-76 0 -142 49l27 41q57 -41 113 -41q88 0 88 78v10
q0 78 -101 78h-37v49h37q84 0 84 76v8q0 62 -73 62q-54 0 -97 -45z" />
    <glyph glyph-name="uni33A4" unicode="&#x33a4;" vert-adv-y="2263" 
d="M459 1055q165 0 256 -94l-53 -64q-44 47 -88.5 63.5t-114.5 16.5q-51 0 -91 -12.5t-67.5 -32t-47 -52.5t-30.5 -65.5t-17 -78.5t-7.5 -84t-1.5 -91v-127q0 -77 7 -137.5t25 -116t48 -91.5t78 -57.5t112 -21.5q65 0 128 27t105 82l52 -62q-108 -127 -285 -127
q-186 0 -272 128.5t-86 377.5v119q0 252 80 376t270 124zM850 1034h78v-149q26 73 79.5 121.5t133.5 48.5q27 0 49 -5t51 -19.5t53 -50t39 -89.5q62 164 221 164q88 0 153 -70t65 -207v-831h-86v778q0 114 -36.5 170.5t-123.5 56.5q-76 0 -124 -68t-48 -165v-772h-86v788
q0 108 -38 162.5t-108 54.5q-80 0 -133 -68.5t-53 -174.5v-762h-86v1087zM1550 1524l-32 35q19 26 53.5 42.5t73.5 16.5q61 0 97 -28.5t36 -78.5v-12q-3 -72 -84 -98q45 -5 73.5 -31t28.5 -70v-18q0 -53 -39 -88t-106 -35q-76 0 -142 49l27 41q57 -41 113 -41q88 0 88 78v10
q0 78 -101 78h-37v49h37q84 0 84 76v8q0 62 -73 62q-54 0 -97 -45z" />
    <glyph glyph-name="uni33A5" unicode="&#x33a5;" vert-adv-y="2263" 
d="M1647 694v-747h-88v721q0 151 -61 230t-208 79q-77 0 -139.5 -30.5t-97.5 -76t-53.5 -92t-18.5 -86.5v-745h-88v721q0 151 -61 230t-209 79q-77 0 -139.5 -31.5t-97.5 -79t-53 -95t-18 -87.5v-737h-88v1087h86v-168q17 33 41.5 62.5t63 60.5t95.5 49.5t124 18.5
q251 0 319 -211q42 92 133.5 151.5t215.5 59.5q92 0 160.5 -30t107 -82.5t56.5 -115t18 -135.5zM1550 1524l-32 35q19 26 53.5 42.5t73.5 16.5q61 0 97 -28.5t36 -78.5v-12q-3 -72 -84 -98q45 -5 73.5 -31t28.5 -70v-18q0 -53 -39 -88t-106 -35q-76 0 -142 49l27 41
q57 -41 113 -41q88 0 88 78v10q0 78 -101 78h-37v49h37q84 0 84 76v8q0 62 -73 62q-54 0 -97 -45z" />
    <glyph glyph-name="uni33A6" unicode="&#x33a6;" vert-adv-y="2263" 
d="M772 1034l-364 -438l383 -649h-117l-328 583l-156 -190v-393h-79v1476h79v-960l461 571h121zM850 1034h78v-149q26 73 79.5 121.5t133.5 48.5q27 0 49 -5t51 -19.5t53 -50t39 -89.5q62 164 221 164q88 0 153 -70t65 -207v-831h-86v794q0 114 -36.5 171t-123.5 57
q-76 0 -124 -68.5t-48 -165.5v-788h-86v805q0 108 -38 162.5t-108 54.5q-80 0 -133 -68.5t-53 -175.5v-778h-86v1087zM1550 1524l-32 35q19 26 53.5 42.5t73.5 16.5q61 0 97 -28.5t36 -78.5v-12q-3 -72 -84 -98q45 -5 73.5 -31t28.5 -70v-18q0 -53 -39 -88t-106 -35
q-76 0 -142 49l27 41q57 -41 113 -41q88 0 88 78v10q0 78 -101 78h-37v49h37q84 0 84 76v8q0 62 -73 62q-54 0 -97 -45z" />
    <glyph glyph-name="uni3399" unicode="&#x3399;" vert-adv-y="2263" 
d="M780 1034h78v-149q26 72 81.5 121t135.5 49q151 0 197 -164q28 75 84.5 119.5t140.5 44.5q88 0 154.5 -70t66.5 -207v-831h-86v794q0 113 -38 170.5t-126 57.5q-76 0 -126 -69t-50 -165v-788h-86v805q0 108 -39 162.5t-110 54.5q-81 0 -136 -69t-55 -175v-778h-86v1087z
M274 -53v1014h-188v73h188v107q0 305 283 305q83 0 150 -23l-13 -71q-64 18 -135 18q-103 0 -148.5 -57t-45.5 -176v-103h309v-73h-309v-1014h-91z" />
    <glyph glyph-name="uni339A" unicode="&#x339a;" vert-adv-y="2263" 
d="M686 731v-784h-86v755q0 54 -2.5 89.5t-12 72t-27 57t-47.5 33.5t-73 13q-49 0 -87 -24.5t-59.5 -60.5t-35.5 -80.5t-18.5 -79t-4.5 -63.5v-712h-86v1087h99v-149q3 24 15.5 50.5t36 54.5t66 46.5t95.5 18.5q114 0 170.5 -73.5t56.5 -250.5zM834 1034h77v-149
q26 73 79.5 121.5t133.5 48.5q147 0 193 -164q62 164 221 164q88 0 152.5 -70t64.5 -207v-831h-86v794q0 114 -36.5 171t-123.5 57q-76 0 -124 -68.5t-48 -165.5v-788h-86v805q0 217 -145 217q-80 0 -133 -68.5t-53 -175.5v-778h-86v1087z" />
    <glyph glyph-name="uni339B" unicode="&#x339b;" vert-adv-y="2263" 
d="M233 -492h-79v1526h77v-768q0 -106 45 -179t140 -73q55 0 96 31.5t62 82t30.5 101t9.5 101.5v704h78v-1087h-84v145q-11 -67 -65 -114.5t-125 -47.5q-141 0 -185 127v-549zM834 1034h77v-149q26 73 79.5 121.5t133.5 48.5q147 0 193 -164q62 164 221 164q88 0 152.5 -70
t64.5 -207v-831h-86v794q0 114 -36.5 171t-123.5 57q-76 0 -124 -68.5t-48 -165.5v-788h-86v805q0 217 -145 217q-80 0 -133 -68.5t-53 -175.5v-778h-86v1087z" />
    <glyph glyph-name="uni339C" unicode="&#x339c;" vert-adv-y="2263" 
d="M104 1034h66v-145q2 28 11.5 55t27.5 53t49.5 42t73.5 16q126 0 147 -183q38 183 180 183q91 0 138 -62.5t47 -199.5v-846h-80v782q0 42 -1 67.5t-4 58.5t-10.5 52t-20 37.5t-32.5 26.5t-47 8q-70 0 -102.5 -70t-32.5 -176v-786h-80v807q0 114 -27.5 169.5t-93.5 55.5
q-129 0 -129 -258v-774h-80v1087zM1014 1034h65v-145q2 28 11.5 55t27.5 53t49.5 42t73.5 16q127 0 148 -183q38 183 180 183q91 0 137.5 -62.5t46.5 -199.5v-846h-80v782q0 43 -1 67.5t-4 58t-10.5 52.5t-19.5 37.5t-32 26.5t-47 8q-70 0 -103 -70t-33 -176v-786h-80v807
q0 114 -27 169.5t-93 55.5q-129 0 -129 -258v-774h-80v1087z" />
    <glyph glyph-name="uni339D" unicode="&#x339d;" vert-adv-y="2263" 
d="M459 1055q165 0 256 -94l-53 -64q-44 47 -88.5 63.5t-114.5 16.5q-51 0 -91 -12.5t-67.5 -32t-47 -52.5t-30.5 -65.5t-17 -78.5t-7.5 -84t-1.5 -91v-127q0 -77 7 -137.5t25 -116t48 -91.5t78 -57.5t112 -21.5q65 0 128 27t105 82l52 -62q-108 -127 -285 -127
q-186 0 -272 128.5t-86 377.5v119q0 252 80 376t270 124zM850 1034h78v-149q26 73 79.5 121.5t133.5 48.5q27 0 49 -5t51 -19.5t53 -50t39 -89.5q62 164 221 164q88 0 153 -70t65 -207v-831h-86v778q0 114 -36.5 170.5t-123.5 56.5q-76 0 -124 -68t-48 -165v-772h-86v788
q0 108 -38 162.5t-108 54.5q-80 0 -133 -68.5t-53 -174.5v-762h-86v1087z" />
    <glyph glyph-name="uni339E" unicode="&#x339e;" vert-adv-y="2263" 
d="M772 1034l-364 -438l383 -649h-117l-328 583l-156 -190v-393h-79v1476h79v-960l461 571h121zM850 1034h78v-149q26 73 79.5 121.5t133.5 48.5q27 0 49 -5t51 -19.5t53 -50t39 -89.5q62 164 221 164q88 0 153 -70t65 -207v-831h-86v794q0 114 -36.5 171t-123.5 57
q-76 0 -124 -68.5t-48 -165.5v-788h-86v805q0 108 -38 162.5t-108 54.5q-80 0 -133 -68.5t-53 -175.5v-778h-86v1087z" />
    <glyph glyph-name="uni339F" unicode="&#x339f;" vert-adv-y="2263" 
d="M1503 1206l168 193q27 32 36 50.5t9 45.5v8q0 29 -19 46.5t-55 17.5q-56 0 -98 -45l-35 34q54 62 136 62q59 0 94 -32.5t35 -78.5v-12q0 -55 -58 -123l-131 -151h203v-50h-285v35zM104 1034h66v-145q2 28 11.5 55t27.5 53t49.5 42t73.5 16q126 0 147 -183q38 183 180 183
q91 0 138 -62.5t47 -199.5v-846h-80v782q0 42 -1 67.5t-4 58.5t-10.5 52t-20 37.5t-32.5 26.5t-47 8q-70 0 -102.5 -70t-32.5 -176v-786h-80v807q0 114 -27.5 169.5t-93.5 55.5q-129 0 -129 -258v-774h-80v1087zM1014 1034h65v-145q2 28 11.5 55t27.5 53t49.5 42t73.5 16
q127 0 148 -183q38 183 180 183q91 0 137.5 -62.5t46.5 -199.5v-846h-80v782q0 43 -1 67.5t-4 58t-10.5 52.5t-19.5 37.5t-32 26.5t-47 8q-70 0 -103 -70t-33 -176v-786h-80v807q0 114 -27 169.5t-93 55.5q-129 0 -129 -258v-774h-80v1087z" />
    <glyph glyph-name="uni33A0" unicode="&#x33a0;" vert-adv-y="2263" 
d="M1503 1206l168 193q27 32 36 50.5t9 45.5v8q0 29 -19 46.5t-55 17.5q-56 0 -98 -45l-35 34q54 62 136 62q59 0 94 -32.5t35 -78.5v-12q0 -55 -58 -123l-131 -151h203v-50h-285v35zM459 1055q165 0 256 -94l-53 -64q-44 47 -88.5 63.5t-114.5 16.5q-51 0 -91 -12.5
t-67.5 -32t-47 -52.5t-30.5 -65.5t-17 -78.5t-7.5 -84t-1.5 -91v-127q0 -77 7 -137.5t25 -116t48 -91.5t78 -57.5t112 -21.5q65 0 128 27t105 82l52 -62q-108 -127 -285 -127q-186 0 -272 128.5t-86 377.5v119q0 252 80 376t270 124zM850 1034h78v-149q26 73 79.5 121.5
t133.5 48.5q27 0 49 -5t51 -19.5t53 -50t39 -89.5q62 164 221 164q88 0 153 -70t65 -207v-831h-86v778q0 114 -36.5 170.5t-123.5 56.5q-76 0 -124 -68t-48 -165v-772h-86v788q0 108 -38 162.5t-108 54.5q-80 0 -133 -68.5t-53 -174.5v-762h-86v1087z" />
    <glyph glyph-name="uni33A1" unicode="&#x33a1;" vert-adv-y="2263" 
d="M1647 694v-747h-88v721q0 151 -61 230t-208 79q-77 0 -139.5 -30.5t-97.5 -76t-53.5 -92t-18.5 -86.5v-745h-88v721q0 151 -61 230t-209 79q-77 0 -139.5 -31.5t-97.5 -79t-53 -95t-18 -87.5v-737h-88v1087h86v-168q17 33 41.5 62.5t63 60.5t95.5 49.5t124 18.5
q251 0 319 -211q42 92 133.5 151.5t215.5 59.5q92 0 160.5 -30t107 -82.5t56.5 -115t18 -135.5zM1503 1206l168 193q27 32 36 50.5t9 45.5v8q0 29 -19 46.5t-55 17.5q-56 0 -98 -45l-35 34q54 62 136 62q59 0 94 -32.5t35 -78.5v-12q0 -55 -58 -123l-131 -151h203v-50h-285
v35z" />
    <glyph glyph-name="uni33A2" unicode="&#x33a2;" vert-adv-y="2263" 
d="M772 1034l-364 -438l383 -649h-117l-328 583l-156 -190v-393h-79v1476h79v-960l461 571h121zM850 1034h78v-149q26 73 79.5 121.5t133.5 48.5q27 0 49 -5t51 -19.5t53 -50t39 -89.5q62 164 221 164q88 0 153 -70t65 -207v-831h-86v794q0 114 -36.5 171t-123.5 57
q-76 0 -124 -68.5t-48 -165.5v-788h-86v805q0 108 -38 162.5t-108 54.5q-80 0 -133 -68.5t-53 -175.5v-778h-86v1087zM1503 1206l168 193q27 32 36 50.5t9 45.5v8q0 29 -19 46.5t-55 17.5q-56 0 -98 -45l-35 34q54 62 136 62q59 0 94 -32.5t35 -78.5v-12q0 -55 -58 -123
l-131 -151h203v-50h-285v35z" />
    <glyph glyph-name="uni33CA" unicode="&#x33ca;" vert-adv-y="2263" 
d="M1112 881l-45 65q142 109 303 109q142 0 209.5 -84t67.5 -250v-774h-82v174q-16 -70 -93.5 -130.5t-171.5 -60.5q-137 0 -206.5 83.5t-69.5 219.5v46q0 138 77.5 217t248.5 79h213v125q0 147 -45 211t-156 64q-68 0 -125 -21t-125 -73zM911 682v-735h-82v710
q0 71 -10 124.5t-34.5 99.5t-71 70t-113.5 24q-65 0 -119 -29t-86.5 -74.5t-50.5 -97t-18 -100.5v-727h-82v1476h82v-571q37 95 108.5 149t175.5 54q154 0 227.5 -101.5t73.5 -271.5zM1563 279v217h-211q-76 0 -126 -16t-75 -48.5t-34 -69.5t-9 -90v-32q0 -230 199 -230
q114 0 185 76.5t71 192.5z" />
    <glyph glyph-name="uni338D" unicode="&#x338d;" vert-adv-y="2263" 
d="M1718 1034v-1081q0 -235 -82.5 -345t-259.5 -110q-166 0 -303 103l39 65q129 -96 260 -96q147 0 207.5 92.5t60.5 296.5v191q-68 -199 -272 -199q-344 0 -344 469v168q0 231 88.5 349t257.5 118q106 0 171.5 -51t103.5 -144v174h73zM854 -53h-76v166q-27 -70 -91 -126.5
t-157 -56.5q-50 0 -91.5 11.5t-67.5 26.5t-50 41t-35.5 44t-27.5 47v-592h-78v1526h78v-710q0 -131 72.5 -224.5t201.5 -93.5q119 0 181.5 104t62.5 289v635h78v-1087zM1638 317v357q0 73 -31 143t-95.5 119t-147.5 49q-127 0 -193.5 -106.5t-66.5 -300.5v-150
q0 -204 59 -304.5t205 -100.5q115 0 192.5 86.5t77.5 207.5z" />
    <glyph glyph-name="uni338E" unicode="&#x338e;" vert-adv-y="2263" 
d="M1741 1034v-1085q0 -247 -69 -353t-220 -106q-81 0 -143.5 25.5t-130.5 81.5l41 61q64 -48 113.5 -69t119.5 -21q117 0 162 84t45 301v188q-10 -83 -73 -136.5t-136 -53.5q-68 0 -116.5 19t-79.5 54t-49 94.5t-24.5 130t-6.5 171.5v180q0 232 65.5 343.5t198.5 111.5
q73 0 130 -35t77 -115v129h96zM1657 362v306q0 58 -10 109t-33.5 98.5t-68 75.5t-105.5 28q-103 0 -143 -101t-40 -307v-141q0 -60 1 -97.5t4.5 -85.5t11 -76.5t20.5 -59.5t32 -47.5t47 -27.5t65 -11q64 0 109.5 29.5t68 81t32 106t9.5 120.5zM135 1034h78v-149
q26 73 79.5 121.5t133.5 48.5q27 0 49 -5t51 -19.5t53 -50t39 -89.5q62 164 222 164q88 0 152.5 -70t64.5 -207v-831h-86v794q0 114 -36.5 171t-123.5 57q-76 0 -124 -68.5t-48 -165.5v-788h-86v805q0 217 -145 217q-80 0 -133.5 -69t-53.5 -175v-778h-86v1087z" />
    <glyph glyph-name="uni338F" unicode="&#x338f;" vert-adv-y="2263" 
d="M938 1034l-375 -395l400 -692h-101l-356 633l-211 -228v-405h-80v1476h80v-966l530 577h113zM1718 1034v-1081q0 -235 -82.5 -345t-259.5 -110q-166 0 -303 103l39 65q129 -96 260 -96q147 0 207.5 92.5t60.5 296.5v191q-68 -199 -272 -199q-344 0 -344 469v168
q0 231 88.5 349t257.5 118q106 0 171.5 -51t103.5 -144v174h73zM1638 317v357q0 73 -31 143t-95.5 119t-147.5 49q-127 0 -193.5 -106.5t-66.5 -300.5v-150q0 -204 59 -304.5t205 -100.5q115 0 192.5 86.5t77.5 207.5z" />
    <glyph glyph-name="uni33CF" unicode="&#x33cf;" vert-adv-y="2263" 
d="M1331 248v719h-225v67h225v287h80v-287h266v-67h-266v-711q0 -139 26 -192.5t103 -53.5q70 0 158 31l18 -66q-84 -32 -178 -32q-54 0 -90 12t-63.5 45t-40.5 93.5t-13 154.5zM1004 1034l-375 -395l399 -692h-100l-357 633l-211 -228v-405h-79v1476h79v-966l531 577h113z
" />
    <glyph glyph-name="uni3388" unicode="&#x3388;" vert-adv-y="2263" 
d="M1610 1423h80v-1476h-80v1476zM471 1055q86 0 139.5 -24.5t96.5 -69.5l-54 -64q-44 47 -84.5 63.5t-99.5 16.5q-74 0 -124 -33t-74 -95t-33 -128t-9 -156v-135q0 -78 6 -137.5t22.5 -114.5t44 -90.5t72 -56.5t105.5 -21q58 0 114.5 27.5t98.5 83.5l51 -62
q-104 -129 -264 -129q-177 0 -257.5 128.5t-80.5 377.5v119q0 248 78.5 374t251.5 126zM887 881l-45 65q142 109 303 109q142 0 209 -84t67 -250v-774h-82v174q-16 -71 -93.5 -131t-170.5 -60q-137 0 -206.5 83.5t-69.5 219.5v46q0 296 325 296h213v125q0 147 -44.5 211
t-155.5 64q-68 0 -125 -21t-125 -73zM1337 279v217h-211q-76 0 -126 -16t-74.5 -48.5t-33.5 -69.5t-9 -90v-32q0 -230 198 -230q114 0 185 76.5t71 192.5z" />
    <glyph glyph-name="uni3389" unicode="&#x3389;" vert-adv-y="2263" 
d="M1171 889l-47 61q98 105 205 105q115 0 166 -78.5t51 -263.5v-766h-88v151q-13 -82 -62 -125t-120 -43q-57 0 -97.5 22.5t-62 64t-30.5 91t-9 113.5v43q0 69 12.5 123t42.5 100.5t86 71.5t136 25h100v121q0 154 -29 210t-98 56q-41 0 -77 -19.5t-79 -62.5zM514 1034
l-211 -407l242 -680h-103l-194 581l-96 -168v-413h-91v1476h91v-909l264 520h98zM819 1055q60 0 106 -20t91 -72l-55 -60q-30 39 -62 52.5t-78 13.5q-53 0 -89 -30.5t-54.5 -89.5t-25.5 -125.5t-7 -156.5v-141q0 -108 9.5 -185.5t24 -120.5t38.5 -67t45.5 -30.5t52.5 -6.5
q50 0 93.5 29.5t64.5 67.5l63 -60q-36 -55 -95 -89t-132 -34q-63 0 -108 23.5t-78.5 80t-49.5 154t-16 240.5v137q0 490 262 490zM1692 1423h90v-1476h-90v1476zM1454 319v181h-106q-93 0 -131.5 -59.5t-38.5 -172.5v-47q0 -105 24 -157t80 -52q47 0 81.5 26t53.5 71t28 97
t9 113z" />
    <glyph glyph-name="uni33C8" unicode="&#x33c8;" vert-adv-y="2263" 
d="M905 -53h-82v186q-30 -89 -112 -146t-193 -57q-192 0 -281.5 118t-89.5 347v197q0 223 96 343t277 120q56 0 103 -14t77 -33t56.5 -48.5t38.5 -49t26 -46.5v559h84v-1476zM231 571v-155q0 -200 65.5 -301t219.5 -101q138 0 221.5 92t83.5 250v291q0 55 -19.5 111
t-56 103.5t-96.5 77.5t-133 30q-149 0 -217 -101t-68 -297zM1065 -53v1476h252q120 0 198.5 -20t123 -65.5t62 -108.5t17.5 -158v-43q0 -215 -186 -301q135 -24 190.5 -103.5t55.5 -236.5v-51q0 -192 -91.5 -290.5t-291.5 -98.5h-330zM1153 676v-643h242q90 0 149.5 22
t89.5 65.5t41 93.5t11 122v45q0 162 -73.5 228.5t-260.5 66.5h-199zM1343 1339h-190v-579h197q124 0 201 70.5t77 203.5v37q0 70 -11.5 116t-41.5 82.5t-87 53t-145 16.5z" />
    <glyph glyph-name="uni33A7" unicode="&#x33a7;" vert-adv-y="2263" 
d="M1528 0q90 0 133 51.5t43 159.5v27q0 90 -27.5 134t-132.5 97q-2 1 -25.5 12t-31 15t-30 17t-32 22.5t-27.5 26t-27 34t-19.5 40t-14.5 49.5t-4 58v37q0 133 65 204t177 71q133 0 199 -66l-41 -57q-61 55 -160 55q-160 0 -160 -209v-35q0 -73 28.5 -110.5t100.5 -71.5
q68 -32 109 -58t73.5 -62.5t46 -83.5t13.5 -113v-37q0 -67 -16.5 -117.5t-42.5 -80t-62.5 -48t-71 -25t-73.5 -6.5q-119 0 -215 86l40 56q77 -72 185 -72zM1323 1554h63l-413 -1810h-62zM111 1034h65v-145q2 28 11.5 55t27.5 53t49.5 42t73.5 16q126 0 147 -183
q19 90 65 136.5t116 46.5q91 0 137.5 -62.5t46.5 -199.5v-846h-80v782q0 42 -1 67.5t-4 58.5t-10.5 52t-20 37.5t-32.5 26.5t-47 8q-70 0 -102.5 -70t-32.5 -176v-786h-80v807q0 114 -27.5 169.5t-93.5 55.5q-129 0 -129 -258v-774h-79v1087z" />
    <glyph glyph-name="uni33A8" unicode="&#x33a8;" vert-adv-y="2263" 
d="M1528 0q90 0 133 51.5t43 159.5v27q0 90 -27.5 134t-132.5 97q-2 1 -25.5 12t-31 15t-30 17t-32 22.5t-27.5 26t-27 34t-19.5 40t-14.5 49.5t-4 58v37q0 133 65 204t177 71q133 0 199 -66l-41 -57q-61 55 -160 55q-160 0 -160 -209v-35q0 -73 28.5 -110.5t100.5 -71.5
q68 -32 109 -58t73.5 -62.5t46 -83.5t13.5 -113v-37q0 -67 -16.5 -117.5t-42.5 -80t-62.5 -48t-71 -25t-73.5 -6.5q-119 0 -215 86l40 56q77 -72 185 -72zM1323 1554h63l-413 -1810h-62zM111 1034h65v-145q2 28 11.5 55t27.5 53t49.5 42t73.5 16q126 0 147 -183
q19 90 65 136.5t116 46.5q91 0 137.5 -62.5t46.5 -199.5v-846h-80v782q0 42 -1 67.5t-4 58.5t-10.5 52t-20 37.5t-32.5 26.5t-47 8q-70 0 -102.5 -70t-32.5 -176v-786h-80v807q0 114 -27.5 169.5t-93.5 55.5q-129 0 -129 -258v-774h-79v1087zM1503 1206l168 193
q27 32 36 50.5t9 45.5v8q0 29 -19 46.5t-55 17.5q-56 0 -98 -45l-35 34q54 62 136 62q59 0 94 -32.5t35 -78.5v-12q0 -55 -58 -123l-131 -151h203v-50h-285v35z" />
    <glyph glyph-name="uni33B0" unicode="&#x33b0;" vert-adv-y="2263" 
d="M283 1034v-164q23 75 108.5 130t192.5 55q188 0 278 -116t90 -349v-205q0 -218 -97 -336.5t-269 -118.5q-64 0 -119.5 20t-92 52t-60 67t-33.5 70v-631h-86v1526h88zM1405 14q128 0 190 58.5t62 148.5v21q0 52 -7.5 81t-36.5 56t-79.5 46.5t-142.5 45.5q-169 46 -233 103
t-64 178v28q0 121 83.5 198t237.5 77q98 0 169.5 -20t135.5 -68l-43 -72q-56 42 -115 59t-145 17q-120 0 -178.5 -52t-58.5 -141v-22q0 -81 48.5 -124t196.5 -83q195 -54 256.5 -112t61.5 -189v-31q0 -131 -87 -209t-247 -78q-193 0 -346 103l47 80q131 -99 295 -99z
M283 657v-323q0 -73 34.5 -146.5t105 -126.5t159.5 -53q282 0 282 391v179q0 194 -71.5 296.5t-210.5 102.5q-130 0 -214.5 -83t-84.5 -237z" />
    <glyph glyph-name="uni33B1" unicode="&#x33b1;" vert-adv-y="2263" 
d="M899 719v-772h-82v747q0 279 -250 279q-67 0 -124 -29.5t-91 -73t-52.5 -87t-18.5 -76.5v-760h-82v1087h82v-178q27 81 108 140t197 59q63 0 117 -18.5t99 -56.5t71 -105t26 -156zM1384 14q128 0 190 58.5t62 148.5v21q0 52 -7.5 81t-36.5 56t-79.5 46.5t-142.5 45.5
q-169 46 -233 103t-64 178v28q0 121 84 198t238 77q98 0 169.5 -20t135.5 -68l-43 -72q-56 42 -115 59t-145 17q-120 0 -179 -52t-59 -141v-22q0 -81 49 -124t197 -83q101 -28 159.5 -52.5t95.5 -60t49.5 -78t12.5 -110.5v-31q0 -131 -86.5 -209t-246.5 -78q-194 0 -347 103
l48 80q131 -99 294 -99z" />
    <glyph glyph-name="uni33B2" unicode="&#x33b2;" vert-adv-y="2263" 
d="M1378 14q128 0 190 58.5t62 148.5v21q0 52 -7.5 81t-36.5 56t-79.5 46.5t-142.5 45.5q-169 46 -233 103t-64 178v28q0 121 84 198t238 77q98 0 169.5 -20t135.5 -68l-43 -72q-56 42 -115 59t-145 17q-120 0 -179 -52t-59 -141v-22q0 -81 49 -124t197 -83
q101 -28 159.5 -52.5t95.5 -60t49.5 -78t12.5 -110.5v-31q0 -131 -87 -209t-247 -78q-193 0 -346 103l47 80q131 -99 295 -99zM891 -53h-76v166q-26 -69 -92.5 -126t-159.5 -57q-62 0 -111 15t-82 43t-52.5 53t-38.5 59v-592h-78v1526h78v-710q0 -129 76 -223.5t206 -94.5
q120 0 186 105t66 288v635h78v-1087z" />
    <glyph glyph-name="uni33B3" unicode="&#x33b3;" vert-adv-y="2263" 
d="M1477 14q128 0 187.5 58.5t59.5 148.5v21q0 52 -7 80.5t-35 56t-78 47.5t-142 45q-86 23 -138 45.5t-89 55t-51.5 75t-14.5 105.5v28q0 121 82 198t236 77q97 0 166.5 -19.5t134.5 -68.5l-43 -72q-57 42 -114 59t-142 17q-119 0 -176.5 -52t-57.5 -141v-22
q0 -82 47.5 -124.5t194.5 -82.5q101 -28 159 -52.5t94 -60t48 -78t12 -110.5v-31q0 -131 -84.5 -209t-244.5 -78q-189 0 -342 103l47 80q131 -99 291 -99zM119 1034h78v-149q26 73 79.5 121.5t133.5 48.5q27 0 49 -5t51 -19.5t53 -50t39 -89.5q62 164 221 164
q88 0 152.5 -70t64.5 -207v-831h-86v794q0 115 -36 171.5t-123 56.5q-76 0 -124 -68.5t-48 -165.5v-788h-86v805q0 108 -38 162.5t-108 54.5q-80 0 -133 -68.5t-53 -175.5v-778h-86v1087z" />
    <glyph glyph-name="uni33B4" unicode="&#x33b4;" vert-adv-y="2263" 
d="M899 1423h100l351 -1368l336 1368h94l-373 -1476h-119zM258 1034v-164q23 75 108.5 130t192.5 55q189 0 279 -116t90 -349v-205q0 -218 -97.5 -336.5t-269.5 -118.5q-64 0 -119.5 20t-92 52t-60 67t-33.5 70v-631h-86v1526h88zM258 657v-323q0 -73 34.5 -146.5
t105 -126.5t159.5 -53q283 0 283 391v179q0 194 -72 296.5t-211 102.5q-130 0 -214.5 -83t-84.5 -237z" />
    <glyph glyph-name="uni33B5" unicode="&#x33b5;" vert-adv-y="2263" 
d="M893 1423h100l350 -1368l336 1368h95l-373 -1476h-119zM879 719v-772h-82v747q0 279 -244 279q-54 0 -101.5 -20t-79.5 -50t-55.5 -67t-34 -70t-10.5 -59v-760h-82v1087h82v-178q28 82 105.5 140.5t193.5 58.5q50 0 94 -11t83.5 -36.5t68 -63.5t45.5 -95.5t17 -129.5z
" />
    <glyph glyph-name="uni33B6" unicode="&#x33b6;" vert-adv-y="2263" 
d="M854 -53h-76v166q-27 -70 -91 -126.5t-157 -56.5q-50 0 -91.5 11.5t-67.5 26.5t-50 41t-35.5 44t-27.5 47v-592h-78v1526h78v-710q0 -131 72.5 -224.5t201.5 -93.5q119 0 181.5 104t62.5 289v635h78v-1087zM893 1423h100l350 -1368l336 1368h95l-373 -1476h-119z" />
    <glyph glyph-name="uni33B7" unicode="&#x33b7;" vert-adv-y="2263" 
d="M1094 1423h96l256 -1368l244 1368h90l-279 -1476h-115zM129 1034h78v-149q26 73 79.5 121.5t133.5 48.5q27 0 49 -5t51 -19.5t53 -50t39 -89.5q62 164 222 164q88 0 152.5 -70t64.5 -207v-831h-86v794q0 114 -36.5 171t-123.5 57q-76 0 -124 -68.5t-48 -165.5v-788h-86
v805q0 108 -38 162.5t-108 54.5q-80 0 -133 -68.5t-53 -175.5v-778h-86v1087z" />
    <glyph glyph-name="uni33B8" unicode="&#x33b8;" vert-adv-y="2263" 
d="M872 1034l-364 -438l403 -649h-116l-349 583l-155 -190v-393h-80v1476h80v-960l461 571h120zM899 1423h100l351 -1368l336 1368h94l-373 -1476h-119z" />
    <glyph glyph-name="uni33B9" unicode="&#x33b9;" vert-adv-y="2263" 
d="M522 193l-180 735q-4 16 -12.5 51.5t-12 50t-10 44t-10 49t-8.5 48.5t-9 59t-8 64v-1347h-98v1476h135l279 -1142l299 1142h108v-1476h-88v1294q-14 -132 -59 -311l-205 -737h-121zM1094 1423h96l256 -1368l244 1368h90l-279 -1476h-115z" />
    <glyph glyph-name="uni3380" unicode="&#x3380;" vert-adv-y="2263" 
d="M221 1034v-164q23 76 104 130.5t187 54.5q186 0 272 -117t86 -348v-205q0 -219 -92.5 -337t-263.5 -118q-122 0 -197 64.5t-98 144.5v-631h-86v1526h88zM221 657v-323q0 -74 32 -147t100 -126t157 -53q142 0 207 97.5t65 293.5v179q0 399 -272 399q-129 0 -209 -82.5
t-80 -237.5zM1696 -53l-121 477h-451l-125 -477h-98l404 1476h90l401 -1476h-100zM1272 981l-125 -477h407l-118 477q-12 47 -28.5 109t-29.5 116t-28 121q-34 -180 -78 -346z" />
    <glyph glyph-name="uni3381" unicode="&#x3381;" vert-adv-y="2263" 
d="M1696 -53l-121 477h-451l-125 -477h-98l404 1476h90l401 -1476h-100zM836 719v-772h-82v747q0 279 -250 279q-54 0 -102.5 -20t-81 -50t-56.5 -66.5t-35.5 -70t-11.5 -59.5v-760h-82v1087h82v-178q27 81 108 140t197 59q63 0 117 -18.5t99.5 -56.5t71.5 -105t26 -156z
M1272 981l-125 -477h407l-118 477q-12 47 -28.5 109t-29.5 116t-28 121q-34 -180 -78 -346z" />
    <glyph glyph-name="uni3382" unicode="&#x3382;" vert-adv-y="2263" 
d="M1702 -53l-121 477h-451l-124 -477h-99l404 1476h90l401 -1476h-100zM840 -53h-76v166q-26 -69 -92.5 -126t-159.5 -57q-62 0 -111 15t-82.5 43t-53 53t-38.5 59v-592h-77v1526h77v-710q0 -129 76.5 -223.5t206.5 -94.5q120 0 186 105t66 288v635h78v-1087zM1278 981
l-125 -477h408l-119 477q-12 47 -28.5 109t-29.5 116t-28 121q-34 -180 -78 -346z" />
    <glyph glyph-name="uni3383" unicode="&#x3383;" vert-adv-y="2263" 
d="M1704 -53l-121 477h-450l-125 -477h-99l404 1476h90l401 -1476h-100zM104 1034h66v-145q3 28 12 55t26 53t48.5 42t73.5 16q26 0 45 -5t42 -22t40.5 -56t29.5 -100q28 95 73 139t116 44q91 0 137.5 -62.5t46.5 -199.5v-846h-80v794q0 41 -1 67.5t-5 58.5t-11.5 52
t-20.5 37.5t-33 26t-47 8.5q-70 0 -105 -70.5t-35 -175.5v-798h-80v807q0 237 -125 237q-66 0 -99.5 -74t-33.5 -184v-786h-80v1087zM1280 981l-125 -477h408l-119 477q-12 47 -28.5 109t-29.5 116t-28 121q-34 -180 -78 -346z" />
    <glyph glyph-name="uni3384" unicode="&#x3384;" vert-adv-y="2263" 
d="M1702 -53l-121 477h-451l-124 -477h-99l404 1476h90l401 -1476h-100zM838 1034l-365 -438l383 -649h-117l-327 583l-156 -190v-393h-80v1476h80v-960l461 571h121zM1278 981l-125 -477h408l-119 477q-12 47 -28.5 109t-29.5 116t-28 121q-34 -180 -78 -346z" />
    <glyph glyph-name="uni33BA" unicode="&#x33ba;" vert-adv-y="2263" 
d="M215 1034v-157q30 78 90 128t154 50q152 0 223.5 -105.5t71.5 -339.5v-225q0 -226 -70.5 -340.5t-224.5 -114.5q-99 0 -167 53.5t-79 120.5v-596h-84v1526h86zM975 -53l-197 1476h86l172 -1396l199 1396h108l197 -1396l184 1396h82l-211 -1476h-114l-191 1380l-196 -1380
h-119zM215 600v-250q0 -58 11.5 -112.5t36 -106.5t73 -83.5t113.5 -31.5q123 0 169 90t46 293v179q0 211 -52 301t-163 90q-110 0 -172 -102t-62 -267z" />
    <glyph glyph-name="uni33BB" unicode="&#x33bb;" vert-adv-y="2263" 
d="M975 -53l-197 1476h86l172 -1396l199 1396h108l197 -1396l184 1396h82l-211 -1476h-114l-191 1380l-196 -1380h-119zM715 702v-755h-82v723q0 55 -3 94.5t-14.5 82t-31 69t-54.5 44t-84 17.5t-89.5 -24.5t-65.5 -61t-42.5 -80.5t-24.5 -80t-7 -63v-721h-82v1087h94v-141
q8 26 23.5 51t42 51.5t70.5 43t98 16.5q116 0 184 -84.5t68 -268.5z" />
    <glyph glyph-name="uni33BC" unicode="&#x33bc;" vert-adv-y="2263" 
d="M233 -492h-79v1526h77v-768q0 -106 45 -179t140 -73q55 0 96 31.5t62 82t30.5 101t9.5 101.5v704h78v-1087h-84v145q-11 -67 -65 -114.5t-125 -47.5q-141 0 -185 127v-549zM975 -53l-197 1476h86l172 -1396l199 1396h108l197 -1396l184 1396h82l-211 -1476h-114
l-191 1380l-196 -1380h-119z" />
    <glyph glyph-name="uni33BD" unicode="&#x33bd;" vert-adv-y="2263" 
d="M1032 -53l-176 1476h82l156 -1396l178 1396h108l176 -1396l168 1396h78l-190 -1476h-115l-170 1380l-176 -1380h-119zM104 1034h66v-145q2 28 11.5 55t27.5 53t49.5 42t73.5 16q126 0 147 -183q38 183 180 183q91 0 138 -62.5t47 -199.5v-846h-80v782q0 42 -1 67.5
t-4 58.5t-10.5 52t-20 37.5t-32.5 26.5t-47 8q-70 0 -102.5 -70t-32.5 -176v-786h-80v807q0 114 -27.5 169.5t-93.5 55.5q-129 0 -129 -258v-774h-80v1087z" />
    <glyph glyph-name="uni33BE" unicode="&#x33be;" vert-adv-y="2263" 
d="M1032 -53l-176 1476h82l156 -1396l178 1396h108l176 -1396l168 1396h78l-190 -1476h-115l-170 1380l-176 -1380h-119zM799 1034l-365 -438l397 -649h-116l-342 583l-156 -190v-393h-80v1476h80v-960l461 571h121z" />
    <glyph glyph-name="uni33BF" unicode="&#x33bf;" vert-adv-y="2263" 
d="M1032 -53l-176 1476h82l156 -1396l178 1396h108l176 -1396l168 1396h78l-190 -1476h-115l-170 1380l-176 -1380h-119zM375 193l-144 735q-25 134 -51 366v-1347h-94v1476h135l217 -1142l238 1142h108v-1476h-84v1294q-23 -214 -45 -311l-161 -737h-119z" />
    <glyph glyph-name="uni3390" unicode="&#x3390;" vert-adv-y="2263" 
d="M846 1423h94v-1476h-94v731h-533v-731h-94v1476h94v-655h533v655zM1720 1034v-63l-544 -946h571v-78h-670v69l543 942h-502v76h602z" />
    <glyph glyph-name="uni3391" unicode="&#x3391;" vert-adv-y="2263" 
d="M1169 1423h99v-1476h-99v723h-340v-723h-98v1476h98v-655h340v655zM1806 1034v-63l-370 -946h383v-78h-476v69l369 942h-332v76h426zM623 1034l-263 -436l287 -651h-104l-234 569l-96 -156v-413h-94v1476h94v-919l305 530h105z" />
    <glyph glyph-name="uni3392" unicode="&#x3392;" vert-adv-y="2263" 
d="M1210 1423h99v-1476h-99v723h-288v-723h-99v1476h99v-655h288v655zM1825 1034v-63l-348 -946h360v-78h-453v69l347 942h-310v76h404zM340 193l-113 735q-9 59 -14.5 109.5t-13 125t-13.5 131.5v-1347h-92v1476h135l177 -1142l192 1142h113v-1476h-84v1294
q-13 -173 -37 -311l-127 -737h-123z" />
    <glyph glyph-name="uni3393" unicode="&#x3393;" vert-adv-y="2263" 
d="M676 719v-684q-31 -47 -98 -79t-136 -32q-81 0 -142.5 31.5t-102 88.5t-66 144t-36.5 190t-11 234v170q0 208 35 353.5t114 228t199 82.5q161 0 246 -111l-70 -73q-34 45 -73.5 63t-96.5 18q-128 0 -189 -141t-61 -391v-219q0 -134 13.5 -235.5t36 -164t56.5 -101.5
t70 -53.5t80 -14.5q43 0 85 16t53 35v555h-164v90h258zM1200 1423h98v-1476h-98v723h-307v-723h-98v1476h98v-655h307v655zM1821 1034v-63l-348 -946h360v-78h-453v69l346 942h-309v76h404z" />
    <glyph glyph-name="uni3394" unicode="&#x3394;" vert-adv-y="2263" 
d="M406 -53h-95v1392h-250v84h596v-84h-251v-1392zM1167 1423h99v-1476h-99v723h-325v-723h-99v1476h99v-655h325v655zM1784 1034v-63l-348 -946h360v-78h-453v69l347 942h-310v76h404z" />
    <glyph glyph-name="Omega" unicode="&#x2126;" vert-adv-y="2263" 
d="M932 1364q-239 0 -370.5 -150t-131.5 -419v-193q0 -409 324 -573v-82h-549v76h436q-301 184 -301 589v187q0 190 68 335t203.5 228.5t320.5 83.5t320.5 -83.5t203.5 -228.5t68 -335v-187q0 -405 -301 -589h436v-76h-549v82q324 164 324 573v193q0 269 -131.5 419
t-370.5 150z" />
    <glyph glyph-name="uni33C0" unicode="&#x33c0;" vert-adv-y="2263" 
d="M1284 1364q-72 0 -124 -25.5t-85 -71.5t-53 -119t-27.5 -157.5t-7.5 -197.5v-158q0 -486 217 -592v-96h-514l-344 585l-153 -192v-393h-80v1476h80v-960l436 571h114l-335 -430l346 -581h346q-42 25 -75 63.5t-54 79t-36 94.5t-22.5 97t-12 101t-5 92t-0.5 83v166
q0 331 88 489t301 158t301 -158t88 -489v-166q0 -49 -0.5 -83t-5 -92t-12 -101t-22.5 -97t-36 -94.5t-54 -79t-75 -63.5h353v-76h-457v96q217 106 217 592v158q0 113 -7.5 197.5t-27.5 157.5t-53 119t-85 71.5t-124 25.5z" />
    <glyph glyph-name="uni33C1" unicode="&#x33c1;" vert-adv-y="2263" 
d="M375 193l-144 735q-25 134 -51 366v-1347h-94v1476h135l217 -1142l238 1142h108v-1400h377q-42 25 -75 63.5t-54 79t-36 94.5t-22.5 97t-12 101t-5 92t-0.5 83v166q0 330 88.5 488.5t301.5 158.5t301 -158t88 -489v-166q0 -49 -0.5 -83t-5 -92t-12 -101t-22.5 -97
t-36 -94.5t-54 -79t-75 -63.5h352v-76h-457v96q217 106 217 592v158q0 114 -7.5 198t-27 157t-52.5 118.5t-85.5 71.5t-123.5 26q-72 0 -124 -25.5t-85 -71.5t-53 -119t-27.5 -157.5t-7.5 -197.5v-158q0 -486 217 -592v-96h-566v1294q-23 -214 -45 -311l-161 -737h-119z" />
    <glyph glyph-name="uni338A" unicode="&#x338a;" vert-adv-y="2263" 
d="M1096 1423h673v-80h-587v-636h544v-80h-544v-680h-86v1476zM289 1034v-164q23 75 107.5 130t191.5 55q188 0 277 -116t89 -349v-205q0 -218 -96 -336.5t-268 -118.5q-64 0 -119 20t-91.5 52t-59.5 67t-33 70v-631h-86v1526h88zM289 657v-323q0 -74 34 -147t104 -126
t159 -53q280 0 280 391v179q0 195 -70.5 297t-209.5 102q-130 0 -213.5 -82.5t-83.5 -237.5z" />
    <glyph glyph-name="uni338B" unicode="&#x338b;" vert-adv-y="2263" 
d="M1096 1423h673v-80h-587v-636h544v-80h-544v-680h-86v1476zM877 719v-772h-82v747q0 279 -246 279q-67 0 -123.5 -29.5t-90 -73t-51.5 -87t-18 -76.5v-760h-82v1087h82v-178q28 82 106.5 140.5t194.5 58.5q63 0 116.5 -18.5t98 -56.5t70 -105t25.5 -156z" />
    <glyph glyph-name="uni338C" unicode="&#x338c;" vert-adv-y="2263" 
d="M1096 1423h673v-80h-587v-636h544v-80h-544v-680h-86v1476zM885 -53h-76v166q-26 -69 -94.5 -126t-161.5 -57q-50 0 -92 11t-70 27t-52.5 41t-38 44.5t-28.5 46.5v-592h-77v1526h77v-710q0 -129 76.5 -223.5t206.5 -94.5q120 0 186 105t66 288v635h78v-1087z" />
    <glyph glyph-name="uni33D6" unicode="&#x33d6;" vert-adv-y="2263" 
d="M1253 8q37 0 67 14.5t49.5 37t33.5 59t21.5 71t11.5 84.5t5 87t1 90v84q0 62 -1.5 105t-7 99.5t-18.5 94.5t-33 73t-52.5 52.5t-76.5 17.5t-76.5 -17.5t-52.5 -53t-32.5 -72.5t-18 -94.5t-7 -99.5t-1.5 -105v-84q0 -41 0.5 -70t2.5 -68.5t5.5 -68t10.5 -62.5t16.5 -57.5
t24 -47t32.5 -37.5t42.5 -23t53.5 -9zM1661 1423h94v-1476h-94v1476zM106 1034h66v-145q2 28 11.5 55t27.5 53t49.5 42t73.5 16q126 0 147 -183q19 90 65 136.5t116 46.5q91 0 137.5 -62.5t46.5 -199.5v-846h-80v782q0 42 -1 67.5t-4 58.5t-10.5 52t-20 37.5t-32.5 26.5
t-47 8q-70 0 -102.5 -70t-32.5 -176v-786h-80v807q0 114 -27.5 169.5t-93.5 55.5q-129 0 -129 -258v-774h-80v1087zM1253 -70q-66 0 -114 23.5t-77.5 65t-47.5 108t-24.5 140.5t-6.5 175v101q0 261 60.5 386.5t209.5 125.5t210 -125.5t61 -386.5v-101q0 -100 -6.5 -174.5
t-24.5 -141t-48 -108t-78 -65t-114 -23.5z" />
    <glyph glyph-name="uni33C5" unicode="&#x33c5;" vert-adv-y="2263" 
d="M512 1055q59 0 107 -9t85 -28t55 -31.5t46 -34.5l-49 -65q-61 48 -114 69t-124 21q-82 0 -138.5 -31t-86.5 -89.5t-42.5 -128t-12.5 -161.5v-137q0 -76 8 -137t28 -115t52.5 -90t83.5 -57t118 -21q59 0 129.5 26t128.5 87l52 -64q-125 -129 -312 -129q-374 0 -374 502
v129q0 243 90.5 368.5t269.5 125.5zM1681 -53h-77v184q-35 -101 -119 -151t-189 -50q-185 0 -278.5 119.5t-93.5 345.5v197q0 225 94 344t278 119q123 0 199.5 -59t106.5 -144v571h79v-1476zM1004 571v-155q0 -402 290 -402q140 0 224 85t84 241v319q0 75 -33.5 144
t-106 117.5t-168.5 48.5q-156 0 -223 -100t-67 -298z" />
    <glyph glyph-name="uni33AD" unicode="&#x33ad;" vert-adv-y="2263" 
d="M670 887l-47 63q20 21 45.5 41.5t72.5 42t93 21.5q117 0 174 -79.5t57 -262.5v-766h-88v151q-13 -81 -67.5 -124.5t-127.5 -43.5q-207 0 -207 291v43q0 69 12.5 123t42.5 100.5t86 71.5t136 25h121v121q0 151 -35 207.5t-107 56.5q-79 0 -161 -82zM973 319v181h-127
q-170 0 -170 -232v-47q0 -207 110 -207q62 0 106 45.5t62.5 112.5t18.5 147zM569 1036l-20 -88q-29 10 -70 10q-49 0 -89 -24t-64 -62t-40.5 -88t-23 -98t-6.5 -96v-643h-98v1087h98v-200q19 98 79.5 159.5t141.5 61.5q55 0 92 -19zM1679 -53h-80v131q-9 -23 -21 -44.5
t-33.5 -47t-55.5 -41t-76 -15.5q-231 0 -231 445v217q0 238 52 350.5t191 112.5q63 0 110 -36.5t62 -92.5v563h82v-1542zM1264 571v-155q0 -216 35.5 -312t121.5 -96q84 0 130 90.5t46 274.5v190q0 65 -1.5 108.5t-7 96.5t-17 86t-30 63t-48 44t-68.5 14q-92 0 -126.5 -91
t-34.5 -313z" />
    <glyph glyph-name="uni33AE" unicode="&#x33ae;" vert-adv-y="2263" 
d="M408 891l-41 57q14 32 59 69.5t94 37.5q38 0 63.5 -11.5t46.5 -42t30.5 -90t9.5 -151.5v-815h-76v92q-5 -30 -15.5 -51.5t-21 -32t-26 -16t-24.5 -6.5t-22 -1q-70 0 -97.5 81t-27.5 241v16q0 310 189 310h43v210q0 97 -17 139t-55 42q-33 0 -56.5 -17t-55.5 -61zM592 317
v177h-39q-33 0 -54.5 -17.5t-31.5 -52t-14 -72.5t-4 -92v-27q0 -130 14 -169q14 -41 47 -41q21 0 36.5 16.5t24 42t13.5 67t6.5 79t1.5 89.5zM367 1030l-17 -88q-29 16 -67 16q-34 0 -59 -24.5t-38 -59t-20.5 -87.5t-9.5 -95.5t-2 -97.5v-647h-74v1087h74v-153
q31 174 145 174q40 0 68 -25zM1061 -55h-74v78q-6 -31 -20 -51.5t-32 -28.5t-29.5 -10.5t-22.5 -2.5q-45 0 -71 29t-42 123.5t-16 267.5v252q0 172 14 270.5t44 140.5t81 42q74 0 92 -78v512h76v-1544zM985 283v358q0 320 -74 320q-25 0 -38 -23t-21 -107.5t-8 -250.5v-189
q0 -217 10.5 -291.5t46.5 -74.5q21 0 36 11.5t24 36.5t14.5 45.5t7 58t2 54t0.5 52.5zM1616 14q58 0 83 46.5t25 144.5v24q-2 83 -19 127.5t-67 89.5q-16 15 -45 39t-43 36.5t-33.5 36.5t-28 47t-15.5 59t-7 81v31q0 133 56.5 206t148.5 73q95 0 150 -68l-45 -67
q-42 45 -107 45q-55 0 -84 -51t-29 -140v-29q0 -66 20.5 -100.5t80.5 -85.5q44 -38 67.5 -63t47.5 -63.5t33.5 -85.5t9.5 -111v-25q0 -151 -56 -216t-139 -65q-69 0 -110 22.5t-76 61.5l49 66q38 -39 66.5 -52.5t66.5 -13.5zM1460 1554h72l-375 -1810h-70z" />
    <glyph glyph-name="uni33AF" unicode="&#x33af;" vert-adv-y="2263" 
d="M408 891l-41 57q14 32 59 69.5t94 37.5q38 0 63.5 -11.5t46.5 -42t30.5 -90t9.5 -151.5v-815h-76v92q-5 -30 -15.5 -51.5t-21 -32t-26 -16t-24.5 -6.5t-22 -1q-70 0 -97.5 81t-27.5 241v16q0 310 189 310h43v210q0 97 -17 139t-55 42q-33 0 -56.5 -17t-55.5 -61zM592 317
v177h-39q-33 0 -54.5 -17.5t-31.5 -52t-14 -72.5t-4 -92v-27q0 -130 14 -169q14 -41 47 -41q21 0 36.5 16.5t24 42t13.5 67t6.5 79t1.5 89.5zM367 1030l-17 -88q-29 16 -67 16q-34 0 -59 -24.5t-38 -59t-20.5 -87.5t-9.5 -95.5t-2 -97.5v-647h-74v1087h74v-153
q31 174 145 174q40 0 68 -25zM1061 -55h-74v78q-6 -31 -20 -51.5t-32 -28.5t-29.5 -10.5t-22.5 -2.5q-45 0 -71 29t-42 123.5t-16 267.5v252q0 172 14 270.5t44 140.5t81 42q74 0 92 -78v512h76v-1544zM985 283v358q0 320 -74 320q-25 0 -38 -23t-21 -107.5t-8 -250.5v-189
q0 -217 10.5 -291.5t46.5 -74.5q21 0 36 11.5t24 36.5t14.5 45.5t7 58t2 54t0.5 52.5zM1616 14q58 0 83 46.5t25 144.5v24q-2 83 -19 127.5t-67 89.5q-16 15 -45 39t-43 36.5t-33.5 36.5t-28 47t-15.5 59t-7 81v31q0 133 56.5 206t148.5 73q95 0 150 -68l-45 -67
q-42 45 -107 45q-55 0 -84 -51t-29 -140v-29q0 -66 20.5 -100.5t80.5 -85.5q44 -38 67.5 -63t47.5 -63.5t33.5 -85.5t9.5 -111v-25q0 -151 -56 -216t-139 -65q-69 0 -110 22.5t-76 61.5l49 66q38 -39 66.5 -52.5t66.5 -13.5zM1460 1554h72l-375 -1810h-70zM1563 1206
l168 193q27 32 36 50.5t9 45.5v8q0 29 -19 46.5t-55 17.5q-56 0 -98 -45l-35 34q54 62 135 62q59 0 94 -32.5t35 -78.5v-12q0 -56 -57 -123l-131 -151h202v-50h-284v35z" />
    </font>
</defs>
</svg>
