<?xml version="1.0" standalone="no"?>
<!DOCTYPE svg PUBLIC "-//W3C//DTD SVG 1.1//EN" "http://www.w3.org/Graphics/SVG/1.1/DTD/svg11.dtd" >
<svg xmlns="http://www.w3.org/2000/svg" xmlns:xlink="http://www.w3.org/1999/xlink" version="1.1">
<metadata>
Created by FontForge 20170731 at Mon Nov 15 18:57:07 2021
 By Aleksey,,,
</metadata>
<defs>
<font id="NanumSquareOTFEB00" horiz-adv-x="1863" vert-adv-y="2048" >
  <font-face 
    font-family="NanumSquareOTFEB00"
    font-weight="700"
    font-stretch="normal"
    units-per-em="2048"
    panose-1="2 0 8 3 0 0 0 0 0 0"
    ascent="1638"
    descent="-410"
    x-height="1075"
    cap-height="1423"
    bbox="-115 -522 2550 1769"
    underline-thickness="102"
    underline-position="-307"
    unicode-range="U+0020-FFE6"
  />
<missing-glyph vert-adv-y="2263" 
d="M1751 1550v-1843h-1638v1843h1638zM1618 -219l-686 788l-686 -788h1372zM195 1417v-1573l684 787zM248 1477l682 -787l684 787h-1366zM1669 -158v1577l-684 -790z" />
    <glyph glyph-name=".notdef" vert-adv-y="2263" 
d="M1751 1550v-1843h-1638v1843h1638zM1618 -219l-686 788l-686 -788h1372zM195 1417v-1573l684 787zM248 1477l682 -787l684 787h-1366zM1669 -158v1577l-684 -790z" />
    <glyph glyph-name=".null" horiz-adv-x="0" vert-adv-y="0" 
 />
    <glyph glyph-name="nonmarkingreturn" horiz-adv-x="682" 
 />
    <glyph glyph-name="space" unicode=" " horiz-adv-x="512" vert-adv-y="2263" 
 />
    <glyph glyph-name="exclam" unicode="!" horiz-adv-x="655" vert-adv-y="2263" 
d="M193 -147v266h270v-266h-270zM434 317h-213l-39 1205h291z" />
    <glyph glyph-name="quotedbl" unicode="&#x22;" horiz-adv-x="821" vert-adv-y="2263" 
d="M330 999h-213l-27 512h266zM705 999h-213l-27 512h266z" />
    <glyph glyph-name="numbersign" unicode="#" horiz-adv-x="1316" vert-adv-y="2263" 
d="M965 551h186v-223h-215l-51 -381h-209l49 381h-246l-49 -381h-211l49 381h-182v223h213l37 278h-186v224h217l49 370h211l-49 -370h245l49 370h209l-49 -370h182v-224h-210zM760 551l37 278h-252l-39 -278h254z" />
    <glyph glyph-name="dollar" unicode="$" horiz-adv-x="1335" vert-adv-y="2263" 
d="M604 -190v141q-132 9 -264 54t-207 110l125 190q155 -111 346 -139v430q-49 12 -85.5 22.5t-84 29t-82 39.5t-70 53.5t-58 70t-36.5 90t-14 113.5v37q0 50 13 97t44.5 93.5t79 83t123 62.5t170.5 34v117h152v-115q116 -6 223 -41t176 -96l-121 -174q-125 88 -278 98v-415
q135 -36 222 -76t137 -92t69.5 -111t19.5 -141v-17q0 -87 -23 -155t-62.5 -113t-97.5 -75t-122 -44.5t-143 -19.5v-141h-152zM948 336v20q0 40 -6 65.5t-24.5 52t-58 47t-103.5 38.5v-395q101 11 146.5 58.5t45.5 113.5zM426 1059v-35q0 -85 38.5 -123.5t139.5 -69.5v375
q-178 -19 -178 -147z" />
    <glyph glyph-name="percent" unicode="%" horiz-adv-x="1878" vert-adv-y="2263" 
d="M616 -51h-237l883 1474h235zM469 1452q161 0 255.5 -95.5t94.5 -256.5v-80q0 -161 -94.5 -256.5t-255.5 -95.5t-255.5 95.5t-94.5 256.5v80q0 161 94.5 256.5t255.5 95.5zM469 842q82 0 114.5 46t32.5 136v72q0 89 -33 135.5t-114 46.5t-114 -46.5t-33 -135.5v-72
q0 -90 32.5 -136t114.5 -46zM1409 715q161 0 255.5 -95.5t94.5 -257.5v-79q0 -162 -94.5 -257.5t-255.5 -95.5t-255.5 95.5t-94.5 257.5v79q0 162 94.5 257.5t255.5 95.5zM1409 104q82 0 114.5 46.5t32.5 136.5v71q0 89 -33 136t-114 47t-114 -47t-33 -136v-71
q0 -90 32.5 -136.5t114.5 -46.5z" />
    <glyph glyph-name="ampersand" unicode="&#x26;" horiz-adv-x="1413" vert-adv-y="2263" 
d="M1053 760h239q0 -320 -114 -510l249 -301h-313l-98 123q-176 -148 -404 -148h-16q-77 0 -149 13.5t-139 44t-116.5 75.5t-79.5 114t-30 153v38q0 141 86 240.5t246 175.5l-49 56q-60 67 -86.5 129.5t-26.5 136.5v24q0 144 104 233t287 89q185 0 286 -95t101 -235v-22
q0 -106 -58.5 -198t-201.5 -179l242 -277q23 53 32 120t9 200zM606 154q160 0 258 94l-307 362q-119 -60 -168 -120.5t-49 -131.5v-28q0 -75 73 -125.5t193 -50.5zM500 1116v-20q0 -60 131 -207q93 61 124 103.5t31 99.5v14q0 52 -38.5 88.5t-104.5 36.5q-72 0 -107.5 -33.5
t-35.5 -81.5z" />
    <glyph glyph-name="quotesingle" unicode="'" horiz-adv-x="446" vert-adv-y="2263" 
d="M330 999h-213l-27 512h266z" />
    <glyph glyph-name="parenleft" unicode="(" horiz-adv-x="739" vert-adv-y="2263" 
d="M389 664v-103q0 -524 281 -909h-246q-301 359 -301 919v82q0 557 301 916h246q-281 -377 -281 -905z" />
    <glyph glyph-name="parenright" unicode=")" horiz-adv-x="739" vert-adv-y="2263" 
d="M350 561v103q0 529 -280 905h245q301 -359 301 -916v-82q0 -560 -301 -919h-245q280 384 280 909z" />
    <glyph glyph-name="asterisk" unicode="*" horiz-adv-x="980" vert-adv-y="2263" 
d="M418 973l-230 -170l-104 198l278 101l-278 98l104 199l228 -170l-33 272h217l-35 -272l230 170l102 -199l-279 -98l279 -101l-102 -198l-230 170l35 -271h-217z" />
    <glyph glyph-name="plus" unicode="+" horiz-adv-x="1228" vert-adv-y="2263" 
d="M500 1176h229v-420h414v-213h-414v-449h-229v449h-414v213h414v420z" />
    <glyph glyph-name="comma" unicode="," horiz-adv-x="702" vert-adv-y="2263" 
d="M141 -358l86 475h291l-168 -475h-209z" />
    <glyph glyph-name="hyphen" unicode="-" horiz-adv-x="876" vert-adv-y="2263" 
d="M90 578v213h696v-213h-696z" />
    <glyph glyph-name="period" unicode="." horiz-adv-x="702" vert-adv-y="2263" 
d="M221 -147v266h260v-266h-260z" />
    <glyph glyph-name="slash" unicode="/" horiz-adv-x="993" vert-adv-y="2263" 
d="M686 1591h254l-635 -1859h-252z" />
    <glyph glyph-name="zero" unicode="0" horiz-adv-x="1269" vert-adv-y="2263" 
d="M1178 801v-230q0 -315 -135.5 -481t-399.5 -166q-263 0 -407 168.5t-144 478.5v230q0 309 143 477t402 168q261 0 401 -167t140 -478zM913 569v234q0 98 -15.5 170.5t-40 115t-62 67.5t-74.5 33.5t-84 8.5q-45 0 -81.5 -8.5t-75 -34t-65 -68t-43 -115t-16.5 -169.5v-234
q0 -82 11.5 -147t33 -107.5t48 -71.5t60.5 -44t65.5 -21t68.5 -6q47 0 83.5 8t73 33.5t60 68t38.5 115.5t15 172z" />
    <glyph glyph-name="one" unicode="1" horiz-adv-x="1269" vert-adv-y="2263" 
d="M954 -53h-262v1181l-336 -192l-127 213l494 274h231v-1476z" />
    <glyph glyph-name="two" unicode="2" horiz-adv-x="1269" vert-adv-y="2263" 
d="M104 143l543 559q62 63 100.5 113.5t55.5 91.5t21.5 68t4.5 65v17q0 66 -52 110.5t-159 44.5q-44 0 -81 -8.5t-77.5 -29.5t-79 -63.5t-73.5 -104.5l-196 129q171 311 505 311q121 0 215 -30.5t150 -83.5t84.5 -120t28.5 -145v-20q0 -232 -213 -445l-435 -438h703v-217
h-1045v196z" />
    <glyph glyph-name="three" unicode="3" horiz-adv-x="1269" vert-adv-y="2263" 
d="M313 1094l-178 139q80 103 183.5 158t254.5 55q207 0 332 -101.5t125 -267.5v-20q0 -48 -10 -94.5t-33 -94t-66.5 -87t-103.5 -62.5q142 -25 214.5 -114t72.5 -220v-31q0 -85 -33.5 -161.5t-98.5 -137t-169.5 -96t-235.5 -35.5q-268 0 -473 164l129 205q106 -77 181 -106
t165 -29q135 0 203 55t68 154v26q0 108 -64.5 158.5t-204.5 50.5h-198v225h176q129 0 177 54t48 159v17q0 81 -53 120.5t-148 39.5q-87 0 -145.5 -31t-114.5 -92z" />
    <glyph glyph-name="four" unicode="4" horiz-adv-x="1269" vert-adv-y="2263" 
d="M766 907h258v-442h201v-211h-201v-307h-258v307h-735v170l671 999h283l-645 -958h426v442z" />
    <glyph glyph-name="five" unicode="5" horiz-adv-x="1269" vert-adv-y="2263" 
d="M907 418v22q0 118 -68 182t-192 64q-157 0 -280 -117h-177l48 854h837v-217h-602l-16 -385q126 76 274 76q104 0 188.5 -37t139 -99.5t83.5 -143.5t29 -171v-30q0 -73 -18.5 -142t-60 -133t-101.5 -112t-149 -76.5t-197 -28.5q-165 0 -291 38t-233 126l127 207
q97 -78 189 -105.5t206 -27.5q130 0 197 70.5t67 185.5z" />
    <glyph glyph-name="six" unicode="6" horiz-adv-x="1269" vert-adv-y="2263" 
d="M1098 1343l-97 -217q-142 82 -313 82q-60 0 -110.5 -21t-94 -67t-70.5 -128.5t-34 -196.5q52 61 143 95t189 34q214 0 337 -129t123 -346v-41q0 -103 -36 -191.5t-102.5 -153.5t-166 -102t-219.5 -37q-139 0 -241 44t-164.5 127t-92.5 196t-30 258v94q0 190 30.5 333
t82 231.5t128.5 143t159.5 75t185.5 20.5q239 0 393 -103zM383 446v-30q0 -121 66.5 -187.5t191.5 -66.5q134 0 203 66t69 190v22q0 129 -63.5 191.5t-198.5 62.5q-134 0 -201 -69.5t-67 -178.5z" />
    <glyph glyph-name="seven" unicode="7" horiz-adv-x="1269" vert-adv-y="2263" 
d="M1161 1223l-565 -1276h-277l568 1255h-781v221h1055v-200z" />
    <glyph glyph-name="eight" unicode="8" horiz-adv-x="1269" vert-adv-y="2263" 
d="M430 1026v-20q0 -92 62.5 -141.5t144.5 -49.5q84 0 143.5 49.5t59.5 141.5v20q0 93 -56 143t-149 50q-90 0 -147.5 -50.5t-57.5 -142.5zM393 375v-21q0 -94 67 -147t179 -53q110 0 174 53t64 147v21q0 103 -67.5 157t-170.5 54q-106 0 -176 -52.5t-70 -158.5zM123 338v35
q0 117 72.5 211t169.5 123q-98 49 -150.5 138.5t-52.5 170.5v24q0 81 28.5 152.5t84.5 129t148.5 91t209.5 33.5q114 0 206.5 -33.5t150 -90.5t88 -129.5t30.5 -152.5v-24q0 -80 -50.5 -166t-150.5 -143q99 -30 169.5 -123.5t70.5 -210.5v-35q0 -183 -133.5 -298.5
t-372.5 -115.5q-247 0 -382.5 115t-135.5 299z" />
    <glyph glyph-name="nine" unicode="9" horiz-adv-x="1269" vert-adv-y="2263" 
d="M172 27l96 217q142 -82 314 -82q149 0 224 92.5t85 320.5q-52 -61 -143 -95t-189 -34q-214 0 -337.5 128.5t-123.5 345.5v41q0 103 36.5 191.5t102.5 153.5t166 102.5t220 37.5q139 0 241 -44t164.5 -127t92.5 -196t30 -258v-94q0 -191 -28 -333t-76.5 -231
t-124.5 -143.5t-161 -75t-196 -20.5q-239 0 -393 103zM887 924v30q0 121 -66.5 187.5t-191.5 66.5q-134 0 -203.5 -66t-69.5 -190v-22q0 -129 63.5 -191.5t198.5 -62.5q134 0 201.5 69.5t67.5 178.5z" />
    <glyph glyph-name="colon" unicode=":" horiz-adv-x="825" vert-adv-y="2263" 
d="M283 2v266h260v-266h-260zM283 924v266h260v-266h-260z" />
    <glyph glyph-name="semicolon" unicode=";" horiz-adv-x="825" vert-adv-y="2263" 
d="M283 924v266h260v-266h-260zM203 -195l86 474h291l-168 -474h-209z" />
    <glyph glyph-name="less" unicode="&#x3c;" horiz-adv-x="1269" vert-adv-y="2263" 
d="M416 666v-13l704 -350v-260l-991 512v203l991 512v-258z" />
    <glyph glyph-name="equal" unicode="=" horiz-adv-x="1269" vert-adv-y="2263" 
d="M152 764v215h966v-215h-966zM152 332v215h966v-215h-966z" />
    <glyph glyph-name="greater" unicode="&#x3e;" horiz-adv-x="1269" vert-adv-y="2263" 
d="M854 653v13l-704 346v258l991 -512v-203l-991 -512v260z" />
    <glyph glyph-name="question" unicode="?" horiz-adv-x="1140" vert-adv-y="2263" 
d="M653 289h-243v90q0 51 1.5 76.5t9 64t24 66.5t46.5 65.5t76 79.5q134 124 169.5 179.5t35.5 136.5v20q0 70 -53.5 115t-167.5 45q-176 0 -320 -137l-143 180q188 188 471 188q221 0 348 -106t127 -277v-28q0 -56 -13 -106.5t-31.5 -87.5t-52 -78.5t-60.5 -68.5t-71 -69
q-10 -9 -15 -14q-49 -47 -67 -66t-39 -50t-26.5 -60t-5.5 -74v-84zM397 -147v266h271v-266h-271z" />
    <glyph glyph-name="at" unicode="@" horiz-adv-x="2054" vert-adv-y="2263" 
d="M1563 72q-90 0 -157 42t-93 134h-2q-18 -46 -56.5 -81.5t-85.5 -54t-91 -27.5t-83 -9q-199 0 -312.5 114t-113.5 302v163q0 187 107.5 301.5t281.5 114.5q107 0 173.5 -31t93.5 -75v90h235v-629q0 -88 28 -129t91 -41q58 0 95 32t58 111.5t21 210.5v17q0 342 -194.5 527
t-548.5 185q-151 0 -280.5 -50t-225 -142t-149.5 -232.5t-54 -312.5v-29q0 -371 200 -567t546 -196q320 0 569 129l72 -166q-270 -146 -635 -146q-447 0 -699 254.5t-252 689.5v33q0 197 64.5 366t181 290.5t287.5 190.5t375 69q225 0 403.5 -63.5t296.5 -179.5t180 -279.5
t62 -364.5v-21q0 -79 -10.5 -151t-38.5 -144.5t-70.5 -125.5t-111.5 -86t-158 -33zM821 623v-103q0 -106 47.5 -162.5t141.5 -56.5q87 0 142.5 52t55.5 145v145q0 100 -49 154.5t-149 54.5q-189 0 -189 -229z" />
    <glyph glyph-name="A" unicode="A" horiz-adv-x="1413" vert-adv-y="2263" 
d="M821 1423l555 -1476h-284l-144 405h-497l-146 -405h-268l549 1476h235zM627 872l-101 -301h346l-100 301q-48 134 -74 228q-38 -134 -71 -228z" />
    <glyph glyph-name="B" unicode="B" horiz-adv-x="1353" vert-adv-y="2263" 
d="M166 -53v1476h573q235 0 350 -89t115 -271v-43q0 -107 -55 -187t-178 -110q141 -21 221 -104.5t80 -231.5v-51q0 -186 -117.5 -287.5t-351.5 -101.5h-637zM426 608v-444h238q75 0 125 4t94 16.5t68.5 34.5t38.5 58t14 88v45q0 114 -82.5 156t-296.5 42h-199zM627 1206
h-201v-385h192q52 0 83 1t69.5 5t60 11.5t45 21t35.5 34t19.5 50t7.5 68.5v37q0 91 -70 124t-241 33z" />
    <glyph glyph-name="C" unicode="C" horiz-adv-x="1347" vert-adv-y="2263" 
d="M729 1446q160 0 279 -37.5t229 -126.5l-141 -201q-85 71 -171 97t-196 26q-352 0 -352 -454v-152q0 -113 28.5 -198.5t78 -134.5t110.5 -73t133 -24q257 0 406 154l139 -201q-63 -61 -136 -102.5t-148 -61t-137.5 -26.5t-133.5 -7q-99 0 -186.5 22t-165 70.5t-133 119.5
t-87.5 175.5t-32 233.5v264q0 161 47.5 285t132.5 200t195 114t241 38z" />
    <glyph glyph-name="D" unicode="D" horiz-adv-x="1433" vert-adv-y="2263" 
d="M166 1423h514q641 0 641 -632v-211q0 -156 -35.5 -271.5t-111 -197.5t-198 -123t-292.5 -41h-518v1476zM426 1202v-1034h219q206 0 309 98t103 324v190q0 227 -101 324.5t-311 97.5h-219z" />
    <glyph glyph-name="E" unicode="E" horiz-adv-x="1245" vert-adv-y="2263" 
d="M166 1423h950v-217h-690v-397h647v-213h-647v-432h704v-217h-964v1476z" />
    <glyph glyph-name="F" unicode="F" horiz-adv-x="1189" vert-adv-y="2263" 
d="M428 -53h-262v1476h950v-221h-688v-422h645v-221h-645v-612z" />
    <glyph glyph-name="G" unicode="G" horiz-adv-x="1404" vert-adv-y="2263" 
d="M768 1446q299 0 504 -166l-142 -201q-146 129 -362 129q-92 0 -158.5 -19.5t-122 -68t-84 -141.5t-28.5 -229v-152q0 -436 409 -436q132 0 242 43v354h-309v219h569v-719q-95 -64 -236 -99.5t-278 -35.5q-144 0 -261.5 36t-208 109t-140 194t-49.5 282v264
q0 162 48.5 285.5t137 199.5t206.5 114t263 38z" />
    <glyph glyph-name="H" unicode="H" horiz-adv-x="1468" vert-adv-y="2263" 
d="M1040 -53v661h-612v-661h-262v1476h262v-598h612v598h263v-1476h-263z" />
    <glyph glyph-name="I" unicode="I" horiz-adv-x="593" vert-adv-y="2263" 
d="M166 -53v1476h262v-1476h-262z" />
    <glyph glyph-name="J" unicode="J" horiz-adv-x="1005" vert-adv-y="2263" 
d="M580 430v993h262v-1056q0 -236 -118.5 -339.5t-344.5 -103.5q-94 0 -188.5 33.5t-165.5 95.5l120 201q66 -50 117.5 -70t120.5 -20q101 0 149 59.5t48 206.5z" />
    <glyph glyph-name="K" unicode="K" horiz-adv-x="1363" vert-adv-y="2263" 
d="M1313 1423l-572 -651l602 -825h-331l-447 635l-137 -150v-485h-262v1476h262v-675l582 675h303z" />
    <glyph glyph-name="L" unicode="L" horiz-adv-x="1142" vert-adv-y="2263" 
d="M166 1423h262v-1255h674v-221h-936v1476z" />
    <glyph glyph-name="M" unicode="M" horiz-adv-x="1792" vert-adv-y="2263" 
d="M791 193l-306 778q-9 22 -75 223v-1247h-244v1476h373l362 -917l348 917h377v-1476h-248v1247q-19 -77 -69 -223l-310 -778h-208z" />
    <glyph glyph-name="N" unicode="N" horiz-adv-x="1476" vert-adv-y="2263" 
d="M166 -53v1476h301l504 -895q66 -118 94 -233v1128h246v-1476h-301l-506 897q-70 125 -92 227v-1124h-246z" />
    <glyph glyph-name="O" unicode="O" horiz-adv-x="1474" vert-adv-y="2263" 
d="M737 1446q103 0 194 -22t171 -71.5t137 -122.5t90 -181t33 -242v-244q0 -136 -32.5 -244.5t-89 -181.5t-136.5 -121.5t-171 -70t-196 -21.5t-196 21.5t-170.5 70t-136 121.5t-89 181.5t-32.5 244.5v244q0 133 33 241.5t90.5 181.5t137 122.5t170 71.5t193.5 22zM737 164
q80 0 142 20.5t113 67.5t78.5 134t27.5 210v178q0 123 -27.5 210t-78.5 134t-113 67.5t-142 20.5q-79 0 -140.5 -20.5t-112.5 -67.5t-79 -134t-28 -210v-178q0 -123 28 -210t79 -134t112.5 -67.5t140.5 -20.5z" />
    <glyph glyph-name="P" unicode="P" horiz-adv-x="1302" vert-adv-y="2263" 
d="M166 -53v1476h557q254 0 380 -115t126 -307v-43q0 -92 -31.5 -171t-92.5 -140.5t-159.5 -97t-222.5 -35.5h-295v-567h-262zM711 1204h-283v-469h260q136 0 206.5 52.5t70.5 175.5v36q0 114 -65.5 159.5t-188.5 45.5z" />
    <glyph glyph-name="Q" unicode="Q" horiz-adv-x="1462" vert-adv-y="2263" 
d="M737 1446q103 0 194 -22t171 -71.5t137 -122.5t90 -181t33 -242v-244q0 -275 -131 -438l170 -168l-150 -154l-190 189q-136 -68 -324 -68q-105 0 -196 21.5t-170.5 70t-136 121.5t-89 181.5t-32.5 244.5v244q0 133 33 241.5t90.5 181.5t137 122.5t170 71.5t193.5 22z
M737 164q78 0 133 16l-174 174l150 154l192 -193q60 107 60 281v178q0 123 -27.5 210t-78.5 134t-113 67.5t-142 20.5q-79 0 -140.5 -20.5t-112.5 -67.5t-79 -134t-28 -210v-178q0 -123 28 -210t79 -134t112.5 -67.5t140.5 -20.5z" />
    <glyph glyph-name="R" unicode="R" horiz-adv-x="1351" vert-adv-y="2263" 
d="M977 -53l-248 592h-301v-592h-262v1476h559q225 0 351 -111.5t126 -293.5v-76q0 -118 -58.5 -211t-170.5 -143q49 -107 144.5 -320.5t144.5 -320.5h-285zM692 1204h-264v-446h242q272 0 272 190v62q0 91 -60.5 142.5t-189.5 51.5z" />
    <glyph glyph-name="S" unicode="S" horiz-adv-x="1282" vert-adv-y="2263" 
d="M643 160q134 0 201 48.5t67 127.5v22q0 85 -63 131t-197 76q-183 39 -249 63q-179 64 -239 195q-34 77 -34 181v26q0 56 16 111.5t55.5 111.5t98 98t151 68.5t207.5 26.5q269 0 461 -123l-123 -203q-83 55 -158.5 73.5t-174.5 18.5q-129 0 -201 -55t-72 -123v-24
q0 -39 15.5 -68.5t37.5 -47.5t63.5 -33.5t75.5 -24.5t91 -21q8 -2 12.5 -3t11.5 -2.5t13 -2.5q251 -56 358 -160t107 -264v-27q0 -96 -29.5 -171.5t-79 -123.5t-120 -79.5t-147.5 -44.5t-167 -13q-154 0 -296 48t-233 122l127 209q74 -62 182 -102.5t232 -40.5z" />
    <glyph glyph-name="T" unicode="T" horiz-adv-x="1169" vert-adv-y="2263" 
d="M20 1423h1129v-221h-432v-1255h-262v1255h-435v221z" />
    <glyph glyph-name="U" unicode="U" horiz-adv-x="1425" vert-adv-y="2263" 
d="M713 162q165 0 238 87.5t73 301.5v872h262v-868q0 -179 -36.5 -302t-111.5 -195t-178 -103t-247 -31t-246.5 31t-178 103t-112.5 195t-37 302v868h262v-872q0 -214 73.5 -301.5t238.5 -87.5z" />
    <glyph glyph-name="V" unicode="V" horiz-adv-x="1447" vert-adv-y="2263" 
d="M600 -53l-543 1476h281l387 -1155l401 1155h267l-557 -1476h-236z" />
    <glyph glyph-name="W" unicode="W" horiz-adv-x="2031" vert-adv-y="2263" 
d="M457 -53l-402 1476h273l270 -1095l299 1095h252l297 -1093l280 1093h252l-407 -1476h-250l-299 1136l-311 -1136h-254z" />
    <glyph glyph-name="X" unicode="X" horiz-adv-x="1370" vert-adv-y="2263" 
d="M1298 1423l-440 -718l459 -758h-303l-338 596l-328 -596h-295l457 772l-420 704h316l294 -544l306 544h292z" />
    <glyph glyph-name="Y" unicode="Y" horiz-adv-x="1327" vert-adv-y="2263" 
d="M1300 1423l-505 -893v-583h-263v583l-505 893h292l351 -651l344 651h286z" />
    <glyph glyph-name="Z" unicode="Z" horiz-adv-x="1288" vert-adv-y="2263" 
d="M1184 1423v-198l-809 -1053h848v-225h-1172v215l799 1036h-750v225h1084z" />
    <glyph glyph-name="bracketleft" unicode="[" horiz-adv-x="864" vert-adv-y="2263" 
d="M778 -123v-225h-600v1917h600v-226h-336v-1466h336z" />
    <glyph glyph-name="backslash" unicode="\" horiz-adv-x="1970" vert-adv-y="2263" 
d="M66 670v145h217l-152 608h260l131 -608h215l160 608h227l144 -608h196l123 608h256l-149 -608h211v-145h-246l-172 -723h-225l-166 723h-197l-182 -723h-217l-181 723h-253zM551 670l65 -324l86 324h-151zM1298 670l78 -336l60 336h-138zM1006 1085l-70 -270h127z" />
    <glyph glyph-name="bracketright" unicode="]" horiz-adv-x="864" vert-adv-y="2263" 
d="M86 -348v225h336v1466h-336v226h600v-1917h-600z" />
    <glyph glyph-name="asciicircum" unicode="^" horiz-adv-x="1073" vert-adv-y="2263" 
d="M987 821h-242l-208 459l-209 -459h-242l332 662h239z" />
    <glyph glyph-name="underscore" unicode="_" horiz-adv-x="1064" vert-adv-y="2263" 
d="M1065 -154v-153h-1065v153h1065z" />
    <glyph glyph-name="grave" unicode="`" horiz-adv-x="1269" vert-adv-y="2263" 
d="M901 1151h-233l-303 317h305z" />
    <glyph glyph-name="a" unicode="a" horiz-adv-x="1173" vert-adv-y="2263" 
d="M479 -70q-181 0 -282 83.5t-101 232.5v65q0 149 100.5 235.5t325.5 86.5h258v43q0 104 -47.5 150t-152.5 46q-178 0 -320 -112l-127 188q218 152 449 152q202 0 328 -97t126 -264v-792h-231l-4 139q-20 -48 -75.5 -84.5t-120 -54t-126.5 -17.5zM780 401v31h-252
q-97 0 -139.5 -36.5t-42.5 -106.5v-25q0 -56 39.5 -86.5t114.5 -30.5q157 0 233 76q32 31 39.5 67t7.5 111z" />
    <glyph glyph-name="b" unicode="b" horiz-adv-x="1255" vert-adv-y="2263" 
d="M406 78h-7v-131h-245v1548h258v-530q34 49 93 81t112 43t104 11q214 0 327 -128.5t113 -353.5v-198q0 -227 -123 -358.5t-329 -131.5q-108 0 -185.5 40t-117.5 108zM905 449v129q0 301 -235 301q-125 0 -193.5 -74t-68.5 -193v-239q0 -83 78 -153t190 -70q111 0 170 78.5
t59 220.5z" />
    <glyph glyph-name="c" unicode="c" horiz-adv-x="1079" vert-adv-y="2263" 
d="M604 1100q145 0 238 -35.5t174 -97.5l-125 -189q-119 96 -287 96q-108 0 -179 -69t-71 -215v-137q0 -82 23 -142t62 -92t81 -46.5t88 -14.5q100 0 171 24t136 72l123 -188q-63 -58 -175.5 -97t-256.5 -39q-246 0 -379 137.5t-133 381.5v141q0 240 136 375t374 135z" />
    <glyph glyph-name="d" unicode="d" horiz-adv-x="1253" vert-adv-y="2263" 
d="M856 -53v133h-6q-42 -77 -128.5 -113.5t-195.5 -36.5q-214 0 -323 125t-109 357v198q0 227 122.5 358.5t328.5 131.5q119 0 192 -36.5t105 -84.5v516h258v-1548h-244zM348 578v-127q0 -144 59 -222.5t171 -78.5q124 0 196 78.5t72 197.5v229q0 88 -67 156t-191 68
q-120 0 -180 -78.5t-60 -222.5z" />
    <glyph glyph-name="e" unicode="e" horiz-adv-x="1191" vert-adv-y="2263" 
d="M346 612h508v50q0 99 -61.5 162t-188.5 63q-124 0 -191 -66t-67 -166v-43zM967 238l106 -187q-178 -121 -463 -121q-82 0 -154 15.5t-139.5 54t-116 97.5t-77.5 151t-29 209v116q0 134 39.5 236.5t110 165t162.5 94t202 31.5q223 0 358.5 -128t135.5 -368v-186h-756
q0 -134 71.5 -203.5t207.5 -69.5q99 0 178 21.5t164 71.5z" />
    <glyph glyph-name="f" unicode="f" horiz-adv-x="831" vert-adv-y="2263" 
d="M227 -53v917h-180v211h180v78q0 171 92.5 262.5t276.5 91.5q119 0 213 -32l-41 -207q-61 20 -147 20q-136 0 -136 -141v-72h285v-211h-285v-917h-258z" />
    <glyph glyph-name="g" unicode="g" horiz-adv-x="1253" vert-adv-y="2263" 
d="M846 -41v139h-4q-80 -147 -316 -147q-214 0 -323 124.5t-109 356.5v178q0 226 123 358t328 132q118 0 194.5 -38t110.5 -85h2v98h248v-1118q0 -236 -131 -351.5t-406 -115.5q-105 0 -211 34t-176 89l117 201q39 -34 120 -65.5t154 -31.5q279 0 279 242zM348 578v-107
q0 -144 59 -222.5t171 -78.5q124 0 196 78.5t72 197.5v209q0 88 -67 156t-191 68q-120 0 -180 -78.5t-60 -222.5z" />
    <glyph glyph-name="h" unicode="h" horiz-adv-x="1271" vert-adv-y="2263" 
d="M735 1100q79 0 147.5 -23.5t124.5 -71.5t88.5 -130.5t32.5 -192.5v-735h-258v680q0 126 -53 186.5t-162 60.5q-29 0 -58 -5.5t-63.5 -22.5t-60.5 -44t-43.5 -75.5t-17.5 -112.5v-667h-258v1548h243v-549h4q109 154 334 154z" />
    <glyph glyph-name="i" unicode="i" horiz-adv-x="577" vert-adv-y="2263" 
d="M160 -53v1128h258v-1128h-258zM154 1241v279h270v-279h-270z" />
    <glyph glyph-name="j" unicode="j" horiz-adv-x="626" vert-adv-y="2263" 
d="M203 1241v279h270v-279h-270zM467 1075v-1231q0 -354 -358 -354q-133 0 -224 31l41 209q77 -21 148 -21q72 0 103.5 33t31.5 113v1220h258z" />
    <glyph glyph-name="k" unicode="k" horiz-adv-x="1196" vert-adv-y="2263" 
d="M1159 1075l-438 -467l457 -661h-330l-307 479l-129 -143v-336h-258v1548h258v-897l422 477h325z" />
    <glyph glyph-name="l" unicode="l" horiz-adv-x="565" vert-adv-y="2263" 
d="M154 -53v1548h258v-1548h-258z" />
    <glyph glyph-name="m" unicode="m" horiz-adv-x="1894" vert-adv-y="2263" 
d="M1362 1100q79 0 149 -27.5t124 -79t85 -134t31 -185.5v-727h-258v674q0 140 -55.5 194.5t-149.5 54.5q-40 0 -75 -11.5t-65.5 -38t-48.5 -75.5t-18 -116v-682h-258v678q0 245 -205 245q-94 0 -150 -59t-56 -172v-692h-258v1128h243v-143h4q42 78 122.5 123t187.5 45
q104 0 187 -47.5t114 -124.5q62 88 144 130t206 42z" />
    <glyph glyph-name="n" unicode="n" horiz-adv-x="1271" vert-adv-y="2263" 
d="M735 1100q79 0 147.5 -23.5t124.5 -71.5t88.5 -130.5t32.5 -192.5v-735h-258v680q0 126 -53 186.5t-162 60.5q-29 0 -58 -5.5t-63.5 -22.5t-60.5 -44t-43.5 -75.5t-17.5 -112.5v-667h-258v1128h243v-129h4q109 154 334 154z" />
    <glyph glyph-name="o" unicode="o" horiz-adv-x="1245" vert-adv-y="2263" 
d="M623 156q123 0 195.5 72t72.5 225v125q0 296 -268 296q-269 0 -269 -296v-125q0 -153 73 -225t196 -72zM623 -70q-242 0 -385.5 137.5t-143.5 381.5v133q0 245 143 381.5t386 136.5t385.5 -136t142.5 -382v-133q0 -245 -143 -382t-385 -137z" />
    <glyph glyph-name="p" unicode="p" horiz-adv-x="1255" vert-adv-y="2263" 
d="M707 -70q-198 0 -295 131v-553h-258v1567h247v-123q54 79 140.5 113.5t177.5 34.5q217 0 329.5 -129.5t112.5 -352.5v-198q0 -226 -123 -358t-331 -132zM905 449v129q0 301 -235 301q-125 0 -193.5 -74t-68.5 -193v-239q0 -83 78 -153t190 -70q111 0 170 78.5t59 220.5z
" />
    <glyph glyph-name="q" unicode="q" horiz-adv-x="1253" vert-adv-y="2263" 
d="M846 -492v570h-6q-80 -148 -314 -148q-214 0 -323 125t-109 357v198q0 227 122.5 358.5t328.5 131.5q115 0 190 -37t111 -84h4v96h250v-1567h-254zM348 578v-127q0 -144 59 -222.5t171 -78.5q124 0 196 78.5t72 197.5v229q0 88 -67 156t-191 68q-120 0 -180 -78.5
t-60 -222.5z" />
    <glyph glyph-name="r" unicode="r" horiz-adv-x="905" vert-adv-y="2263" 
d="M881 1077l-74 -233q-58 24 -143 24q-108 0 -180 -72t-72 -180v-669h-258v1128h247v-164h5q99 189 315 189q93 0 160 -23z" />
    <glyph glyph-name="s" unicode="s" horiz-adv-x="1050" vert-adv-y="2263" 
d="M526 150q94 0 143.5 25.5t49.5 86.5v12q0 42 -16 62.5t-63.5 37.5t-156.5 38q-141 27 -222.5 68t-121 109t-39.5 175v20q0 48 15 92t48.5 85.5t83 72t124.5 48.5t166 18q262 0 415 -103l-110 -186q-107 72 -273 72q-211 0 -211 -101v-12q0 -58 36.5 -79t172.5 -48
q117 -23 187.5 -47t125.5 -64.5t78 -100.5t23 -150v-23q0 -138 -121 -233t-328 -95q-141 0 -267 37t-208 103l115 196q171 -116 354 -116z" />
    <glyph glyph-name="t" unicode="t" horiz-adv-x="845" vert-adv-y="2263" 
d="M225 266v596h-180v213h180v289h258v-289h285v-213h-285v-594q0 -68 27.5 -92t83.5 -24q84 0 160 32l41 -207q-110 -47 -232 -47q-185 0 -261.5 84.5t-76.5 251.5z" />
    <glyph glyph-name="u" unicode="u" horiz-adv-x="1265" vert-adv-y="2263" 
d="M535 -72q-181 0 -286.5 108t-105.5 310v729h258v-674q0 -138 56 -192.5t157 -54.5q42 0 81.5 13.5t76.5 42t59.5 82.5t22.5 126v657h258v-1128h-246v135h-4q-45 -75 -136 -114.5t-191 -39.5z" />
    <glyph glyph-name="v" unicode="v" horiz-adv-x="1097" vert-adv-y="2263" 
d="M717 -53h-336l-369 1128h283l256 -887h8l258 887h268z" />
    <glyph glyph-name="w" unicode="w" horiz-adv-x="1609" vert-adv-y="2263" 
d="M616 -53h-301l-280 1128h276l166 -874h8l205 874h244l194 -874h9l180 874h258l-279 -1128h-301l-184 794h-8z" />
    <glyph glyph-name="x" unicode="x" horiz-adv-x="1120" vert-adv-y="2263" 
d="M1073 1075l-346 -543l356 -585h-307l-223 411l-225 -411h-291l364 585l-350 543h309l211 -377l217 377h285z" />
    <glyph glyph-name="y" unicode="y" horiz-adv-x="1144" vert-adv-y="2263" 
d="M31 1075h286l256 -833h9l258 833h274l-586 -1597l-241 84l145 370z" />
    <glyph glyph-name="z" unicode="z" horiz-adv-x="1019" vert-adv-y="2263" 
d="M938 1075v-205l-553 -698h586v-225h-926v176l578 727h-537v225h852z" />
    <glyph glyph-name="braceleft" unicode="{" horiz-adv-x="980" vert-adv-y="2263" 
d="M72 522v215q115 2 166 37t51 121v365q0 148 92.5 228.5t251.5 80.5h248v-228h-201q-35 0 -58 -7t-37 -18.5t-21 -37t-9 -52t-2 -73.5v-272q0 -54 -14 -101.5t-56.5 -91.5t-109.5 -59q66 -15 108 -57t57 -90.5t15 -104.5v-326q0 -107 22 -139.5t105 -32.5h201v-227h-248
q-161 0 -252.5 74t-91.5 219v415q0 88 -51 124t-166 38z" />
    <glyph glyph-name="bar" unicode="|" horiz-adv-x="628" vert-adv-y="2263" 
d="M444 1567v-1915h-260v1915h260z" />
    <glyph glyph-name="braceright" unicode="}" horiz-adv-x="980" vert-adv-y="2263" 
d="M895 737v-215q-115 -2 -166 -38t-51 -124v-415q0 -145 -91.5 -219t-252.5 -74h-248v227h201q83 0 105 32.5t22 139.5v326q0 56 15 104.5t57 90.5t108 57q-67 15 -109.5 59t-56.5 91.5t-14 101.5v272q0 47 -2 73.5t-9 52t-21 37t-37 18.5t-58 7h-201v228h248
q159 0 251.5 -80.5t92.5 -228.5v-365q0 -86 51 -121t166 -37z" />
    <glyph glyph-name="asciitilde" unicode="~" horiz-adv-x="1228" vert-adv-y="2263" 
d="M805 455q-53 0 -100.5 19t-81 46t-63.5 54t-62 46t-64 19q-92 0 -110 -190h-213q6 175 95.5 293t221.5 118q55 0 103.5 -19t82 -46t63.5 -54t61.5 -46t62.5 -19q92 0 112 190h213q-9 -198 -97.5 -304.5t-223.5 -106.5z" />
    <glyph glyph-name="uni20A9" unicode="&#x20a9;" horiz-adv-x="1970" vert-adv-y="2263" 
d="M66 670v145h217l-152 608h260l131 -608h215l160 608h227l144 -608h196l123 608h256l-149 -608h211v-145h-246l-172 -723h-225l-166 723h-197l-182 -723h-217l-181 723h-253zM551 670l65 -324l86 324h-151zM1298 670l78 -336l60 336h-138zM1006 1085l-70 -270h127z" />
    <glyph glyph-name="uni2010" unicode="&#x2010;" horiz-adv-x="860" vert-adv-y="2263" 
d="M807 711v-232h-754v232h754z" />
    <glyph glyph-name="copyright" unicode="&#xa9;" horiz-adv-x="1654" vert-adv-y="2263" 
d="M856 55q181 0 322.5 80t219 223.5t77.5 327.5q0 186 -80 330.5t-220.5 222.5t-318.5 78q-175 0 -313.5 -78t-217.5 -222.5t-79 -330.5q0 -183 78.5 -327t218 -224t313.5 -80zM856 -68q-166 0 -307 59.5t-237 161.5t-149.5 240t-53.5 293q0 157 53.5 295t149.5 239.5
t237 160.5t307 59q171 0 314.5 -59t239.5 -160.5t149 -239.5t53 -295q0 -156 -53.5 -293.5t-150 -239.5t-239.5 -161.5t-313 -59.5zM874 1116q97 0 168 -24t142 -80l-103 -156q-47 37 -94 54.5t-113 17.5q-77 0 -121 -50.5t-44 -136.5v-106q0 -94 46 -145.5t122 -51.5
q135 0 227 72l96 -158q-118 -102 -328 -102q-186 0 -283 101t-97 282v108q0 178 101 276.5t281 98.5z" />
    <glyph glyph-name="Korea1.99" horiz-adv-x="1452" vert-adv-y="2263" 
d="M637 756v667h217l154 -362h4l176 362h205v-667h-179v403l-135 -274h-141l-137 303h-4v-432h-160zM209 756v528h-182v139h557v-139h-183v-528h-192z" />
    <glyph glyph-name="Korea1.100" vert-adv-y="2263" 
d="M248 -152v267h260v-267h-260zM801 -152v267h260v-267h-260zM1354 -152v267h260v-267h-260z" />
    <glyph glyph-name="uni3164" unicode="&#x3000;" vert-adv-y="2263" 
 />
    <glyph glyph-name="uni3164" unicode="&#x3164;" vert-adv-y="2263" 
 />
    <glyph glyph-name="uni3001" unicode="&#x3001;" vert-adv-y="2263" 
d="M680 -88l-176 -162q-101 138 -193 233t-217 193l162 152q130 -98 223.5 -189.5t200.5 -226.5z" />
    <glyph glyph-name="uni3002" unicode="&#x3002;" vert-adv-y="2263" 
d="M356 -88q74 0 119 48t45 120q0 70 -45.5 119t-118.5 49q-76 0 -118.5 -48.5t-42.5 -119.5q0 -74 42 -121t119 -47zM356 -233q-141 0 -230 89.5t-89 223.5q0 132 89.5 221.5t229.5 89.5t229 -89t89 -222t-90 -223t-228 -90z" />
    <glyph glyph-name="uni30FB" unicode="&#x30fb;" horiz-adv-x="862" vert-adv-y="2263" 
d="M299 487v263h264v-263h-264z" />
    <glyph glyph-name="twodotenleader" unicode="&#x2025;" vert-adv-y="2263" 
d="M508 487v263h264v-263h-264zM1090 487v263h264v-263h-264z" />
    <glyph glyph-name="uni22EF" unicode="&#x2026;" vert-adv-y="2263" 
d="M799 487v263h264v-263h-264zM246 487v263h264v-263h-264zM1352 487v263h264v-263h-264z" />
    <glyph glyph-name="uni22EF" unicode="&#x22ef;" vert-adv-y="2263" 
d="M799 487v263h264v-263h-264zM246 487v263h264v-263h-264zM1352 487v263h264v-263h-264z" />
    <glyph glyph-name="dieresis" unicode="&#xa8;" horiz-adv-x="856" vert-adv-y="2263" 
d="M117 1190v229h225v-229h-225zM514 1190v229h225v-229h-225z" />
    <glyph glyph-name="uni3003" unicode="&#x3003;" vert-adv-y="2263" 
d="M702 922h283l-323 -654h-177zM1096 922h282l-323 -654h-176z" />
    <glyph glyph-name="endash" unicode="&#x2013;" horiz-adv-x="897" vert-adv-y="2263" 
d="M897 731v-168h-897v168h897z" />
    <glyph glyph-name="emdash" unicode="&#x2014;" horiz-adv-x="1794" vert-adv-y="2263" 
d="M1794 731v-168h-1794v168h1794z" />
    <glyph glyph-name="uni2016" unicode="&#x2016;" vert-adv-y="2263" 
d="M1169 1597v-1966h-116v1966h116zM809 1597v-1966h-115v1966h115z" />
    <glyph glyph-name="uniFF3C" unicode="&#xff3c;" vert-adv-y="2263" 
d="M147 1552l1631 -1804l-64 -63l-1628 1800z" />
    <glyph glyph-name="uniFF5E" unicode="&#xff5e;" vert-adv-y="2263" 
d="M1436 750l84 -56q-48 -78 -136 -135t-174 -57q-84 0 -146 17t-132 54q-159 84 -279 84q-138 0 -225 -129l-84 56q48 78 135.5 135t173.5 57q84 0 147.5 -17t131.5 -54q75 -41 139 -62.5t139 -21.5q139 0 226 129z" />
    <glyph glyph-name="quoteleft" unicode="&#x2018;" horiz-adv-x="409" vert-adv-y="2263" 
d="M385 1587l-82 -473h-278l163 473h197z" />
    <glyph glyph-name="quoteright" unicode="&#x2019;" horiz-adv-x="409" vert-adv-y="2263" 
d="M25 1081l81 473h279l-164 -473h-196z" />
    <glyph glyph-name="quotedblleft" unicode="&#x201c;" horiz-adv-x="716" vert-adv-y="2263" 
d="M381 1587l-86 -473h-250l164 473h172zM688 1587l-86 -473h-250l164 473h172z" />
    <glyph glyph-name="quotedblright" unicode="&#x201d;" horiz-adv-x="716" vert-adv-y="2263" 
d="M336 1081l86 473h250l-164 -473h-172zM29 1081l86 473h250l-164 -473h-172z" />
    <glyph glyph-name="uni3014" unicode="&#x3014;" horiz-adv-x="704" vert-adv-y="2263" 
d="M70 1255l501 281l74 -125l-424 -237v-1111l424 -237l-74 -125l-501 281v1273z" />
    <glyph glyph-name="uni3015" unicode="&#x3015;" horiz-adv-x="733" vert-adv-y="2263" 
d="M143 1536l502 -281v-1273l-502 -281l-73 125l424 237v1111l-424 237z" />
    <glyph glyph-name="uni3008" unicode="&#x3008;" horiz-adv-x="956" vert-adv-y="2263" 
d="M242 616l639 -809l-105 -81l-698 890l696 891l107 -77z" />
    <glyph glyph-name="uni3009" unicode="&#x3009;" horiz-adv-x="976" vert-adv-y="2263" 
d="M190 1507l699 -891l-696 -890l-111 81l639 809l-639 814z" />
    <glyph glyph-name="uni300A" unicode="&#x300a;" horiz-adv-x="1032" vert-adv-y="2263" 
d="M479 616l498 -864l-109 -61l-538 925l538 930l109 -65zM207 616l500 -864l-113 -61l-535 925l535 930l113 -65z" />
    <glyph glyph-name="uni300B" unicode="&#x300b;" horiz-adv-x="1036" vert-adv-y="2263" 
d="M434 1546l539 -930l-539 -925l-108 61l499 864q-91 161 -267 464t-232 401zM164 1546l534 -930l-534 -925l-113 61l502 864q-163 288 -502 865z" />
    <glyph glyph-name="uni300C" unicode="&#x300c;" horiz-adv-x="718" vert-adv-y="2263" 
d="M672 1575v-154h-451v-743h-174v897h625z" />
    <glyph glyph-name="uni300D" unicode="&#x300d;" horiz-adv-x="718" vert-adv-y="2263" 
d="M672 555v-897h-625v154h451v743h174z" />
    <glyph glyph-name="uni300E" unicode="&#x300e;" horiz-adv-x="790" vert-adv-y="2263" 
d="M252 1376h344v80h-422v-663h78v583zM717 1575v-313h-340v-584h-324v897h664z" />
    <glyph glyph-name="uni300F" unicode="&#x300f;" horiz-adv-x="770" vert-adv-y="2263" 
d="M174 -223h422v667h-82v-583h-340v-84zM717 559v-897h-664v313h340v584h324z" />
    <glyph glyph-name="uni3010" unicode="&#x3010;" horiz-adv-x="765" vert-adv-y="2263" 
d="M715 -268h-664v1765h662q-220 -141 -348.5 -376.5t-128.5 -510.5q0 -272 129 -505t350 -373z" />
    <glyph glyph-name="uni3011" unicode="&#x3011;" horiz-adv-x="782" vert-adv-y="2263" 
d="M723 1497v-1769h-664q219 140 349.5 375.5t130.5 506.5q0 274 -130.5 509.5t-351.5 377.5h666z" />
    <glyph glyph-name="plusminus" unicode="&#xb1;" horiz-adv-x="1269" vert-adv-y="2263" 
d="M518 1335h234v-385h413v-217h-413v-389h-234v389h-414v217h414v385zM104 31v217h1061v-217h-1061z" />
    <glyph glyph-name="multiply" unicode="&#xd7;" horiz-adv-x="1269" vert-adv-y="2263" 
d="M111 242l378 403l-378 399l135 132l377 -400l381 406l129 -125l-379 -408l379 -403l-134 -129l-381 403l-378 -403z" />
    <glyph glyph-name="divide" unicode="&#xf7;" horiz-adv-x="1269" vert-adv-y="2263" 
d="M106 756h1057v-213h-1057v213zM516 940v229h234v-229h-234zM516 129v229h234v-229h-234z" />
    <glyph glyph-name="notequal" unicode="&#x2260;" horiz-adv-x="1269" vert-adv-y="2263" 
d="M152 764v215h579l152 233h204l-151 -233h182v-215h-325l-140 -217h465v-215h-608l-148 -230h-204l147 230h-153v215h297l139 217h-436z" />
    <glyph glyph-name="lessequal" unicode="&#x2264;" horiz-adv-x="1269" vert-adv-y="2263" 
d="M1120 301l-983 424v242l983 424v-254l-714 -285v-2l714 -293v-256zM150 272h970v-217h-970v217z" />
    <glyph glyph-name="greaterequal" unicode="&#x2265;" horiz-adv-x="1269" vert-adv-y="2263" 
d="M1120 725l-983 -424v256l715 293v2l-715 285v254l983 -424v-242zM137 272h971v-217h-971v217z" />
    <glyph glyph-name="infinity" unicode="&#x221e;" horiz-adv-x="1269" vert-adv-y="2263" 
d="M635 498q-70 -92 -146.5 -137.5t-185.5 -45.5q-130 0 -205 82t-75 217t77 218t219 83q48 0 90 -11.5t71 -26t60.5 -43t48.5 -48t46 -55.5q70 92 146.5 138t185.5 46q130 0 205 -82t75 -217t-77.5 -218t-219.5 -83q-48 0 -90 11t-70.5 25.5t-60 43t-48.5 48t-46 55.5z
M954 756q-62 0 -111.5 -37.5t-103.5 -104.5q48 -63 98.5 -102t114.5 -39q60 0 92.5 38.5t32.5 104.5q0 140 -123 140zM315 475q63 0 113.5 36t101.5 99q-50 67 -100 107.5t-113 40.5q-60 0 -92 -39t-32 -105q0 -139 122 -139z" />
    <glyph glyph-name="therefore" unicode="&#x2234;" horiz-adv-x="1269" vert-adv-y="2263" 
d="M428 297q0 -65 -46 -111.5t-112 -46.5q-62 0 -109.5 47t-47.5 111q0 60 48 108t109 48q65 0 111.5 -47.5t46.5 -108.5zM1157 297q0 -63 -48.5 -110.5t-109.5 -47.5q-67 0 -112 46.5t-45 111.5q0 62 45.5 109t111.5 47q60 0 109 -48t49 -108zM770 1012q0 -62 -47.5 -111
t-108.5 -49t-110 49t-49 111q0 63 48 109t111 46q62 0 109 -45.5t47 -109.5z" />
    <glyph glyph-name="degree" unicode="&#xb0;" horiz-adv-x="659" vert-adv-y="2263" 
d="M600 1247q0 -113 -75 -191.5t-195 -78.5t-195.5 78.5t-75.5 191.5t75.5 192t195.5 79t195 -79t75 -192zM453 1247q0 54 -33.5 90.5t-89.5 36.5t-89.5 -36.5t-33.5 -90.5t33.5 -90.5t89.5 -36.5t89.5 36.5t33.5 90.5z" />
    <glyph glyph-name="minute" unicode="&#x2032;" horiz-adv-x="817" vert-adv-y="2263" 
d="M346 1516h266l-280 -549h-127z" />
    <glyph glyph-name="second" unicode="&#x2033;" horiz-adv-x="1228" vert-adv-y="2263" 
d="M346 1516h268l-280 -549h-129zM756 1516h268l-281 -549h-129z" />
    <glyph glyph-name="uni2103" unicode="&#x2103;" horiz-adv-x="1773" vert-adv-y="2263" 
d="M510 1286q0 -81 -59 -138.5t-148 -57.5t-148 57.5t-59 138.5t59 139t148 58t148 -58t59 -139zM385 1286q0 33 -23 56.5t-59 23.5t-59 -23.5t-23 -56.5t23 -56.5t59 -23.5t59 23.5t23 56.5zM1122 1446q160 0 279 -37.5t229 -126.5l-141 -201q-85 71 -171 97t-196 26
q-352 0 -352 -454v-152q0 -113 28.5 -198.5t78 -134.5t110.5 -73t133 -24q257 0 406 154l139 -201q-63 -61 -136 -102.5t-148 -61t-137.5 -26.5t-133.5 -7q-99 0 -186.5 22t-165 70.5t-133 119.5t-87.5 175.5t-32 233.5v264q0 161 47.5 285t132.5 200t195 114t241 38z" />
    <glyph glyph-name="uni212B" unicode="&#x212b;" horiz-adv-x="1409" vert-adv-y="2263" 
d="M915 1405q0 -69 -43 -125l502 -1333h-284l-144 405h-497l-146 -405h-268l493 1327q-47 53 -47 131q0 86 61.5 146.5t155.5 60.5t155.5 -60.5t61.5 -146.5zM625 872l-101 -301h346l-100 301q-48 134 -74 228q-38 -134 -71 -228zM786 1405q0 35 -25.5 60.5t-62.5 25.5
t-62.5 -25.5t-25.5 -60.5t25.5 -60.5t62.5 -25.5t62.5 25.5t25.5 60.5z" />
    <glyph glyph-name="uniFFE0" unicode="&#xffe0;" horiz-adv-x="1064" vert-adv-y="2263" 
d="M545 -53v184q-228 9 -352.5 141.5t-124.5 362.5v110q0 226 128 356t349 138v184h112v-186q74 -7 137.5 -29t99 -44t87.5 -60l-121 -182q-103 78 -203 94v-660q125 16 224 90l127 -180q-51 -48 -142.5 -85t-208.5 -48v-186h-112zM322 745v-106q0 -74 21 -131t55 -88.5
t71 -48t76 -19.5v666q-40 -3 -76.5 -18.5t-71 -45.5t-55 -84t-20.5 -125z" />
    <glyph glyph-name="uniFFE1" unicode="&#xffe1;" horiz-adv-x="1048" vert-adv-y="2263" 
d="M90 600v172h111v172q0 250 147.5 389.5t384.5 139.5q100 0 187 -22.5t131 -55.5l-82 -217q-90 55 -221 55q-55 0 -103.5 -15t-90.5 -47t-66.5 -91t-24.5 -138v-170h426v-172h-426v-86q0 -144 -17.5 -210t-76.5 -132v-4h665v-221h-1007v174q92 55 133 141t41 236v102h-111
z" />
    <glyph glyph-name="uniFFE5" unicode="&#xffe5;" horiz-adv-x="1142" vert-adv-y="2263" 
d="M451 -53v270h-330v189h330v69h-330v193h289l-400 741h262l308 -610h2l315 610h240l-410 -741h295v-193h-334v-69h334v-189h-334v-270h-237z" />
    <glyph glyph-name="male" unicode="&#x2642;" vert-adv-y="2263" 
d="M451 512q0 -144 100 -249t244 -105q140 0 242 105.5t102 248.5q0 146 -101.5 250t-242.5 104q-145 0 -244.5 -103.5t-99.5 -250.5zM223 512q0 117 44.5 222.5t120.5 182t182 121.5t225 45q198 0 329 -100q37 38 93 92t88 86h-162v197h495v-494h-198v162
q-116 -120 -180 -180q104 -139 104 -334q0 -154 -76 -285t-207 -207.5t-286 -76.5q-118 0 -224.5 45t-182.5 121.5t-120.5 181.5t-44.5 221z" />
    <glyph glyph-name="female" unicode="&#x2640;" vert-adv-y="2263" 
d="M588 938q0 -144 100 -249t244 -105q142 0 243 105.5t101 248.5q0 145 -101 249.5t-243 104.5q-145 0 -244.5 -104t-99.5 -250zM831 174v203q-204 31 -336.5 187.5t-132.5 373.5q0 116 44 221t119.5 181.5t182 121.5t224.5 45q156 0 287 -76.5t206.5 -207.5t75.5 -285
q0 -218 -133 -376.5t-336 -186.5v-201h271v-203h-271v-262h-201v262h-272v203h272z" />
    <glyph glyph-name="angle" unicode="&#x2220;" vert-adv-y="2263" 
d="M1556 158v-158h-1253v109l963 1122l125 -107l-840 -966h1005z" />
    <glyph glyph-name="perpendicular" unicode="&#x22a5;" vert-adv-y="2263" 
d="M1585 158v-158h-1306v158h569v1022h164v-1022h573z" />
    <glyph glyph-name="uni2312" unicode="&#x2312;" vert-adv-y="2263" 
d="M1477 1174h-160q-53 100 -150 159.5t-233 59.5q-138 0 -236.5 -59.5t-154.5 -159.5h-158q81 156 216.5 244.5t328.5 88.5q368 0 547 -333z" />
    <glyph glyph-name="partialdiff" unicode="&#x2202;" horiz-adv-x="1122" vert-adv-y="2263" 
d="M498 166q116 0 198 115t103 278q-25 72 -94 125t-160 53q-109 0 -184.5 -91.5t-75.5 -227.5q0 -116 60 -184t153 -68zM180 1219l-71 161q41 24 67 37t76.5 34t108 31.5t120.5 10.5q116 0 219.5 -50t182 -142t124.5 -232t46 -309q0 -188 -47 -339t-127 -247t-183.5 -146.5
t-220.5 -50.5q-105 0 -189 38.5t-135 101.5t-77.5 140t-26.5 159q0 139 57.5 255t162 183.5t233.5 67.5q113 0 193 -48.5t126 -121.5h2q9 98 -9.5 193.5t-61.5 175t-118 128.5t-171 49q-139 0 -281 -79z" />
    <glyph glyph-name="gradient" unicode="&#x2207;" vert-adv-y="2263" 
d="M117 1233h1630l-815 -1290zM932 197l559 899h-1122z" />
    <glyph glyph-name="equivalence" unicode="&#x2261;" horiz-adv-x="1269" vert-adv-y="2263" 
d="M1192 567h-1116v150h1116v-150zM1192 887h-1116v145h1116v-145zM1192 248h-1116v145h1116v-145z" />
    <glyph glyph-name="uni2252" unicode="&#x2252;" horiz-adv-x="1269" vert-adv-y="2263" 
d="M834 170q0 52 38 89.5t91 37.5q52 0 88 -37t36 -90t-36 -91t-88 -38q-53 0 -91 38.5t-38 90.5zM158 1108q0 52 37.5 90.5t87.5 38.5q53 0 91 -38.5t38 -90.5t-38 -88.5t-91 -36.5q-50 0 -87.5 36.5t-37.5 88.5zM76 737v140h1118v-140h-1118zM76 406v141h1118v-141h-1118z
" />
    <glyph glyph-name="section" unicode="&#xa7;" horiz-adv-x="1132" vert-adv-y="2263" 
d="M627 707l-138 41l-18 4q-77 -10 -115.5 -48t-38.5 -98q0 -68 37 -104.5t138 -65.5l139 -41l24 -8q158 30 158 148q0 68 -38 103t-148 69zM522 -352q-246 0 -393 86v215q66 -27 103 -40t106 -25.5t147 -12.5q232 0 232 141q0 65 -32 96t-132 60l-166 45q-80 21 -138 47
t-107 67t-74 102t-25 142q0 208 199 279q-103 100 -103 266q0 172 118.5 269.5t348.5 97.5q207 0 348 -74v-213q-148 66 -321 66q-211 0 -211 -132q0 -63 28 -93t113 -58l176 -47q92 -25 153.5 -51.5t110 -67.5t71 -100t22.5 -140q0 -220 -193 -286q111 -94 111 -254
q0 -189 -125 -287t-367 -98z" />
    <glyph glyph-name="uni203B" unicode="&#x203b;" horiz-adv-x="1884" vert-adv-y="2263" 
d="M1741 1268l-662 -658l666 -655q-16 -16 -69 -67.5t-81 -80.5q-119 119 -338 344t-315 322l-649 -666q-1 1 -154 148l666 655l-662 658l140 153l655 -671l661 671q13 -13 142 -153zM1139 1219q0 -77 -60 -137t-139 -60t-138 60t-59 137q0 80 57 138t138 58
q80 0 140.5 -58.5t60.5 -137.5zM535 608q0 -77 -60.5 -136.5t-138.5 -59.5q-77 0 -138 60t-61 136q0 79 60 138t137 59q78 0 139.5 -59.5t61.5 -137.5zM1778 608q0 -79 -56 -135.5t-137 -56.5q-79 0 -139 57.5t-60 134.5q0 83 58.5 140t138.5 57q82 0 138.5 -56.5
t56.5 -140.5zM1137 -16q0 -79 -58 -137t-139 -58q-79 0 -135.5 58t-56.5 137q0 80 54.5 136t135.5 56q80 0 139.5 -56.5t59.5 -135.5z" />
    <glyph glyph-name="uni2606" unicode="&#x2606;" vert-adv-y="2263" 
d="M1065 750l-131 395l-131 -395h-426l342 -254l-133 -396l348 242l338 -242l-123 396l336 254h-420zM936 1540l225 -666h703l-572 -423l217 -672l-573 403l-584 -403l219 672l-575 423h717z" />
    <glyph glyph-name="uni2605" unicode="&#x2605;" vert-adv-y="2263" 
d="M936 1540l225 -666h703l-572 -423l217 -672l-573 403l-584 -403l219 672l-575 423h717z" />
    <glyph glyph-name="circle" unicode="&#x25cb;" vert-adv-y="2263" 
d="M340 664q0 -161 79.5 -298t216.5 -216.5t298 -79.5q122 0 232 47t189 126.5t125 189.5t46 231q0 162 -78 297.5t-214.5 214.5t-299.5 79q-121 0 -231 -46.5t-189.5 -125.5t-126.5 -188.5t-47 -230.5zM184 664q0 152 59.5 290t160 238.5t239.5 159.5t291 59
q153 0 291.5 -59t238.5 -159.5t158.5 -238.5t58.5 -290q0 -153 -58.5 -292.5t-158.5 -240t-238.5 -160t-291.5 -59.5t-291.5 59.5t-239 160t-160 240t-59.5 292.5z" />
    <glyph glyph-name="H18533" unicode="&#x25cf;" vert-adv-y="2263" 
d="M184 664q0 152 59.5 290t160 238.5t239.5 159.5t291 59q153 0 291.5 -59t238.5 -159.5t158.5 -238.5t58.5 -290q0 -153 -58.5 -292.5t-158.5 -240t-238.5 -160t-291.5 -59.5t-291.5 59.5t-239 160t-160 240t-59.5 292.5z" />
    <glyph glyph-name="uni25CE" unicode="&#x25ce;" vert-adv-y="2263" 
d="M627 664q0 -128 90 -218t217 -90q126 0 215.5 90.5t89.5 217.5q0 124 -90 214.5t-215 90.5q-127 0 -217 -90.5t-90 -214.5zM494 664q0 119 58.5 220.5t160 160.5t221.5 59t221.5 -59t160 -160.5t58.5 -220.5q0 -183 -128.5 -312t-311.5 -129t-311.5 129t-128.5 312z
M344 664q0 -160 79 -296t215 -215t296 -79q162 0 298.5 79t215 214.5t78.5 296.5q0 120 -46.5 229t-125.5 188.5t-189 126.5t-231 47q-160 0 -296 -79.5t-215 -216t-79 -295.5zM184 664q0 152 59.5 290t160 238.5t239.5 159.5t291 59q153 0 291.5 -59t238.5 -159.5
t158.5 -238.5t58.5 -290q0 -153 -58.5 -292.5t-158.5 -240t-238.5 -160t-291.5 -59.5t-291.5 59.5t-239 160t-160 240t-59.5 292.5z" />
    <glyph glyph-name="uni25C7" unicode="&#x25c7;" vert-adv-y="2263" 
d="M1528 662l-596 598l-602 -596l602 -605zM119 662l813 813l811 -813l-811 -814z" />
    <glyph glyph-name="uni25C6" unicode="&#x25c6;" vert-adv-y="2263" 
d="M934 -152l-815 816l813 811l813 -813z" />
    <glyph glyph-name="H22073" unicode="&#x25a1;" vert-adv-y="2263" 
d="M1497 1225h-1124v-1123h1124v1123zM215 -57v1435h1436v-1435h-1436z" />
    <glyph glyph-name="filledbox" unicode="&#x25a0;" vert-adv-y="2263" 
d="M1649 -57h-1438v1435h1438v-1435z" />
    <glyph glyph-name="uni25B3" unicode="&#x25b3;" vert-adv-y="2263" 
d="M381 76h1089l-542 1087zM1698 -55h-1536l770 1525z" />
    <glyph glyph-name="triagup" unicode="&#x25b2;" vert-adv-y="2263" 
d="M1696 -76h-1532l768 1526z" />
    <glyph glyph-name="uni25BD" unicode="&#x25bd;" vert-adv-y="2263" 
d="M1475 1247h-1090l547 -1087zM162 1380h1536l-766 -1525z" />
    <glyph glyph-name="triagdn" unicode="&#x25bc;" vert-adv-y="2263" 
d="M164 1380h1532l-764 -1525z" />
    <glyph glyph-name="arrowright" unicode="&#x2192;" vert-adv-y="2263" 
d="M213 643v121h1133l-154 260l31 35l426 -354l-426 -355l-31 35l154 258h-1133z" />
    <glyph glyph-name="arrowleft" unicode="&#x2190;" vert-adv-y="2263" 
d="M1649 764v-121h-1133l154 -258l-31 -35l-426 355l426 354l31 -35l-154 -260h1133z" />
    <glyph glyph-name="arrowup" unicode="&#x2191;" vert-adv-y="2263" 
d="M991 0h-119v1133l-260 -154l-34 31l354 426l354 -426l-35 -31l-260 154v-1133z" />
    <glyph glyph-name="arrowdown" unicode="&#x2193;" vert-adv-y="2263" 
d="M872 1407h119v-1131l260 152l35 -31l-354 -426l-354 426l34 31l260 -152v1131z" />
    <glyph glyph-name="arrowboth" unicode="&#x2194;" vert-adv-y="2263" 
d="M424 643l154 -258l-31 -35l-426 355l426 354l31 -35l-154 -260h1016l-154 260l31 35l426 -354l-426 -355l-31 35l154 258h-1016z" />
    <glyph glyph-name="uni3013" unicode="&#x3013;" vert-adv-y="2263" 
d="M1595 879v-78h-1327v78h1327zM1595 477v-78h-1327v78h1327z" />
    <glyph glyph-name="guillemotleft" unicode="&#xab;" vert-adv-y="2263" 
d="M780 621l891 -582l-65 -109l-988 643v93l971 665l80 -104zM354 618l895 -585l-73 -111l-983 651v93l968 671l76 -108z" />
    <glyph glyph-name="guillemotright" unicode="&#xbb;" vert-adv-y="2263" 
d="M1670 666v-93l-983 -651l-70 111l891 585q-447 306 -882 611l80 108zM1248 666v-93l-987 -643l-69 109l890 577l-393 272l-509 351q7 -5 18 -12l80 104z" />
    <glyph glyph-name="radical" unicode="&#x221a;" horiz-adv-x="1175" vert-adv-y="2263" 
d="M1212 1638l-469 -1886h-165l-322 862l-154 -63l-47 115l316 131l278 -811h6l392 1652h165z" />
    <glyph glyph-name="uni223D" unicode="&#x223d;" vert-adv-y="2263" 
d="M1698 647q0 -160 -107.5 -274.5t-267.5 -114.5q-125 0 -250 92l66 107q89 -66 184 -66q104 0 171 73t67 183q0 99 -67 175.5t-169 76.5q-105 0 -179.5 -66.5t-148.5 -205.5q-68 -128 -114 -187q-141 -180 -346 -180q-70 0 -135.5 25t-118.5 72t-85 122t-32 168
q0 118 53.5 207t136.5 132.5t179 43.5q123 0 256 -86l-68 -108q-96 59 -174 59q-109 0 -176.5 -69t-67.5 -179q0 -114 64 -182t178 -68q41 0 79.5 12.5t66.5 29t58.5 48.5t48 53.5t42 62.5t33 57.5t28.5 54.5q157 315 418 315q106 0 193.5 -54t135.5 -141.5t48 -187.5z" />
    <glyph glyph-name="proportional" unicode="&#x221d;" vert-adv-y="2263" 
d="M616 393q197 0 324 252q-133 254 -324 254q-111 0 -178 -71t-67 -181q0 -117 64 -185.5t181 -68.5zM1628 942l-69 -104q-97 65 -166 65q-105 0 -178 -63t-144 -195q70 -133 143.5 -195.5t178.5 -62.5q79 0 161 45l43 -115q-102 -57 -204 -57q-122 0 -220.5 73.5
t-168.5 186.5q-25 -42 -48 -74t-59 -68.5t-74.5 -60t-93 -39.5t-115.5 -16q-71 0 -137.5 25t-121.5 71t-88.5 121.5t-33.5 167.5q0 89 32.5 163t86.5 121t121.5 73t138.5 26q74 0 137 -22.5t110.5 -63.5t80 -81.5t64.5 -94.5q152 262 389 262q113 0 235 -88z" />
    <glyph glyph-name="uni2235" unicode="&#x2235;" horiz-adv-x="1200" vert-adv-y="2263" 
d="M793 1038q0 58 47 104t106 46q67 0 108.5 -44.5t41.5 -105.5q0 -63 -41.5 -107t-108.5 -44q-59 0 -106 45t-47 106zM80 1038q0 59 45.5 104.5t103.5 45.5q67 0 110.5 -44.5t43.5 -105.5q0 -63 -43 -107t-111 -44q-59 0 -104 45t-45 106zM440 291q0 67 43.5 109t106.5 42
q67 0 110 -41.5t43 -109.5q0 -59 -44.5 -105.5t-108.5 -46.5q-60 0 -105 47t-45 105z" />
    <glyph glyph-name="integral" unicode="&#x222b;" horiz-adv-x="706" vert-adv-y="2263" 
d="M688 1583l-24 -158q-52 9 -72 9q-29 0 -55 -15.5t-39 -42.5q-49 -67 -49 -307q0 -149 14 -467t14 -487q0 -268 -76 -383q-77 -135 -243 -135q-96 0 -131 24l26 164q46 -12 78 -12q53 0 90 43q55 82 55 293q0 170 -14 497t-14 484q0 159 28 256.5t89 166.5q75 84 215 84
q73 0 108 -14z" />
    <glyph glyph-name="uni222C" unicode="&#x222c;" horiz-adv-x="1259" vert-adv-y="2263" 
d="M1192 1573l-25 -158q-46 8 -71 8q-28 0 -54 -14.5t-41 -40.5q-51 -68 -51 -307q0 -150 15.5 -463.5t15.5 -482.5q0 -268 -76 -383q-38 -69 -102 -102t-141 -33q-94 0 -132 24l29 164q40 -12 76 -12q51 0 88 43q59 77 59 293q0 170 -15 491.5t-15 478.5q0 160 27.5 258.5
t88.5 165.5q75 84 215 84q74 0 109 -14zM690 1573l-24 -158q-46 8 -72 8q-29 0 -55 -14.5t-39 -40.5q-51 -68 -51 -307q0 -150 14 -463.5t14 -482.5q0 -271 -74 -383q-77 -135 -243 -135q-98 0 -133 24l26 164q46 -12 78 -12q53 0 90 43q58 80 58 293q0 170 -14.5 491.5
t-14.5 478.5q0 160 28 258.5t89 165.5q75 84 213 84q75 0 110 -14z" />
    <glyph glyph-name="element" unicode="&#x2208;" vert-adv-y="2263" 
d="M1628 721v-176h-1194q22 -119 114 -190.5t265 -71.5h819v-177h-813q-149 0 -264 41.5t-185 114t-105.5 166.5t-35.5 205q0 105 34.5 194.5t103 159t183 109t263.5 39.5h819v-177h-819q-169 0 -262.5 -67t-114.5 -170h1192z" />
    <glyph glyph-name="suchthat" unicode="&#x220b;" vert-adv-y="2263" 
d="M233 545v176h1192q-21 103 -114 170t-262 67h-820v177h820q149 0 263 -39.5t183 -109.5t103 -159t34 -194q0 -111 -35.5 -205t-105.5 -166.5t-185 -114t-264 -41.5h-813v177h820q173 0 264.5 71t113.5 191h-1194z" />
    <glyph glyph-name="reflexsubset" unicode="&#x2286;" vert-adv-y="2263" 
d="M1628 131v-180h-1327v180h1327zM1632 1229v-180h-819q-205 0 -299 -78.5t-94 -208.5q0 -140 94.5 -219.5t298.5 -79.5h819v-180h-813q-149 0 -263.5 37t-185 103t-106 153t-35.5 192q0 98 34.5 180t103 146t183 99.5t263.5 35.5h819z" />
    <glyph glyph-name="reflexsuperset" unicode="&#x2287;" vert-adv-y="2263" 
d="M229 1049v180h824q149 0 262.5 -35.5t181.5 -99.5t101.5 -145.5t33.5 -180.5q0 -105 -35.5 -192t-106 -153t-185 -103t-263.5 -37h-813v180h824q202 0 295.5 79.5t93.5 219.5q0 131 -92.5 209t-296.5 78h-824zM233 -49v180h1328v-180h-1328z" />
    <glyph glyph-name="propersubset" unicode="&#x2282;" vert-adv-y="2263" 
d="M1632 1143v-180h-819q-203 0 -298 -88t-95 -228q0 -150 95 -239t298 -89h819v-180h-813q-149 0 -263.5 40t-185 110.5t-106 162.5t-35.5 201q0 104 34.5 191t103 155t183 106t263.5 38h819z" />
    <glyph glyph-name="propersuperset" unicode="&#x2283;" vert-adv-y="2263" 
d="M229 942v180h824q149 0 262.5 -38t181.5 -105.5t101.5 -154.5t33.5 -191q0 -109 -35.5 -201t-106 -162.5t-185 -110.5t-263.5 -40h-813v180h824q200 0 294.5 89.5t94.5 238.5q0 140 -93 227.5t-296 87.5h-824z" />
    <glyph glyph-name="union" unicode="&#x222a;" vert-adv-y="2263" 
d="M420 1305h188v-824q0 -103 25 -181.5t69.5 -124.5t100 -68.5t121.5 -22.5q148 0 237.5 98t89.5 299v824h189v-813q0 -149 -41 -264t-113.5 -185t-165.5 -105.5t-202 -35.5q-104 0 -192 33.5t-157.5 101.5t-109 181.5t-39.5 262.5v824z" />
    <glyph glyph-name="intersection" unicode="&#x2229;" vert-adv-y="2263" 
d="M932 1305q110 0 200.5 -35.5t159.5 -106t107.5 -185t38.5 -263.5v-813h-189v823q0 203 -85.5 303t-231.5 100q-149 0 -235.5 -100t-86.5 -303v-823h-188v813q0 149 38.5 263.5t108 185t161 106t202.5 35.5z" />
    <glyph glyph-name="logicaland" unicode="&#x2227;" vert-adv-y="2263" 
d="M987 1210l602 -1161l-123 -61l-534 1036l-539 -1036l-123 61l602 1161h115z" />
    <glyph glyph-name="logicalor" unicode="&#x2228;" vert-adv-y="2263" 
d="M1466 1229l123 -60l-602 -1163h-115l-602 1163l123 60l539 -1039z" />
    <glyph glyph-name="uniFFE2" unicode="&#xffe2;" vert-adv-y="2263" 
d="M1804 336v-649h-133v516h-1616v133h1749z" />
    <glyph glyph-name="arrowdblright" unicode="&#x21d2;" vert-adv-y="2263" 
d="M1317 1169l557 -559l-557 -561l-88 90l223 221h-1462v123h1583l129 127l-129 129h-1583v123h1460l-221 221z" />
    <glyph glyph-name="arrowdblboth" unicode="&#x21d4;" vert-adv-y="2263" 
d="M1575 483l129 127l-129 129h-1284l-129 -129l129 -127h1284zM1319 1169l557 -559l-557 -561l-88 90l223 221h-1042l223 -221l-88 -90l-557 561l557 559l88 -86l-221 -221h1038l-221 221z" />
    <glyph glyph-name="universal" unicode="&#x2200;" vert-adv-y="2263" 
d="M817 -53l-555 1476h285l143 -405h498l145 405h269l-549 -1476h-236zM1012 498l100 301h-346l100 -301q48 -134 74 -228q34 121 72 228z" />
    <glyph glyph-name="existential" unicode="&#x2203;" vert-adv-y="2263" 
d="M465 1423h950v-1476h-964v217h704v432h-647v213h647v397h-690v217z" />
    <glyph glyph-name="acute" unicode="&#xb4;" horiz-adv-x="1269" vert-adv-y="2263" 
d="M598 1151h-233l231 317h305z" />
    <glyph glyph-name="tilde" unicode="&#x2dc;" horiz-adv-x="1269" vert-adv-y="2263" 
d="M299 1163q11 131 76.5 196.5t150.5 65.5q46 0 119 -33.5t94 -33.5q53 0 68 74h160q-13 -131 -79 -197t-149 -66q-46 0 -119 34t-94 34q-31 0 -46.5 -16.5t-22.5 -57.5h-158z" />
    <glyph glyph-name="caron" unicode="&#x2c7;" horiz-adv-x="1269" vert-adv-y="2263" 
d="M956 1462l-221 -321h-203l-223 321h183q22 -26 70.5 -74t70.5 -73q24 26 72 73.5t71 73.5h180z" />
    <glyph glyph-name="breve" unicode="&#x2d8;" horiz-adv-x="1269" vert-adv-y="2263" 
d="M635 1182q-127 0 -204.5 69t-86.5 191h176q14 -61 36 -88t79 -27q59 0 82 28t33 87h176q-4 -122 -82.5 -191t-208.5 -69z" />
    <glyph glyph-name="hungarumlaut" unicode="&#x2dd;" horiz-adv-x="1269" vert-adv-y="2263" 
d="M647 1130l92 322h250l-151 -322h-191zM274 1130l97 322h254l-152 -322h-199z" />
    <glyph glyph-name="ring" unicode="&#x2da;" horiz-adv-x="634" vert-adv-y="2263" 
d="M313 1212q47 0 76 25.5t29 71.5q0 47 -29.5 76.5t-75.5 29.5q-42 0 -70 -29.5t-28 -76.5q0 -46 27.5 -71.5t70.5 -25.5zM313 1106q-87 0 -149 60.5t-62 142.5q0 87 61.5 147t149.5 60q92 0 153.5 -59.5t61.5 -147.5q0 -83 -62 -143t-153 -60z" />
    <glyph glyph-name="dotaccent" unicode="&#x2d9;" horiz-adv-x="1269" vert-adv-y="2263" 
d="M514 1190v235h240v-235h-240z" />
    <glyph glyph-name="cedilla" unicode="&#xb8;" horiz-adv-x="1269" vert-adv-y="2263" 
d="M438 -416v131q106 8 155.5 32t49.5 54q0 62 -160 62v219h140v-107q101 -7 152.5 -48.5t51.5 -112.5q0 -100 -88 -156t-301 -74z" />
    <glyph glyph-name="ogonek" unicode="&#x2db;" horiz-adv-x="1269" vert-adv-y="2263" 
d="M694 -418q-111 0 -178 59t-67 150q0 80 59.5 150.5t128.5 101.5h172q-66 -54 -110 -115.5t-44 -109.5q0 -41 30 -58.5t73 -17.5q16 0 39 2t26 2v-141q-63 -23 -129 -23z" />
    <glyph glyph-name="exclamdown" unicode="&#xa1;" horiz-adv-x="655" vert-adv-y="2263" 
d="M193 1274v270h270v-270h-270zM221 1065h213l39 -1229h-291z" />
    <glyph glyph-name="questiondown" unicode="&#xbf;" horiz-adv-x="1155" vert-adv-y="2263" 
d="M461 993h278v-92q0 -103 -34 -170.5t-144 -181.5q-139 -141 -159 -165q-39 -46 -44 -93q-2 -17 -2 -55v-21q0 -58 47.5 -103.5t161.5 -45.5q178 0 324 139l153 -189q-101 -99 -212 -139.5t-261 -40.5q-221 0 -348 103.5t-127 273.5v23q0 46 7 86.5t25.5 78t33.5 64
t47.5 62t50.5 53.5t59 57q14 13 21 20q69 66 96 119t27 131v86zM731 1446v-270h-270v270h270z" />
    <glyph glyph-name="uni2236" unicode="&#x2236;" vert-adv-y="2263" 
d="M731 1133h397l-198 -195zM930 342l198 -195h-397z" />
    <glyph glyph-name="uni222E" unicode="&#x222e;" vert-adv-y="2263" 
d="M881 840q-67 -25 -110 -85t-50 -143q-7 -88 29 -149.5t106 -81.5q7 80 10 219q2 86 15 240zM1159 612q8 88 -34.5 153.5t-120.5 82.5q-10 -125 -13 -234q-3 -135 -14 -235q76 19 125.5 81t56.5 152zM1360 1329l-96 -43q-37 82 -103 82q-45 0 -86 -122t-65 -337
q115 -13 187.5 -91t62.5 -206q-10 -123 -92.5 -201t-196.5 -94q-27 -224 -88 -370q-34 -81 -83 -128.5t-108 -47.5q-125 0 -188 120l90 54q41 -84 104 -84q46 0 88.5 122.5t63.5 335.5q-108 18 -173.5 94.5t-55.5 198.5q10 117 84.5 192.5t181.5 98.5q27 229 90 379
q34 82 82.5 129t107.5 47q129 0 193 -129z" />
    <glyph glyph-name="summation" unicode="&#x2211;" horiz-adv-x="1153" vert-adv-y="2263" 
d="M117 1423h970v-221h-647l400 -522l-404 -512h666v-221h-985v184l428 547l-428 567v178z" />
    <glyph glyph-name="product" unicode="&#x220f;" horiz-adv-x="1370" vert-adv-y="2263" 
d="M1079 1200v-1319h-262v1319h-264v-1319h-262v1319h-254v223h1296v-223h-254z" />
    <glyph glyph-name="currency" unicode="&#xa4;" vert-adv-y="2263" 
d="M1599 1325l142 -137l-252 -221q92 -158 92 -344q0 -203 -111 -371l265 -234l-129 -145l-265 240q-184 -156 -423 -156q-230 0 -406 137l-254 -221l-131 145l250 220q-123 181 -123 385q0 195 102 356l-233 209l141 137l221 -197q88 73 200.5 115.5t232.5 42.5
q247 0 444 -172zM1382 623q0 193 -135 328.5t-329 135.5t-329.5 -135.5t-135.5 -328.5t135.5 -329t329.5 -136q193 0 328.5 135.5t135.5 329.5z" />
    <glyph glyph-name="uni2109" unicode="&#x2109;" horiz-adv-x="1576" vert-adv-y="2263" 
d="M846 -53h-262v1476h950v-221h-688v-422h645v-221h-645v-612zM510 1286q0 -81 -59 -138.5t-148 -57.5t-148 57.5t-59 138.5t59 139t148 58t148 -58t59 -139zM385 1286q0 33 -23 56.5t-59 23.5t-59 -23.5t-23 -56.5t23 -56.5t59 -23.5t59 23.5t23 56.5z" />
    <glyph glyph-name="perthousand" unicode="&#x2030;" horiz-adv-x="2668" vert-adv-y="2263" 
d="M616 -51h-237l883 1474h235zM469 1452q161 0 255.5 -95.5t94.5 -256.5v-80q0 -161 -94.5 -256.5t-255.5 -95.5t-255.5 95.5t-94.5 256.5v80q0 161 94.5 256.5t255.5 95.5zM469 842q82 0 115.5 46.5t33.5 135.5v72q0 88 -33.5 135t-115.5 47t-116 -47t-34 -135v-72
q0 -89 34 -135.5t116 -46.5zM1409 715q161 0 255.5 -95.5t94.5 -257.5v-79q0 -162 -94.5 -257.5t-255.5 -95.5t-255.5 95.5t-94.5 257.5v79q0 162 94.5 257.5t255.5 95.5zM1409 104q82 0 116 47t34 136v71q0 88 -34 135.5t-116 47.5t-115.5 -47.5t-33.5 -135.5v-71
q0 -89 33.5 -136t115.5 -47zM2200 715q161 0 255.5 -95.5t94.5 -257.5v-79q0 -162 -94.5 -257.5t-255.5 -95.5t-256 96t-95 257v79q0 161 95 257t256 96zM2200 104q82 0 115.5 47t33.5 136v71q0 88 -33.5 135.5t-115.5 47.5t-116 -47.5t-34 -135.5v-71q0 -89 34 -136
t116 -47z" />
    <glyph glyph-name="uni25C1" unicode="&#x25c1;" vert-adv-y="2263" 
d="M1577 1430v-1627l-1290 811zM526 614l916 -571v1147z" />
    <glyph glyph-name="uni25C0" unicode="&#x25c0;" vert-adv-y="2263" 
d="M1577 1430v-1627l-1290 811z" />
    <glyph glyph-name="uni25B7" unicode="&#x25b7;" vert-adv-y="2263" 
d="M287 1430l1290 -816l-1290 -811v1627zM418 43l915 571l-915 576v-1147z" />
    <glyph glyph-name="uni25B6" unicode="&#x25b6;" vert-adv-y="2263" 
d="M287 1430l1290 -816l-1290 -811v1627z" />
    <glyph glyph-name="uni2664" unicode="&#x2664;" vert-adv-y="2263" 
d="M1614 408q0 -138 -80.5 -228t-208.5 -90q-58 0 -111 22.5t-149 77.5q5 -81 37.5 -198.5t73.5 -194.5q17 -39 -29 -45q-92 -10 -215 -10q-120 0 -215 10q-46 6 -29 45q40 84 69.5 194.5t37.5 198.5q-87 -53 -143.5 -76.5t-112.5 -23.5q-131 0 -212 90t-81 228
q0 34 8.5 73.5t30 88t40.5 89.5t59 103t65.5 102.5t80 113.5t82 110.5t92 118.5t89.5 112.5t94 117.5q10 12 15.5 19t14 17.5t15.5 19.5q280 -353 364 -467q285 -386 314 -573q4 -24 4 -45zM1454 436q0 53 -35 134.5t-85 162.5t-127 185t-137 179.5t-138 170.5
q-78 -95 -138 -170.5t-137 -179.5t-127 -185t-85 -162.5t-35 -134.5q0 -49 16.5 -95t57.5 -81t100 -35q47 0 98.5 32.5t90.5 64.5t56 32q36 0 63 -35t23 -81q-12 -158 -51 -281q-1 -4 -3 -8.5t-3 -7t-2 -6t0 -5.5t2.5 -4t5.5 -3t10 -1q40 -4 58 -4q7 0 57 4q19 1 20.5 10.5
t-5.5 24.5q-45 144 -56 281q-2 48 23 82t63 34q14 0 41.5 -20t55.5 -44.5t68 -44.5t77 -20q60 0 102.5 35t59 81t16.5 95z" />
    <glyph glyph-name="spade" unicode="&#x2660;" vert-adv-y="2263" 
d="M1614 408q0 -138 -80.5 -228t-208.5 -90q-58 0 -111 22.5t-149 77.5q5 -81 37.5 -198.5t73.5 -194.5q17 -39 -29 -45q-92 -10 -215 -10q-120 0 -215 10q-46 6 -29 45q40 84 69.5 194.5t37.5 198.5q-87 -53 -143.5 -76.5t-112.5 -23.5q-131 0 -212 90t-81 228
q0 34 8.5 73.5t30 88t40.5 89.5t59 103t65.5 102.5t80 113.5t82 110.5t92 118.5t89.5 112.5t94 117.5q10 12 15.5 19t14 17.5t15.5 19.5q280 -353 364 -467q285 -386 314 -573q4 -24 4 -45z" />
    <glyph glyph-name="uni2661" unicode="&#x2661;" vert-adv-y="2263" 
d="M1661 985q0 -115 -48 -250t-122 -259t-174 -255t-193.5 -233t-191.5 -197q-99 94 -193.5 197t-195 233.5t-174.5 254.5t-122 259t-48 250q0 173 106.5 291.5t263.5 118.5q136 0 226.5 -90.5t136.5 -286.5q84 377 358 377q157 0 264 -118.5t107 -291.5zM1491 926
q0 146 -55.5 221.5t-184.5 75.5q-131 0 -196 -232q-12 -47 -43.5 -80.5t-79.5 -33.5q-37 0 -67.5 36.5t-43.5 77.5q-37 112 -93 172t-116 60q-132 0 -187.5 -75.5t-55.5 -221.5q0 -103 52.5 -230t141 -254.5t178.5 -235t191 -212.5q79 83 149.5 165t148 186.5t133 199.5
t92 196.5t36.5 184.5z" />
    <glyph glyph-name="heart" unicode="&#x2665;" vert-adv-y="2263" 
d="M1661 985q0 -115 -48 -250t-122 -259t-174 -255t-193.5 -233t-191.5 -197q-99 94 -193.5 197t-195 233.5t-174.5 254.5t-122 259t-48 250q0 174 107.5 292t262.5 118q136 0 226.5 -90.5t136.5 -286.5q84 377 358 377q155 0 263 -118t108 -292z" />
    <glyph glyph-name="uni2667" unicode="&#x2667;" vert-adv-y="2263" 
d="M1765 428q0 -158 -100 -273.5t-256 -115.5q-99 0 -186 51.5t-150 120.5q34 -77 59 -195.5t25 -228.5q0 -13 -11.5 -22t-25.5 -11q-72 -6 -188 -6q-121 0 -189 6q-14 2 -25 11t-11 22q0 112 23 231t56 193q-56 -67 -145.5 -119.5t-189.5 -52.5q-156 0 -254.5 115.5
t-98.5 273.5q0 98 43 183.5t122.5 138.5t176.5 53q15 0 30 -1t32 -5t27.5 -6t30 -9t26.5 -9t29.5 -12t26 -11.5t29.5 -14t27 -12.5q17 -8 35.5 -6t24.5 12q18 29 -17 64q-104 89 -146 163.5t-42 182.5q0 150 112 245t267 95t267 -95t112 -245q0 -106 -43 -180.5t-146 -165.5
q-34 -34 -16 -64q6 -10 24 -12t35 6q54 26 84 39.5t79 27t91 13.5q147 0 246.5 -112.5t99.5 -262.5zM1632 442q0 107 -72.5 176.5t-187.5 69.5q-70 0 -166 -35t-123 -35q-44 0 -73 27t-29 70q0 31 20.5 61.5t49.5 60t58.5 64.5t50 87t20.5 114q0 120 -67.5 185t-180.5 65
q-111 0 -179.5 -65t-68.5 -185q0 -62 20 -114t49 -87t57.5 -64.5t48.5 -60t20 -61.5q0 -43 -27.5 -70t-71.5 -27q-27 0 -125 35t-168 35q-114 0 -185 -69.5t-71 -176.5q0 -115 73 -189.5t194 -74.5q51 0 98 18t81 44t63.5 52t57 44t50.5 18q19 0 25 -8.5t6 -30.5
q0 -40 -30 -181.5t-30 -242.5q0 -19 27 -22q40 -6 86 -6t86 6q22 3 22 22q0 101 -27.5 242.5t-27.5 181.5q0 22 6 30.5t25 8.5q20 0 46.5 -18t56 -44t64 -52t81.5 -44t98 -18q121 0 195.5 75t74.5 189z" />
    <glyph glyph-name="club" unicode="&#x2663;" vert-adv-y="2263" 
d="M1765 428q0 -158 -100 -273.5t-256 -115.5q-99 0 -186 51.5t-150 120.5q34 -77 59 -195.5t25 -228.5q0 -13 -11.5 -22t-25.5 -11q-72 -6 -188 -6q-121 0 -189 6q-14 2 -25 11t-11 22q0 112 23 231t56 193q-56 -67 -145.5 -119.5t-189.5 -52.5q-156 0 -254.5 115.5
t-98.5 273.5q0 98 43 183.5t122.5 138.5t176.5 53q15 0 30 -1t32 -5t27.5 -6t30 -9t26.5 -9t29.5 -12t26 -11.5t29.5 -14t27 -12.5q17 -8 35.5 -6t24.5 12q18 29 -17 64q-104 89 -146 163.5t-42 182.5q0 150 112 245t267 95t267 -95t112 -245q0 -106 -43 -180.5t-146 -165.5
q-34 -34 -16 -64q6 -10 24 -12t35 6q54 26 84 39.5t79 27t91 13.5q147 0 246.5 -112.5t99.5 -262.5z" />
    <glyph glyph-name="uni25C9" unicode="&#x25c9;" vert-adv-y="2263" 
d="M1747 612q0 -166 -64.5 -317t-173.5 -260t-260 -173.5t-317 -64.5q-164 0 -314.5 64.5t-260 173.5t-175 260t-65.5 317t65.5 317t175 260t260 173.5t314.5 64.5q166 0 317 -64.5t260 -173.5t173.5 -260t64.5 -317zM1597 612q0 134 -53 257.5t-142 213t-212.5 142.5
t-257.5 53q-181 0 -335 -90t-243.5 -243t-89.5 -333q0 -136 53 -259.5t142.5 -213t213 -142t259.5 -52.5q135 0 257.5 53t212 142t142.5 212.5t53 259.5zM1249 612q0 -132 -92.5 -224.5t-224.5 -92.5q-130 0 -224 93t-94 224t94 224.5t224 93.5q132 0 224.5 -93t92.5 -225z
" />
    <glyph glyph-name="uni25C8" unicode="&#x25c8;" vert-adv-y="2263" 
d="M932 1516l905 -906l-907 -909l-907 907zM930 -162l772 772l-770 768l-772 -770zM932 1145l536 -537l-536 -540l-543 540z" />
    <glyph glyph-name="uni25A3" unicode="&#x25a3;" vert-adv-y="2263" 
d="M1706 1382v-1550h-1552v1550h1552zM260 -61h1339v1337h-1339v-1337zM1391 1067v-922h-922v922h922z" />
    <glyph glyph-name="uni25D0" unicode="&#x25d0;" vert-adv-y="2263" 
d="M1731 612q0 -217 -107 -401t-291 -290.5t-401 -106.5q-161 0 -308.5 63t-255 169.5t-171.5 254.5t-64 311t64 311t171.5 255t255 170t308.5 63q217 0 401 -107t291 -291t107 -401zM1651 612q0 145 -57.5 278t-154 229.5t-229.5 154t-278 57.5v-1435q193 0 359 96.5
t263 261.5t97 358z" />
    <glyph glyph-name="uni25D1" unicode="&#x25d1;" vert-adv-y="2263" 
d="M1731 612q0 -163 -64 -311t-171.5 -254.5t-255 -169.5t-308.5 -63q-217 0 -401 106.5t-291 290.5t-107 401t107 401t291 291t401 107q161 0 308.5 -63t255 -170t171.5 -255t64 -311zM932 -104v1435q-145 0 -278 -57.5t-229.5 -154t-154 -229.5t-57.5 -278q0 -193 97 -358
t263 -261.5t359 -96.5z" />
    <glyph glyph-name="shade" unicode="&#x2592;" vert-adv-y="2263" 
d="M1694 1370v-1522h-1524v1522h1524zM238 -84h1388v1387h-1388v-1387zM1561 1190q0 -23 -15 -37t-39 -14q-51 0 -51 51q0 23 14 38t37 15t38.5 -15t15.5 -38zM1368 1190q0 -51 -51 -51t-51 51q0 23 14 38t37 15t37 -15t14 -38zM1561 997q0 -20 -15.5 -34.5t-38.5 -14.5
t-37 14t-14 35q0 24 14 39t37 15t38.5 -15.5t15.5 -38.5zM1368 997q0 -21 -14 -35t-37 -14t-37 14t-14 35q0 24 14 39t37 15t37 -15t14 -39zM1178 1190q0 -23 -15 -37t-39 -14q-23 0 -38 14t-15 37t15 38t38 15t38.5 -15t15.5 -38zM1561 807q0 -23 -15.5 -38t-38.5 -15
t-37 15t-14 38t14 38t37 15t38.5 -15t15.5 -38zM1178 997q0 -20 -15.5 -34.5t-38.5 -14.5t-38 14t-15 35q0 23 15 38.5t38 15.5t38.5 -15.5t15.5 -38.5zM1368 807q0 -23 -14 -38t-37 -15t-37 15t-14 38t14 38t37 15t37 -15t14 -38zM983 1190q0 -51 -51 -51q-21 0 -36 14
t-15 37t15 38t36 15q23 0 37 -15t14 -38zM1561 614q0 -21 -15.5 -36t-38.5 -15t-37 15t-14 36q0 52 51 52q23 0 38.5 -14.5t15.5 -37.5zM983 997q0 -21 -14 -35t-37 -14q-20 0 -35.5 14.5t-15.5 34.5q0 23 15 38.5t36 15.5q23 0 37 -15t14 -39zM1178 807q0 -23 -15.5 -38
t-38.5 -15t-38 15t-15 38t15 38t38 15t38.5 -15t15.5 -38zM1368 614q0 -21 -14 -36t-37 -15t-37 15t-14 36q0 52 51 52t51 -52zM793 1190q0 -23 -15 -37t-39 -14q-51 0 -51 51q0 23 14 38t37 15t38.5 -15t15.5 -38zM1561 422q0 -23 -15.5 -38t-38.5 -15t-37 15t-14 38t14 38
t37 15t38.5 -15t15.5 -38zM793 997q0 -20 -15.5 -34.5t-38.5 -14.5t-37 14t-14 35q0 24 14 39t37 15t38.5 -15.5t15.5 -38.5zM983 807q0 -23 -14 -38t-37 -15q-21 0 -36 15t-15 38t15 38t36 15q23 0 37 -15t14 -38zM1178 614q0 -21 -15.5 -36t-38.5 -15t-38 15t-15 36
q0 23 15 37.5t38 14.5t38.5 -14.5t15.5 -37.5zM1368 422q0 -23 -14 -38t-37 -15t-37 15t-14 38t14 38t37 15t37 -15t14 -38zM600 1190q0 -23 -15 -37t-36 -14q-23 0 -38 14t-15 37t15 38t38 15q21 0 36 -15t15 -38zM1561 231q0 -23 -15.5 -38t-38.5 -15t-37 15t-14 38
q0 21 14 35.5t37 14.5t38.5 -14.5t15.5 -35.5zM408 1190q0 -51 -50 -51q-23 0 -38 14t-15 37t15 38t38 15t36.5 -14.5t13.5 -38.5zM600 997q0 -20 -15.5 -34.5t-35.5 -14.5q-23 0 -38 14t-15 35q0 23 15 38.5t38 15.5q21 0 36 -15.5t15 -38.5zM793 807q0 -23 -15.5 -38
t-38.5 -15t-37 15t-14 38t14 38t37 15t38.5 -15t15.5 -38zM983 614q0 -21 -14 -36t-37 -15q-20 0 -35.5 15.5t-15.5 35.5q0 23 15 37.5t36 14.5q51 0 51 -52zM1178 422q0 -23 -15.5 -38t-38.5 -15t-38 15t-15 38t15 38t38 15t38.5 -15t15.5 -38zM1368 231q0 -23 -14 -38
t-37 -15t-37 15t-14 38q0 21 14 35.5t37 14.5t37 -14.5t14 -35.5zM1561 39q0 -23 -15.5 -38t-38.5 -15t-37 15t-14 38q0 51 51 51q24 0 39 -14t15 -37zM408 997q0 -21 -13.5 -35t-36.5 -14t-38 14t-15 35q0 23 15 38.5t38 15.5t36.5 -15t13.5 -39zM1368 39q0 -23 -14 -38
t-37 -15t-37 15t-14 38q0 51 51 51t51 -51zM600 807q0 -23 -15 -38t-36 -15q-23 0 -38 15t-15 38t15 38t38 15q21 0 36 -15t15 -38zM793 614q0 -21 -15.5 -36t-38.5 -15t-37 15t-14 36q0 52 51 52q23 0 38.5 -14.5t15.5 -37.5zM983 422q0 -23 -14 -38t-37 -15q-21 0 -36 15
t-15 38t15 38t36 15q23 0 37 -15t14 -38zM1178 231q0 -23 -15.5 -38t-38.5 -15t-38 15t-15 38q0 21 15 35.5t38 14.5t38.5 -14.5t15.5 -35.5zM408 807q0 -24 -13.5 -38.5t-36.5 -14.5t-38 15t-15 38t15 38t38 15t36.5 -14.5t13.5 -38.5zM1178 39q0 -23 -15.5 -38t-38.5 -15
t-38 15t-15 38t15 37t38 14q24 0 39 -14t15 -37zM600 614q0 -20 -15.5 -35.5t-35.5 -15.5q-23 0 -38 15t-15 36q0 23 15 37.5t38 14.5q21 0 36 -14.5t15 -37.5zM793 422q0 -23 -15.5 -38t-38.5 -15t-37 15t-14 38t14 38t37 15t38.5 -15t15.5 -38zM983 231q0 -23 -14 -38
t-37 -15q-21 0 -36 15t-15 38q0 20 15.5 35t35.5 15q23 0 37 -14.5t14 -35.5zM408 614q0 -21 -14 -36t-36 -15q-23 0 -38 15t-15 36q0 23 15 37.5t38 14.5q50 0 50 -52zM983 39q0 -23 -14 -38t-37 -15q-21 0 -36 15t-15 38t15 37t36 14q51 0 51 -51zM600 422q0 -23 -15 -38
t-36 -15q-23 0 -38 15t-15 38t15 38t38 15q21 0 36 -15t15 -38zM793 231q0 -23 -15.5 -38t-38.5 -15t-37 15t-14 38q0 21 14 35.5t37 14.5t38.5 -14.5t15.5 -35.5zM408 422q0 -24 -13.5 -38.5t-36.5 -14.5t-38 15t-15 38t15 38t38 15t36.5 -14.5t13.5 -38.5zM793 39
q0 -23 -15.5 -38t-38.5 -15t-37 15t-14 38q0 51 51 51q24 0 39 -14t15 -37zM600 231q0 -23 -15 -38t-36 -15q-23 0 -38 15t-15 38q0 21 15 35.5t38 14.5q20 0 35.5 -15t15.5 -35zM408 231q0 -24 -13.5 -38.5t-36.5 -14.5t-38 15t-15 38q0 21 15 35.5t38 14.5t36.5 -14.5
t13.5 -35.5zM600 39q0 -23 -15 -38t-36 -15q-23 0 -38 15t-15 38t15 37t38 14q21 0 36 -14t15 -37zM408 39q0 -24 -13.5 -38.5t-36.5 -14.5t-38 15t-15 38t15 37t38 14q50 0 50 -51z" />
    <glyph glyph-name="uni25A4" unicode="&#x25a4;" vert-adv-y="2263" 
d="M1694 1370v-1522h-1524v1522h1524zM238 1163h1388v140h-1388v-140zM238 948h1388v150h-1388v-150zM238 748h1388v135h-1388v-135zM238 537h1388v145h-1388v-145zM238 324h1388v147h-1388v-147zM238 119h1388v139h-1388v-139zM238 -84h1388v137h-1388v-137z" />
    <glyph glyph-name="uni25A5" unicode="&#x25a5;" vert-adv-y="2263" 
d="M1694 1370v-1522h-1524v1522h1524zM1487 -84h139v1387h-139v-1387zM1282 -84h139v1387h-139v-1387zM1069 -84h148v1387h-148v-1387zM858 -84h146v1387h-146v-1387zM657 -84h136v1387h-136v-1387zM442 -84h150v1387h-150v-1387zM238 -84h139v1387h-139v-1387z" />
    <glyph glyph-name="uni25A8" unicode="&#x25a8;" vert-adv-y="2263" 
d="M1694 1370v-1522h-1524v1522h1524zM528 -84l1098 1098v241l-1339 -1339h241zM868 -84l758 758v241l-999 -999h241zM1208 -84l418 418v241l-659 -659h241zM1307 -84h319v320zM238 987l317 316h-317v-316zM238 645l659 658h-244l-415 -414v-244zM238 305l999 998h-242
l-757 -756v-242zM238 -35l1337 1338h-240l-1097 -1096v-242z" />
    <glyph glyph-name="uni25A7" unicode="&#x25a7;" vert-adv-y="2263" 
d="M1694 1370v-1522h-1524v1522h1524zM1309 1303l317 -316v316h-317zM967 1303l659 -658v244l-416 414h-243zM627 1303l999 -998v242l-758 756h-241zM289 1303l1337 -1338v242l-1098 1096h-239zM1335 -84h242l-1339 1339v-241zM995 -84h242l-999 999v-241zM655 -84h242
l-659 659v-241zM238 -84h319l-319 320v-320z" />
    <glyph glyph-name="uni25A6" unicode="&#x25a6;" vert-adv-y="2263" 
d="M1694 1370v-1522h-1524v1522h1524zM1481 1157h145v146h-145v-146zM1481 950h145v146h-145v-146zM1272 1157h145v146h-145v-146zM1481 743h145v146h-145v-146zM1065 1157h145v146h-145v-146zM1272 950h145v146h-145v-146zM1481 537h145v145h-145v-145zM858 1157h146v146
h-146v-146zM1065 950h145v146h-145v-146zM1272 743h145v146h-145v-146zM1481 330h145v145h-145v-145zM651 1157h146v146h-146v-146zM858 950h146v146h-146v-146zM1065 743h145v146h-145v-146zM1272 537h145v145h-145v-145zM1481 123h145v145h-145v-145zM444 1157h146v146
h-146v-146zM651 950h146v146h-146v-146zM858 743h146v146h-146v-146zM1065 537h145v145h-145v-145zM1272 330h145v145h-145v-145zM1481 -84h145v145h-145v-145zM238 1157h145v146h-145v-146zM444 950h146v146h-146v-146zM651 743h146v146h-146v-146zM858 537h146v145h-146
v-145zM1065 330h145v145h-145v-145zM1272 123h145v145h-145v-145zM1272 -84h145v145h-145v-145zM238 950h145v146h-145v-146zM444 743h146v146h-146v-146zM651 537h146v145h-146v-145zM858 330h146v145h-146v-145zM1065 123h145v145h-145v-145zM1065 -84h145v145h-145v-145z
M238 743h145v146h-145v-146zM444 537h146v145h-146v-145zM651 330h146v145h-146v-145zM858 123h146v145h-146v-145zM858 -84h146v145h-146v-145zM238 537h145v145h-145v-145zM444 330h146v145h-146v-145zM651 123h146v145h-146v-145zM651 -84h146v145h-146v-145zM238 330
h145v145h-145v-145zM444 123h146v145h-146v-145zM444 -84h146v145h-146v-145zM238 123h145v145h-145v-145zM238 -84h145v145h-145v-145z" />
    <glyph glyph-name="uni25A9" unicode="&#x25a9;" vert-adv-y="2263" 
d="M1694 1370v-1522h-1524v1522h1524zM1489 1122l137 -135v273zM1440 1171l133 132h-264zM1454 815l123 123l-135 137l-125 -123zM1270 999l121 123l-131 131l-123 -120zM1090 1180l122 123h-245zM1503 766l123 -123v246zM918 1012l122 121l-122 120l-121 -120zM1100 831
l121 121l-134 129l-120 -118zM1284 645l121 123l-135 135l-121 -121zM1456 475l121 121l-123 121l-121 -121zM748 1182l120 121h-241zM1505 426l121 -121v242zM1114 477l123 119l-139 137l-119 -121zM578 1014l120 119l-123 122l-118 -120zM930 662l119 120l-131 131
l-119 -120zM1286 305l121 121l-123 121l-119 -119zM1456 135l121 121l-121 121l-121 -121zM750 842l118 121l-123 120l-118 -118zM408 1184l120 119h-239zM1505 86l121 -121v242zM1335 -84h242l-121 121zM238 1014l120 121l-120 120v-241zM944 307l123 119l-137 139
l-121 -123zM408 844l120 121l-120 120l-121 -120zM578 674l120 121l-120 120l-121 -120zM760 494l119 118l-131 133l-121 -120zM1116 135l121 121l-121 121l-121 -121zM1286 -35l121 121l-121 121l-121 -121zM995 -84h242l-121 121zM238 674l120 121l-120 120v-241zM408 504
l120 121l-120 120l-121 -120zM588 324l121 120l-131 131l-121 -120zM774 135l123 121l-137 139l-123 -121zM946 -35l121 121l-121 121l-121 -121zM238 336l120 119l-120 120v-239zM653 -84h244l-121 121zM418 154l121 120l-131 132l-121 -121zM606 -35l119 123l-137 137
l-121 -121zM238 -27l131 131l-131 132v-263zM281 -84h276l-139 139z" />
    <glyph glyph-name="uni2668" unicode="&#x2668;" vert-adv-y="2263" 
d="M1346 610q6 -71 -11 -138t-39 -106t-55 -89t-43 -70q-39 -76 -57 -150q-5 -13 -13.5 -15t-15.5 15q-13 26 -12 92.5t20 110.5q119 298 54 453q-44 98 -53 186t5 149t48 142q26 68 26 141q0 20 9 23t20 -19q53 -98 24 -293q-11 -60 0 -118t27.5 -91.5t37.5 -95t28 -127.5z
M1075 586q2 -24 3 -43t-5 -46t-12 -48t-17 -48.5t-19.5 -47.5t-21 -45.5t-21 -42t-19 -36.5t-15.5 -30q-58 -107 -61 -150q-1 -12 -8 -15.5t-15 0.5t-12 13q-10 25 -14.5 58.5t2 86.5t28.5 107q29 66 37.5 141.5t0 137t-19 102t-20.5 63.5q-20 46 -31.5 90t-16 78t-1 71.5
t8 61.5t17 57.5t20.5 50t24 48t22 43.5q47 96 47 191q0 15 5.5 20t13 0t12.5 -16q15 -34 25 -83t7 -119.5t-26 -133.5q-20 -57 -22.5 -108.5t9 -99.5t27.5 -90.5t36.5 -102.5t31.5 -115zM1747 207q0 -123 -111.5 -222t-295 -152.5t-398.5 -53.5q-216 0 -404.5 47
t-305.5 133.5t-117 192.5q0 52 23 100t63 84t83.5 65.5t96.5 52t88.5 35t71.5 23.5q21 7 26 -8q6 -16 -17 -27q-2 -1 -5 -2q-14 -6 -23.5 -10.5t-41.5 -21t-56 -32t-56 -41.5t-53 -51.5t-36 -58.5t-15 -67q0 -50 59.5 -91t158 -66t217.5 -38.5t245 -13.5q167 0 320 29.5
t255.5 88.5t102.5 134q0 40 -26 79t-65 67.5t-76.5 48.5t-68.5 30q-24 7 -18 22.5t27 10.5q36 -4 90 -24t115 -54t104 -89.5t43 -119.5zM784 535q10 -103 -112 -338q-46 -86 -49 -127q-2 -18 -13 -18t-22 18q-9 21 -14.5 47.5t-3.5 68t16 82.5q18 48 31 115t12 161t-29 163
q-101 241 45 512q34 57 47 122q3 11 9 14.5t11.5 -0.5t8.5 -12q36 -107 -21 -307q-14 -52 1 -129.5t44.5 -185t38.5 -186.5z" />
    <glyph glyph-name="uni260F" unicode="&#x260f;" vert-adv-y="2263" 
d="M805 887h254v108q-62 -20 -127 -20t-127 20v-108zM1716 725q11 1 16.5 20t2 51t-16 69t-42.5 79t-72 76q-83 64 -292 107.5t-380 43.5q-210 0 -399.5 -42t-276.5 -109q-43 -33 -73.5 -75t-42 -79t-15 -69.5t2 -51.5t15.5 -20q77 -7 156 16t119 60q13 11 6 45.5
t-15.5 70.5t9.5 78q18 39 92.5 61.5t202.5 22.5q12 0 94 -14q69 -16 125 -16q50 0 125 16q11 2 30.5 6t33 6t26.5 2q253 0 299 -84q16 -32 9 -78t-16.5 -70.5t3.5 -45.5q39 -35 120 -59t154 -17zM1247 418q0 -130 -93.5 -223t-221.5 -93q-130 0 -223 93t-93 223
q0 128 93 221.5t223 93.5q128 0 221.5 -93.5t93.5 -221.5zM1163 418q0 97 -67 164t-164 67t-164.5 -67t-67.5 -164t67.5 -163.5t164.5 -66.5t164 66.5t67 163.5zM1798 672q-8 -13 -23 -20.5t-39 -8t-44.5 0.5t-54 8.5t-53 12t-54.5 13.5q-161 48 -174 110q-6 22 10.5 83
t13.5 79q-2 10 -5.5 18t-7 13.5t-11.5 9.5l-12 6t-15.5 4t-15.5 2.5t-18.5 1.5t-18.5 1q-9 -36 -6.5 -95t28.5 -145q26 -96 68 -149t121 -117q48 -40 79.5 -89t44 -99.5t16 -83.5t3.5 -74q29 -11 39 -62t4 -102q-3 -33 -69 -33h-1344q-67 0 -70 33q-6 51 4 102t39 62
q0 225 144 346q53 43 80.5 70.5t58.5 78t49 117.5q24 88 27.5 144.5t-4.5 95.5q-4 0 -18.5 -1t-18.5 -1.5t-15.5 -2.5t-15.5 -4l-12 -6t-11.5 -9.5t-7.5 -13.5t-6 -18q-5 -19 13 -80t12 -82q-13 -62 -174 -110q-35 -9 -54.5 -13.5t-53 -12t-54 -8.5t-44.5 -0.5t-39 8
t-23 20.5q-17 28 -17.5 83.5t19 121t55.5 110.5q95 123 320.5 187.5t488.5 64.5t488.5 -64.5t320.5 -187.5q36 -45 55.5 -110.5t19 -121t-17.5 -83.5zM299 37h1266q7 0 9.5 26t-5 57.5t-27.5 43.5q0 59 -22.5 138.5t-69.5 123.5q-72 68 -98.5 94.5t-54 64.5t-44.5 81
q-64 178 -49 333h-71v-180h-402v180h-76q16 -164 -45 -333q-22 -56 -58 -98.5t-118 -119.5q-16 -14 -24 -22q-47 -44 -70 -123.5t-23 -138.5q-20 -12 -27 -43.5t-3 -57.5t12 -26z" />
    <glyph glyph-name="uni260E" unicode="&#x260e;" vert-adv-y="2263" 
d="M1798 672q-8 -13 -23 -20.5t-39 -8t-44.5 0.5t-54 8.5t-53 12t-54.5 13.5q-161 48 -174 110q-6 22 15 83t18 79q-7 37 -36 52.5t-77 23.5q-9 -36 -6.5 -105t28.5 -155q26 -96 68 -149t121 -117q48 -40 79.5 -89t44 -99.5t16 -83.5t3.5 -74q29 -11 39 -62t4 -102
q-3 -33 -69 -33h-1344q-67 0 -70 33q-6 51 4 102t39 62q0 225 144 346q53 43 80.5 70.5t58.5 78t49 117.5q38 141 23 260q-31 -5 -51 -11t-38.5 -22.5t-23.5 -42.5q-5 -19 17 -80t16 -82q-13 -62 -174 -110q-35 -9 -54.5 -13.5t-53 -12t-54 -8.5t-44.5 -0.5t-39 8t-23 20.5
q-17 28 -17.5 84.5t19 123t55.5 111.5q94 122 319 185t490 63t490 -63t319 -185q36 -45 55.5 -111.5t19 -123t-17.5 -84.5zM772 899h320v133q-78 -20 -160 -20t-160 20v-133zM1233 426q0 124 -88.5 212.5t-212.5 88.5t-212.5 -88.5t-88.5 -212.5t88 -211.5t213 -87.5
t213 87.5t88 211.5z" />
    <glyph glyph-name="uni261C" unicode="&#x261c;" vert-adv-y="2263" 
d="M1735 860v-483h-156v43h-59q-130 -78 -344 -113q-77 -10 -202.5 -9.5t-193.5 9.5q-101 16 -112 68q-8 42 30 65q-29 0 -52.5 19t-24.5 49q-2 37 22 61q-74 8 -74 68q0 44 39 63t129 19l-6 16q-158 5 -350 15q-133 7 -167 14q-86 19 -87 74q0 24 15.5 39t48.5 22.5
t67.5 11t88.5 6.5q14 1 22 1q127 10 587 10q178 0 247 -10q157 -22 255 -111q66 -15 123 -12v65h154zM1540 444h41v316q-46 -5 -90 6l4 -16q3 -20 0 -22t-14 11q-40 47 -119 101q-57 37 -183 50.5t-196 4.5q-70 -7 -135 -49q-24 -14 -45 -55q-15 -35 -39 -50q-10 -13 7 -19
q18 -6 56 9q23 8 46 28.5t35.5 32t17.5 5.5q12 -11 -8 -31q15 -6 41.5 -8.5t41.5 0.5q23 6 44.5 17t30.5 15.5t11 0.5q3 -9 -5 -23.5t-23 -24.5q15 -23 59.5 -54.5t102.5 -51.5q45 -15 94.5 -21.5t71.5 -9.5t22 -14q-3 -13 -64.5 -8.5t-113.5 18.5q-75 24 -128 64t-77 73
q-12 -8 -47 -8q-45 2 -86 14l-31 -26q55 0 91 -13.5t42 -37.5q15 -55 -22 -84q57 -15 63 -58q3 -25 -4.5 -39t-25.5 -26q59 -13 65 -58q7 -27 -4.5 -46t-22.5 -21q29 -6 72 0q248 21 414 127q11 11 14 3q1 -2 0 -5zM879 895q-140 0 -508 -8q-115 -4 -162 -12.5t-47 -36.5
q0 -30 40 -38.5t169 -17.5q314 -15 383 -16l43 65q33 48 82 64zM1612 410h90v415h-90v-415zM1004 506q1 29 -12 40.5t-46 16.5q-67 7 -244 0q-20 -1 -33.5 -16t-13.5 -35q0 -33 52 -41q20 -4 124.5 -6t108.5 0q23 0 43 10.5t21 30.5zM1038 397q-3 37 -63 37q-145 4 -232 -2
q-21 -1 -30 -15.5t-6 -33.5q4 -31 36 -37q101 -20 234 -8q34 1 49 16t12 43zM956 647q0 32 -41 35q-181 11 -274 0q-19 -3 -30 -16t-9 -29q0 -15 11 -27t30 -12q158 -8 275 4q38 7 38 45z" />
    <glyph glyph-name="uni261E" unicode="&#x261e;" vert-adv-y="2263" 
d="M1735 838q0 -27 -19 -45t-52.5 -25.5t-70 -11t-81.5 -5.5q-21 0 -31 -1q-190 -10 -351 -15l-6 -16q90 0 129 -19t39 -63q0 -60 -73 -68q24 -24 22 -61q-1 -30 -25 -49t-53 -19q39 -23 31 -65q-11 -51 -113 -68q-68 -9 -193 -9.5t-202 9.5q-214 35 -344 113h-59v-43h-156
v483h154v-65q56 -3 122 12q32 30 68 51.5t79 34.5t76 20.5t85.5 10.5t79.5 3.5t85 0.5h29q461 0 588 -10q145 -9 183 -20q59 -17 59 -60zM1098 741q-24 15 -39 50q-21 41 -45 55q-65 42 -135 49q-70 9 -196 -4.5t-183 -50.5q-79 -54 -119 -101q-11 -13 -14 -11t0 22l4 16
q-44 -11 -90 -6v-316h41l-5 17q-3 6 4 6q5 0 11 -4q77 -49 172.5 -82t240.5 -45q40 -6 66 0q-30 24 -20 67q6 45 65 58q-12 8 -18.5 15t-10.5 19.5t-2 30.5q9 44 64 58q-38 30 -23 84q15 51 133 51l-30 26q-41 -12 -86 -14q-35 0 -47 8q-24 -33 -77 -73t-128 -64
q-52 -14 -113.5 -18.5t-64.5 8.5q0 11 22 14t71.5 9.5t94.5 21.5q58 20 102.5 51.5t59.5 54.5q-15 10 -23.5 24.5t-5.5 23.5q2 4 11 -0.5t30.5 -15.5t44.5 -17q15 -3 42 -0.5t42 8.5q-20 20 -8 31q5 6 17 -5.5t35 -32t46 -28.5q53 -21 65 -3q4 6 -1 13zM1700 838
q0 28 -47 36.5t-162 12.5q-368 8 -508 8q49 -16 82 -64l43 -65q69 1 383 16q129 9 169 17.5t40 38.5zM160 410h90v415h-90v-415zM1206 512q0 20 -13.5 35t-33.5 16q-177 7 -244 0q-32 -5 -45 -16.5t-12 -40.5q1 -20 21 -30.5t43 -10.5q4 -2 108.5 0t124.5 6q51 8 51 41z
M1155 383q3 18 -6.5 33t-30.5 16q-87 6 -231 2q-61 0 -64 -37q-6 -56 62 -59q132 -12 233 8q33 6 37 37zM1260 637q2 16 -9 29t-30 16q-94 11 -275 0q-41 -3 -41 -35q0 -38 39 -45q117 -12 275 -4q19 0 30 12t11 27z" />
    <glyph glyph-name="paragraph" unicode="&#xb6;" horiz-adv-x="1206" vert-adv-y="2263" 
d="M563 -270v968h-80q-192 0 -315 103.5t-123 283.5q0 85 27.5 155.5t84 125t151.5 85t222 30.5h555v-1751h-178v1585h-168v-1585h-176z" />
    <glyph glyph-name="dagger" unicode="&#x2020;" horiz-adv-x="1007" vert-adv-y="2263" 
d="M399 -186v995h-344v205h344v409h211v-409h342v-205h-342v-995h-211z" />
    <glyph glyph-name="daggerdbl" unicode="&#x2021;" horiz-adv-x="1007" vert-adv-y="2263" 
d="M55 223v203h344v385h-344v203h344v409h211v-409h342v-203h-342v-385h342v-203h-342v-409h-211v409h-344z" />
    <glyph glyph-name="arrowupdn" unicode="&#x2195;" vert-adv-y="2263" 
d="M1251 979l-260 154v-857l260 152l35 -31l-354 -426l-354 426l34 31l260 -152v857l-260 -154l-34 31l354 426l354 -426z" />
    <glyph glyph-name="uni2197" unicode="&#x2197;" vert-adv-y="2263" 
d="M291 -23l-84 86l1190 1190l-291 74l-2 47l551 51l-51 -551l-48 3l-73 290z" />
    <glyph glyph-name="uni2199" unicode="&#x2199;" vert-adv-y="2263" 
d="M1573 1430l84 -84l-1192 -1190l291 -76l4 -47l-553 -51l51 553l47 -5l76 -290z" />
    <glyph glyph-name="uni2196" unicode="&#x2196;" vert-adv-y="2263" 
d="M1655 63l-84 -86l-1192 1190l-74 -290l-47 -3l-51 551l551 -51l-2 -47l-291 -74z" />
    <glyph glyph-name="uni2198" unicode="&#x2198;" vert-adv-y="2263" 
d="M207 1346l84 84l1192 -1190l76 290l47 5l51 -553l-553 51l4 47l291 76z" />
    <glyph glyph-name="uni266D" unicode="&#x266d;" horiz-adv-x="1058" vert-adv-y="2263" 
d="M700 469q0 112 -39.5 186t-105.5 74q-72 0 -125 -41.5t-75.5 -95t-22.5 -105.5v-438q51 4 100 19.5t98.5 48t86.5 78.5t60 117t23 157zM856 545q0 -133 -42.5 -238t-108 -168.5t-155.5 -106.5t-173.5 -60.5t-173.5 -22.5v1362h129v-672q70 195 286 195q101 0 169.5 -80
t68.5 -209z" />
    <glyph glyph-name="uni2669" unicode="&#x2669;" horiz-adv-x="794" vert-adv-y="2263" 
d="M590 1356v-1120q0 -93 -15 -149.5t-57 -106.5q-39 -46 -90.5 -77.5t-104.5 -36t-90 37.5q-36 44 -28 96t45 101t88 79q78 45 174 60v1116h78z" />
    <glyph glyph-name="musicalnote" unicode="&#x266a;" horiz-adv-x="1103" vert-adv-y="2263" 
d="M981 694q0 -132 -80 -256q-39 -60 -100.5 -119t-118.5 -92q-22 -13 -29 -2t9 27q202 196 202 395q0 37 -14.5 70t-34 57.5t-54.5 48t-61 37.5t-69.5 30.5t-63.5 23t-59 18.5v-696q0 -93 -15 -149.5t-57 -106.5q-39 -46 -90 -77.5t-104 -36t-90 37.5q-36 44 -28 96
t44.5 101t87.5 79q78 45 174 60v1024q0 82 19 82q13 0 24.5 -9.5t38.5 -40.5q73 -85 143 -145q176 -151 251 -257t75 -200z" />
    <glyph glyph-name="uni266C" unicode="&#x266c;" horiz-adv-x="1419" vert-adv-y="2263" 
d="M514 844l711 151v119l-711 -151v-119zM1307 1321v-930q0 -127 -138 -244q-40 -32 -82.5 -51.5t-89 -16t-75.5 41.5q-31 49 -0.5 118.5t88.5 112.5q53 39 100 54t115 24v373l-711 -154v-456q0 -128 -137 -244q-40 -32 -83 -51.5t-89.5 -16.5t-75.5 41q-31 49 -0.5 119
t88.5 113q37 27 76 43.5t66 22t73 11.5v914z" />
    <glyph glyph-name="uni327F" unicode="&#x327f;" vert-adv-y="2263" 
d="M1802 616q0 -177 -63.5 -336t-176 -277t-277 -187.5t-355.5 -69.5q-162 0 -305 51t-251 141.5t-183 214.5t-109 271l160 2q64 -243 242.5 -389t445.5 -146q155 0 287.5 53t225 145t148 217t62.5 267h-359v148h502q6 -53 6 -105zM1747 905h-162q-87 203 -252.5 319.5
t-402.5 116.5q-145 0 -270 -47t-215 -130.5t-149.5 -196.5t-80.5 -246h250v-148h-404v43q0 176 64 335t176.5 277t276 187.5t352.5 69.5q297 0 507 -155.5t310 -424.5zM1372 1090l-364 -373l381 -547h-205l-289 430l-131 -133v-297h-164v920h164v-424l397 424h211z" />
    <glyph glyph-name="uni321C" unicode="&#x321c;" vert-adv-y="2263" 
d="M246 664v-103q0 -525 280 -909h-184q-301 359 -301 919v82q0 557 301 916h184q-280 -376 -280 -905zM1618 561v103q0 528 -281 905h185q301 -359 301 -916v-82q0 -560 -301 -919h-185q281 385 281 909zM1382 1085h-356v-24q0 -34 28.5 -62t113.5 -72.5t270 -127.5
l-80 -154q-248 114 -324.5 156.5t-101.5 72.5h-2q-25 -30 -101.5 -72.5t-324.5 -156.5l-80 154q185 83 270 127.5t113.5 72.5t28.5 62v24h-357v160h903v-160zM317 563h1227v-160h-518v-423h-190v423h-519v160z" />
    <glyph glyph-name="afii61352" unicode="&#x2116;" horiz-adv-x="1822" vert-adv-y="2263" 
d="M111 -53v1476h292l269 -792q64 -191 96 -334v1126h223v-1476h-293l-274 792q-27 77 -37.5 108t-27.5 96.5t-25 129.5v-1126h-223zM1397 1051q162 0 263 -98.5t101 -278.5v-96q0 -181 -101 -281t-263 -100q-159 0 -260 100.5t-101 280.5v96q0 179 101 278t260 99z
M1397 385q71 0 111 51.5t40 157.5v59q0 106 -40.5 158.5t-110.5 52.5q-68 0 -110 -53t-42 -158v-59q0 -105 41.5 -157t110.5 -52zM1094 -53v184h608v-184h-608z" />
    <glyph glyph-name="uni33C7" unicode="&#x33c7;" vert-adv-y="2263" 
d="M518 1446q117 0 202 -27.5t183 -115.5l-143 -166q-57 49 -104 68.5t-109 19.5q-86 0 -142 -42.5t-87 -146.5t-31 -274v-176q0 -222 66.5 -332.5t176.5 -110.5q160 0 256 111l144 -170q-88 -88 -175.5 -124t-213.5 -36q-94 0 -168.5 19t-137.5 63t-104.5 115t-64.5 177.5
t-23 246.5v264q0 320 122.5 478.5t352.5 158.5zM1311 1446q440 0 440 -627v-268q0 -324 -111 -475.5t-329 -151.5t-329.5 151.5t-111.5 475.5v268q0 318 113.5 472.5t327.5 154.5zM1311 143q71 0 112.5 39t62.5 136t21 266v202q0 169 -21 266t-62.5 136t-112.5 39
q-69 0 -111 -39t-64 -136.5t-22 -265.5v-202q0 -168 22 -265.5t64 -136.5t111 -39zM1675 -53v180h170v-180h-170z" />
    <glyph glyph-name="trademark" unicode="&#x2122;" horiz-adv-x="1452" vert-adv-y="2263" 
d="M637 756v667h217l154 -362h4l176 362h205v-667h-179v403l-135 -274h-141l-137 303h-4v-432h-160zM209 756v528h-182v139h557v-139h-183v-528h-192z" />
    <glyph glyph-name="uni33C2" unicode="&#x33c2;" vert-adv-y="2263" 
d="M551 766v-819h-178v102q-10 -51 -43 -84t-92 -33q-88 0 -145.5 74.5t-57.5 220.5v60q0 352 284 352h25v121q0 21 -4 42t-21.5 43.5t-46.5 22.5q-58 0 -116 -67l-125 155q54 52 112 83.5t138 31.5q138 0 204 -69t66 -236zM346 295v154h-18q-26 0 -43 -14t-24.5 -41
t-10 -53t-2.5 -62v-37q0 -119 41 -119q57 0 57 172zM758 -53v1104h180v-115q10 58 50 96.5t104 38.5q129 0 153 -143q48 143 180 143q105 0 171.5 -68t66.5 -208v-848h-213v745q0 97 -16 131.5t-54 34.5q-28 0 -45.5 -46t-17.5 -132v-733h-213v764q0 147 -66 147
q-37 0 -52 -42.5t-15 -147.5v-721h-213zM1683 -53v178h166v-178h-166zM571 -53v178h166v-178h-166z" />
    <glyph glyph-name="uni33D8" unicode="&#x33d8;" vert-adv-y="2263" 
d="M776 -53v1104h180v-111q5 45 47.5 88t106.5 43q63 0 109 -41.5t45 -101.5q7 59 55 101t104 42q105 0 173.5 -68.5t68.5 -207.5v-848h-213v749q0 86 -18 124t-43 38q-56 0 -56 -166v-745h-237v768q0 143 -58 143q-15 0 -25 -10.5t-18 -52t-8 -115.5v-733h-213zM248 -12
v-480h-213v1543h201v-115q28 135 131 135q119 0 170 -108.5t51 -344.5v-235q0 -247 -53.5 -350t-169.5 -103q-59 0 -117 58zM375 375v223q0 116 -7.5 172.5t-20 72t-38.5 15.5q-61 0 -61 -215v-330q0 -108 13 -145t56 -37q31 0 44.5 60t13.5 184zM586 -53v180h170v-180h-170
zM1686 -53v180h169v-180h-169z" />
    <glyph glyph-name="uni2121" unicode="&#x2121;" horiz-adv-x="2183" vert-adv-y="2263" 
d="M811 1051h651v-213h-397v-209h354v-213h-354v-256h412v-213h-666v1104zM12 1423h981v-213h-360v-1263h-256v1263h-365v213zM1548 1051h254v-891h369v-213h-623v1104z" />
    <glyph glyph-name="uniFF01" unicode="&#xff01;" vert-adv-y="2263" 
d="M797 -164v270h270v-270h-270zM1038 315h-213l-39 1229h291z" />
    <glyph glyph-name="uniFF02" unicode="&#xff02;" vert-adv-y="2263" 
d="M850 999h-213l-27 512h267zM1225 999h-213l-27 512h266z" />
    <glyph glyph-name="uniFF03" unicode="&#xff03;" vert-adv-y="2263" 
d="M1247 551h187v-223h-215l-52 -381h-209l50 381h-246l-49 -381h-211l49 381h-182v223h213l36 278h-186v224h217l49 370h211l-49 -370h246l49 370h209l-49 -370h182v-224h-211zM1042 551l37 278h-252l-39 -278h254z" />
    <glyph glyph-name="uniFF04" unicode="&#xff04;" vert-adv-y="2263" 
d="M866 -190v141q-132 9 -264 54t-207 110l125 190q155 -111 346 -139v430q-49 12 -85.5 22.5t-84 29t-82 39.5t-70 53.5t-58 70t-36.5 90t-14 113.5v37q0 50 13 97t44.5 93.5t79 83t123 62.5t170.5 34v117h152v-115q116 -6 223 -41t176 -96l-121 -174q-125 88 -278 98v-415
q135 -36 222 -76t137 -92t69.5 -111t19.5 -141v-17q0 -87 -23 -155t-62.5 -113t-97.5 -75t-122 -44.5t-143 -19.5v-141h-152zM1210 336v20q0 40 -6 65.5t-24.5 52t-58 47t-103.5 38.5v-395q101 11 146.5 58.5t45.5 113.5zM688 1059v-35q0 -85 38.5 -123.5t139.5 -69.5v375
q-178 -19 -178 -147z" />
    <glyph glyph-name="uniFF05" unicode="&#xff05;" vert-adv-y="2263" 
d="M608 -51h-237l882 1474h236zM461 1452q161 0 255.5 -95.5t94.5 -256.5v-80q0 -161 -94.5 -256.5t-255.5 -95.5t-255.5 95.5t-94.5 256.5v80q0 161 94.5 256.5t255.5 95.5zM461 842q82 0 114.5 46t32.5 136v72q0 89 -33 135.5t-114 46.5q-82 0 -115 -47t-33 -135v-72
q0 -89 33 -135.5t115 -46.5zM1401 715q161 0 255.5 -95.5t94.5 -257.5v-79q0 -162 -94.5 -257.5t-255.5 -95.5t-255.5 95.5t-94.5 257.5v79q0 162 94.5 257.5t255.5 95.5zM1401 104q82 0 114.5 46.5t32.5 136.5v71q0 89 -33 136t-114 47t-114.5 -47t-33.5 -136v-71
q0 -90 33 -136.5t115 -46.5z" />
    <glyph glyph-name="uniFF06" unicode="&#xff06;" vert-adv-y="2263" 
d="M1219 760h239q0 -319 -115 -510l250 -301h-313l-98 123q-176 -148 -404 -148h-16q-77 0 -149 13.5t-139 44t-116.5 75.5t-79.5 114t-30 153v38q0 141 86 240.5t246 175.5l-50 56q-60 67 -86 129.5t-26 136.5v24q0 144 104 233t287 89q185 0 286 -95t101 -235v-22
q0 -106 -58.5 -198t-201.5 -179l242 -277q23 53 32 120t9 200zM772 154q160 0 258 94l-307 362q-119 -60 -168 -120.5t-49 -131.5v-28q0 -75 73 -125.5t193 -50.5zM666 1116v-20q0 -60 131 -207q93 61 124 103.5t31 99.5v14q0 52 -38.5 88.5t-104.5 36.5q-72 0 -107.5 -33.5
t-35.5 -81.5z" />
    <glyph glyph-name="uniFF07" unicode="&#xff07;" vert-adv-y="2263" 
d="M1038 999h-213l-26 512h266z" />
    <glyph glyph-name="uniFF08" unicode="&#xff08;" vert-adv-y="2263" 
d="M1540 664v-103q0 -524 281 -909h-246q-301 359 -301 919v82q0 557 301 916h246q-281 -377 -281 -905z" />
    <glyph glyph-name="uniFF09" unicode="&#xff09;" vert-adv-y="2263" 
d="M324 561v103q0 528 -281 905h246q301 -359 301 -916v-82q0 -560 -301 -919h-246q281 385 281 909z" />
    <glyph glyph-name="uniFF0A" unicode="&#xff0a;" vert-adv-y="2263" 
d="M858 973l-229 -170l-105 198l279 101l-279 98l105 199l227 -170l-33 272h217l-34 -272l229 170l102 -199l-278 -98l278 -101l-102 -198l-229 170l34 -271h-217z" />
    <glyph glyph-name="uniFF0B" unicode="&#xff0b;" vert-adv-y="2263" 
d="M817 1176h230v-420h413v-213h-413v-449h-230v449h-414v213h414v420z" />
    <glyph glyph-name="uniFF0C" unicode="&#xff0c;" vert-adv-y="2263" 
d="M741 -358l86 473h291l-168 -473h-209z" />
    <glyph glyph-name="uniFF0D" unicode="&#xff0d;" vert-adv-y="2263" 
d="M584 578v213h696v-213h-696z" />
    <glyph glyph-name="uniFF0E" unicode="&#xff0e;" vert-adv-y="2263" 
d="M803 -152v267h260v-267h-260z" />
    <glyph glyph-name="uniFF0F" unicode="&#xff0f;" vert-adv-y="2263" 
d="M1120 1591h254l-635 -1859h-252z" />
    <glyph glyph-name="uniFF10" unicode="&#xff10;" vert-adv-y="2263" 
d="M1475 801v-230q0 -315 -135.5 -481t-399.5 -166q-263 0 -407 168.5t-144 478.5v230q0 309 143 477t402 168q261 0 401 -167t140 -478zM1210 569v234q0 98 -15.5 170.5t-40 115t-62 67.5t-74.5 33.5t-84 8.5q-45 0 -81.5 -8.5t-75 -34t-65 -68t-43 -115t-16.5 -169.5v-234
q0 -82 11.5 -147t33 -107.5t48 -71.5t60.5 -44t65.5 -21t68.5 -6q47 0 83.5 8t73 33.5t60 68t38.5 115.5t15 172z" />
    <glyph glyph-name="uniFF11" unicode="&#xff11;" vert-adv-y="2263" 
d="M1294 -53h-262v1181l-336 -192l-127 213l494 274h231v-1476z" />
    <glyph glyph-name="uniFF12" unicode="&#xff12;" vert-adv-y="2263" 
d="M410 143l542 559q81 83 123.5 148.5t51 102t8.5 87.5v17q0 66 -52 110.5t-159 44.5q-59 0 -107.5 -14.5t-103.5 -62t-101 -129.5l-196 129q171 311 506 311q121 0 214.5 -30.5t150 -83.5t84.5 -120t28 -145v-20q0 -232 -213 -445l-434 -438h702v-217h-1044v196z" />
    <glyph glyph-name="uniFF13" unicode="&#xff13;" vert-adv-y="2263" 
d="M647 1094l-178 139q80 103 183.5 158t254.5 55q207 0 332 -101.5t125 -267.5v-20q0 -48 -10 -94.5t-33 -94t-66.5 -87t-103.5 -62.5q142 -25 214.5 -114t72.5 -220v-31q0 -85 -33.5 -161.5t-98.5 -137t-169.5 -96t-235.5 -35.5q-268 0 -473 164l129 205q106 -77 181 -106
t165 -29q135 0 203 55t68 154v26q0 108 -64.5 158.5t-204.5 50.5h-198v225h176q129 0 177 54t48 159v17q0 81 -53 120.5t-148 39.5q-87 0 -145.5 -31t-114.5 -92z" />
    <glyph glyph-name="uniFF14" unicode="&#xff14;" vert-adv-y="2263" 
d="M1077 907h258v-442h201v-211h-201v-307h-258v307h-735v170l672 999h282l-645 -958h426v442z" />
    <glyph glyph-name="uniFF15" unicode="&#xff15;" vert-adv-y="2263" 
d="M1180 418v22q0 118 -68 182t-192 64q-158 0 -281 -117h-176l47 854h838v-217h-603l-16 -385q126 76 275 76q104 0 188.5 -37t139 -99.5t83.5 -143.5t29 -171v-30q0 -73 -18.5 -142t-60 -133t-101.5 -112t-149 -76.5t-197 -28.5q-165 0 -291.5 38t-233.5 126l127 207
q97 -78 189 -105.5t206 -27.5q130 0 197.5 70.5t67.5 185.5z" />
    <glyph glyph-name="uniFF16" unicode="&#xff16;" vert-adv-y="2263" 
d="M1382 1343l-96 -217q-142 82 -313 82q-60 0 -110.5 -21t-94 -67t-70.5 -128.5t-34 -196.5q53 61 143 95t188 34q214 0 337.5 -129t123.5 -346v-41q0 -103 -36 -191.5t-102.5 -153.5t-166 -102t-219.5 -37q-139 0 -241.5 44t-165 127t-92.5 196t-30 258v94q0 190 30.5 333
t82 231.5t128.5 143t159.5 75t185.5 20.5q239 0 393 -103zM668 446v-30q0 -121 66.5 -187.5t191.5 -66.5q134 0 203 66t69 190v22q0 129 -63.5 191.5t-198.5 62.5q-134 0 -201 -69.5t-67 -178.5z" />
    <glyph glyph-name="uniFF17" unicode="&#xff17;" vert-adv-y="2263" 
d="M1458 1223l-565 -1276h-277l568 1255h-781v221h1055v-200z" />
    <glyph glyph-name="uniFF18" unicode="&#xff18;" vert-adv-y="2263" 
d="M727 1026v-20q0 -92 62.5 -141.5t144.5 -49.5q84 0 143.5 49.5t59.5 141.5v20q0 93 -56 143t-149 50q-90 0 -147.5 -50.5t-57.5 -142.5zM690 375v-21q0 -94 67 -147t179 -53q110 0 174 53t64 147v21q0 103 -67.5 157t-170.5 54q-106 0 -176 -52.5t-70 -158.5zM420 338v35
q0 117 72.5 211t169.5 123q-98 49 -150.5 138.5t-52.5 170.5v24q0 81 28.5 152.5t84.5 129t148.5 91t209.5 33.5q114 0 206.5 -33.5t150 -90.5t88 -129.5t30.5 -152.5v-24q0 -80 -50.5 -166t-150.5 -143q99 -30 169.5 -123.5t70.5 -210.5v-35q0 -183 -133.5 -298.5
t-372.5 -115.5q-247 0 -382.5 115t-135.5 299z" />
    <glyph glyph-name="uniFF19" unicode="&#xff19;" vert-adv-y="2263" 
d="M477 27l96 217q142 -82 314 -82q149 0 224 92.5t85 320.5q-52 -61 -143 -95t-189 -34q-214 0 -337.5 128.5t-123.5 345.5v41q0 103 36.5 191.5t102.5 153.5t166 102.5t220 37.5q139 0 241 -44t164.5 -127t92.5 -196t30 -258v-94q0 -191 -28 -333t-76.5 -231
t-124.5 -143.5t-161 -75t-196 -20.5q-238 0 -393 103zM1192 924v30q0 121 -66.5 187.5t-191.5 66.5q-134 0 -203 -66t-69 -190v-22q0 -129 63.5 -191.5t198.5 -62.5q134 0 201 69.5t67 178.5z" />
    <glyph glyph-name="uniFF1A" unicode="&#xff1a;" vert-adv-y="2263" 
d="M803 2v266h260v-266h-260zM803 924v266h260v-266h-260z" />
    <glyph glyph-name="uniFF1B" unicode="&#xff1b;" vert-adv-y="2263" 
d="M823 924v266h260v-266h-260zM743 -195l86 474h291l-168 -474h-209z" />
    <glyph glyph-name="uniFF1C" unicode="&#xff1c;" vert-adv-y="2263" 
d="M723 666v-13l704 -350v-260l-991 512v203l991 512v-258z" />
    <glyph glyph-name="uniFF1D" unicode="&#xff1d;" vert-adv-y="2263" 
d="M449 764v215h966v-215h-966zM449 332v215h966v-215h-966z" />
    <glyph glyph-name="uniFF1E" unicode="&#xff1e;" vert-adv-y="2263" 
d="M1141 653v13l-705 346v258l991 -512v-203l-991 -512v260z" />
    <glyph glyph-name="uniFF1F" unicode="&#xff1f;" vert-adv-y="2263" 
d="M1038 289h-278v92q0 103 34 170.5t144 181.5q81 83 116.5 120.5t59 74.5t26.5 57.5t3 61.5v20q0 26 -9.5 50t-31 47.5t-65 38t-103.5 14.5q-177 0 -324 -140l-153 189q101 99 212 139.5t261 40.5q221 0 348 -103.5t127 -273.5v-22q0 -55 -13.5 -105.5t-30 -85.5t-52 -78
t-58.5 -66.5t-70 -67.5q-13 -13 -20 -19q-69 -66 -96 -119t-27 -131v-86zM768 -164v270h270v-270h-270z" />
    <glyph glyph-name="uniFF20" unicode="&#xff20;" vert-adv-y="2263" 
d="M1466 72q-90 0 -156.5 42t-92.5 134h-3q-18 -46 -56.5 -81.5t-85 -54t-90.5 -27.5t-83 -9q-199 0 -312.5 114t-113.5 302v163q0 187 107.5 301.5t281.5 114.5q107 0 173 -30.5t93 -75.5v90h236v-629q0 -88 28 -129t91 -41q58 0 95 32t58 111.5t21 210.5v17
q0 342 -195 527t-549 185q-151 0 -280.5 -50t-224.5 -142t-149 -232.5t-54 -312.5v-29q0 -187 53 -332.5t150.5 -239.5t234.5 -142.5t307 -48.5q321 0 570 129l71 -166q-270 -146 -635 -146q-447 0 -698.5 254.5t-251.5 689.5v33q0 263 110 470.5t317.5 326.5t479.5 119
q225 0 403.5 -63.5t296.5 -179.5t180 -279.5t62 -364.5v-21q0 -79 -10.5 -151t-38.5 -144.5t-70.5 -125.5t-111.5 -86t-158 -33zM725 623v-103q0 -106 47 -162.5t141 -56.5q88 0 143.5 52t55.5 145v145q0 100 -49.5 154.5t-149.5 54.5q-188 0 -188 -229z" />
    <glyph glyph-name="uniFF21" unicode="&#xff21;" vert-adv-y="2263" 
d="M1047 1423l555 -1476h-285l-143 405h-498l-146 -405h-268l549 1476h236zM852 872l-100 -301h346l-101 301q-44 122 -73 228q-34 -121 -72 -228z" />
    <glyph glyph-name="uniFF22" unicode="&#xff22;" vert-adv-y="2263" 
d="M379 -53v1476h573q235 0 350 -89t115 -271v-43q0 -107 -55 -187t-178 -110q141 -21 221 -104.5t80 -231.5v-51q0 -186 -117.5 -287.5t-351.5 -101.5h-637zM639 608v-444h238q75 0 125 4t94 16.5t68.5 34.5t38.5 58t14 88v45q0 114 -82.5 156t-296.5 42h-199zM840 1206
h-201v-385h192q52 0 83 1t69.5 5t60 11.5t45 21t35.5 34t19.5 50t7.5 68.5v37q0 91 -70 124t-241 33z" />
    <glyph glyph-name="uniFF23" unicode="&#xff23;" vert-adv-y="2263" 
d="M969 1446q160 0 279 -37.5t229 -126.5l-142 -201q-85 72 -170.5 97.5t-195.5 25.5q-353 0 -353 -454v-152q0 -113 28.5 -198.5t78.5 -134.5t111 -73t133 -24q256 0 405 154l139 -201q-63 -61 -136 -102.5t-148 -61t-137.5 -26.5t-133.5 -7q-99 0 -186.5 22t-165 70.5
t-133 119.5t-87.5 175.5t-32 233.5v264q0 161 48 285t133 200t195 114t241 38z" />
    <glyph glyph-name="uniFF24" unicode="&#xff24;" vert-adv-y="2263" 
d="M354 1423h514q641 0 641 -632v-211q0 -156 -35.5 -271.5t-111 -197.5t-198 -123t-292.5 -41h-518v1476zM614 1202v-1034h220q206 0 308.5 98t102.5 324v190q0 227 -100.5 324.5t-310.5 97.5h-220z" />
    <glyph glyph-name="uniFF25" unicode="&#xff25;" vert-adv-y="2263" 
d="M449 1423h950v-217h-690v-397h647v-213h-647v-432h704v-217h-964v1476z" />
    <glyph glyph-name="uniFF26" unicode="&#xff26;" vert-adv-y="2263" 
d="M719 -53h-262v1476h950v-221h-688v-422h645v-221h-645v-612z" />
    <glyph glyph-name="uniFF27" unicode="&#xff27;" vert-adv-y="2263" 
d="M999 1446q299 0 504 -166l-141 -201q-146 129 -363 129q-92 0 -158.5 -19.5t-122 -68t-84 -141.5t-28.5 -229v-152q0 -436 410 -436q131 0 241 43v354h-309v219h570v-719q-95 -64 -236 -99.5t-278 -35.5q-144 0 -262 36t-208 109t-140 194t-50 282v264q0 162 48.5 285.5
t137 199.5t206.5 114t263 38z" />
    <glyph glyph-name="uniFF28" unicode="&#xff28;" vert-adv-y="2263" 
d="M1237 -53v661h-612v-661h-263v1476h263v-598h612v598h262v-1476h-262z" />
    <glyph glyph-name="uniFF29" unicode="&#xff29;" vert-adv-y="2263" 
d="M801 -53v1476h262v-1476h-262z" />
    <glyph glyph-name="uniFF2A" unicode="&#xff2a;" vert-adv-y="2263" 
d="M1077 430v993h262v-1056q0 -236 -118 -339.5t-344 -103.5q-95 0 -190 33.5t-165 95.5l121 201q66 -50 117.5 -70t120.5 -20q101 0 148.5 59.5t47.5 206.5z" />
    <glyph glyph-name="uniFF2B" unicode="&#xff2b;" vert-adv-y="2263" 
d="M1489 1423l-571 -651l602 -825h-332l-447 635l-137 -150v-485h-262v1476h262v-675l582 675h303z" />
    <glyph glyph-name="uniFF2C" unicode="&#xff2c;" vert-adv-y="2263" 
d="M463 1423h262v-1255h674v-221h-936v1476z" />
    <glyph glyph-name="uniFF2D" unicode="&#xff2d;" vert-adv-y="2263" 
d="M825 193l-305 778q-15 38 -76 223v-1247h-243v1476h372l363 -917l348 917h377v-1476h-248v1247q-14 -55 -25.5 -93.5t-27.5 -82.5t-17 -47l-309 -778h-209z" />
    <glyph glyph-name="uniFF2E" unicode="&#xff2e;" vert-adv-y="2263" 
d="M358 -53v1476h301l504 -895q66 -118 94 -233v1128h246v-1476h-301l-506 897q-70 125 -92 227v-1124h-246z" />
    <glyph glyph-name="uniFF2F" unicode="&#xff2f;" vert-adv-y="2263" 
d="M932 1446q103 0 194 -22t170.5 -71.5t136.5 -122.5t90 -181t33 -242v-244q0 -136 -32.5 -244.5t-89 -181.5t-136 -121.5t-170.5 -70t-196 -21.5t-196 21.5t-171 70t-136.5 121.5t-89 181.5t-32.5 244.5v244q0 133 33 241.5t90.5 181.5t137.5 122.5t170.5 71.5t193.5 22z
M932 164q80 0 142 20.5t113 67.5t78 134t27 210v178q0 123 -27 210t-78 134t-113 67.5t-142 20.5q-79 0 -140.5 -20.5t-113 -67.5t-79.5 -134t-28 -210v-178q0 -123 28 -210t79.5 -134t113 -67.5t140.5 -20.5z" />
    <glyph glyph-name="uniFF30" unicode="&#xff30;" vert-adv-y="2263" 
d="M399 -53v1476h557q254 0 380 -115t126 -307v-43q0 -92 -31.5 -171t-92.5 -140.5t-159.5 -97t-222.5 -35.5h-294v-567h-263zM944 1204h-282v-469h260q136 0 206 52t70 176v36q0 114 -65.5 159.5t-188.5 45.5z" />
    <glyph glyph-name="uniFF31" unicode="&#xff31;" vert-adv-y="2263" 
d="M911 1446q103 0 194 -22t171 -71.5t137 -122.5t90 -181t33 -242v-244q0 -275 -131 -438l170 -168l-150 -154l-190 189q-136 -68 -324 -68q-105 0 -196 21.5t-170.5 70t-136 121.5t-89 181.5t-32.5 244.5v244q0 133 33 241.5t90.5 181.5t137 122.5t170 71.5t193.5 22z
M911 164q78 0 133 16l-174 174l150 154l192 -193q60 107 60 281v178q0 123 -27.5 210t-78.5 134t-113 67.5t-142 20.5q-79 0 -140.5 -20.5t-112.5 -67.5t-79 -134t-28 -210v-178q0 -123 28 -210t79 -134t112.5 -67.5t140.5 -20.5z" />
    <glyph glyph-name="uniFF32" unicode="&#xff32;" vert-adv-y="2263" 
d="M1194 -53l-248 592h-301v-592h-262v1476h559q225 0 351 -111.5t126 -293.5v-76q0 -118 -58.5 -211t-170.5 -143q49 -107 144.5 -320.5t144.5 -320.5h-285zM909 1204h-264v-446h242q272 0 272 190v62q0 91 -60.5 142.5t-189.5 51.5z" />
    <glyph glyph-name="uniFF33" unicode="&#xff33;" vert-adv-y="2263" 
d="M936 160q134 0 201 48.5t67 127.5v22q0 85 -63 131t-197 76q-183 39 -249 63q-179 64 -239 195q-34 77 -34 181v26q0 56 16 111.5t55.5 111.5t98 98t151 68.5t207.5 26.5q269 0 461 -123l-123 -203q-83 55 -159 73.5t-175 18.5q-129 0 -200.5 -55t-71.5 -123v-24
q0 -24 5 -44.5t18 -37.5t24 -29t36.5 -23.5t40 -18.5t49.5 -16t51.5 -13t58.5 -13q24 -5 36 -8q251 -56 358 -160t107 -264v-27q0 -96 -29 -171.5t-78.5 -123.5t-120 -79.5t-147.5 -44.5t-167 -13q-154 0 -296 48t-233 122l127 209q74 -62 182 -102.5t232 -40.5z" />
    <glyph glyph-name="uniFF34" unicode="&#xff34;" vert-adv-y="2263" 
d="M367 1423h1128v-221h-432v-1255h-262v1255h-434v221z" />
    <glyph glyph-name="uniFF35" unicode="&#xff35;" vert-adv-y="2263" 
d="M932 162q165 0 238 87.5t73 301.5v872h262v-868q0 -179 -36.5 -302t-111.5 -195t-178 -103t-247 -31t-246.5 31t-178 103t-112.5 195t-37 302v868h263v-872q0 -214 73 -301.5t238 -87.5z" />
    <glyph glyph-name="uniFF36" unicode="&#xff36;" vert-adv-y="2263" 
d="M807 -53l-543 1476h281l387 -1155l401 1155h266l-557 -1476h-235z" />
    <glyph glyph-name="uniFF37" unicode="&#xff37;" vert-adv-y="2263" 
d="M373 -53l-402 1476h273l270 -1095l299 1095h252l297 -1093l280 1093h252l-407 -1476h-250l-299 1136l-311 -1136h-254z" />
    <glyph glyph-name="uniFF38" unicode="&#xff38;" vert-adv-y="2263" 
d="M1544 1423l-440 -718l459 -758h-303l-338 596l-328 -596h-295l457 772l-420 704h315l295 -544l305 544h293z" />
    <glyph glyph-name="uniFF39" unicode="&#xff39;" vert-adv-y="2263" 
d="M1569 1423l-506 -893v-583h-262v583l-506 893h293l350 -651l344 651h287z" />
    <glyph glyph-name="uniFF3A" unicode="&#xff3a;" vert-adv-y="2263" 
d="M1479 1423v-198l-809 -1053h848v-225h-1172v215l799 1036h-750v225h1084z" />
    <glyph glyph-name="uniFF3B" unicode="&#xff3b;" vert-adv-y="2263" 
d="M1778 -123v-225h-600v1917h600v-226h-336v-1466h336z" />
    <glyph glyph-name="uniFFE6" unicode="&#xffe6;" vert-adv-y="2263" 
d="M12 670v145h217l-151 608h260l131 -608h215l160 608h227l143 -608h197l123 608h256l-150 -608h211v-145h-245l-172 -723h-226l-166 723h-196l-182 -723h-218l-180 723h-254zM498 670l65 -324l86 324h-151zM1245 670l78 -336l59 336h-137zM952 1085l-69 -270h127z" />
    <glyph glyph-name="uniFF3D" unicode="&#xff3d;" vert-adv-y="2263" 
d="M86 -348v225h336v1466h-336v226h600v-1917h-600z" />
    <glyph glyph-name="uniFF3E" unicode="&#xff3e;" vert-adv-y="2263" 
d="M1382 821h-241l-209 459l-209 -459h-242l332 662h240z" />
    <glyph glyph-name="uniFF3F" unicode="&#xff3f;" vert-adv-y="2263" 
d="M1464 -154v-153h-1065v153h1065z" />
    <glyph glyph-name="uniFF40" unicode="&#xff40;" vert-adv-y="2263" 
d="M1219 1151h-234l-303 317h305z" />
    <glyph glyph-name="uniFF41" unicode="&#xff41;" vert-adv-y="2263" 
d="M844 -70q-181 0 -282 83.5t-101 232.5v65q0 149 100.5 235.5t325.5 86.5h258v43q0 104 -48 150t-153 46q-177 0 -319 -112l-127 188q218 152 448 152q202 0 328.5 -97t126.5 -264v-792h-232l-4 139q-30 -71 -127 -113.5t-194 -42.5zM1145 401v31h-252q-97 0 -139.5 -36.5
t-42.5 -106.5v-25q0 -56 39.5 -86.5t113.5 -30.5q158 0 234 76q32 31 39.5 67t7.5 111z" />
    <glyph glyph-name="uniFF42" unicode="&#xff42;" vert-adv-y="2263" 
d="M680 78h-6v-131h-246v1548h258v-530q34 49 93 81t112 43t104 11q214 0 327.5 -129t113.5 -353v-198q0 -227 -123.5 -358.5t-329.5 -131.5q-108 0 -185.5 40t-117.5 108zM1180 449v129q0 301 -236 301q-125 0 -193.5 -74t-68.5 -193v-239q0 -83 78 -153t190 -70t171 78.5
t59 220.5z" />
    <glyph glyph-name="uniFF43" unicode="&#xff43;" vert-adv-y="2263" 
d="M969 1100q100 0 182.5 -20.5t129.5 -46.5t99 -66l-125 -189q-66 53 -134 74.5t-152 21.5q-108 0 -179 -69t-71 -215v-137q0 -82 23 -142t62 -92t81 -46.5t88 -14.5q100 0 171 24t136 72l123 -188q-63 -58 -175.5 -97t-256.5 -39q-246 0 -379 137.5t-133 381.5v141
q0 240 136 375t374 135z" />
    <glyph glyph-name="uniFF44" unicode="&#xff44;" vert-adv-y="2263" 
d="M1190 -53v133h-6q-42 -77 -128.5 -113.5t-195.5 -36.5q-214 0 -323 125t-109 357v198q0 227 122.5 358.5t328.5 131.5q119 0 192 -36.5t105 -84.5v516h258v-1548h-244zM682 578v-127q0 -144 58.5 -222.5t170.5 -78.5q124 0 196.5 78.5t72.5 197.5v229q0 88 -67 156
t-191 68q-120 0 -180 -78.5t-60 -222.5z" />
    <glyph glyph-name="uniFF45" unicode="&#xff45;" vert-adv-y="2263" 
d="M680 612h508v50q0 99 -61.5 162t-188.5 63q-124 0 -191 -66t-67 -166v-43zM1300 238l107 -187q-178 -121 -463 -121q-82 0 -154 15.5t-139.5 54t-116 97.5t-77.5 151t-29 209v116q0 134 39.5 236.5t110 165t162.5 94t202 31.5q223 0 358.5 -128t135.5 -368v-186h-756
q0 -134 71 -203.5t207 -69.5q99 0 178 21.5t164 71.5z" />
    <glyph glyph-name="uniFF46" unicode="&#xff46;" vert-adv-y="2263" 
d="M731 -53v917h-180v211h180v78q0 171 92.5 262.5t276.5 91.5q119 0 213 -32l-41 -207q-61 20 -148 20q-135 0 -135 -141v-72h285v-211h-285v-917h-258z" />
    <glyph glyph-name="uniFF47" unicode="&#xff47;" vert-adv-y="2263" 
d="M1180 -41v139h-4q-80 -147 -316 -147q-214 0 -323 124.5t-109 356.5v178q0 226 123 358t328 132q118 0 194.5 -38t110.5 -85h2v98h248v-1118q0 -236 -131 -351.5t-406 -115.5q-105 0 -211 34t-176 89l117 201q39 -34 120 -65.5t154 -31.5q279 0 279 242zM682 578v-107
q0 -144 58.5 -222.5t170.5 -78.5q124 0 196.5 78.5t72.5 197.5v209q0 88 -67 156t-191 68q-120 0 -180 -78.5t-60 -222.5z" />
    <glyph glyph-name="uniFF48" unicode="&#xff48;" vert-adv-y="2263" 
d="M1026 1100q79 0 147.5 -23.5t124.5 -71.5t88.5 -130.5t32.5 -192.5v-735h-258v680q0 126 -53 186.5t-162 60.5q-38 0 -74.5 -10t-77.5 -35.5t-66.5 -80.5t-25.5 -134v-667h-258v1548h244v-549h4q109 154 334 154z" />
    <glyph glyph-name="uniFF49" unicode="&#xff49;" vert-adv-y="2263" 
d="M803 -53v1128h258v-1128h-258zM797 1241v279h270v-279h-270z" />
    <glyph glyph-name="uniFF4A" unicode="&#xff4a;" vert-adv-y="2263" 
d="M954 1241v279h271v-279h-271zM1219 1075v-1231q0 -354 -359 -354q-132 0 -223 31l41 209q77 -21 147 -21q72 0 104 33t32 113v1220h258z" />
    <glyph glyph-name="uniFF4B" unicode="&#xff4b;" vert-adv-y="2263" 
d="M1425 1075l-438 -467l457 -661h-330l-307 479l-129 -143v-336h-258v1548h258v-897l422 477h325z" />
    <glyph glyph-name="uniFF4C" unicode="&#xff4c;" vert-adv-y="2263" 
d="M803 -53v1548h258v-1548h-258z" />
    <glyph glyph-name="uniFF4D" unicode="&#xff4d;" vert-adv-y="2263" 
d="M1341 1100q80 0 149.5 -27.5t123.5 -79t85.5 -134t31.5 -185.5v-727h-258v674q0 140 -55.5 194.5t-149.5 54.5q-40 0 -75 -11.5t-65.5 -38t-48.5 -75.5t-18 -116v-682h-258v678q0 245 -205 245q-94 0 -150.5 -59t-56.5 -172v-692h-258v1128h244v-143h4q42 78 122 123
t187 45q104 0 187 -47.5t114 -124.5q62 88 144 130t206 42z" />
    <glyph glyph-name="uniFF4E" unicode="&#xff4e;" vert-adv-y="2263" 
d="M1026 1100q79 0 147.5 -23.5t124.5 -71.5t88.5 -130.5t32.5 -192.5v-735h-258v680q0 126 -53 186.5t-162 60.5q-38 0 -74.5 -10t-77.5 -35.5t-66.5 -80.5t-25.5 -134v-667h-258v1128h244v-129h4q109 154 334 154z" />
    <glyph glyph-name="uniFF4F" unicode="&#xff4f;" vert-adv-y="2263" 
d="M932 156q123 0 195.5 72t72.5 225v125q0 296 -268 296t-268 -296v-125q0 -153 72.5 -225t195.5 -72zM932 -70q-242 0 -385.5 137.5t-143.5 381.5v133q0 245 143 381.5t386 136.5t385.5 -136t142.5 -382v-133q0 -245 -143 -382t-385 -137z" />
    <glyph glyph-name="uniFF50" unicode="&#xff50;" vert-adv-y="2263" 
d="M981 -70q-198 0 -295 131v-553h-258v1567h248v-123q54 79 140 113.5t177 34.5q217 0 330 -129.5t113 -352.5v-198q0 -226 -123.5 -358t-331.5 -132zM1180 449v129q0 301 -236 301q-125 0 -193.5 -74t-68.5 -193v-239q0 -83 78 -153t190 -70t171 78.5t59 220.5z" />
    <glyph glyph-name="uniFF51" unicode="&#xff51;" vert-adv-y="2263" 
d="M1180 -492v570h-6q-80 -148 -314 -148q-214 0 -323 125t-109 357v198q0 227 122.5 358.5t328.5 131.5q115 0 190 -37t111 -84h4v96h250v-1567h-254zM682 578v-127q0 -144 58.5 -222.5t170.5 -78.5q124 0 196.5 78.5t72.5 197.5v229q0 88 -67 156t-191 68
q-120 0 -180 -78.5t-60 -222.5z" />
    <glyph glyph-name="uniFF52" unicode="&#xff52;" vert-adv-y="2263" 
d="M1294 1077l-73 -233q-59 24 -144 24q-108 0 -180 -72t-72 -180v-669h-258v1136h248v-172h4q99 189 316 189q92 0 159 -23z" />
    <glyph glyph-name="uniFF53" unicode="&#xff53;" vert-adv-y="2263" 
d="M938 150q94 0 143 25.5t49 86.5v12q0 42 -15.5 62.5t-63 37.5t-156.5 38q-141 27 -222.5 68t-121 109t-39.5 175v20q0 60 24.5 114.5t74.5 100.5t137 73.5t200 27.5q263 0 416 -103l-111 -186q-107 72 -272 72q-211 0 -211 -101v-12q0 -58 36.5 -79t172.5 -48
q117 -23 187.5 -47t125.5 -64.5t78 -100.5t23 -150v-23q0 -138 -121 -233t-328 -95q-141 0 -267 37t-208 103l115 196q171 -116 354 -116z" />
    <glyph glyph-name="uniFF54" unicode="&#xff54;" vert-adv-y="2263" 
d="M737 266v596h-180v213h180v289h258v-289h285v-213h-285v-594q0 -68 27.5 -92t83.5 -24q84 0 160 32l41 -207q-110 -47 -232 -47q-185 0 -261.5 84.5t-76.5 251.5z" />
    <glyph glyph-name="uniFF55" unicode="&#xff55;" vert-adv-y="2263" 
d="M838 -72q-181 0 -286.5 108t-105.5 310v729h259v-674q0 -138 56 -192.5t157 -54.5q42 0 81 13.5t76 42t59.5 82.5t22.5 126v657h258v-1128h-246v135h-4q-45 -75 -136 -114.5t-191 -39.5z" />
    <glyph glyph-name="uniFF56" unicode="&#xff56;" vert-adv-y="2263" 
d="M1100 -53h-336l-369 1130h283l256 -889h8l258 889h268z" />
    <glyph glyph-name="uniFF57" unicode="&#xff57;" vert-adv-y="2263" 
d="M743 -53h-301l-280 1128h276l166 -874h8l205 874h244l194 -874h9l180 874h258l-279 -1128h-301l-184 794h-8z" />
    <glyph glyph-name="uniFF58" unicode="&#xff58;" vert-adv-y="2263" 
d="M1444 1075l-346 -543l356 -585h-307l-223 411l-226 -411h-290l364 585l-350 543h309l211 -377l217 377h285z" />
    <glyph glyph-name="uniFF59" unicode="&#xff59;" vert-adv-y="2263" 
d="M389 1075h287l256 -833h8l258 833h275l-586 -1597l-242 84l146 370z" />
    <glyph glyph-name="uniFF5A" unicode="&#xff5a;" vert-adv-y="2263" 
d="M1362 1075v-205l-553 -698h586v-225h-926v176l578 727h-537v225h852z" />
    <glyph glyph-name="uniFF5B" unicode="&#xff5b;" vert-adv-y="2263" 
d="M969 522v215q115 2 166 37t51 121v365q0 148 92.5 228.5t251.5 80.5h248v-228h-201q-35 0 -58 -7t-37 -18.5t-21 -37t-9 -52t-2 -73.5v-272q0 -54 -14 -101.5t-56.5 -91.5t-109.5 -59q66 -15 108 -57t57 -90.5t15 -104.5v-326q0 -107 22 -139.5t105 -32.5h201v-227h-248
q-161 0 -252.5 74t-91.5 219v415q0 88 -51 124t-166 38z" />
    <glyph glyph-name="uniFF5C" unicode="&#xff5c;" vert-adv-y="2263" 
d="M1063 1567v-1915h-260v1915h260z" />
    <glyph glyph-name="uniFF5D" unicode="&#xff5d;" vert-adv-y="2263" 
d="M895 737v-215q-115 -2 -166 -38t-51 -124v-415q0 -145 -91.5 -219t-252.5 -74h-248v227h201q83 0 105 32.5t22 139.5v326q0 56 15 104.5t57 90.5t108 57q-67 15 -109.5 59t-56.5 91.5t-14 101.5v272q0 47 -2 73.5t-9 52t-21 37t-37 18.5t-58 7h-201v228h248
q159 0 251.5 -80.5t92.5 -228.5v-365q0 -86 51 -121t166 -37z" />
    <glyph glyph-name="uniFFE3" unicode="&#xffe3;" vert-adv-y="2263" 
d="M1853 1561v-80h-1843v80h1843z" />
    <glyph glyph-name="uni3131" unicode="&#x3131;" vert-adv-y="2263" 
d="M1520 115h-258v792h-979v219h1237v-1011z" />
    <glyph glyph-name="uni3132" unicode="&#x3132;" vert-adv-y="2263" 
d="M879 115h-258v792h-418v219h676v-1011zM1608 115h-258v792h-394v219h652v-1011z" />
    <glyph glyph-name="uni3133" unicode="&#x3133;" vert-adv-y="2263" 
d="M874 115h-258v784h-370v219h628v-1003zM1348 438h-2q-14 -33 -76 -112q-95 -123 -217 -250l-168 162q142 152 241 286q52 70 70 131.5t18 163.5v318h259v-318q0 -102 18 -163.5t70 -131.5q99 -134 241 -286l-164 -158q-119 125 -215 248q-55 71 -75 110z" />
    <glyph glyph-name="uni3134" unicode="&#x3134;" vert-adv-y="2263" 
d="M344 1141h258v-807h959v-219h-1217v1026z" />
    <glyph glyph-name="uni3135" unicode="&#x3135;" vert-adv-y="2263" 
d="M532 1122v-809q154 0 304 21l8 -80q100 116 188 246q60 87 78 148.5t18 164.5v102h-245v220h745v-220h-244v-102q0 -101 19 -163t78 -150q96 -142 215 -277l-176 -145q-96 109 -185 237q-51 73 -73 127h-2q-19 -47 -78 -131q-89 -128 -185 -237l-147 121l8 -74
q-150 -25 -362 -25h-222v1026h258z" />
    <glyph glyph-name="uni3136" unicode="&#x3136;" vert-adv-y="2263" 
d="M526 1122v-809q148 0 330 21l23 -213q-150 -25 -363 -25h-242v1026h252zM1378 1186v-162h275v-199h-803v199h283v162h245zM1255 59q-165 0 -256.5 89t-91.5 217v94q0 128 91.5 216.5t256.5 88.5t257 -88.5t92 -216.5v-94q0 -128 -92 -217t-257 -89zM1255 575
q-64 0 -98.5 -43.5t-34.5 -97.5v-45q0 -54 34.5 -97.5t98.5 -43.5t99 43.5t35 97.5v45q0 54 -35 97.5t-99 43.5z" />
    <glyph glyph-name="uni3137" unicode="&#x3137;" vert-adv-y="2263" 
d="M1556 111h-1232v1019h1220v-219h-962v-581h974v-219z" />
    <glyph glyph-name="uni3138" unicode="&#x3138;" vert-adv-y="2263" 
d="M1614 111h-633v1019h627v-219h-369v-581h375v-219zM891 111h-598v1019h592v-219h-334v-581h340v-219z" />
    <glyph glyph-name="uni3139" unicode="&#x3139;" vert-adv-y="2263" 
d="M1579 94h-1268v635h985v205h-985v217h1241v-635h-985v-205h1012v-217z" />
    <glyph glyph-name="uni313A" unicode="&#x313a;" vert-adv-y="2263" 
d="M1636 111h-258v804h-385v220h643v-1024zM944 111h-674v618h396v189h-396v217h637v-619h-395v-188h432v-217z" />
    <glyph glyph-name="uni313B" unicode="&#x313b;" vert-adv-y="2263" 
d="M891 111h-641v618h377v189h-377v217h614v-619h-377v-188h404v-217zM1401 330v585h-197v-585h197zM1634 111h-663v1024h663v-1024z" />
    <glyph glyph-name="uni313C" unicode="&#x313c;" vert-adv-y="2263" 
d="M1401 330v262h-197v-262h197zM1634 111h-663v1024h233v-326h197v326h233v-1024zM891 111h-641v618h377v189h-377v217h614v-619h-377v-188h404v-217z" />
    <glyph glyph-name="uni313D" unicode="&#x313d;" vert-adv-y="2263" 
d="M891 111h-641v618h373v189h-373v217h614v-619h-372v-188h399v-47q120 133 201 243q52 70 70 131.5t18 163.5v318h258v-318q0 -102 18 -163.5t70 -131.5q99 -134 241 -286l-163 -158q-119 125 -215 248q-58 75 -76 110h-2q-14 -33 -76 -112q-95 -123 -217 -250l-127 121
v-86z" />
    <glyph glyph-name="uni313E" unicode="&#x313e;" vert-adv-y="2263" 
d="M1612 111h-641v1024h631v-217h-392v-189h371v-213h-371v-188h402v-217zM891 111h-641v618h377v189h-377v217h614v-619h-377v-188h404v-217z" />
    <glyph glyph-name="uni313F" unicode="&#x313f;" vert-adv-y="2263" 
d="M1636 326v-215h-708v215h88v594h-78v215h688v-215h-78v-594h88zM874 111h-632v618h372v189h-372v217h606v-619h-373v-188h399v-217zM1235 920v-594h94v594h-94z" />
    <glyph glyph-name="uni3140" unicode="&#x3140;" vert-adv-y="2263" 
d="M852 111h-621v618h357v189h-357v217h594v-619h-356v-188h383v-217zM1403 1186v-162h268v-199h-782v199h268v162h246zM1280 59q-165 0 -256.5 89t-91.5 217v94q0 128 91.5 216.5t256.5 88.5t256.5 -88.5t91.5 -216.5v-94q0 -128 -91.5 -217t-256.5 -89zM1280 575
q-64 0 -98.5 -43.5t-34.5 -97.5v-45q0 -54 34.5 -97.5t98.5 -43.5t98.5 43.5t34.5 97.5v45q0 54 -34.5 97.5t-98.5 43.5z" />
    <glyph glyph-name="uni3141" unicode="&#x3141;" vert-adv-y="2263" 
d="M1292 330v585h-721v-585h721zM1550 111h-1237v1024h1237v-1024z" />
    <glyph glyph-name="uni3142" unicode="&#x3142;" vert-adv-y="2263" 
d="M1292 328v264h-721v-264h721zM1550 109h-1237v1038h258v-336h721v336h258v-1038z" />
    <glyph glyph-name="uni3143" unicode="&#x3143;" vert-adv-y="2263" 
d="M883 1147v-1038h-631v1038h229v-336h172v336h230zM1612 1147v-1038h-631v1038h229v-336h172v336h230zM1210 594v-270h172v270h-172zM481 594v-270h172v270h-172z" />
    <glyph glyph-name="uni3144" unicode="&#x3144;" vert-adv-y="2263" 
d="M1313 438h-2q-14 -33 -76 -112q-95 -123 -217 -250l-133 127v-94h-652v1038h230v-336h192v336h230v-873q106 114 207 250q52 70 70 131.5t18 163.5v328h258v-328q0 -102 18 -163.5t70 -131.5q99 -134 241 -286l-163 -158q-119 125 -215 248q-58 75 -76 110zM463 594v-270
h192v270h-192z" />
    <glyph glyph-name="uni3145" unicode="&#x3145;" vert-adv-y="2263" 
d="M1063 1163v-243q0 -128 39.5 -204.5t159.5 -168.5q159 -121 385 -264l-136 -193q-231 148 -393 270q-163 123 -180 164h-2q-13 -39 -186 -170q-156 -118 -394 -270l-139 199q226 143 385 264q120 92 159.5 168.5t39.5 204.5v243h262z" />
    <glyph glyph-name="uni3146" unicode="&#x3146;" vert-adv-y="2263" 
d="M1157 1171h248v-335q0 -116 26.5 -188.5t108.5 -164.5q68 -75 242 -237l-154 -166q-101 89 -225 213q-87 86 -121 139h-2q-22 -38 -127 -143q-141 -141 -221 -211q-120 110 -221 211q-105 105 -127 143h-2q-35 -53 -121 -139q-124 -124 -225 -213l-154 166
q174 162 242 237q82 92 108.5 164.5t26.5 188.5v335h248v-335q0 -130 15 -183t83 -133q34 -41 127 -137q93 96 127 137q68 80 83 133t15 183v335z" />
    <glyph glyph-name="uni3147" unicode="&#x3147;" vert-adv-y="2263" 
d="M932 96q-269 0 -443 138.5t-174 349.5v90q0 211 174 349t443 138t442.5 -138t173.5 -349v-90q0 -211 -173.5 -349.5t-442.5 -138.5zM932 936q-159 0 -260 -80t-101 -188v-78q0 -108 101 -188t260 -80t259.5 79.5t100.5 188.5v78q0 109 -100.5 188.5t-259.5 79.5z" />
    <glyph glyph-name="uni3148" unicode="&#x3148;" vert-adv-y="2263" 
d="M297 922v227h1270v-227h-504v-29q0 -127 37 -199.5t157 -158.5q181 -129 390 -254l-129 -197q-238 146 -400 262q-66 45 -119 92.5t-61 65.5h-2q-6 -18 -55.5 -62.5t-130.5 -101.5q-162 -116 -400 -262l-133 203q202 121 389 254q120 86 157.5 158.5t37.5 199.5v29h-504z
" />
    <glyph glyph-name="uni3149" unicode="&#x3149;" vert-adv-y="2263" 
d="M240 924v225h1384v-225h-248v-90q0 -112 26.5 -184t106.5 -163q58 -65 228 -221l-152 -164q-76 66 -180 170q-128 128 -143 162h-2q-17 -33 -125 -141q-77 -77 -203 -195q-126 118 -203 195q-108 108 -125 141h-2q-15 -34 -143 -162q-104 -104 -180 -170l-152 164
q164 151 227 221q80 91 106.5 163t26.5 184v90h-247zM1020 492q77 85 99 146t22 196v90h-418v-90q0 -135 22 -196t99 -146q45 -49 88 -89q43 40 88 89z" />
    <glyph glyph-name="uni314A" unicode="&#x314a;" vert-adv-y="2263" 
d="M270 1081h531v224h262v-224h530v-225h-530q0 -121 38.5 -190t147.5 -142q169 -113 398 -239l-121 -201q-252 144 -408 248q-68 44 -121 87.5t-59 59.5h-2q-6 -18 -60.5 -63t-125.5 -90q-156 -104 -408 -248l-125 207q231 127 397 239q110 75 148.5 143.5t38.5 188.5h-531
v225z" />
    <glyph glyph-name="uni314B" unicode="&#x314b;" vert-adv-y="2263" 
d="M1546 98h-256v361l-1014 -15l-8 218l1022 14v256h-981v217h1237v-1051z" />
    <glyph glyph-name="uni314C" unicode="&#x314c;" vert-adv-y="2263" 
d="M1587 324v-218h-1261v1029h1245v-217h-989v-191h966v-213h-966v-190h1005z" />
    <glyph glyph-name="uni314D" unicode="&#x314d;" vert-adv-y="2263" 
d="M272 913v217h1319v-217h-231v-587h252v-217h-1360v217h252v587h-232zM758 913v-587h348v587h-348z" />
    <glyph glyph-name="uni314E" unicode="&#x314e;" vert-adv-y="2263" 
d="M1063 1305v-220h530v-217h-1323v217h531v220h262zM932 14q-253 0 -404 91.5t-151 256.5v82q0 165 151 257t404 92t404 -92t151 -257v-82q0 -165 -151 -256.5t-404 -91.5zM932 584q-148 0 -228.5 -42.5t-80.5 -115.5v-45q0 -73 80.5 -115.5t228.5 -42.5t228.5 42.5
t80.5 115.5v45q0 73 -80.5 115.5t-228.5 42.5z" />
    <glyph glyph-name="uni314F" unicode="&#x314f;" vert-adv-y="2263" 
d="M1022 1610v-748h371v-225h-371v-932h-260v1905h260z" />
    <glyph glyph-name="uni3150" unicode="&#x3150;" vert-adv-y="2263" 
d="M1280 1610v-1905h-248v934h-205v-842h-247v1774h247v-709h205v748h248z" />
    <glyph glyph-name="uni3151" unicode="&#x3151;" vert-adv-y="2263" 
d="M1020 1610v-527h356v-221h-356v-237h356v-222h-356v-698h-258v1905h258z" />
    <glyph glyph-name="uni3152" unicode="&#x3152;" vert-adv-y="2263" 
d="M821 1571v-467h217v506h242v-1905h-242v678h-217v-586h-241v1774h241zM821 887v-287h217v287h-217z" />
    <glyph glyph-name="uni3153" unicode="&#x3153;" vert-adv-y="2263" 
d="M967 862v748h260v-1905h-260v932h-371v225h371z" />
    <glyph glyph-name="uni3154" unicode="&#x3154;" vert-adv-y="2263" 
d="M745 -203v846h-280v223h280v705h246v-1774h-246zM1397 1610v-1905h-246v1905h246z" />
    <glyph glyph-name="uni3155" unicode="&#x3155;" vert-adv-y="2263" 
d="M969 1083v527h258v-1905h-258v698h-357v222h357v237h-357v221h357z" />
    <glyph glyph-name="uni3156" unicode="&#x3156;" vert-adv-y="2263" 
d="M745 -203v609h-280v221h280v237h-280v221h280v486h246v-1774h-246zM1397 1610v-1905h-246v1905h246z" />
    <glyph glyph-name="uni3157" unicode="&#x3157;" vert-adv-y="2263" 
d="M1063 1012v-684h741v-219h-1745v219h744v684h260z" />
    <glyph glyph-name="uni3158" unicode="&#x3158;" vert-adv-y="2263" 
d="M1593 1610v-701h265v-225h-265v-979h-256v1905h256zM66 86v223q315 0 454 2v539h256v-533q288 9 467 27l19 -215q-325 -43 -1196 -43z" />
    <glyph glyph-name="uni3159" unicode="&#x3159;" vert-adv-y="2263" 
d="M1395 1577v-684h133v717h248v-1905h-248v965h-133v-914h-248v1821h248zM1071 369l10 -209q-325 -33 -993 -33v217h361v502h253v-496q211 7 369 19z" />
    <glyph glyph-name="uni315A" unicode="&#x315a;" vert-adv-y="2263" 
d="M1665 1610v-1905h-256v1905h256zM98 86v223q324 0 463 2v539h256v-535q284 8 498 29l18 -215q-325 -43 -1235 -43z" />
    <glyph glyph-name="uni315B" unicode="&#x315b;" vert-adv-y="2263" 
d="M1094 1012h256v-686h454v-217h-1745v217h455v686h256v-686h324v686z" />
    <glyph glyph-name="uni315C" unicode="&#x315c;" vert-adv-y="2263" 
d="M59 682h1745v-219h-741v-678h-260v678h-744v219z" />
    <glyph glyph-name="uni315D" unicode="&#x315d;" vert-adv-y="2263" 
d="M1034 330h377v1280h256v-1905h-256v408h-377v217zM102 475v219q866 0 1213 35l18 -211q-208 -27 -522 -35v-723h-256v717q-133 -2 -453 -2z" />
    <glyph glyph-name="uni315E" unicode="&#x315e;" vert-adv-y="2263" 
d="M827 358h295v1219h248v-1821h-248v389h-295v213zM1741 1610v-1905h-248v1905h248zM1044 686l11 -209q-126 -13 -367 -24v-627h-248v620q-117 -2 -379 -2v218q238 0 340.5 0.5t283 6t359.5 17.5z" />
    <glyph glyph-name="uni315F" unicode="&#x315f;" vert-adv-y="2263" 
d="M1667 1610v-1905h-256v1905h256zM102 385v221q866 0 1213 35l18 -213q-176 -23 -508 -35v-633h-256v627q-135 -2 -467 -2z" />
    <glyph glyph-name="uni3160" unicode="&#x3160;" vert-adv-y="2263" 
d="M59 682h1745v-217h-454v-680h-256v680h-324v-680h-256v680h-455v217z" />
    <glyph glyph-name="uni3161" unicode="&#x3161;" vert-adv-y="2263" 
d="M59 389h1745v-219h-1745v219z" />
    <glyph glyph-name="uni3162" unicode="&#x3162;" vert-adv-y="2263" 
d="M1665 1610v-1905h-256v1905h256zM98 150v223q884 0 1217 35l18 -215q-325 -43 -1235 -43z" />
    <glyph glyph-name="uni3163" unicode="&#x3163;" vert-adv-y="2263" 
d="M1063 1610v-1905h-260v1905h260z" />
    <glyph glyph-name="uni3165" unicode="&#x3165;" vert-adv-y="2263" 
d="M1587 111h-633v1019h258v-800h375v-219zM864 111h-592v1019h258v-800h334v-219z" />
    <glyph glyph-name="uni3166" unicode="&#x3166;" vert-adv-y="2263" 
d="M1587 111h-633v1019h627v-219h-369v-581h375v-219zM864 111h-592v1019h258v-800h334v-219z" />
    <glyph glyph-name="uni3167" unicode="&#x3167;" vert-adv-y="2263" 
d="M772 111h-592v1019h258v-800h334v-84q138 147 234 278q52 70 70 131.5t18 163.5v318h258v-318q0 -102 18 -163.5t70 -131.5q99 -134 241 -286l-163 -158q-119 125 -215 248q-58 75 -76 110h-2q-14 -33 -76 -112q-95 -123 -217 -250l-160 153v-118z" />
    <glyph glyph-name="uni3168" unicode="&#x3168;" vert-adv-y="2263" 
d="M817 111h-592v1019h258v-800h334v-219zM1141 322h196l-98 337zM1239 1235l375 -1124h-748z" />
    <glyph glyph-name="uni3169" unicode="&#x3169;" vert-adv-y="2263" 
d="M1540 1135v-340q0 -67 7 -108t36 -104t81.5 -137.5t150.5 -201.5l-156 -138q-202 251 -229 322q-21 -64 -232 -328l-90 80v-67h-227v805h-242v221h469v-801q93 124 136 200t55 127t12 130v340h229zM655 113h-581v618h276v191h-276v217h504v-621h-281v-188h358v-217z" />
    <glyph glyph-name="uni316A" unicode="&#x316a;" vert-adv-y="2263" 
d="M905 111h-641v618h377v189h-377v217h615v-619h-377v-188h403v-217zM1618 111h-633v1024h617v-220h-359v-585h375v-219z" />
    <glyph glyph-name="uni316B" unicode="&#x316b;" vert-adv-y="2263" 
d="M1122 111h-522v1036h215v-361h92v361h215v-842q88 141 128 223t50.5 134t10.5 133v340h229v-340q0 -88 13.5 -145.5t63 -152t163.5 -270.5l-168 -125q-134 200 -182 326q-35 -108 -183 -330l-125 90v-77zM553 111h-502v620h260v191h-260v217h479v-621h-264v-190h287v-217
zM907 324v247h-92v-247h92z" />
    <glyph glyph-name="uni316C" unicode="&#x316c;" vert-adv-y="2263" 
d="M868 111h-641v618h377v189h-377v217h615v-619h-377v-188h403v-217zM1161 319h197l-98 338zM1260 1233l374 -1124h-747z" />
    <glyph glyph-name="uni316D" unicode="&#x316d;" vert-adv-y="2263" 
d="M893 111h-662v618h377v189h-377v217h615v-619h-377v-188h424v-217zM928 1133h704v-220h-704v220zM1280 63q-164 0 -256 93t-92 223v94q0 130 92 222.5t256 92.5t256 -92.5t92 -222.5v-94q0 -130 -92 -223t-256 -93zM1280 596q-63 0 -98 -46t-35 -101v-46q0 -55 35 -101
t98 -46t98 46t35 101v46q0 55 -35 101t-98 46z" />
    <glyph glyph-name="uni316E" unicode="&#x316e;" vert-adv-y="2263" 
d="M1612 1147v-1038h-631v1038h229v-340h172v340h230zM1210 590v-266h172v266h-172zM653 328v587h-172v-587h172zM883 109h-631v1026h631v-1026z" />
    <glyph glyph-name="uni316F" unicode="&#x316f;" vert-adv-y="2263" 
d="M834 109h-652v1026h652v-861q101 109 206 250q52 70 70 131.5t18 163.5v318h258v-318q0 -102 18.5 -163.5t70.5 -131.5q99 -134 241 -286l-164 -158q-119 125 -215 248q-55 71 -75 110h-2q-14 -33 -76 -112q-95 -123 -217 -250l-133 127v-94zM604 328v587h-192v-587h192z
" />
    <glyph glyph-name="uni3170" unicode="&#x3170;" vert-adv-y="2263" 
d="M631 328v587h-193v-587h193zM860 109h-651v1026h651v-1026zM1157 319h197l-99 338zM1255 1233l375 -1124h-747z" />
    <glyph glyph-name="uni3171" unicode="&#x3171;" vert-adv-y="2263" 
d="M1430 584h-998v792h998v-792zM672 1167v-374h518v374h-518zM1305 238v-66q0 -104 -101.5 -184t-271.5 -80q-169 0 -270 80t-101 184v66q0 104 101 184t270 80q170 0 271.5 -80t101.5 -184zM1087 188v33q0 45 -43.5 71.5t-111.5 26.5q-66 0 -110 -26.5t-44 -71.5v-33
q0 -45 44 -71.5t110 -26.5q68 0 111.5 26.5t43.5 71.5z" />
    <glyph glyph-name="uni3172" unicode="&#x3172;" vert-adv-y="2263" 
d="M915 1147v-1038h-663v1038h229v-340h205v340h229zM481 590v-266h205v266h-205zM1616 111h-258v804h-344v220h602v-1024z" />
    <glyph glyph-name="uni3173" unicode="&#x3173;" vert-adv-y="2263" 
d="M897 1147v-1038h-631v1038h230v-340h172v340h229zM496 590v-266h172v266h-172zM1595 111h-598v1024h578v-220h-324v-585h344v-219z" />
    <glyph glyph-name="uni3174" unicode="&#x3174;" vert-adv-y="2263" 
d="M688 111h-547v1024h215v-353h117v353h215v-781q87 116 127.5 189t52 124t11.5 128v340h229v-340q0 -88 16 -145.5t72.5 -148.5t185.5 -257l-155 -138q-204 254 -230 322q-21 -66 -231 -328l-78 68v-57zM1716 1135v-1022h-227v800h-277v222h504zM473 324v243h-117v-243
h117z" />
    <glyph glyph-name="uni3175" unicode="&#x3175;" vert-adv-y="2263" 
d="M657 111h-522v1024h215v-353h92v353h215v-813q83 133 121 212.5t48 130.5t10 130v340h229v-340q0 -82 10 -133.5t49.5 -133t126.5 -219.5v826h432v-220h-208v-585h229v-219h-453v75l-114 -84q-136 204 -183 326q-36 -111 -182 -330l-115 82v-69zM442 324v243h-92v-243h92
z" />
    <glyph glyph-name="uni3176" unicode="&#x3176;" vert-adv-y="2263" 
d="M1638 915h-245v-102q0 -98 20 -159t80 -154q100 -152 205 -277l-176 -141q-82 99 -176 237q-60 89 -74 123h-2q-18 -44 -74 -127q-91 -134 -180 -241l-144 114v-79h-645v1038h230v-340h186v340h229v-881q71 88 170 234q59 90 78 151t19 162v102h-234v220h733v-220z
M457 590v-266h186v266h-186z" />
    <glyph glyph-name="uni3177" unicode="&#x3177;" vert-adv-y="2263" 
d="M897 1147v-1038h-631v1038h230v-340h172v340h229zM1585 111h-588v1024h578v-217h-338v-189h317v-213h-317v-188h348v-217zM496 590v-266h172v266h-172z" />
    <glyph glyph-name="uni3178" unicode="&#x3178;" vert-adv-y="2263" 
d="M1192 805v172h-522v-172h522zM1430 598h-998v793h238v-207h522v207h238v-793zM1305 238v-66q0 -104 -101.5 -184t-271.5 -80q-169 0 -270 80t-101 184v66q0 104 101 184t270 80q170 0 271.5 -80t101.5 -184zM1087 188v33q0 45 -43.5 71.5t-111.5 26.5q-66 0 -110 -26.5
t-44 -71.5v-33q0 -45 44 -71.5t110 -26.5q68 0 111.5 26.5t43.5 71.5z" />
    <glyph glyph-name="uni3179" unicode="&#x3179;" vert-adv-y="2263" 
d="M897 592h-539v766h209v-211h125v211h205v-766zM692 791v155h-125v-155h125zM1507 592h-538v766h209v-211h120v211h209v-766zM1298 791v155h-120v-155h120zM1305 238v-66q0 -104 -101.5 -184t-271.5 -80q-169 0 -270 80t-101 184v66q0 104 101 184t270 80q170 0 271.5 -80
t101.5 -184zM1087 188v33q0 45 -43.5 71.5t-111.5 26.5q-66 0 -110 -26.5t-44 -71.5v-33q0 -45 44 -71.5t110 -26.5q68 0 111.5 26.5t43.5 71.5z" />
    <glyph glyph-name="uni317A" unicode="&#x317a;" vert-adv-y="2263" 
d="M680 438h-2q-14 -33 -76 -112q-95 -123 -217 -250l-168 162q147 157 242 286q52 70 70 131.5t18 163.5v318h258v-318q0 -102 18 -163.5t70 -131.5q95 -129 242 -286l-164 -158q-119 125 -215 248q-58 75 -76 110zM1632 115h-258v790h-416v219h674v-1009z" />
    <glyph glyph-name="uni317B" unicode="&#x317b;" vert-adv-y="2263" 
d="M1659 111h-633v84l-119 -115q-119 125 -215 248q-58 75 -76 110h-2q-16 -36 -75 -112q-95 -123 -217 -250l-168 162q142 152 241 286q52 70 70 131.5t18 163.5v318h258v-318q0 -102 18 -163.5t70 -131.5q91 -124 197 -239v852h258v-807h375v-219z" />
    <glyph glyph-name="uni317C" unicode="&#x317c;" vert-adv-y="2263" 
d="M616 438h-2q-16 -36 -75 -112q-95 -123 -217 -250l-168 162q142 152 241 286q52 70 70 131.5t18 163.5v318h258v-318q0 -102 18 -163.5t70 -131.5q91 -124 197 -239v850h612v-220h-358v-585h379v-219h-633v84l-119 -115q-119 125 -215 248q-58 75 -76 110z" />
    <glyph glyph-name="uni317D" unicode="&#x317d;" vert-adv-y="2263" 
d="M616 438h-2q-16 -36 -75 -112q-95 -123 -217 -250l-168 162q142 152 241 286q52 70 70 131.5t18 163.5v318h258v-318q0 -102 18 -163.5t70 -131.5q91 -124 197 -239v862h229v-340h172v340h230v-1038h-631v86l-119 -115q-119 125 -215 248q-58 75 -76 110zM1255 590v-266
h172v266h-172z" />
    <glyph glyph-name="uni317E" unicode="&#x317e;" vert-adv-y="2263" 
d="M1618 915h-240v-102q0 -101 19 -163t78 -150q96 -142 215 -277l-174 -145q-95 109 -185 237q-54 76 -74 127h-2q-20 -50 -77 -131q-90 -123 -232 -243h-4q-133 109 -250 260q-58 75 -76 110h-2q-16 -36 -75 -112q-95 -123 -217 -250l-168 162q142 152 241 286
q51 69 68.5 130t17.5 165v318h258v-318q0 -101 19 -163t71 -132q78 -106 113 -137q30 30 86 113q59 90 77.5 151t18.5 162v102h-231v220h725v-220z" />
    <glyph glyph-name="uni317F" unicode="&#x317f;" vert-adv-y="2263" 
d="M930 1350l510 -1221h-1016zM760 340h346l-176 430z" />
    <glyph glyph-name="uni3180" unicode="&#x3180;" vert-adv-y="2263" 
d="M553 90q-173 0 -264.5 113t-91.5 315v193q0 202 91.5 315t264.5 113t264.5 -113t91.5 -315v-193q0 -202 -91.5 -315t-264.5 -113zM553 928q-71 0 -98 -55.5t-27 -180.5v-155q0 -125 27 -180.5t98 -55.5t98 55.5t27 180.5v155q0 125 -27 180.5t-98 55.5zM1311 90
q-173 0 -265 113t-92 315v193q0 202 92 315t265 113t264.5 -113t91.5 -315v-193q0 -202 -91.5 -315t-264.5 -113zM1311 928q-71 0 -98 -55.5t-27 -180.5v-155q0 -125 27 -180.5t98 -55.5t98 55.5t27 180.5v155q0 125 -27 180.5t-98 55.5z" />
    <glyph glyph-name="uni3181" unicode="&#x3181;" vert-adv-y="2263" 
d="M932 -59q-102 0 -192 28t-154.5 75.5t-111.5 109t-70 129.5t-23 137v143q0 101 47.5 196.5t145 170.5t227.5 100v316h262v-316q130 -25 227.5 -100t145 -170.5t47.5 -196.5v-143q0 -69 -23 -137t-70 -129.5t-111.5 -109t-154.5 -75.5t-192 -28zM932 821q-139 0 -223 -80
t-84 -204v-91q0 -124 84 -204t223 -80t222 80t83 204v91q0 124 -83 204t-222 80z" />
    <glyph glyph-name="uni3182" unicode="&#x3182;" vert-adv-y="2263" 
d="M1114 1137h256v-324q0 -102 18.5 -163.5t77.5 -149.5q96 -142 215 -277l-176 -145q-91 103 -184 237q-54 76 -74 127h-2q-19 -47 -78 -131q-94 -134 -184 -237l-162 133q-88 -113 -274 -113q-164 0 -254 90.5t-90 268.5v110q0 278 217 342v262h256v-262q215 -64 215 -342
v-110q0 -81 -23 -152q71 85 150 199q60 87 78 148.5t18 164.5v324zM547 725q-61 0 -88 -47.5t-27 -140.5v-58q0 -93 27 -140.5t88 -47.5t88 47.5t27 140.5v58q0 93 -27 140.5t-88 47.5z" />
    <glyph glyph-name="uni3183" unicode="&#x3183;" vert-adv-y="2263" 
d="M584 94q-164 0 -254 90.5t-90 268.5v110q0 278 217 342v262h256v-262q215 -64 215 -342v-110q0 -178 -90 -268.5t-254 -90.5zM1266 1233l374 -1124h-747zM584 725q-61 0 -88 -47.5t-27 -140.5v-58q0 -93 27 -140.5t88 -47.5t87.5 47.5t26.5 140.5v58q0 93 -26.5 140.5
t-87.5 47.5zM1167 319h197l-98 338z" />
    <glyph glyph-name="uni3184" unicode="&#x3184;" vert-adv-y="2263" 
d="M438 1380h987v-206h-165v-365h184v-207h-1028v207h184v365h-162v206zM821 1174v-365h217v365h-217zM1305 238v-66q0 -104 -101.5 -184t-271.5 -80q-169 0 -270 80t-101 184v66q0 104 101 184t270 80q170 0 271.5 -80t101.5 -184zM1087 188v33q0 45 -43.5 71.5
t-111.5 26.5q-66 0 -110 -26.5t-44 -71.5v-33q0 -45 44 -71.5t110 -26.5q68 0 111.5 26.5t43.5 71.5z" />
    <glyph glyph-name="uni3185" unicode="&#x3185;" vert-adv-y="2263" 
d="M580 63q-140 0 -219.5 79t-79.5 188v172q0 109 79.5 187.5t219.5 78.5t219.5 -78.5t79.5 -187.5v-172q0 -109 -79.5 -188t-219.5 -79zM1288 63q-140 0 -219.5 79t-79.5 188v172q0 109 79.5 187.5t219.5 78.5t219.5 -78.5t79.5 -187.5v-172q0 -109 -79.5 -188t-219.5 -79z
M958 1016h220v162h221v-162h219v-185h-660v185zM250 1016h219v162h221v-162h219v-185h-659v185zM580 590q-88 0 -88 -113v-123q0 -112 88 -112t88 112v123q0 113 -88 113zM1288 590q-88 0 -88 -113v-123q0 -112 88 -112t88 112v123q0 113 -88 113z" />
    <glyph glyph-name="uni3186" unicode="&#x3186;" vert-adv-y="2263" 
d="M1450 1321v-219h-1038v219h1038zM932 -2q-224 0 -359 127.5t-135 331.5v65q0 204 135 331.5t359 127.5t358.5 -127.5t134.5 -331.5v-65q0 -204 -134.5 -331.5t-358.5 -127.5zM932 770q-128 0 -197 -75t-69 -181v-49q0 -106 69 -181t197 -75t197 75t69 181v49
q0 106 -69 181t-197 75z" />
    <glyph glyph-name="uni3187" unicode="&#x3187;" vert-adv-y="2263" 
d="M1593 899v-242h265v-221h-265v-731h-254v1905h254v-490h265v-221h-265zM297 850h250v-541l205 4v537h249v-526q200 13 242 18l19 -213q-325 -43 -1196 -43v221h231v543z" />
    <glyph glyph-name="uni3188" unicode="&#x3188;" vert-adv-y="2263" 
d="M1393 1577v-461h137v494h246v-1905h-246v729h-137v-678h-246v1821h246zM1071 365l10 -207q-325 -33 -993 -33v215h170v506h248v-504q25 0 77 1t79 1v502h247v-492q12 0 162 11zM1393 897v-244h137v244h-137z" />
    <glyph glyph-name="uni3189" unicode="&#x3189;" vert-adv-y="2263" 
d="M813 850h250v-526q147 6 252 18l18 -213q-325 -43 -1235 -43v221h260v543h250v-541l205 4v537zM1665 1610v-1905h-256v1905h256z" />
    <glyph glyph-name="uni318A" unicode="&#x318a;" vert-adv-y="2263" 
d="M102 516v219q866 0 1213 35l18 -211q-122 -17 -334 -29v-766h-251v758q-46 0 -156 -4v-754h-252v752h-238zM1106 442h307v1168h254v-1905h-254v240h-307v205h307v88h-307v204z" />
    <glyph glyph-name="uni318B" unicode="&#x318b;" vert-adv-y="2263" 
d="M1044 760l11 -209q-116 -12 -254 -21v-704h-238v696q-18 0 -55 -1t-57 -1v-694h-238v692h-152v217q223 0 337 1t290 6.5t356 17.5zM895 467h229v1110h246v-1821h-246v203h-229v205h229v98h-229v205zM1741 1610v-1905h-248v1905h248z" />
    <glyph glyph-name="uni318C" unicode="&#x318c;" vert-adv-y="2263" 
d="M102 516v221q866 0 1213 35l18 -213q-109 -15 -262 -24v-771h-252v760l-227 -6v-754h-252v752h-238zM1667 1610v-1905h-256v1905h256z" />
    <glyph glyph-name="uni318D" unicode="&#x318d;" vert-adv-y="2263" 
d="M780 690q0 66 44 110t110 44t111 -44t45 -110t-45 -110.5t-111 -44.5t-110 44.5t-44 110.5z" />
    <glyph glyph-name="uni318E" unicode="&#x318e;" vert-adv-y="2263" 
d="M1217 1610v-1905h-261v1905h261zM416 690q0 66 43.5 110t109.5 44t111 -44t45 -110t-45 -110.5t-111 -44.5t-109.5 44.5t-43.5 110.5z" />
    <glyph glyph-name="uni2170" unicode="&#x2170;" vert-adv-y="2263" 
d="M803 -53v1128h258v-1128h-258zM797 1241v279h270v-279h-270z" />
    <glyph glyph-name="uni2171" unicode="&#x2171;" vert-adv-y="2263" 
d="M547 -53v1128h258v-1128h-258zM541 1241v279h270v-279h-270zM1061 -53v1128h258v-1128h-258zM1055 1241v279h270v-279h-270z" />
    <glyph glyph-name="uni2172" unicode="&#x2172;" vert-adv-y="2263" 
d="M805 -53v1128h258v-1128h-258zM799 1241v279h270v-279h-270zM336 -53v1128h258v-1128h-258zM330 1241v279h270v-279h-270zM1272 -53v1128h258v-1128h-258zM1266 1241v279h270v-279h-270z" />
    <glyph glyph-name="uni2173" unicode="&#x2173;" vert-adv-y="2263" 
d="M408 -53v1128h258v-1128h-258zM401 1241v279h271v-279h-271zM1333 -53h-348l-295 1128h275l190 -891h8l197 891h266z" />
    <glyph glyph-name="uni2174" unicode="&#x2174;" vert-adv-y="2263" 
d="M1100 -53h-336l-369 1128h283l256 -887h8l258 887h268z" />
    <glyph glyph-name="uni2175" unicode="&#x2175;" vert-adv-y="2263" 
d="M1198 -53v1128h258v-1128h-258zM1192 1241v279h270v-279h-270zM881 -53h-349l-294 1128h274l190 -891h9l196 891h267z" />
    <glyph glyph-name="uni2176" unicode="&#x2176;" vert-adv-y="2263" 
d="M748 -53h-332l-283 1128h266l179 -891h8l180 891h258zM1053 -53v1128h250v-1128h-250zM1047 1241v279h262v-279h-262zM1425 -53v1128h250v-1128h-250zM1419 1241v279h262v-279h-262z" />
    <glyph glyph-name="uni2177" unicode="&#x2177;" vert-adv-y="2263" 
d="M938 -53v1128h225v-1128h-225zM932 1241v279h237v-279h-237zM645 -53h-299l-278 1128h260l164 -850h8q26 143 82.5 424.5t83.5 425.5h252zM1253 -53v1128h226v-1128h-226zM1247 1241v279h238v-279h-238zM1569 -53v1128h225v-1128h-225zM1563 1241v279h237v-279h-237z" />
    <glyph glyph-name="uni2178" unicode="&#x2178;" vert-adv-y="2263" 
d="M389 -53v1136h258v-1136h-258zM383 1241v279h270v-279h-270zM1677 1083l-317 -544l328 -592h-283l-221 422l-213 -422h-277l336 592l-321 544h288l209 -385l205 385h266z" />
    <glyph glyph-name="uni2179" unicode="&#x2179;" vert-adv-y="2263" 
d="M1438 1083l-338 -544l348 -592h-318l-206 415l-209 -415h-301l356 592l-342 544h324l192 -376l203 376h291z" />
    <glyph glyph-name="uni2160" unicode="&#x2160;" vert-adv-y="2263" 
d="M799 -53v1476h262v-1476h-262z" />
    <glyph glyph-name="uni2161" unicode="&#x2161;" vert-adv-y="2263" 
d="M551 -53v1476h262v-1476h-262zM1051 -53v1476h262v-1476h-262z" />
    <glyph glyph-name="uni2162" unicode="&#x2162;" vert-adv-y="2263" 
d="M313 -53v1476h262v-1476h-262zM1284 -53v1476h262v-1476h-262zM803 -53v1476h262v-1476h-262z" />
    <glyph glyph-name="uni2163" unicode="&#x2163;" vert-adv-y="2263" 
d="M1071 -53l-438 1476h272q47 -178 144 -553.5t149 -572.5q54 203 152 580t143 546h264l-448 -1476h-238zM317 -53v1476h263v-1476h-263z" />
    <glyph glyph-name="uni2164" unicode="&#x2164;" vert-adv-y="2263" 
d="M815 -53q-94 246 -285.5 738t-285.5 738h284l400 -1110q69 187 211 555.5t211 554.5h268q-99 -246 -293.5 -738t-292.5 -738h-217z" />
    <glyph glyph-name="uni2165" unicode="&#x2165;" vert-adv-y="2263" 
d="M545 -53l-439 1476h273q47 -177 144 -550.5t149 -569.5q54 202 152.5 577t142.5 543h264l-449 -1476h-237zM1284 -53v1476h262v-1476h-262z" />
    <glyph glyph-name="uni2166" unicode="&#x2166;" vert-adv-y="2263" 
d="M434 -53l-407 1476h256l272 -1130q48 201 136.5 579.5t129.5 550.5h252q-65 -246 -197 -738t-196 -738h-246zM1456 -53v1476h234v-1476h-234zM1112 -53v1476h234v-1476h-234z" />
    <glyph glyph-name="uni2167" unicode="&#x2167;" vert-adv-y="2263" 
d="M342 -53q-50 246 -148.5 738t-148.5 738h244l174 -1134q29 189 84.5 567t83.5 567h239l-282 -1476h-246zM1554 -53v1476h218v-1476h-218zM1231 -53v1476h217v-1476h-217zM918 -53v1476h217v-1476h-217z" />
    <glyph glyph-name="uni2168" unicode="&#x2168;" vert-adv-y="2263" 
d="M1737 1423l-381 -723l411 -753h-294l-289 592l-258 -592h-287l393 776l-356 700h291l245 -544l248 544h277zM350 -53v1476h254v-1476h-254z" />
    <glyph glyph-name="uni2169" unicode="&#x2169;" vert-adv-y="2263" 
d="M1544 1423l-440 -718l459 -758h-303l-338 596l-328 -596h-295l457 772l-420 704h315l295 -544l305 544h293z" />
    <glyph glyph-name="Alpha" unicode="&#x391;" horiz-adv-x="1409" vert-adv-y="2263" 
d="M821 1423l555 -1476h-284l-144 405h-497l-146 -405h-268l549 1476h235zM627 872l-101 -301h346l-100 301q-48 134 -74 228q-38 -134 -71 -228z" />
    <glyph glyph-name="Beta" unicode="&#x392;" horiz-adv-x="1353" vert-adv-y="2263" 
d="M166 -53v1476h573q235 0 350 -89t115 -271v-43q0 -107 -55 -187t-178 -110q141 -21 221 -104.5t80 -231.5v-51q0 -186 -117.5 -287.5t-351.5 -101.5h-637zM426 608v-444h238q75 0 125 4t94 16.5t68.5 34.5t38.5 58t14 88v45q0 114 -82.5 156t-296.5 42h-199zM627 1206
h-201v-385h192q52 0 83 1t69.5 5t60 11.5t45 21t35.5 34t19.5 50t7.5 68.5v37q0 91 -70 124t-241 33z" />
    <glyph glyph-name="Gamma" unicode="&#x393;" horiz-adv-x="1142" vert-adv-y="2263" 
d="M428 -53h-262v1476h977v-215h-715v-1261z" />
    <glyph glyph-name="uni0394" unicode="&#x394;" horiz-adv-x="1415" vert-adv-y="2263" 
d="M45 -53l543 1476h266l539 -1476h-1348zM721 1133l-334 -977h662z" />
    <glyph glyph-name="Epsilon" unicode="&#x395;" horiz-adv-x="1245" vert-adv-y="2263" 
d="M166 1423h950v-217h-690v-397h647v-213h-647v-432h704v-217h-964v1476z" />
    <glyph glyph-name="Zeta" unicode="&#x396;" horiz-adv-x="1288" vert-adv-y="2263" 
d="M1184 1423v-198l-809 -1053h848v-225h-1172v215l799 1036h-750v225h1084z" />
    <glyph glyph-name="Eta" unicode="&#x397;" horiz-adv-x="1468" vert-adv-y="2263" 
d="M1040 -53v661h-612v-661h-262v1476h262v-598h612v598h263v-1476h-263z" />
    <glyph glyph-name="Theta" unicode="&#x398;" horiz-adv-x="1474" vert-adv-y="2263" 
d="M737 1446q103 0 194 -22t171 -71.5t137 -122.5t90 -181t33 -242v-244q0 -136 -32.5 -244.5t-89 -181.5t-136.5 -121.5t-171 -70t-196 -21.5t-196 21.5t-170.5 70t-136 121.5t-89 181.5t-32.5 244.5v244q0 133 33 241.5t90.5 181.5t137 122.5t170 71.5t193.5 22zM737 164
q80 0 142 20.5t113 67.5t78.5 134t27.5 210v178q0 123 -27.5 210t-78.5 134t-113 67.5t-142 20.5q-79 0 -140.5 -20.5t-112.5 -67.5t-79 -134t-28 -210v-178q0 -123 28 -210t79 -134t112.5 -67.5t140.5 -20.5zM1047 780v-184h-619v184h619z" />
    <glyph glyph-name="Iota" unicode="&#x399;" horiz-adv-x="593" vert-adv-y="2263" 
d="M166 -53v1476h262v-1476h-262z" />
    <glyph glyph-name="Kappa" unicode="&#x39a;" horiz-adv-x="1363" vert-adv-y="2263" 
d="M1313 1423l-572 -651l602 -825h-331l-447 635l-137 -150v-485h-262v1476h262v-675l582 675h303z" />
    <glyph glyph-name="Lambda" unicode="&#x39b;" horiz-adv-x="1447" vert-adv-y="2263" 
d="M840 1423l571 -1476h-285l-399 1106h-2l-420 -1106h-268l586 1476h217z" />
    <glyph glyph-name="Mu" unicode="&#x39c;" horiz-adv-x="1792" vert-adv-y="2263" 
d="M791 285l-306 778q-9 22 -75 223v-1247h-244v1477h373l362 -918l348 918h377v-1477h-248v1247q-19 -77 -69 -223l-310 -778h-208z" />
    <glyph glyph-name="Nu" unicode="&#x39d;" horiz-adv-x="1476" vert-adv-y="2263" 
d="M166 -53v1476h301l504 -895q66 -118 94 -233v1128h246v-1476h-301l-506 897q-70 125 -92 227v-1124h-246z" />
    <glyph glyph-name="Xi" unicode="&#x39e;" horiz-adv-x="1275" vert-adv-y="2263" 
d="M76 168h1034v-221h-1034v221zM158 592v221h858v-221h-858zM1096 1202h-1020v221h1020v-221z" />
    <glyph glyph-name="Omicron" unicode="&#x39f;" horiz-adv-x="1474" vert-adv-y="2263" 
d="M737 1446q103 0 194 -22t171 -71.5t137 -122.5t90 -181t33 -242v-244q0 -136 -32.5 -244.5t-89 -181.5t-136.5 -121.5t-171 -70t-196 -21.5t-196 21.5t-170.5 70t-136 121.5t-89 181.5t-32.5 244.5v244q0 133 33 241.5t90.5 181.5t137 122.5t170 71.5t193.5 22zM737 164
q80 0 142 20.5t113 67.5t78.5 134t27.5 210v178q0 123 -27.5 210t-78.5 134t-113 67.5t-142 20.5q-79 0 -140.5 -20.5t-112.5 -67.5t-79 -134t-28 -210v-178q0 -123 28 -210t79 -134t112.5 -67.5t140.5 -20.5z" />
    <glyph glyph-name="Pi" unicode="&#x3a0;" horiz-adv-x="1411" vert-adv-y="2263" 
d="M1253 1423v-1476h-262v1261h-563v-1261h-262v1476h1087z" />
    <glyph glyph-name="Rho" unicode="&#x3a1;" horiz-adv-x="1302" vert-adv-y="2263" 
d="M166 -53v1476h557q254 0 380 -115t126 -307v-43q0 -92 -31.5 -171t-92.5 -140.5t-159.5 -97t-222.5 -35.5h-295v-567h-262zM711 1204h-283v-469h260q136 0 206.5 52.5t70.5 175.5v36q0 114 -65.5 159.5t-188.5 45.5z" />
    <glyph glyph-name="Sigma" unicode="&#x3a3;" horiz-adv-x="1112" vert-adv-y="2263" 
d="M76 1423h971v-221h-648l400 -522l-404 -512h666v-221h-985v184l428 547l-428 567v178z" />
    <glyph glyph-name="Tau" unicode="&#x3a4;" horiz-adv-x="1169" vert-adv-y="2263" 
d="M20 1423h1129v-221h-432v-1255h-262v1255h-435v221z" />
    <glyph glyph-name="Upsilon" unicode="&#x3a5;" horiz-adv-x="1327" vert-adv-y="2263" 
d="M1300 1423l-505 -893v-583h-263v583l-505 893h292l351 -651l344 651h286z" />
    <glyph glyph-name="Phi" unicode="&#x3a6;" horiz-adv-x="1560" vert-adv-y="2263" 
d="M102 662v108q0 213 150 349t405 163v188h244v-188q257 -28 407 -163.5t150 -348.5v-108q0 -215 -150 -349.5t-407 -162.5v-203h-244v203q-255 28 -405 163.5t-150 348.5zM1206 674v84q0 115 -69.5 189.5t-235.5 96.5v-661q305 40 305 291zM354 758v-84q0 -117 69.5 -193
t233.5 -98v661q-303 -40 -303 -286z" />
    <glyph glyph-name="Chi" unicode="&#x3a7;" horiz-adv-x="1370" vert-adv-y="2263" 
d="M1298 1423l-440 -718l459 -758h-303l-338 596l-328 -596h-295l457 772l-420 704h316l294 -544l306 544h292z" />
    <glyph glyph-name="Psi" unicode="&#x3a8;" horiz-adv-x="1492" vert-adv-y="2263" 
d="M621 -53v364q-248 32 -378 187.5t-130 425.5v458h260v-407q0 -86 12 -154t33 -114.5t53 -80t68 -52.5t82 -29v837h258v-835q58 14 99 39.5t74.5 73t50.5 126t17 189.5v407h260v-458q0 -268 -129 -423.5t-372 -189.5v-364h-258z" />
    <glyph glyph-name="uni03A9" unicode="&#x3a9;" horiz-adv-x="1542" vert-adv-y="2263" 
d="M1509 176v-229h-641v229q246 55 246 420v182q0 219 -84 325.5t-260 106.5t-260 -106.5t-84 -325.5v-182q0 -365 246 -420v-229h-641v229h284q-63 59 -104 159.5t-41 227.5v244q0 306 156 472.5t444 166.5t444 -166.5t156 -472.5v-244q0 -127 -41 -227.5t-104 -159.5h284z
" />
    <glyph glyph-name="alpha" unicode="&#x3b1;" horiz-adv-x="1234" vert-adv-y="2263" 
d="M823 -53v145h-2q-25 -70 -103.5 -116t-178.5 -46q-449 0 -449 473v228q0 223 113.5 346t320.5 123q114 0 190 -43.5t107 -108.5v127h258v-1128h-256zM348 594v-170q0 -148 55 -208t175 -60q57 0 110.5 24t93 80.5t39.5 134.5v230q0 112 -59.5 180.5t-183.5 68.5
q-126 0 -178 -61t-52 -219z" />
    <glyph glyph-name="beta" unicode="&#x3b2;" horiz-adv-x="1206" vert-adv-y="2263" 
d="M1038 1137v-23q0 -279 -225 -354q68 -8 125 -31t105 -64.5t75 -109.5t27 -158v-39q0 -190 -119 -309t-297 -119q-111 0 -191 41t-124 109v-572h-258v1557q0 210 125.5 326t324.5 116q103 0 186.5 -31t136 -83t81 -118t28.5 -138zM414 1022v-608q0 -40 5.5 -73t22.5 -69.5
t45.5 -61t78 -40.5t116.5 -16q39 0 72.5 10t63.5 32t47.5 64.5t17.5 101.5v29q0 81 -19.5 132.5t-65 80.5t-110 38.5t-164.5 6.5v201q136 0 194 55.5t58 169.5v31q0 29 -6.5 57t-23 60t-53 51.5t-89.5 19.5q-190 0 -190 -272z" />
    <glyph glyph-name="gamma" unicode="&#x3b3;" horiz-adv-x="1091" vert-adv-y="2263" 
d="M8 1075h271l268 -899l278 899h258l-409 -1143v-424h-258v420z" />
    <glyph glyph-name="delta" unicode="&#x3b4;" horiz-adv-x="1179" vert-adv-y="2263" 
d="M590 -70q-240 0 -369 131.5t-129 378.5v54q0 118 40 220t122.5 174.5t194.5 90.5q-189 133 -189 281v16q0 108 87.5 169.5t270.5 61.5q197 0 347 -69l-72 -207q-105 65 -244 65q-133 0 -133 -63q0 -37 70 -94.5t274 -188.5q227 -148 227 -473v-37q0 -247 -128.5 -378.5
t-368.5 -131.5zM590 156q114 0 175.5 77t61.5 211v29q0 126 -24.5 194t-75 94.5t-143.5 26.5q-116 0 -174 -85.5t-58 -233.5v-25q0 -134 62 -211t176 -77z" />
    <glyph glyph-name="epsilon" unicode="&#x3b5;" horiz-adv-x="1040" vert-adv-y="2263" 
d="M915 1028l-63 -190q-135 63 -305 63q-91 0 -130.5 -35t-39.5 -78v-18q0 -77 45.5 -112t157.5 -35h137v-193h-137q-44 0 -74.5 -3t-61.5 -12t-50 -25t-30.5 -44t-11.5 -67v-11q0 -131 217 -131q167 0 310 99l100 -189q-69 -53 -193.5 -85t-253.5 -32q-216 0 -337 82
t-121 234v28q0 115 72 187.5t192 73.5q-116 11 -175 83.5t-59 165.5v29q0 136 110 211.5t329 75.5q222 0 372 -72z" />
    <glyph glyph-name="zeta" unicode="&#x3b6;" horiz-adv-x="962" vert-adv-y="2263" 
d="M698 -367l-157 166q7 4 34.5 20.5t36.5 23.5t25.5 20t22.5 25.5t6 25.5q0 12 -9.5 21t-31 16t-45 12t-64.5 15t-76 20q-198 58 -288.5 166.5t-90.5 320.5v47q0 198 105.5 399.5t275.5 342.5h-299v221h752l25 -143q-166 -103 -299.5 -229.5t-217.5 -272.5t-84 -277v-38
q0 -54 9 -96.5t29 -74.5t43.5 -55t62.5 -43t75.5 -34t92.5 -31q62 -19 107.5 -37t78.5 -33.5t54 -34.5t33.5 -35t18.5 -40t7.5 -44t1.5 -53q0 -44 -20 -86t-60 -81t-71.5 -64t-82.5 -60z" />
    <glyph glyph-name="eta" unicode="&#x3b7;" horiz-adv-x="1261" vert-adv-y="2263" 
d="M741 1100q175 0 282 -104.5t107 -309.5v-1178h-258v1119q0 133 -48.5 190t-159.5 57q-112 0 -181 -68t-69 -192v-667h-258v1128h247v-121q96 146 338 146z" />
    <glyph glyph-name="theta" unicode="&#x3b8;" horiz-adv-x="1183" vert-adv-y="2263" 
d="M592 1507q123 0 215.5 -43t147 -111t88.5 -166.5t45.5 -195.5t11.5 -213v-123q0 -116 -11.5 -213t-45.5 -195.5t-88.5 -166.5t-147 -111t-215.5 -43t-215.5 43t-147 111t-88.5 166.5t-45.5 195.5t-11.5 213v123q0 82 6 153.5t21 147t39.5 137t64.5 117t91.5 93
t124.5 59.5t161 22zM840 840q0 42 -0.5 64.5t-2.5 65t-6 68t-12.5 62.5t-21 60t-31 49t-43 40.5t-58 24.5t-73.5 10t-73.5 -10t-58 -24.5t-43 -40.5t-31 -49t-21 -60t-12.5 -62.5t-6 -68t-2.5 -65t-0.5 -64.5h496zM840 618h-496q0 -42 0.5 -65t2.5 -67.5t6 -71.5t12.5 -66.5
t21 -64t31.5 -52.5t43 -44t57.5 -26.5t73.5 -10.5t73.5 10.5t57.5 26.5t43 44t31.5 52.5t21 64t12.5 66.5t6 71.5t2.5 67.5t0.5 65z" />
    <glyph glyph-name="iota" unicode="&#x3b9;" horiz-adv-x="612" vert-adv-y="2263" 
d="M590 176l22 -217q-77 -29 -180 -29q-280 0 -280 263v882h258v-801q0 -67 14 -89.5t74 -22.5q50 0 92 14z" />
    <glyph glyph-name="kappa" unicode="&#x3ba;" horiz-adv-x="1175" vert-adv-y="2263" 
d="M1169 1075l-432 -446l443 -682h-330l-293 493l-143 -145v-348h-258v1128h258v-469l426 469h329z" />
    <glyph glyph-name="lambda" unicode="&#x3bb;" horiz-adv-x="1095" vert-adv-y="2263" 
d="M205 1266l-72 178q35 27 88 45t103 18q101 0 152.5 -34t86.5 -127l527 -1399h-263l-284 811h-6l-261 -811h-274l401 1151l-36 129q-21 71 -68 71q-35 0 -94 -32z" />
    <glyph glyph-name="uni03BC" unicode="&#x3bc;" horiz-adv-x="1280" vert-adv-y="2263" 
d="M866 1075h258v-1128h-247v139q-21 -73 -85.5 -114.5t-142.5 -41.5q-79 0 -145.5 38.5t-89.5 99.5v-560h-258v1567h258v-678q0 -63 21 -112t55 -77t73.5 -42t81.5 -14q91 0 156 61t65 184v678z" />
    <glyph glyph-name="nu" unicode="&#x3bd;" horiz-adv-x="1087" vert-adv-y="2263" 
d="M713 -53h-336l-369 1128h283l256 -887h8l258 887h268z" />
    <glyph glyph-name="xi" unicode="&#x3be;" horiz-adv-x="944" vert-adv-y="2263" 
d="M350 465v-23q0 -87 69 -138t234 -101q130 -40 194 -76t87.5 -80.5t23.5 -120.5q0 -82 -57.5 -151.5t-163.5 -143.5l-162 170q43 24 64 37t41 34t20 40q0 10 -8 18t-28 15.5t-36.5 12.5t-50 13.5t-53.5 14.5q-83 24 -143 47.5t-118.5 60.5t-94.5 82.5t-58 112t-22 149.5
v25q0 80 27 145.5t73.5 108.5t106 67.5t125.5 28.5q-116 20 -197.5 99t-81.5 200v39q0 157 118 256.5t335 99.5q117 0 219.5 -25t167.5 -71l-115 -192q-106 73 -270 73q-95 0 -146 -39.5t-51 -107.5v-25q0 -198 318 -198h84v-224h-90q-201 0 -281 -54.5t-80 -178.5z" />
    <glyph glyph-name="omicron" unicode="&#x3bf;" horiz-adv-x="1245" vert-adv-y="2263" 
d="M623 156q123 0 195.5 72t72.5 225v125q0 296 -268 296q-269 0 -269 -296v-125q0 -153 73 -225t196 -72zM623 -70q-242 0 -385.5 137.5t-143.5 381.5v133q0 245 143 381.5t386 136.5t385.5 -136t142.5 -382v-133q0 -245 -143 -382t-385 -137z" />
    <glyph glyph-name="pi" unicode="&#x3c0;" horiz-adv-x="1191" vert-adv-y="2263" 
d="M1120 174l31 -213q-79 -31 -184 -31q-277 0 -277 263v669h-182v-915h-260v915h-223v221h1142v-221h-223v-588q0 -70 18.5 -92t71.5 -22q44 0 86 14z" />
    <glyph glyph-name="rho" unicode="&#x3c1;" horiz-adv-x="1265" vert-adv-y="2263" 
d="M674 1104q239 0 369.5 -135t130.5 -383v-137q0 -519 -453 -519q-105 0 -182 39t-107 90v-551h-258v1078q0 249 130 383.5t370 134.5zM674 156q239 0 239 317v88q0 318 -239 318q-117 0 -178.5 -79.5t-61.5 -238.5v-88q0 -317 240 -317z" />
    <glyph glyph-name="sigma" unicode="&#x3c3;" horiz-adv-x="1253" vert-adv-y="2263" 
d="M1212 1083v-217h-188q129 -86 129 -303v-112q0 -242 -142.5 -381.5t-387.5 -139.5t-388 139.5t-143 381.5v112q0 248 140.5 384t412.5 136h567zM623 156q121 0 195.5 82t74.5 235v68q0 153 -74.5 235t-195.5 82q-123 0 -197 -81.5t-74 -235.5v-68q0 -154 74 -235.5
t197 -81.5z" />
    <glyph glyph-name="tau" unicode="&#x3c4;" horiz-adv-x="1159" vert-adv-y="2263" 
d="M866 184l49 -207q-96 -47 -256 -47q-123 0 -179 66t-56 203v663h-391v221h1093v-221h-444v-594q0 -62 13 -86t50 -24q53 0 121 26z" />
    <glyph glyph-name="upsilon" unicode="&#x3c5;" horiz-adv-x="1189" vert-adv-y="2263" 
d="M596 160q54 0 91.5 12.5t66 44t42 89.5t13.5 145v624h258v-661q0 -91 -14 -163t-47 -133.5t-86.5 -102t-134.5 -63t-189 -22.5q-134 0 -227.5 33.5t-146.5 99.5t-76 151t-23 200v661h258v-624q0 -86 15 -144.5t45 -90t67 -44t88 -12.5z" />
    <glyph glyph-name="phi" unicode="&#x3c6;" horiz-adv-x="1413" vert-adv-y="2263" 
d="M829 -492h-254v431q-232 34 -358.5 171t-126.5 361v92q0 252 164.5 396.5t452.5 144.5t452 -145t164 -396v-92q0 -224 -129.5 -362.5t-364.5 -169.5v-431zM1069 479v76q0 139 -64 209t-176 96v-692q113 21 176.5 92.5t63.5 218.5zM344 555v-76q0 -74 17 -128t50.5 -88
t72 -54t91.5 -33v684q-111 -30 -171 -98t-60 -207z" />
    <glyph glyph-name="chi" unicode="&#x3c7;" horiz-adv-x="1177" vert-adv-y="2263" 
d="M403 971l187 -488l241 592h271l-357 -756l218 -528q17 -40 31.5 -53.5t37.5 -13.5q30 0 66 16l67 -184q-34 -30 -94 -48t-125 -18q-75 0 -121.5 30t-72.5 99l-199 537l-277 -648h-272l393 807l-202 482q-32 77 -70 80q-25 2 -66 -21l-69 180q35 30 93 49t122 19
q146 0 198 -133z" />
    <glyph glyph-name="psi" unicode="&#x3c8;" horiz-adv-x="1486" vert-adv-y="2263" 
d="M870 -492h-254v433q-103 14 -188.5 48t-155.5 91.5t-109.5 148t-39.5 205.5v641h252v-608q0 -250 241 -295v903h254v-903q242 47 242 295v608h252v-641q0 -115 -40 -205.5t-111 -148t-156 -91.5t-187 -48v-433z" />
    <glyph glyph-name="omega" unicode="&#x3c9;" horiz-adv-x="1581" vert-adv-y="2263" 
d="M795 109h-4q-25 -84 -102 -131.5t-173 -47.5q-89 0 -161 31t-127 94.5t-85 169t-30 246.5v31q0 146 57 325t137 297l232 -120q-162 -291 -162 -510v-31q0 -48 7.5 -95.5t24.5 -95.5t50 -78t78 -30q71 0 99 58.5t28 168.5v406h254v-408q0 -111 27 -168t97 -57q45 0 79 30
t52 77.5t26.5 96t8.5 95.5v31q0 222 -164 510l230 120q80 -118 137 -297t57 -325v-31q0 -275 -110.5 -408t-294.5 -133q-95 0 -168.5 47.5t-99.5 131.5z" />
    <glyph glyph-name="SF100000" unicode="&#x2500;" horiz-adv-x="1884" vert-adv-y="2263" 
d="M1884 645v-59h-1884v59h1884z" />
    <glyph glyph-name="SF110000" unicode="&#x2502;" horiz-adv-x="1884" vert-adv-y="2263" 
d="M973 1638v-2048h-60v2048h60z" />
    <glyph glyph-name="SF010000" unicode="&#x250c;" horiz-adv-x="1884" vert-adv-y="2263" 
d="M1884 645v-59h-911v-996h-60v1055h971z" />
    <glyph glyph-name="SF030000" unicode="&#x2510;" horiz-adv-x="1884" vert-adv-y="2263" 
d="M973 645v-1055h-60v996h-913v59h973z" />
    <glyph glyph-name="SF040000" unicode="&#x2518;" horiz-adv-x="1884" vert-adv-y="2263" 
d="M973 1638v-1052h-973v59h913v993h60z" />
    <glyph glyph-name="SF020000" unicode="&#x2514;" horiz-adv-x="1884" vert-adv-y="2263" 
d="M1884 645v-59h-971v1052h60v-993h911z" />
    <glyph glyph-name="SF080000" unicode="&#x251c;" horiz-adv-x="1884" vert-adv-y="2263" 
d="M1884 645v-59h-911v-996h-60v2048h60v-993h911z" />
    <glyph glyph-name="SF060000" unicode="&#x252c;" horiz-adv-x="1884" vert-adv-y="2263" 
d="M1884 645v-59h-911v-996h-60v996h-913v59h1884z" />
    <glyph glyph-name="SF090000" unicode="&#x2524;" horiz-adv-x="1884" vert-adv-y="2263" 
d="M973 1638v-2048h-60v996h-913v59h913v993h60z" />
    <glyph glyph-name="SF070000" unicode="&#x2534;" horiz-adv-x="1884" vert-adv-y="2263" 
d="M1884 645v-59h-1884v59h913v993h60v-993h911z" />
    <glyph glyph-name="SF050000" unicode="&#x253c;" horiz-adv-x="1884" vert-adv-y="2263" 
d="M1884 643v-59h-911v-994h-60v994h-913v59h913v995h60v-995h911z" />
    <glyph glyph-name="uni2501" unicode="&#x2501;" horiz-adv-x="1884" vert-adv-y="2263" 
d="M1884 666v-111h-1884v111h1884z" />
    <glyph glyph-name="uni2503" unicode="&#x2503;" horiz-adv-x="1884" vert-adv-y="2263" 
d="M997 1638v-2048h-110v2048h110z" />
    <glyph glyph-name="uni250F" unicode="&#x250f;" horiz-adv-x="1884" vert-adv-y="2263" 
d="M1884 666v-111h-887v-965h-110v1076h997z" />
    <glyph glyph-name="uni2513" unicode="&#x2513;" horiz-adv-x="1884" vert-adv-y="2263" 
d="M997 666v-1076h-110v965h-887v111h997z" />
    <glyph glyph-name="uni251B" unicode="&#x251b;" horiz-adv-x="1884" vert-adv-y="2263" 
d="M997 1638v-1083h-997v111h887v972h110z" />
    <glyph glyph-name="uni2517" unicode="&#x2517;" horiz-adv-x="1884" vert-adv-y="2263" 
d="M1884 666v-111h-997v1083h110v-972h887z" />
    <glyph glyph-name="uni2523" unicode="&#x2523;" horiz-adv-x="1884" vert-adv-y="2263" 
d="M1884 666v-111h-887v-965h-110v2048h110v-972h887z" />
    <glyph glyph-name="uni2533" unicode="&#x2533;" horiz-adv-x="1884" vert-adv-y="2263" 
d="M1884 666v-111h-887v-965h-110v965h-887v111h1884z" />
    <glyph glyph-name="uni252B" unicode="&#x252b;" horiz-adv-x="1884" vert-adv-y="2263" 
d="M997 1638v-2048h-110v965h-887v111h887v972h110z" />
    <glyph glyph-name="uni253B" unicode="&#x253b;" horiz-adv-x="1884" vert-adv-y="2263" 
d="M1884 666v-111h-1884v111h887v972h110v-972h887z" />
    <glyph glyph-name="uni254B" unicode="&#x254b;" horiz-adv-x="1884" vert-adv-y="2263" 
d="M1884 666v-111h-887v-965h-110v965h-887v111h887v972h110v-972h887z" />
    <glyph glyph-name="uni2520" unicode="&#x2520;" horiz-adv-x="1884" vert-adv-y="2263" 
d="M1884 651v-73h-866v-988h-156v2048h156v-987h866z" />
    <glyph glyph-name="uni252F" unicode="&#x252f;" horiz-adv-x="1884" vert-adv-y="2263" 
d="M1884 688v-147h-903v-951h-78v951h-903v147h1884z" />
    <glyph glyph-name="uni2528" unicode="&#x2528;" horiz-adv-x="1884" vert-adv-y="2263" 
d="M1020 1638v-2048h-156v988h-864v73h864v987h156z" />
    <glyph glyph-name="uni2537" unicode="&#x2537;" horiz-adv-x="1884" vert-adv-y="2263" 
d="M1884 688v-147h-1884v147h903v950h78v-950h903z" />
    <glyph glyph-name="uni253F" unicode="&#x253f;" horiz-adv-x="1884" vert-adv-y="2263" 
d="M1884 688v-147h-903v-951h-78v951h-903v147h903v950h78v-950h903z" />
    <glyph glyph-name="uni251D" unicode="&#x251d;" horiz-adv-x="1884" vert-adv-y="2263" 
d="M1884 688v-147h-903v-951h-78v2048h78v-950h903z" />
    <glyph glyph-name="uni2530" unicode="&#x2530;" horiz-adv-x="1884" vert-adv-y="2263" 
d="M1884 651v-73h-864v-988h-156v988h-864v73h1884z" />
    <glyph glyph-name="uni2525" unicode="&#x2525;" horiz-adv-x="1884" vert-adv-y="2263" 
d="M981 1638v-2048h-78v951h-903v147h903v950h78z" />
    <glyph glyph-name="uni2538" unicode="&#x2538;" horiz-adv-x="1884" vert-adv-y="2263" 
d="M1884 651v-73h-1884v73h864v987h156v-987h864z" />
    <glyph glyph-name="uni2542" unicode="&#x2542;" horiz-adv-x="1884" vert-adv-y="2263" 
d="M1884 651v-73h-864v-988h-156v988h-864v73h864v987h156v-987h864z" />
    <glyph glyph-name="uni2512" unicode="&#x2512;" horiz-adv-x="1884" vert-adv-y="2263" 
d="M1020 651v-1061h-156v988h-864v73h1020z" />
    <glyph glyph-name="uni2511" unicode="&#x2511;" horiz-adv-x="1884" vert-adv-y="2263" 
d="M981 688v-1098h-78v951h-903v147h981z" />
    <glyph glyph-name="uni251A" unicode="&#x251a;" horiz-adv-x="1884" vert-adv-y="2263" 
d="M1020 1638v-1060h-1020v73h864v987h156z" />
    <glyph glyph-name="uni2519" unicode="&#x2519;" horiz-adv-x="1884" vert-adv-y="2263" 
d="M981 1638v-1097h-981v147h903v950h78z" />
    <glyph glyph-name="uni2516" unicode="&#x2516;" horiz-adv-x="1884" vert-adv-y="2263" 
d="M1884 651v-73h-1020v1060h156v-987h864z" />
    <glyph glyph-name="uni2515" unicode="&#x2515;" horiz-adv-x="1884" vert-adv-y="2263" 
d="M1884 688v-147h-981v1097h78v-950h903z" />
    <glyph glyph-name="uni250E" unicode="&#x250e;" horiz-adv-x="1884" vert-adv-y="2263" 
d="M1884 651v-73h-864v-988h-156v1061h1020z" />
    <glyph glyph-name="uni250D" unicode="&#x250d;" horiz-adv-x="1884" vert-adv-y="2263" 
d="M1884 688v-147h-903v-951h-78v1098h981z" />
    <glyph glyph-name="uni251E" unicode="&#x251e;" horiz-adv-x="1884" vert-adv-y="2263" 
d="M1884 651v-73h-905l2 -988h-78v1024h-39v1024h156v-987h864z" />
    <glyph glyph-name="uni251F" unicode="&#x251f;" horiz-adv-x="1884" vert-adv-y="2263" 
d="M1884 651v-73h-864v-988h-156v1024h39v1024h78v-987h903z" />
    <glyph glyph-name="uni2521" unicode="&#x2521;" horiz-adv-x="1884" vert-adv-y="2263" 
d="M1884 688v-147h-903v-951h-78v1024h-39v1024h156v-950h864z" />
    <glyph glyph-name="uni2522" unicode="&#x2522;" horiz-adv-x="1884" vert-adv-y="2263" 
d="M1884 688v-147h-864v-951h-156v1024h39v1024h78v-950h903z" />
    <glyph glyph-name="uni2526" unicode="&#x2526;" horiz-adv-x="1884" vert-adv-y="2263" 
d="M1020 1638v-1024h-39v-1024h-78v988h-903v73h864v987h156z" />
    <glyph glyph-name="uni2527" unicode="&#x2527;" horiz-adv-x="1884" vert-adv-y="2263" 
d="M1020 614v-1024h-156v988h-864v73h903v987h78v-1024h39z" />
    <glyph glyph-name="uni2529" unicode="&#x2529;" horiz-adv-x="1884" vert-adv-y="2263" 
d="M1020 1638v-1024h-39v-1024h-78v951h-903v147h864v950h156z" />
    <glyph glyph-name="uni252A" unicode="&#x252a;" horiz-adv-x="1884" vert-adv-y="2263" 
d="M1020 614v-1024h-156v951h-864v147h903v950h78v-1024h39z" />
    <glyph glyph-name="uni252D" unicode="&#x252d;" horiz-adv-x="1884" vert-adv-y="2263" 
d="M1884 651v-73h-903v-988h-78v951h-903v147h942v-37h942z" />
    <glyph glyph-name="uni252E" unicode="&#x252e;" horiz-adv-x="1884" vert-adv-y="2263" 
d="M1884 688v-147h-903v-951h-78v988h-903v73h942v37h942z" />
    <glyph glyph-name="uni2531" unicode="&#x2531;" horiz-adv-x="1884" vert-adv-y="2263" 
d="M1884 651v-73h-864v-988h-156v951h-864v147h942v-37h942z" />
    <glyph glyph-name="uni2532" unicode="&#x2532;" horiz-adv-x="1884" vert-adv-y="2263" 
d="M1884 688v-147h-864v-951h-156v988h-864v73h942v37h942z" />
    <glyph glyph-name="uni2535" unicode="&#x2535;" horiz-adv-x="1884" vert-adv-y="2263" 
d="M1884 651v-73h-942v-37h-942v147h903v950h78v-987h903z" />
    <glyph glyph-name="uni2536" unicode="&#x2536;" horiz-adv-x="1884" vert-adv-y="2263" 
d="M1884 688v-147h-942v37h-942v73h903v987h78v-950h903z" />
    <glyph glyph-name="uni2539" unicode="&#x2539;" horiz-adv-x="1884" vert-adv-y="2263" 
d="M1884 651v-73h-942v-37h-942v147h864v950h156v-987h864z" />
    <glyph glyph-name="uni253A" unicode="&#x253a;" horiz-adv-x="1884" vert-adv-y="2263" 
d="M1884 688v-147h-942v37h-942v73h864v987h156v-950h864z" />
    <glyph glyph-name="uni253D" unicode="&#x253d;" horiz-adv-x="1884" vert-adv-y="2263" 
d="M1884 651v-73h-903v-988h-78v951h-903v155h903v942h78v-987h903z" />
    <glyph glyph-name="uni253E" unicode="&#x253e;" horiz-adv-x="1884" vert-adv-y="2263" 
d="M1884 688v-147h-903v-951h-78v988h-903v73h903v987h78v-950h903z" />
    <glyph glyph-name="uni2540" unicode="&#x2540;" horiz-adv-x="1884" vert-adv-y="2263" 
d="M1884 651v-73h-903v-988h-78v988h-903v73h864v987h156v-987h864z" />
    <glyph glyph-name="uni2541" unicode="&#x2541;" horiz-adv-x="1884" vert-adv-y="2263" 
d="M1884 651v-73h-864v-988h-156v988h-864v73h903v987h78v-987h903z" />
    <glyph glyph-name="uni2543" unicode="&#x2543;" horiz-adv-x="1884" vert-adv-y="2263" 
d="M1884 651v-73h-903v-988h-78v951h-903v147h864v950h156v-987h864z" />
    <glyph glyph-name="uni2544" unicode="&#x2544;" horiz-adv-x="1884" vert-adv-y="2263" 
d="M1884 688v-147h-903v-951h-78v988h-903v73h864v987h156v-950h864z" />
    <glyph glyph-name="uni2545" unicode="&#x2545;" horiz-adv-x="1884" vert-adv-y="2263" 
d="M1884 651v-73h-864v-988h-156v951h-864v147h903v950h78v-987h903z" />
    <glyph glyph-name="uni2546" unicode="&#x2546;" horiz-adv-x="1884" vert-adv-y="2263" 
d="M1884 688v-147h-864v-951h-156v988h-864v73h903v987h78v-950h903z" />
    <glyph glyph-name="uni2547" unicode="&#x2547;" horiz-adv-x="1884" vert-adv-y="2263" 
d="M1884 688v-147h-903v-951h-78v951h-903v147h864v950h156v-950h864z" />
    <glyph glyph-name="uni2548" unicode="&#x2548;" horiz-adv-x="1884" vert-adv-y="2263" 
d="M1884 688v-147h-864v-951h-156v951h-864v147h903v950h78v-950h903z" />
    <glyph glyph-name="uni2549" unicode="&#x2549;" horiz-adv-x="1884" vert-adv-y="2263" 
d="M1884 651v-73h-864v-988h-156v951h-864v147h864v950h156v-987h864z" />
    <glyph glyph-name="uni254A" unicode="&#x254a;" horiz-adv-x="1884" vert-adv-y="2263" 
d="M1884 688v-147h-864v-951h-156v988h-864v73h864v987h156v-950h864z" />
    <glyph glyph-name="uni3395" unicode="&#x3395;" vert-adv-y="2263" 
d="M811 1083h256v-1136h-254v49q-57 -66 -184 -66q-113 0 -178 58v-480h-256v1575h256v-714q0 -209 176 -209q184 0 184 254v669zM1489 -70q-158 0 -232.5 68t-74.5 242v802q0 68 7 123.5t26.5 108.5t50.5 89t81 57.5t117 21.5q68 0 119 -22t81.5 -57.5t49.5 -89t26 -108.5
t7 -123v-182q0 -219 -84 -375t-236 -245v-21q0 -33 19 -52.5t49 -19.5q60 0 117 43l121 -167q-43 -38 -111 -65.5t-133 -27.5zM1427 1006v-527q74 145 74 379v148q0 113 -7 163t-30 50t-30 -50t-7 -163z" />
    <glyph glyph-name="uni3396" unicode="&#x3396;" vert-adv-y="2263" 
d="M1524 -70q-159 0 -226 66.5t-67 243.5v802q0 69 6.5 124t24 108.5t47.5 89t79 57t115 21.5q67 0 117 -22t79.5 -57.5t47 -89.5t23.5 -108t6 -123v-182q0 -440 -306 -620v-21q0 -72 64 -72q48 0 106 43l121 -167q-47 -39 -111 -66t-126 -27zM1470 1008v-529q66 185 66 379
v150q0 213 -33 213q-19 0 -26 -50.5t-7 -162.5zM123 -53v1136h225v-45q38 66 148 66q141 0 196 -103q66 103 191 103q129 0 194.5 -76.5t65.5 -224.5v-856h-246v821q0 82 -14 114.5t-49 32.5q-43 0 -60.5 -38.5t-17.5 -114.5v-815h-246v831q0 78 -14.5 107.5t-51.5 29.5
q-39 0 -57 -33.5t-18 -111.5v-823h-246z" />
    <glyph glyph-name="uni3397" unicode="&#x3397;" vert-adv-y="2263" 
d="M760 -53v63q-24 -30 -94 -55t-136 -25q-212 0 -321 127.5t-109 362.5v203q0 230 111.5 355.5t312.5 125.5q86 0 139 -16t95 -52v387h258v-1476h-256zM358 602v-162q0 -150 50 -229.5t145 -79.5q90 0 147.5 63t57.5 177v317q0 82 -57 150.5t-148 68.5q-195 0 -195 -305z
M1466 -70q-158 0 -232.5 68t-74.5 242v802q0 68 7.5 124t26.5 108.5t50 88.5t81.5 57.5t117.5 21.5q68 0 118.5 -22t81.5 -57.5t49.5 -89t25.5 -108.5t7 -123v-182q0 -219 -84 -375t-235 -245v-21q0 -33 19 -52.5t49 -19.5q59 0 116 43l121 -167q-43 -38 -111 -65.5
t-133 -27.5zM1405 1006v-527q74 145 74 379v148q0 113 -7 163t-30 50t-30 -50t-7 -163z" />
    <glyph glyph-name="afii61289" unicode="&#x2113;" vert-adv-y="2263" 
d="M1012 -70q-168 0 -247 70.5t-79 235.5v821q0 84 15.5 151.5t49 122.5t92.5 85t140 30q301 0 301 -389v-205q0 -212 -96 -366.5t-252 -245.5v-19q0 -84 90 -84q75 0 133 58l119 -160q-105 -105 -266 -105zM936 1006v-523q98 179 98 373v150q0 100 -13.5 157.5t-37.5 57.5
q-47 0 -47 -215z" />
    <glyph glyph-name="uni3398" unicode="&#x3398;" vert-adv-y="2263" 
d="M1178 1083l-396 -446q69 -114 206 -344.5t206 -345.5h-281q-49 86 -144 256t-144 256q-13 -17 -42.5 -50t-43.5 -51v-411h-258v1476h258v-757q59 69 176.5 209t177.5 208h285zM1475 -70q-159 0 -226 66.5t-67 243.5v802q0 69 6.5 124t24 108.5t47.5 89t79 57t115 21.5
q67 0 116.5 -22t79 -57.5t47 -89.5t23.5 -108t6 -123v-182q0 -440 -305 -620v-21q0 -72 64 -72q48 0 106 43l121 -167q-47 -39 -111 -66t-126 -27zM1421 1008v-529q66 185 66 379v150q0 213 -33 213q-19 0 -26 -50.5t-7 -162.5z" />
    <glyph glyph-name="uni33C4" unicode="&#x33c4;" vert-adv-y="2263" 
d="M635 1104q105 0 190.5 -37.5t143.5 -95.5l-117 -183q-97 97 -219 97q-201 0 -201 -287v-149q0 -154 48.5 -225.5t144.5 -71.5q132 0 245 88l125 -181q-139 -129 -372 -129q-234 0 -338.5 127t-104.5 387v154q0 246 113.5 376t341.5 130zM1413 1104q105 0 190.5 -37.5
t143.5 -95.5l-117 -183q-97 97 -219 97q-201 0 -201 -287v-149q0 -154 48.5 -225.5t144.5 -71.5q133 0 246 88l125 -181q-139 -129 -373 -129t-338.5 127t-104.5 387v154q0 246 113.5 376t341.5 130z" />
    <glyph glyph-name="uni33A3" unicode="&#x33a3;" vert-adv-y="2263" 
d="M43 -53v1136h217v-67q38 88 154 88q51 0 90 -24t51 -64q29 88 160 88q94 0 140 -73.5t46 -231.5v-852h-237v827q0 74 -7.5 103.5t-27.5 29.5q-24 0 -33.5 -30t-9.5 -99v-831h-234v852q0 60 -6.5 84t-26.5 24q-22 0 -30 -32t-8 -109v-819h-238zM1530 1481l-82 82
q59 73 182 73q83 0 128.5 -34.5t45.5 -85.5v-11q0 -37 -17 -65t-50 -37q40 -7 65 -38t25 -65v-8q0 -63 -49 -104t-152 -41q-115 0 -184 59l67 109q17 -15 45 -26t50 -11q57 0 57 31v2q0 32 -51 32h-33v109h31q39 0 39 31v2q0 26 -48 26q-43 0 -69 -30zM963 -53v1136h217v-67
q20 47 57 67.5t96 20.5q51 0 90.5 -24t51.5 -64q29 88 159 88q94 0 140.5 -74t46.5 -231v-852h-238v827q0 74 -7.5 103.5t-27.5 29.5q-24 0 -33.5 -30t-9.5 -99v-831h-233v852q0 60 -6.5 84t-26.5 24q-23 0 -31 -32.5t-8 -108.5v-819h-237z" />
    <glyph glyph-name="uni33A4" unicode="&#x33a4;" vert-adv-y="2263" 
d="M459 1104q97 0 179 -38.5t132 -98.5l-133 -162q-74 80 -178 80q-164 0 -164 -275v-170q0 -117 20 -182t52.5 -85.5t87.5 -20.5q63 0 105.5 19t94.5 60l138 -172q-48 -50 -136.5 -89.5t-207.5 -39.5q-101 0 -172.5 22.5t-116 62t-70 105t-34.5 139t-9 177.5v174
q0 243 104 368.5t308 125.5zM795 -53v1136h225v-45q40 66 151 66q135 0 193 -103q66 103 190 103q129 0 195 -76.5t66 -224.5v-856h-246v821q0 82 -14.5 114.5t-49.5 32.5q-43 0 -60.5 -38.5t-17.5 -114.5v-815h-245v831q0 78 -14.5 107.5t-51.5 29.5q-39 0 -57.5 -33.5
t-18.5 -111.5v-823h-245zM1530 1481l-82 82q59 73 182 73q83 0 128.5 -34.5t45.5 -85.5v-11q0 -37 -17 -65t-50 -37q40 -7 65 -38t25 -65v-8q0 -63 -49 -104t-152 -41q-115 0 -184 59l67 109q17 -15 45 -26t50 -11q57 0 57 31v2q0 32 -51 32h-33v109h31q39 0 39 31v2
q0 26 -48 26q-43 0 -69 -30z" />
    <glyph glyph-name="uni33A5" unicode="&#x33a5;" vert-adv-y="2263" 
d="M1423 1104q174 0 276.5 -113t102.5 -321v-723h-258v637q0 133 -46.5 209.5t-127.5 76.5q-237 0 -237 -260v-663h-259v637q0 134 -46.5 210t-135.5 76q-229 0 -229 -260v-663h-258v1136h256v-149q69 170 289 170q100 0 185 -47t128 -125q64 89 146.5 130.5t213.5 41.5z
M1501 1481l-82 82q59 73 183 73q83 0 128.5 -34.5t45.5 -85.5v-11q0 -36 -17.5 -64.5t-50.5 -37.5q40 -7 65 -38t25 -65v-8q0 -63 -49 -104t-152 -41q-115 0 -184 59l68 109q17 -15 44.5 -26t49.5 -11q57 0 57 31v2q0 32 -51 32h-33v109h31q39 0 39 31v2q0 26 -47 26
q-44 0 -70 -30z" />
    <glyph glyph-name="uni33A6" unicode="&#x33a6;" vert-adv-y="2263" 
d="M1020 1083v-45q40 66 151 66q135 0 193 -103q66 103 190 103q129 0 195 -76.5t66 -224.5v-856h-246v821q0 82 -14.5 114.5t-49.5 32.5q-43 0 -60.5 -38.5t-17.5 -114.5v-815h-245v831q0 78 -14.5 107.5t-51.5 29.5q-39 0 -57.5 -33.5t-18.5 -111.5v-823h-245v1120
l-291 -465l287 -655h-256l-195 452l-31 -57v-395h-254v1476h254v-741l242 403l244 -2h225zM1530 1481l-82 82q59 73 182 73q83 0 128.5 -34.5t45.5 -85.5v-11q0 -37 -17 -65t-50 -37q40 -7 65 -38t25 -65v-8q0 -63 -49 -104t-152 -41q-115 0 -184 59l67 109q17 -15 45 -26
t50 -11q57 0 57 31v2q0 32 -51 32h-33v109h31q39 0 39 31v2q0 26 -48 26q-43 0 -69 -30z" />
    <glyph glyph-name="uni3399" unicode="&#x3399;" vert-adv-y="2263" 
d="M190 -53v927h-159v209h159v31q0 334 355 334q91 0 194 -35l-41 -205q-25 11 -67 20t-76 9q-115 0 -115 -121v-33h265v-209h-265v-927h-250zM727 -53v1136h225v-45q40 66 160 66q130 0 188 -103q28 44 82 73.5t121 29.5q129 0 196.5 -76.5t67.5 -224.5v-856h-245v821
q0 80 -16 113.5t-52 33.5q-84 0 -84 -153v-815h-246v831q0 77 -16 107t-53 30q-82 0 -82 -145v-823h-246z" />
    <glyph glyph-name="uni339A" unicode="&#x339a;" vert-adv-y="2263" 
d="M489 1104q76 0 128.5 -25.5t82 -76t42 -114.5t12.5 -151v-790h-246v751q0 100 -21 142.5t-63 42.5q-98 0 -98 -181v-755h-246v1136h215v-88q29 56 74.5 82.5t119.5 26.5zM803 -53v1136h225v-45q40 66 152 66q134 0 192 -103q66 103 191 103q129 0 194.5 -76.5
t65.5 -224.5v-856h-246v821q0 82 -14.5 114.5t-49.5 32.5q-43 0 -60 -38.5t-17 -114.5v-815h-246v831q0 78 -14.5 107.5t-51.5 29.5q-39 0 -57 -33.5t-18 -111.5v-823h-246z" />
    <glyph glyph-name="uni339B" unicode="&#x339b;" vert-adv-y="2263" 
d="M68 -492v1575h245v-811q0 -68 25 -104.5t70 -36.5q50 0 69 34t19 122v796h245v-1136h-239v33q-28 -48 -92 -48q-65 0 -101 50v-474h-241zM803 -53v1136h225v-45q40 66 152 66q134 0 192 -103q66 103 191 103q129 0 194.5 -76.5t65.5 -224.5v-856h-246v821
q0 82 -14.5 114.5t-49.5 32.5q-43 0 -60 -38.5t-17 -114.5v-815h-246v831q0 78 -14.5 107.5t-51.5 29.5q-39 0 -57 -33.5t-18 -111.5v-823h-246z" />
    <glyph glyph-name="uni339C" unicode="&#x339c;" vert-adv-y="2263" 
d="M43 -53v1136h217v-67q38 88 154 88q51 0 90 -24t51 -64q29 88 160 88q94 0 140 -73.5t46 -231.5v-852h-237v827q0 74 -7.5 103.5t-27.5 29.5q-24 0 -33.5 -30t-9.5 -99v-831h-234v852q0 60 -6.5 84t-26.5 24q-22 0 -30 -32t-8 -109v-819h-238zM963 -53v1136h217v-67
q20 47 57 67.5t96 20.5q51 0 90.5 -24t51.5 -64q29 88 159 88q94 0 140.5 -74t46.5 -231v-852h-238v827q0 74 -7.5 103.5t-27.5 29.5q-24 0 -33.5 -30t-9.5 -99v-831h-233v852q0 60 -6.5 84t-26.5 24q-23 0 -31 -32.5t-8 -108.5v-819h-237z" />
    <glyph glyph-name="uni339D" unicode="&#x339d;" vert-adv-y="2263" 
d="M459 1104q97 0 179 -38.5t132 -98.5l-133 -162q-74 80 -178 80q-164 0 -164 -275v-170q0 -117 20 -182t52.5 -85.5t87.5 -20.5q63 0 105.5 19t94.5 60l138 -172q-48 -50 -136.5 -89.5t-207.5 -39.5q-101 0 -172.5 22.5t-116 62t-70 105t-34.5 139t-9 177.5v174
q0 243 104 368.5t308 125.5zM795 -53v1136h225v-45q40 66 151 66q135 0 193 -103q66 103 190 103q129 0 195 -76.5t66 -224.5v-856h-246v821q0 82 -14.5 114.5t-49.5 32.5q-43 0 -60.5 -38.5t-17.5 -114.5v-815h-245v831q0 78 -14.5 107.5t-51.5 29.5q-39 0 -57.5 -33.5
t-18.5 -111.5v-823h-245z" />
    <glyph glyph-name="uni339E" unicode="&#x339e;" vert-adv-y="2263" 
d="M1020 1083v-45q40 66 151 66q135 0 193 -103q66 103 190 103q129 0 195 -76.5t66 -224.5v-856h-246v821q0 82 -14.5 114.5t-49.5 32.5q-43 0 -60.5 -38.5t-17.5 -114.5v-815h-245v831q0 78 -14.5 107.5t-51.5 29.5q-39 0 -57.5 -33.5t-18.5 -111.5v-823h-245v1120
l-291 -465l287 -655h-256l-195 452l-31 -57v-395h-254v1476h254v-741l242 403l244 -2h225z" />
    <glyph glyph-name="uni339F" unicode="&#x339f;" vert-adv-y="2263" 
d="M1475 1262l108 127q51 63 51 86v4q0 22 -35 22q-36 0 -65 -33l-84 84q67 84 170 84q92 0 134 -41t42 -88v-8q0 -36 -17 -69.5t-59 -81.5l-65 -74h153v-121h-333v109zM43 -53v1136h217v-67q38 88 154 88q51 0 90 -24t51 -64q29 88 160 88q94 0 140 -73.5t46 -231.5v-852
h-237v827q0 74 -7.5 103.5t-27.5 29.5q-24 0 -33.5 -30t-9.5 -99v-831h-234v852q0 60 -6.5 84t-26.5 24q-22 0 -30 -32t-8 -109v-819h-238zM963 -53v1136h217v-67q20 47 57 67.5t96 20.5q51 0 90.5 -24t51.5 -64q29 88 159 88q94 0 140.5 -74t46.5 -231v-852h-238v827
q0 74 -7.5 103.5t-27.5 29.5q-24 0 -33.5 -30t-9.5 -99v-831h-233v852q0 60 -6.5 84t-26.5 24q-23 0 -31 -32.5t-8 -108.5v-819h-237z" />
    <glyph glyph-name="uni33A0" unicode="&#x33a0;" vert-adv-y="2263" 
d="M459 1104q97 0 179 -38.5t132 -98.5l-133 -162q-74 80 -178 80q-164 0 -164 -275v-170q0 -117 20 -182t52.5 -85.5t87.5 -20.5q63 0 105.5 19t94.5 60l138 -172q-48 -50 -136.5 -89.5t-207.5 -39.5q-101 0 -172.5 22.5t-116 62t-70 105t-34.5 139t-9 177.5v174
q0 243 104 368.5t308 125.5zM795 -53v1136h225v-45q40 66 151 66q135 0 193 -103q66 103 190 103q129 0 195 -76.5t66 -224.5v-856h-246v821q0 82 -14.5 114.5t-49.5 32.5q-43 0 -60.5 -38.5t-17.5 -114.5v-815h-245v831q0 78 -14.5 107.5t-51.5 29.5q-39 0 -57.5 -33.5
t-18.5 -111.5v-823h-245zM1475 1262l108 127q51 63 51 86v4q0 22 -35 22q-36 0 -65 -33l-84 84q67 84 170 84q92 0 134 -41t42 -88v-8q0 -36 -17 -69.5t-59 -81.5l-65 -74h153v-121h-333v109z" />
    <glyph glyph-name="uni33A1" unicode="&#x33a1;" vert-adv-y="2263" 
d="M1423 1104q174 0 276.5 -113t102.5 -321v-723h-258v637q0 133 -46.5 209.5t-127.5 76.5q-237 0 -237 -260v-663h-259v637q0 134 -46.5 210t-135.5 76q-229 0 -229 -260v-663h-258v1136h256v-149q69 170 289 170q100 0 185 -47t128 -125q64 89 146.5 130.5t213.5 41.5z
M1475 1262l108 127q51 63 51 86v4q0 22 -35 22q-36 0 -65 -33l-84 84q67 84 170 84q92 0 134 -41t42 -88v-8q0 -36 -17 -69.5t-59 -81.5l-65 -74h153v-121h-333v109z" />
    <glyph glyph-name="uni33A2" unicode="&#x33a2;" vert-adv-y="2263" 
d="M1020 1083v-45q40 66 151 66q135 0 193 -103q66 103 190 103q129 0 195 -76.5t66 -224.5v-856h-246v821q0 82 -14.5 114.5t-49.5 32.5q-43 0 -60.5 -38.5t-17.5 -114.5v-815h-245v831q0 78 -14.5 107.5t-51.5 29.5q-39 0 -57.5 -33.5t-18.5 -111.5v-823h-245v1120
l-291 -465l287 -655h-256l-195 452l-31 -57v-395h-254v1476h254v-741l242 403l244 -2h225zM1475 1262l108 127q51 63 51 86v4q0 22 -35 22q-36 0 -65 -33l-84 84q67 84 170 84q92 0 134 -41t42 -88v-8q0 -36 -17 -69.5t-59 -81.5l-65 -74h153v-121h-333v109z" />
    <glyph glyph-name="uni33CA" unicode="&#x33ca;" vert-adv-y="2263" 
d="M602 1104q161 0 238.5 -97t77.5 -300v-760h-259v704q0 130 -24.5 179t-93.5 49q-76 0 -116 -56t-40 -198v-678h-258v1476h258v-405q71 86 217 86zM1264 -70q-89 0 -152 25.5t-97 74t-48.5 106.5t-14.5 134v45q0 75 18.5 130.5t60.5 98.5t116 65t180 22h109v88
q0 95 -24.5 130.5t-80.5 35.5q-98 0 -213 -101l-125 189q65 59 155.5 95t178.5 36q195 0 275.5 -99.5t80.5 -289.5v-768h-243v67q-9 -36 -58 -60t-118 -24zM1436 315v125h-107q-75 0 -103 -33t-28 -98v-33q0 -78 22 -112.5t70 -34.5q65 0 105.5 50.5t40.5 135.5z" />
    <glyph glyph-name="uni338D" unicode="&#x338d;" vert-adv-y="2263" 
d="M1536 -33v68q-20 -37 -78.5 -60.5t-132.5 -23.5q-193 0 -284 113t-91 368v186q0 218 94.5 352t270.5 134q167 0 219 -78v57h258v-1120q0 -238 -102 -355.5t-338 -117.5q-85 0 -176 31.5t-156 83.5l117 202q39 -34 98 -61t113 -27q93 0 140.5 66t47.5 182zM659 1083h256
v-1136h-253v49q-49 -66 -150 -66q-69 0 -131 66v-488h-256v1575h256v-710q0 -112 27.5 -162.5t103.5 -50.5q74 0 110.5 61t36.5 197v665zM1202 578v-101q0 -173 36.5 -237t129.5 -64q98 0 135 66t37 211v221q0 200 -170 200q-102 0 -135 -65t-33 -231z" />
    <glyph glyph-name="uni338E" unicode="&#x338e;" vert-adv-y="2263" 
d="M1567 -111v95q-45 -33 -144 -33q-90 0 -151 33.5t-94 100t-46.5 149.5t-13.5 198v180q0 492 314 492q124 0 170 -74v53h213v-1194q0 -207 -87 -303t-243 -96q-105 0 -185.5 31.5t-160.5 87.5l133 201q113 -84 194 -84q52 0 76.5 37t24.5 126zM1362 590v-117
q0 -121 10.5 -184t35.5 -90t73 -27q90 0 90 252v262q0 36 -1.5 61.5t-7 54t-15 45.5t-27.5 28.5t-43 11.5q-26 0 -45 -8t-32 -26.5t-20.5 -40.5t-11.5 -59t-5 -72.5t-1 -90.5zM84 -53v1136h223v-45q20 36 58 51t104 15q62 0 109 -29.5t67 -73.5q26 43 75 73t116 30
q249 0 249 -301v-856h-243v827q0 75 -13.5 107t-46.5 32q-45 0 -60 -31t-15 -106v-829h-244v829q0 80 -12 108.5t-48 28.5q-40 0 -57.5 -32t-17.5 -111v-823h-244z" />
    <glyph glyph-name="uni338F" unicode="&#x338f;" vert-adv-y="2263" 
d="M1536 -33v68q-20 -37 -78.5 -60.5t-132.5 -23.5q-193 0 -284 113t-91 368v186q0 218 94.5 352t270.5 134q167 0 219 -78v57h258v-1120q0 -238 -102 -355.5t-338 -117.5q-85 0 -176 31.5t-156 83.5l117 202q39 -34 98 -61t113 -27q93 0 140.5 66t47.5 182zM1044 1083
l-395 -446l412 -690h-281l-293 506l-81 -95v-411h-259v1476h259v-753l354 413h284zM1202 578v-101q0 -173 36.5 -237t129.5 -64q98 0 135 66t37 211v221q0 200 -170 200q-102 0 -135 -65t-33 -231z" />
    <glyph glyph-name="uni33CF" unicode="&#x33cf;" vert-adv-y="2263" 
d="M1208 270v592h-164v195l-364 -436l403 -674h-280l-279 489l-55 -69v-420h-258v1476h258v-749l313 409h426v281h258v-281h267v-221h-267v-598q0 -72 31.5 -96.5t110.5 -24.5q48 0 110 25l54 -193q-105 -51 -209 -51q-355 0 -355 346z" />
    <glyph glyph-name="uni3388" unicode="&#x3388;" vert-adv-y="2263" 
d="M451 1104q105 0 189.5 -39.5t131.5 -97.5l-133 -162q-73 80 -184 80q-89 0 -132.5 -68.5t-43.5 -214.5v-153q0 -168 38.5 -232.5t128.5 -64.5q68 0 115.5 19.5t95.5 59.5l138 -172q-141 -129 -355 -129q-119 0 -197 27t-125.5 89t-67 155t-19.5 235v174q0 243 106 368.5
t314 125.5zM1069 -70q-165 0 -238 87t-73 253v45q0 75 18.5 130.5t60.5 98.5t116 65t180 22h112v88q0 89 -26.5 126.5t-88.5 37.5q-92 0 -206 -99l-125 189q70 61 157.5 96t176.5 35q195 0 275.5 -99.5t80.5 -289.5v-768h-242v49q-58 -66 -178 -66zM1245 315v125h-110
q-73 0 -101 -30.5t-28 -100.5v-33q0 -78 19.5 -112.5t61.5 -34.5q73 0 115.5 50t42.5 136zM1825 1423v-1476h-254v1476h254z" />
    <glyph glyph-name="uni3389" unicode="&#x3389;" horiz-adv-x="1986" vert-adv-y="2263" 
d="M856 1104q93 0 157 -32.5t115 -94.5q67 72 137.5 99.5t174.5 27.5q63 0 110.5 -19t76 -50t46 -76t23.5 -90.5t6 -100.5v-821h-201v53q-27 -34 -63 -52t-105 -18q-57 0 -101.5 27t-70 71.5t-38.5 95.5t-13 105v103q0 141 77 220t212 79h92v117q0 84 -21 110.5t-67 26.5
q-86 0 -152 -72l-118 150l-142 -134q-34 41 -60 58.5t-67 17.5q-55 0 -82.5 -66.5t-27.5 -228.5v-186q0 -156 26 -222.5t103 -66.5q33 0 66 18t52 46l132 -127q-95 -142 -252 -142q-72 0 -127.5 16t-91.5 38t-61 64.5t-37.5 74.5t-18.5 91t-7 91.5t-1 96.5v18v213
q0 243 76 357t243 114zM639 1083l-211 -417l158 -719h-207l-96 473l-43 -86v-387h-220v1476h220v-764l192 424h207zM1966 1423v-1476h-219v1476h219zM1491 295v145h-37q-66 0 -96.5 -27t-30.5 -87v-84q0 -64 16.5 -88.5t51.5 -24.5q51 0 73.5 41t22.5 125z" />
    <glyph glyph-name="uni33C8" unicode="&#x33c8;" vert-adv-y="2263" 
d="M664 -53v63q-70 -80 -201 -80q-195 0 -298.5 128t-103.5 362v203q0 230 104.5 355.5t287.5 125.5q145 0 209 -70v389h249v-1476h-247zM311 602v-162q0 -146 48 -227.5t126 -81.5q177 0 177 231v328q0 86 -44 151.5t-133 65.5q-174 0 -174 -305zM1010 -53v1476h374
q188 0 289 -92t101 -272v-43q0 -125 -56.5 -201.5t-189.5 -95.5q143 -10 221 -102t78 -230v-51q0 -72 -12 -128.5t-42 -107t-78 -83t-124 -51.5t-176 -19h-385zM1257 621v-465h101q97 0 157 45.5t60 140.5v45q0 127 -55 180.5t-199 53.5h-64zM1300 1217h-43v-402h62
q97 0 151 42.5t54 158.5v37q0 92 -58 128t-166 36z" />
    <glyph glyph-name="uni33A7" unicode="&#x33a7;" vert-adv-y="2263" 
d="M43 -53v1136h217v-67q38 88 154 88q51 0 90 -24t51 -64q29 88 160 88q94 0 140 -73.5t46 -231.5v-803l354 1558h179l-414 -1810h-176l45 203h-225v827q0 74 -7.5 103.5t-27.5 29.5q-24 0 -33.5 -30t-9.5 -99v-831h-234v852q0 60 -6.5 84t-26.5 24q-22 0 -30 -32t-8 -109
v-819h-238zM1522 147q45 0 69.5 32t24.5 77v18q0 39 -23.5 70.5t-79.5 67.5q-81 52 -120 82t-67 70.5t-35 82.5t-7 115v24q0 131 79.5 224.5t217.5 93.5q78 0 137 -18.5t125 -73.5l-106 -158q-56 41 -121 41q-45 0 -66.5 -31t-21.5 -80v-16q0 -47 18.5 -78t77.5 -72
q141 -97 187.5 -165.5t46.5 -169.5v-37q0 -59 -19.5 -114t-57 -101t-101.5 -73.5t-146 -27.5q-97 0 -166 27t-133 78l131 182q84 -70 156 -70z" />
    <glyph glyph-name="uni33A8" unicode="&#x33a8;" vert-adv-y="2263" 
d="M43 -53v1136h217v-67q38 88 154 88q51 0 90 -24t51 -64q29 88 160 88q94 0 140 -73.5t46 -231.5v-803l354 1558h179l-414 -1810h-176l45 203h-225v827q0 74 -7.5 103.5t-27.5 29.5q-24 0 -33.5 -30t-9.5 -99v-831h-234v852q0 60 -6.5 84t-26.5 24q-22 0 -30 -32t-8 -109
v-819h-238zM1522 147q45 0 69.5 32t24.5 77v18q0 39 -23.5 70.5t-79.5 67.5q-81 52 -120 82t-67 70.5t-35 82.5t-7 115v24q0 131 79.5 224.5t217.5 93.5q78 0 137 -18.5t125 -73.5l-106 -158q-56 41 -121 41q-45 0 -66.5 -31t-21.5 -80v-16q0 -47 18.5 -78t77.5 -72
q141 -97 187.5 -165.5t46.5 -169.5v-37q0 -59 -19.5 -114t-57 -101t-101.5 -73.5t-146 -27.5q-97 0 -166 27t-133 78l131 182q84 -70 156 -70zM1475 1262l108 127q51 63 51 86v4q0 22 -35 22q-36 0 -65 -33l-84 84q67 84 170 84q92 0 134 -41t42 -88v-8q0 -36 -17 -69.5
t-59 -81.5l-65 -74h153v-121h-333v109z" />
    <glyph glyph-name="uni33B0" unicode="&#x33b0;" vert-adv-y="2263" 
d="M391 1083v-96q84 117 264 117q177 0 261.5 -119t84.5 -371v-186q0 -261 -89 -379.5t-294 -118.5q-70 0 -129 16t-88 34v-472h-249v1575h239zM756 461v117q0 169 -37 235t-137 66q-101 0 -143 -66t-42 -199v-262q0 -102 44.5 -149t140.5 -47q98 0 136 64.5t38 240.5z
M1403 145q68 0 102.5 29.5t34.5 83.5v21q0 53 -34 83.5t-140 61.5q-178 53 -250 124.5t-72 213.5v29q0 141 95 227t276 86q122 0 199 -21.5t147 -72.5l-104 -170q-95 57 -221 57q-66 0 -99.5 -32t-33.5 -79v-20q0 -52 26.5 -78t114.5 -51q113 -33 181 -64t107 -73.5
t52.5 -91t13.5 -123.5v-31q0 -151 -101 -237.5t-288 -86.5q-122 0 -225.5 34t-171.5 93l116 191q60 -43 142 -73t133 -30z" />
    <glyph glyph-name="uni33B1" unicode="&#x33b1;" vert-adv-y="2263" 
d="M651 1104q70 0 122 -20t84 -55t51.5 -89t26.5 -113.5t7 -138.5v-741h-258v686q0 104 -13 158.5t-35 71t-63 16.5q-35 0 -60 -11.5t-45.5 -40t-31 -83.5t-10.5 -136v-661h-258v1136h252v-67q81 88 231 88zM1386 145q68 0 103 29.5t35 83.5v21q0 53 -34 83.5t-140 61.5
q-178 53 -250 124.5t-72 213.5v29q0 141 95 227t276 86q122 0 199 -21.5t147 -72.5l-105 -170q-95 57 -221 57q-66 0 -99.5 -32t-33.5 -79v-20q0 -52 26.5 -78t114.5 -51q113 -33 181 -64t107.5 -73.5t53 -91t13.5 -123.5v-31q0 -151 -101 -237.5t-288 -86.5
q-122 0 -226 34.5t-172 92.5l117 191q60 -43 141.5 -73t132.5 -30z" />
    <glyph glyph-name="uni33B2" unicode="&#x33b2;" vert-adv-y="2263" 
d="M1393 145q68 0 102.5 29.5t34.5 83.5v21q0 53 -34 83.5t-140 61.5q-178 53 -250 124.5t-72 213.5v29q0 141 95 227t276 86q122 0 199 -21.5t147 -72.5l-104 -170q-95 57 -222 57q-66 0 -99.5 -32t-33.5 -79v-20q0 -51 27 -77.5t115 -51.5q113 -33 181 -64t107 -73.5
t52.5 -91t13.5 -123.5v-31q0 -151 -101 -237.5t-288 -86.5q-122 0 -226 34.5t-172 92.5l117 191q60 -43 142 -73t133 -30zM672 1083h256v-1136h-254v49q-46 -66 -142 -66q-36 0 -70.5 20t-55.5 46v-488h-256v1575h256v-710q0 -113 26 -163t100 -50q72 0 106 60.5t34 197.5
v665z" />
    <glyph glyph-name="uni33B3" unicode="&#x33b3;" vert-adv-y="2263" 
d="M45 -53v1136h225v-45q40 66 152 66q134 0 192 -103q66 103 191 103q129 0 194.5 -76.5t65.5 -224.5v-856h-246v821q0 82 -14 114.5t-49 32.5q-43 0 -60.5 -38.5t-17.5 -114.5v-815h-246v831q0 78 -14 107.5t-51 29.5q-39 0 -57.5 -33.5t-18.5 -111.5v-823h-246zM1464 135
q135 0 135 111v20q0 43 -26.5 72t-118.5 63q-127 46 -193 89.5t-97 106.5t-31 163v31q0 141 87.5 227t266.5 86q214 0 354 -111l-98 -159q-107 73 -219 73q-72 0 -107 -32t-35 -87v-18q0 -61 29.5 -91.5t120.5 -62.5q108 -39 168 -69.5t94.5 -71t44.5 -84.5t10 -119v-30
q0 -151 -92 -231.5t-284 -80.5q-223 0 -369 123l106 180q61 -44 131 -71t123 -27z" />
    <glyph glyph-name="uni33B4" unicode="&#x33b4;" vert-adv-y="2263" 
d="M322 1083v-96q84 117 264 117q177 0 261.5 -119t84.5 -371v-186q0 -261 -89 -379.5t-294 -118.5q-70 0 -129 16t-88 34v-472h-250v1575h240zM1225 -53l-408 1476h256l273 -1130l266 1130h252l-394 -1476h-245zM686 461v117q0 169 -37 235t-137 66q-101 0 -142.5 -66
t-41.5 -199v-262q0 -102 44 -149t140 -47q98 0 136 64.5t38 240.5z" />
    <glyph glyph-name="uni33B5" unicode="&#x33b5;" vert-adv-y="2263" 
d="M1225 -53l-408 1476h256l273 -1130l266 1130h252l-394 -1476h-245zM631 1104q88 0 147.5 -29.5t91.5 -87.5t45 -129.5t13 -169.5v-741h-258v686q0 103 -14.5 158t-37.5 71.5t-65 16.5q-35 0 -61 -11.5t-48 -40t-33.5 -83.5t-11.5 -136v-661h-258v1136h252v-67
q81 88 238 88z" />
    <glyph glyph-name="uni33B6" unicode="&#x33b6;" vert-adv-y="2263" 
d="M631 1083h256v-1136h-254v49q-49 -66 -150 -66q-69 0 -131 66v-488h-256v1575h256v-710q0 -112 27.5 -162.5t103.5 -50.5q74 0 111 61t37 197v665zM1225 -53l-408 1476h256l273 -1130l266 1130h252l-394 -1476h-245z" />
    <glyph glyph-name="uni33B7" unicode="&#x33b7;" vert-adv-y="2263" 
d="M1333 -53l-297 1476h244l176 -1140l166 1140h240l-283 -1476h-246zM76 -53v1136h225v-45q40 66 152 66q134 0 192 -103q66 103 191 103q129 0 194.5 -76.5t65.5 -224.5v-856h-246v821q0 82 -14.5 114.5t-49.5 32.5q-43 0 -60 -38.5t-17 -114.5v-815h-246v831
q0 78 -14.5 107.5t-51.5 29.5q-39 0 -57 -33.5t-18 -111.5v-823h-246z" />
    <glyph glyph-name="uni33B8" unicode="&#x33b8;" horiz-adv-x="1871" vert-adv-y="2263" 
d="M1233 -53l-307 1110l-336 -428l373 -682h-287l-246 483l-55 -76v-407h-258v1476h258v-737l299 397h246l-95 340h256l273 -1130l266 1130h252l-393 -1476h-246z" />
    <glyph glyph-name="uni33B9" unicode="&#x33b9;" vert-adv-y="2263" 
d="M1339 -53l-262 1399v-1399h-215v1300q-2 -48 -12 -104l-186 -950h-207l-197 952q-10 48 -16 117v-1315h-207v1476h348l178 -940l160 940h565l174 -1140l166 1140h219l-262 -1476h-246z" />
    <glyph glyph-name="uni3380" unicode="&#x3380;" vert-adv-y="2263" 
d="M1458 1423l393 -1476h-276l-86 393h-289l-86 -393h-270l47 190q-84 -207 -354 -207q-130 0 -220 76v-498h-249v1575h239v-96q45 61 111 89t162 28q189 0 273.5 -121t84.5 -369v-186q0 -70 -10 -145l291 1140h239zM692 461v117q0 170 -39 235.5t-147 65.5
q-111 0 -152 -58.5t-41 -206.5v-262q0 -109 43 -152.5t150 -43.5q110 0 148 67t38 238zM1372 889q-15 72 -24 203q-7 -108 -27 -205l-72 -340h191z" />
    <glyph glyph-name="uni3381" unicode="&#x3381;" horiz-adv-x="1869" vert-adv-y="2263" 
d="M1477 1423l393 -1476h-277l-86 393h-288l-86 -393h-271l375 1476h240zM555 1104q161 0 229 -100.5t68 -315.5v-741h-258v686q0 140 -25.5 193t-91.5 53q-86 0 -119.5 -57.5t-33.5 -213.5v-661h-258v1136h251v-65q79 86 238 86zM1391 889q-17 78 -25 203q-7 -108 -27 -205
l-71 -340h190z" />
    <glyph glyph-name="uni3382" unicode="&#x3382;" vert-adv-y="2263" 
d="M608 1083h256v-1095l365 1435h239l394 -1476h-277l-86 393h-289l-86 -393h-514v49q-46 -66 -143 -66q-36 0 -72 20t-57 46v-488h-256v1575h256v-710q0 -112 27 -162.5t102 -50.5q72 0 106.5 60.5t34.5 197.5v665zM1382 889q-15 72 -24 203q-7 -108 -27 -205l-71 -340h190
z" />
    <glyph glyph-name="uni3383" unicode="&#x3383;" vert-adv-y="2263" 
d="M43 -53v1136h217v-67q20 47 56.5 67.5t95.5 20.5q51 0 90 -24t51 -64q29 88 160 88q93 0 138.5 -73.5t45.5 -231.5v-817l340 1441h240l366 -1476h-274l-76 393h-256l-80 -393h-498v827q0 77 -6 105t-26 28q-24 0 -33.5 -30t-9.5 -99v-831h-234v852q0 60 -6.5 84t-26.5 24
q-22 0 -29 -31t-7 -110v-819h-238zM1341 872l-63 -325h172l-59 325q-18 106 -25 224q-3 -94 -25 -224z" />
    <glyph glyph-name="uni3384" unicode="&#x3384;" horiz-adv-x="1884" vert-adv-y="2263" 
d="M1491 1423l393 -1476h-276l-86 393h-289l-86 -393h-436l-299 502l-66 -80v-422h-258v1476h258v-745l332 405h276l-385 -450l342 -547l340 1337h240zM1405 889q-17 78 -25 203q-8 -115 -26 -205l-72 -340h191z" />
    <glyph glyph-name="uni33BA" unicode="&#x33ba;" horiz-adv-x="1875" vert-adv-y="2263" 
d="M899 -53l-98 751q2 -27 2 -84v-186q0 -275 -79 -386.5t-271 -111.5q-60 0 -110.5 19.5t-80.5 44.5v-486h-237v1575h227v-82q77 103 237 103q120 0 190 -55t99 -172l-71 546h227l104 -1099l119 1099h266l117 -1099l113 1099h223l-207 -1476h-262l-117 1134l-125 -1134
h-266zM571 461v117q0 128 -13 190.5t-43 86.5t-91 24q-81 0 -123.5 -63t-42.5 -173v-299q0 -89 46.5 -138.5t119.5 -49.5q57 0 87.5 24t45 89.5t14.5 191.5z" />
    <glyph glyph-name="uni33BB" unicode="&#x33bb;" horiz-adv-x="1875" vert-adv-y="2263" 
d="M481 1104q138 0 195 -86t57 -285v-786h-241v747q0 111 -18.5 150t-63.5 39q-46 0 -67 -42t-21 -163v-731h-242v1136h211v-88q27 53 71.5 81t118.5 28zM899 -53l-192 1476h227l104 -1099l119 1099h266l117 -1099l113 1099h223l-207 -1476h-262l-117 1134l-125 -1134h-266z
" />
    <glyph glyph-name="uni33BC" unicode="&#x33bc;" horiz-adv-x="1875" vert-adv-y="2263" 
d="M68 -492v1575h241v-796q0 -78 24 -117t77 -39q50 0 70 38.5t20 119.5v794h241v-1136h-235v55q-10 -27 -38 -48.5t-62 -21.5q-36 0 -63.5 21t-37.5 47v-492h-237zM899 -53l-192 1476h227l104 -1099l119 1099h266l117 -1099l113 1099h223l-207 -1476h-262l-117 1134
l-125 -1134h-266z" />
    <glyph glyph-name="uni33BD" unicode="&#x33bd;" horiz-adv-x="1873" vert-adv-y="2263" 
d="M0 -53v1136h215v-53q48 74 137 74q107 0 158 -74q18 32 58.5 53t93.5 21q94 0 138 -75t44 -230v-852h-236v819q0 67 -8 94t-27 27q-21 0 -29.5 -24.5t-8.5 -86.5v-829h-232v825q0 67 -7 91t-26 24t-26.5 -29.5t-7.5 -99.5v-811h-236zM963 -53q-26 246 -75.5 738
t-74.5 738h227l68 -1099l94 1099h281l90 -1099l78 1099h223l-170 -1476h-262l-96 1151l-113 -1151h-270z" />
    <glyph glyph-name="uni33BE" unicode="&#x33be;" vert-adv-y="2263" 
d="M954 -53l-114 1126l-357 -471l369 -655h-270l-250 454l-31 -43v-411h-254v1476h254v-751l287 411h252l-35 340h227l66 -1099l94 1099h281l90 -1099l75 1099h224l-170 -1476h-262l-95 1151l-110 -1151h-271z" />
    <glyph glyph-name="uni33BF" unicode="&#x33bf;" horiz-adv-x="1875" vert-adv-y="2263" 
d="M965 -53l-150 1476h223l70 -1112h2l96 1112h277l92 -1112h2l78 1112h221l-170 -1476h-262l-96 1151l-113 -1151h-270zM330 193l-86 761l-27 287v-1294h-176v1476h315l78 -942l64 942h317v-1476h-176v1294q-22 -268 -25 -291l-88 -757h-196z" />
    <glyph glyph-name="uni3390" unicode="&#x3390;" vert-adv-y="2263" 
d="M735 -53v659h-317v-659h-254v1476h254v-600h317v600h254v-1476h-254zM1776 1083v-200l-418 -719h450v-217h-780v168l442 747h-401v221h707z" />
    <glyph glyph-name="uni3391" unicode="&#x3391;" vert-adv-y="2263" 
d="M1065 -53v671h-158v-671h-461l-157 422l-33 -54v-368h-229v1476h229v-753l213 413h213v340h225v-604h158v604h225v-1476h-225zM1847 1083v-196l-268 -731h268v-209h-536v159l278 760h-258v217h516zM436 616l246 -663v1083z" />
    <glyph glyph-name="uni3392" unicode="&#x3392;" horiz-adv-x="1884" vert-adv-y="2263" 
d="M297 193l-72 757q-4 51 -14.5 149.5t-15.5 164.5v-1317h-175v1476h302l75 -946l58 946h309v-1476h-174v1296q-5 -108 -23 -293l-75 -757h-195zM1124 -53v676h-90v-676h-200v1476h200v-608h90v608h201v-1476h-201zM1874 1083v-180l-279 -764h279v-192h-522v143l290 793
h-270v200h502z" />
    <glyph glyph-name="uni3393" unicode="&#x3393;" horiz-adv-x="1867" vert-adv-y="2263" 
d="M1118 -53v671h-155v-671h-224v1476h224v-604h155v604h223v-1476h-223zM432 1446q105 0 171 -29t132 -98l-143 -152q-69 72 -148 72q-63 0 -103.5 -43t-64.5 -153.5t-24 -292.5v-168q0 -111 7.5 -190.5t25.5 -139.5t50 -89.5t79 -29.5q53 0 82 23v393h-138v217h361v-731
q-106 -111 -297 -111q-91 0 -160.5 30.5t-123 97.5t-81.5 183t-28 277v305q0 316 99 472.5t304 156.5zM1868 1083v-196l-244 -731h244v-209h-512v159l256 760h-236v217h492z" />
    <glyph glyph-name="uni3394" unicode="&#x3394;" vert-adv-y="2263" 
d="M29 1423h628v-217h-196v-1259h-230v1259h-202v217zM1065 -53v671h-158v-671h-225v1476h225v-604h158v604h225v-1476h-225zM1847 1083v-196l-268 -731h268v-209h-536v159l278 760h-258v217h516z" />
    <glyph glyph-name="Omega" unicode="&#x2126;" vert-adv-y="2263" 
d="M1712 176v-229h-641v225q116 26 181 134t65 296v176q0 211 -101 321.5t-284 110.5t-284 -110.5t-101 -321.5v-176q0 -188 65 -296t181 -134v-225h-641v229h272q-133 139 -133 387v244q0 304 173 471.5t468 167.5t468 -167.5t173 -471.5v-244q0 -248 -133 -387h272z" />
    <glyph glyph-name="uni33C0" unicode="&#x33c0;" vert-adv-y="2263" 
d="M1839 137v-190h-479v186q101 23 140.5 131.5t39.5 331.5v225q0 220 -59.5 316t-188.5 96t-188.5 -96t-59.5 -316v-225q0 -223 40 -331.5t141 -131.5v-186h-625l-262 469l-41 -64v-405h-258v1476h258v-755l262 415h252l-322 -458l277 -488h156q-117 127 -117 426v277
q0 321 119 463.5t368 142.5t368.5 -142.5t119.5 -463.5v-277q0 -299 -117 -426h176z" />
    <glyph glyph-name="uni33C1" unicode="&#x33c1;" vert-adv-y="2263" 
d="M1847 135v-188h-426v184q101 23 141 132.5t40 332.5v238q0 218 -48.5 312.5t-158.5 94.5t-158.5 -94.5t-48.5 -312.5v-238q0 -224 39.5 -333t140.5 -132v-184h-680v1315l-10 -160l-127 -909h-197l-137 909q-5 50 -12 153v-1308h-189v1476h320l121 -929l102 929h318v-1288
h200q-116 129 -116 434v277q0 316 103 458t331 142t331 -142t103 -458v-277q0 -304 -117 -434h135z" />
    <glyph glyph-name="uni338A" unicode="&#x338a;" vert-adv-y="2263" 
d="M344 1083v-96q84 117 270 117q178 0 265.5 -120t87.5 -370v-186q0 -260 -91.5 -379t-297.5 -119q-73 0 -135 15.5t-89 36.5v-474h-250v1575h240zM721 461v117q0 168 -39.5 234.5t-140.5 66.5q-102 0 -146.5 -67t-44.5 -198v-262q0 -102 47 -149t144 -47q99 0 139.5 65
t40.5 240zM1343 -53h-260v1476h777v-221h-517v-422h474v-221h-474v-612z" />
    <glyph glyph-name="uni338B" unicode="&#x338b;" vert-adv-y="2263" 
d="M1343 -53h-260v1476h777v-221h-517v-422h474v-221h-474v-612zM631 1104q88 0 147.5 -29.5t91.5 -87.5t45 -129.5t13 -169.5v-741h-258v686q0 103 -14.5 158t-37.5 71.5t-65 16.5q-35 0 -61 -11.5t-48 -40t-33.5 -83.5t-11.5 -136v-661h-258v1136h252v-67q81 88 238 88z
" />
    <glyph glyph-name="uni338C" unicode="&#x338c;" vert-adv-y="2263" 
d="M1343 -53h-260v1476h777v-221h-517v-422h474v-221h-474v-612zM662 1083h256v-1136h-254v49q-46 -66 -140 -66q-35 0 -69.5 20t-55.5 46v-488h-256v1575h256v-710q0 -113 26 -163t99 -50q70 0 104 60.5t34 197.5v665z" />
    <glyph glyph-name="uni33D6" unicode="&#x33d6;" vert-adv-y="2263" 
d="M1831 1423v-1476h-217v1476h217zM25 -53v1136h217v-67q20 47 57 67.5t96 20.5q51 0 90.5 -24t51.5 -64q29 88 159 88q94 0 140.5 -74t46.5 -231v-852h-238v827q0 74 -7.5 103.5t-27.5 29.5q-24 0 -33.5 -30t-9.5 -99v-831h-233v852q0 60 -6.5 84t-26.5 24
q-23 0 -31 -32.5t-8 -108.5v-819h-237zM1251 -70q-178 0 -250.5 119.5t-72.5 362.5v211q0 243 72.5 362t250.5 119t251 -119t73 -362v-211q0 -243 -73 -362.5t-251 -119.5zM1251 903q-45 0 -64.5 -67t-19.5 -222v-194q0 -155 19.5 -222t64.5 -67t64.5 67t19.5 222v194
q0 155 -19.5 222t-64.5 67z" />
    <glyph glyph-name="uni33C5" unicode="&#x33c5;" vert-adv-y="2263" 
d="M1503 -53v63q-74 -80 -229 -80q-207 0 -310.5 124.5t-103.5 365.5v203q0 233 103 357t301 124q90 0 143 -19t94 -53v391h250v-1476h-248zM1110 602v-162q0 -150 50 -229.5t145 -79.5q90 0 143 58t53 173v328q0 83 -53 150t-143 67q-104 0 -149.5 -76t-45.5 -229z
M549 1104q105 0 190.5 -37.5t143.5 -95.5l-117 -183q-97 97 -219 97q-201 0 -201 -287v-149q0 -154 48.5 -225.5t144.5 -71.5q132 0 245 88l125 -181q-139 -129 -372 -129q-234 0 -338.5 127t-104.5 387v154q0 246 113.5 376t341.5 130z" />
    <glyph glyph-name="uni33AD" unicode="&#x33ad;" vert-adv-y="2263" 
d="M594 1085l-76 -213q-44 23 -98 23q-90 0 -135 -89.5t-45 -248.5v-610h-209v1136h198v-157q31 80 91.5 129t140.5 49q75 0 133 -19zM772 -70q-109 0 -162 79.5t-53 219.5v103q0 142 73.5 220.5t207.5 78.5h90v117q0 82 -22.5 111.5t-71.5 29.5q-41 0 -81.5 -20.5
t-70.5 -51.5l-125 156q64 72 133.5 101.5t169.5 29.5q147 0 211 -84.5t64 -251.5v-821h-197v51q-52 -68 -166 -68zM928 295v145h-35q-68 0 -95.5 -28.5t-27.5 -89.5v-86q0 -107 68 -107q50 0 70 40t20 126zM1655 1018v471h176v-1575h-225v100q-20 -33 -67.5 -58.5
t-102.5 -25.5q-66 0 -113 19t-77 54t-47.5 94t-24.5 129.5t-7 170.5v238q0 253 63 361t220 108q159 0 205 -86zM1376 621v-205q0 -146 29.5 -207.5t93.5 -61.5q123 0 123 248v283q0 93 -30 152t-95 59q-121 0 -121 -268z" />
    <glyph glyph-name="uni33AE" unicode="&#x33ae;" horiz-adv-x="1873" vert-adv-y="2263" 
d="M395 1085l-6 -20q56 39 131 39t113.5 -67t38.5 -195v-891h-140v55q-9 -33 -38 -54.5t-62 -21.5q-46 0 -78.5 27t-49 74t-23.5 96t-7 106v103q0 137 59 214t148 77h25v137q0 89 -7.5 119t-31.5 30q-14 0 -38 -19t-48 -52l-31 53l-6 -31q-23 23 -59 23q-88 0 -88 -336v-604
h-172v1136h143v-161q33 182 147 182q44 0 80 -19zM983 1004v485h158v-1571h-154v113q-17 -42 -45 -71.5t-63 -29.5q-187 0 -187 486v235q0 78 3 137t14 121.5t29 102.5t50.5 66t77.5 26q105 0 117 -100zM1597 115q41 0 66 34.5t25 96.5v18q0 73 -93 170
q-98 101 -122.5 155.5t-24.5 174.5v24q0 59 13.5 114t39.5 101.5t70 74.5t100 28q63 0 108.5 -22t94.5 -78l-88 -136q-43 54 -90 54q-88 0 -88 -138v-16q0 -44 16.5 -74.5t58.5 -77.5q108 -119 139 -180.5t31 -167.5v-34q0 -136 -59.5 -221t-187.5 -85q-146 0 -226 107
l109 133q45 -55 108 -55zM1411 1554h113l-283 -1810h-111zM831 647v-219q0 -112 11.5 -184.5t27.5 -99.5t37 -27q32 0 46 77.5t14 241.5v266q0 216 -49 216q-87 0 -87 -271zM506 281v168h-6q-70 0 -70 -115v-96q0 -75 10 -102t33 -27q20 0 26.5 43.5t6.5 128.5z" />
    <glyph glyph-name="uni33AF" unicode="&#x33af;" horiz-adv-x="1873" vert-adv-y="2263" 
d="M395 1085l-6 -20q56 39 131 39t113.5 -67t38.5 -195v-891h-140v55q-9 -33 -38 -54.5t-62 -21.5q-46 0 -78.5 27t-49 74t-23.5 96t-7 106v103q0 137 59 214t148 77h25v137q0 89 -7.5 119t-31.5 30q-14 0 -38 -19t-48 -52l-31 53l-6 -31q-23 23 -59 23q-88 0 -88 -336v-604
h-172v1136h143v-161q33 182 147 182q44 0 80 -19zM983 1004v485h158v-1571h-154v113q-17 -42 -45 -71.5t-63 -29.5q-187 0 -187 486v235q0 78 3 137t14 121.5t29 102.5t50.5 66t77.5 26q105 0 117 -100zM1511 1262l109 127q51 63 51 86v4q0 22 -35 22q-36 0 -65 -33l-53 52
l-277 -1776h-111l281 1810h76q65 82 170 82q92 0 134 -41t42 -88v-8q0 -36 -17 -69.5t-59 -81.5l-65 -74h153v-121h-334v109zM1597 115q41 0 66 34.5t25 96.5v18q0 73 -93 170q-98 101 -122.5 155.5t-24.5 174.5v24q0 59 13.5 114t39.5 101.5t70 74.5t100 28q63 0 108.5 -22
t94.5 -78l-88 -136q-43 54 -90 54q-88 0 -88 -138v-16q0 -44 16.5 -74.5t58.5 -77.5q108 -119 139 -180.5t31 -167.5v-34q0 -136 -59.5 -221t-187.5 -85q-146 0 -226 107l109 133q45 -55 108 -55zM831 647v-219q0 -112 11.5 -184.5t27.5 -99.5t37 -27q32 0 46 77.5t14 241.5
v266q0 216 -49 216q-87 0 -87 -271zM506 281v168h-6q-70 0 -70 -115v-96q0 -75 10 -102t33 -27q20 0 26.5 43.5t6.5 128.5z" />
    <glyph glyph-name="uni33DB" unicode="&#x33db;" vert-adv-y="2263" 
d="M1716 1069l-78 -238q-76 37 -139 37q-89 0 -122.5 -72t-33.5 -233v-616h-262v1136h252v-149q68 170 209 170q99 0 174 -35zM604 145q68 0 102.5 29.5t34.5 83.5v21q0 53 -34 83.5t-140 61.5q-178 53 -249.5 124.5t-71.5 213.5v29q0 141 94.5 227t275.5 86
q122 0 199.5 -21.5t147.5 -72.5l-105 -170q-95 57 -221 57q-66 0 -99.5 -32t-33.5 -79v-20q0 -52 26.5 -78t114.5 -51q113 -33 181 -64t107 -73.5t52.5 -91t13.5 -123.5v-31q0 -151 -101 -237.5t-288 -86.5q-122 0 -225.5 34t-171.5 93l117 191q60 -43 141.5 -73t132.5 -30z
" />
    <glyph glyph-name="uni33A9" unicode="&#x33a9;" vert-adv-y="2263" 
d="M1300 -70q-165 0 -238 87t-73 253v45q0 75 18.5 130.5t60.5 98.5t116 65t180 22h113v88q0 89 -26.5 126.5t-88.5 37.5q-93 0 -207 -99l-123 185v-11q0 -96 -29.5 -175.5t-87.5 -140t-152 -94.5t-216 -34h-98v-567h-254v1476h352q128 0 223 -31t151.5 -88.5t83.5 -132.5
t27 -170v-26q152 129 332 129q195 0 275.5 -99.5t80.5 -289.5v-768h-241v49q-58 -66 -179 -66zM547 1208h-98v-479h79q137 0 194.5 56.5t57.5 177.5v36q0 107 -53 158t-180 51zM1477 315v125h-111q-73 0 -101 -30.5t-28 -100.5v-33q0 -78 20 -112.5t62 -34.5q73 0 115.5 50
t42.5 136z" />
    <glyph glyph-name="uni33AA" unicode="&#x33aa;" horiz-adv-x="1880" vert-adv-y="2263" 
d="M655 -53v1476h275q95 0 163 -20.5t109.5 -55t65.5 -90t32.5 -115t8.5 -141.5v-43q0 -203 -95.5 -323.5t-283.5 -120.5h-37v-567h-238zM1509 -70q-68 0 -115 25.5t-72 74t-35.5 106.5t-10.5 134v45q0 154 69.5 235t239.5 81h66v76q0 103 -19 140.5t-80 37.5
q-54 0 -102 -51l-131 155q61 59 127 87t164 28q270 0 270 -356v-801h-231v55q-18 -29 -54.5 -50.5t-85.5 -21.5zM655 1083l-209 -417l205 -719h-211l-127 473l-39 -80v-393h-221v1476h219v-753l170 413h213zM930 1208h-37v-479h29q80 0 115.5 56.5t35.5 177.5v36
q0 116 -35 162.5t-108 46.5zM1651 295v145h-64q-32 0 -51.5 -35.5t-19.5 -95.5v-33q0 -147 57 -147q44 0 61 39t17 127z" />
    <glyph glyph-name="uni33AB" unicode="&#x33ab;" vert-adv-y="2263" 
d="M795 -53v1476h266q85 0 143.5 -25.5t91 -77t47 -115t17.5 -152.5q82 51 223 51q63 0 110.5 -19t76 -50t46 -76t23.5 -90.5t6 -100.5v-821h-200v53q-27 -34 -63 -52t-105 -18q-57 0 -102 27t-70.5 71.5t-38.5 95.5t-13 105v103q0 141 77 220t212 79h92v117q0 84 -21 110.5
t-67 26.5q-85 0 -151 -72l-37 45q-13 -166 -78 -255t-211 -89h-57v-567h-217zM307 193l-90 749q-4 38 -27 332v-1327h-174v1476h320l63 -942l43 942h318v-1476h-174v1327q-4 -58 -7.5 -169t-7.5 -155l-67 -757h-197zM1057 1208h-45v-479h26q59 0 84 59.5t25 182.5v20
q0 217 -90 217zM1634 295v145h-37q-66 0 -96.5 -27t-30.5 -87v-84q0 -64 16.5 -88.5t51.5 -24.5q51 0 73.5 41t22.5 125z" />
    <glyph glyph-name="uni33AC" unicode="&#x33ac;" vert-adv-y="2263" 
d="M766 -53v1476h287q86 0 145 -26t91 -78t46.5 -116t16.5 -154q84 55 231 55q63 0 110.5 -19t76 -50t46 -76t23.5 -90.5t6 -100.5v-821h-200v53q-27 -34 -63 -52t-105 -18q-57 0 -102 27t-70.5 71.5t-38.5 95.5t-13 105v103q0 141 77 220t212 79h92v117q0 84 -21 110.5
t-67 26.5q-85 0 -151 -72l-45 55q-10 -170 -75.5 -262t-213.5 -92h-78v-567h-217zM432 1446q105 0 171 -29t132 -98l-143 -152q-69 72 -148 72q-63 0 -103.5 -43t-64.5 -153.5t-24 -292.5v-168q0 -111 7.5 -190.5t25.5 -139.5t50 -89.5t79 -29.5q53 0 82 23v393h-138v217
h361v-731q-106 -111 -297 -111q-91 0 -160.5 30.5t-123 97.5t-81.5 183t-28 277v305q0 316 99 472.5t304 156.5zM1049 1208h-66v-479h47q59 0 84 59.5t25 182.5v20q0 217 -90 217zM1634 295v145h-37q-66 0 -96.5 -27t-30.5 -87v-84q0 -64 16.5 -88.5t51.5 -24.5
q51 0 73.5 41t22.5 125z" />
    </font>
</defs>
</svg>
